ISO-10303-21;
HEADER;
/* Generated by software containing ST-Developer
 * from STEP Tools, Inc. (www.steptools.com) 
 */

FILE_DESCRIPTION(
/* description */ (''),
/* implementation_level */ '2;1');

FILE_NAME(
/* name */ 'HallEffect_carrier_Lower_v1.step',
/* time_stamp */ '2026-05-27T12:48:38+02:00',
/* author */ (''),
/* organization */ (''),
/* preprocessor_version */ 'ST-DEVELOPER v20.1',
/* originating_system */ 'Autodesk Translation Framework v15.8.0.0',
/* authorisation */ '');

FILE_SCHEMA (('AUTOMOTIVE_DESIGN { 1 0 10303 214 3 1 1 }'));
ENDSEC;

DATA;
#10=MECHANICAL_DESIGN_GEOMETRIC_PRESENTATION_REPRESENTATION('',(#13),#775);
#11=SHAPE_REPRESENTATION_RELATIONSHIP('SRR','None',#782,#12);
#12=ADVANCED_BREP_SHAPE_REPRESENTATION('',(#14),#774);
#13=STYLED_ITEM('',(#791),#14);
#14=MANIFOLD_SOLID_BREP('Body1',#480);
#15=FACE_BOUND('',#64,.T.);
#16=FACE_BOUND('',#67,.T.);
#17=CYLINDRICAL_SURFACE('',#509,1.666);
#18=CIRCLE('',#507,2.5);
#19=CIRCLE('',#508,1.666);
#20=CIRCLE('',#510,1.666);
#21=CONICAL_SURFACE('',#506,2.083,0.785398163397448);
#22=FACE_OUTER_BOUND('',#46,.T.);
#23=FACE_OUTER_BOUND('',#47,.T.);
#24=FACE_OUTER_BOUND('',#48,.T.);
#25=FACE_OUTER_BOUND('',#49,.T.);
#26=FACE_OUTER_BOUND('',#50,.T.);
#27=FACE_OUTER_BOUND('',#51,.T.);
#28=FACE_OUTER_BOUND('',#52,.T.);
#29=FACE_OUTER_BOUND('',#53,.T.);
#30=FACE_OUTER_BOUND('',#54,.T.);
#31=FACE_OUTER_BOUND('',#55,.T.);
#32=FACE_OUTER_BOUND('',#56,.T.);
#33=FACE_OUTER_BOUND('',#57,.T.);
#34=FACE_OUTER_BOUND('',#58,.T.);
#35=FACE_OUTER_BOUND('',#59,.T.);
#36=FACE_OUTER_BOUND('',#60,.T.);
#37=FACE_OUTER_BOUND('',#61,.T.);
#38=FACE_OUTER_BOUND('',#62,.T.);
#39=FACE_OUTER_BOUND('',#63,.T.);
#40=FACE_OUTER_BOUND('',#65,.T.);
#41=FACE_OUTER_BOUND('',#66,.T.);
#42=FACE_OUTER_BOUND('',#68,.T.);
#43=FACE_OUTER_BOUND('',#69,.T.);
#44=FACE_OUTER_BOUND('',#70,.T.);
#45=FACE_OUTER_BOUND('',#71,.T.);
#46=EDGE_LOOP('',(#304,#305,#306,#307));
#47=EDGE_LOOP('',(#308,#309,#310,#311));
#48=EDGE_LOOP('',(#312,#313,#314,#315));
#49=EDGE_LOOP('',(#316,#317,#318,#319));
#50=EDGE_LOOP('',(#320,#321,#322,#323));
#51=EDGE_LOOP('',(#324,#325,#326,#327));
#52=EDGE_LOOP('',(#328,#329,#330,#331));
#53=EDGE_LOOP('',(#332,#333,#334,#335,#336,#337));
#54=EDGE_LOOP('',(#338,#339,#340,#341,#342,#343));
#55=EDGE_LOOP('',(#344,#345,#346,#347,#348,#349));
#56=EDGE_LOOP('',(#350,#351,#352,#353));
#57=EDGE_LOOP('',(#354,#355,#356,#357,#358,#359));
#58=EDGE_LOOP('',(#360,#361,#362,#363));
#59=EDGE_LOOP('',(#364,#365,#366,#367));
#60=EDGE_LOOP('',(#368,#369,#370,#371));
#61=EDGE_LOOP('',(#372,#373,#374,#375));
#62=EDGE_LOOP('',(#376,#377,#378,#379));
#63=EDGE_LOOP('',(#380,#381,#382,#383));
#64=EDGE_LOOP('',(#384));
#65=EDGE_LOOP('',(#385,#386,#387,#388));
#66=EDGE_LOOP('',(#389,#390,#391,#392));
#67=EDGE_LOOP('',(#393));
#68=EDGE_LOOP('',(#394,#395,#396,#397,#398,#399,#400,#401,#402,#403,#404,
#405));
#69=EDGE_LOOP('',(#406,#407,#408,#409));
#70=EDGE_LOOP('',(#410,#411,#412,#413,#414,#415,#416,#417,#418,#419,#420,
#421));
#71=EDGE_LOOP('',(#422,#423,#424,#425,#426,#427,#428,#429,#430,#431,#432,
#433));
#72=LINE('',#643,#134);
#73=LINE('',#645,#135);
#74=LINE('',#647,#136);
#75=LINE('',#648,#137);
#76=LINE('',#651,#138);
#77=LINE('',#653,#139);
#78=LINE('',#654,#140);
#79=LINE('',#658,#141);
#80=LINE('',#659,#142);
#81=LINE('',#660,#143);
#82=LINE('',#664,#144);
#83=LINE('',#666,#145);
#84=LINE('',#668,#146);
#85=LINE('',#669,#147);
#86=LINE('',#672,#148);
#87=LINE('',#674,#149);
#88=LINE('',#675,#150);
#89=LINE('',#679,#151);
#90=LINE('',#680,#152);
#91=LINE('',#681,#153);
#92=LINE('',#685,#154);
#93=LINE('',#686,#155);
#94=LINE('',#687,#156);
#95=LINE('',#690,#157);
#96=LINE('',#691,#158);
#97=LINE('',#694,#159);
#98=LINE('',#695,#160);
#99=LINE('',#699,#161);
#100=LINE('',#700,#162);
#101=LINE('',#701,#163);
#102=LINE('',#704,#164);
#103=LINE('',#705,#165);
#104=LINE('',#708,#166);
#105=LINE('',#709,#167);
#106=LINE('',#714,#168);
#107=LINE('',#718,#169);
#108=LINE('',#723,#170);
#109=LINE('',#725,#171);
#110=LINE('',#727,#172);
#111=LINE('',#728,#173);
#112=LINE('',#731,#174);
#113=LINE('',#733,#175);
#114=LINE('',#734,#176);
#115=LINE('',#737,#177);
#116=LINE('',#739,#178);
#117=LINE('',#740,#179);
#118=LINE('',#743,#180);
#119=LINE('',#745,#181);
#120=LINE('',#746,#182);
#121=LINE('',#749,#183);
#122=LINE('',#751,#184);
#123=LINE('',#752,#185);
#124=LINE('',#755,#186);
#125=LINE('',#757,#187);
#126=LINE('',#758,#188);
#127=LINE('',#760,#189);
#128=LINE('',#761,#190);
#129=LINE('',#763,#191);
#130=LINE('',#765,#192);
#131=LINE('',#766,#193);
#132=LINE('',#768,#194);
#133=LINE('',#769,#195);
#134=VECTOR('',#525,10.);
#135=VECTOR('',#526,10.);
#136=VECTOR('',#527,10.);
#137=VECTOR('',#528,10.);
#138=VECTOR('',#531,10.);
#139=VECTOR('',#532,10.);
#140=VECTOR('',#533,10.);
#141=VECTOR('',#536,10.);
#142=VECTOR('',#537,10.);
#143=VECTOR('',#538,10.);
#144=VECTOR('',#541,10.);
#145=VECTOR('',#542,10.);
#146=VECTOR('',#543,10.);
#147=VECTOR('',#544,10.);
#148=VECTOR('',#547,10.);
#149=VECTOR('',#548,10.);
#150=VECTOR('',#549,10.);
#151=VECTOR('',#552,10.);
#152=VECTOR('',#553,10.);
#153=VECTOR('',#554,10.);
#154=VECTOR('',#557,10.);
#155=VECTOR('',#558,10.);
#156=VECTOR('',#559,10.);
#157=VECTOR('',#562,10.);
#158=VECTOR('',#563,10.);
#159=VECTOR('',#566,10.);
#160=VECTOR('',#567,10.);
#161=VECTOR('',#570,10.);
#162=VECTOR('',#571,10.);
#163=VECTOR('',#572,10.);
#164=VECTOR('',#575,10.);
#165=VECTOR('',#576,10.);
#166=VECTOR('',#579,10.);
#167=VECTOR('',#580,10.);
#168=VECTOR('',#585,2.083);
#169=VECTOR('',#590,1.666);
#170=VECTOR('',#595,10.);
#171=VECTOR('',#596,10.);
#172=VECTOR('',#597,10.);
#173=VECTOR('',#598,10.);
#174=VECTOR('',#601,10.);
#175=VECTOR('',#602,10.);
#176=VECTOR('',#603,10.);
#177=VECTOR('',#606,10.);
#178=VECTOR('',#607,10.);
#179=VECTOR('',#608,10.);
#180=VECTOR('',#611,10.);
#181=VECTOR('',#612,10.);
#182=VECTOR('',#613,10.);
#183=VECTOR('',#616,10.);
#184=VECTOR('',#617,10.);
#185=VECTOR('',#618,10.);
#186=VECTOR('',#621,10.);
#187=VECTOR('',#622,10.);
#188=VECTOR('',#623,10.);
#189=VECTOR('',#626,10.);
#190=VECTOR('',#627,10.);
#191=VECTOR('',#628,10.);
#192=VECTOR('',#629,10.);
#193=VECTOR('',#630,10.);
#194=VECTOR('',#633,10.);
#195=VECTOR('',#634,10.);
#196=VERTEX_POINT('',#641);
#197=VERTEX_POINT('',#642);
#198=VERTEX_POINT('',#644);
#199=VERTEX_POINT('',#646);
#200=VERTEX_POINT('',#650);
#201=VERTEX_POINT('',#652);
#202=VERTEX_POINT('',#656);
#203=VERTEX_POINT('',#657);
#204=VERTEX_POINT('',#662);
#205=VERTEX_POINT('',#663);
#206=VERTEX_POINT('',#665);
#207=VERTEX_POINT('',#667);
#208=VERTEX_POINT('',#671);
#209=VERTEX_POINT('',#673);
#210=VERTEX_POINT('',#677);
#211=VERTEX_POINT('',#678);
#212=VERTEX_POINT('',#683);
#213=VERTEX_POINT('',#684);
#214=VERTEX_POINT('',#689);
#215=VERTEX_POINT('',#693);
#216=VERTEX_POINT('',#697);
#217=VERTEX_POINT('',#698);
#218=VERTEX_POINT('',#703);
#219=VERTEX_POINT('',#707);
#220=VERTEX_POINT('',#711);
#221=VERTEX_POINT('',#713);
#222=VERTEX_POINT('',#717);
#223=VERTEX_POINT('',#721);
#224=VERTEX_POINT('',#722);
#225=VERTEX_POINT('',#724);
#226=VERTEX_POINT('',#726);
#227=VERTEX_POINT('',#730);
#228=VERTEX_POINT('',#732);
#229=VERTEX_POINT('',#736);
#230=VERTEX_POINT('',#738);
#231=VERTEX_POINT('',#742);
#232=VERTEX_POINT('',#744);
#233=VERTEX_POINT('',#748);
#234=VERTEX_POINT('',#750);
#235=VERTEX_POINT('',#754);
#236=VERTEX_POINT('',#756);
#237=VERTEX_POINT('',#762);
#238=VERTEX_POINT('',#764);
#239=EDGE_CURVE('',#196,#197,#72,.T.);
#240=EDGE_CURVE('',#197,#198,#73,.T.);
#241=EDGE_CURVE('',#199,#198,#74,.T.);
#242=EDGE_CURVE('',#196,#199,#75,.T.);
#243=EDGE_CURVE('',#198,#200,#76,.T.);
#244=EDGE_CURVE('',#200,#201,#77,.T.);
#245=EDGE_CURVE('',#201,#199,#78,.T.);
#246=EDGE_CURVE('',#202,#203,#79,.T.);
#247=EDGE_CURVE('',#197,#203,#80,.T.);
#248=EDGE_CURVE('',#202,#196,#81,.T.);
#249=EDGE_CURVE('',#204,#205,#82,.T.);
#250=EDGE_CURVE('',#205,#206,#83,.T.);
#251=EDGE_CURVE('',#207,#206,#84,.T.);
#252=EDGE_CURVE('',#204,#207,#85,.T.);
#253=EDGE_CURVE('',#206,#208,#86,.T.);
#254=EDGE_CURVE('',#208,#209,#87,.T.);
#255=EDGE_CURVE('',#209,#207,#88,.T.);
#256=EDGE_CURVE('',#210,#211,#89,.T.);
#257=EDGE_CURVE('',#205,#211,#90,.T.);
#258=EDGE_CURVE('',#210,#204,#91,.T.);
#259=EDGE_CURVE('',#212,#213,#92,.T.);
#260=EDGE_CURVE('',#212,#203,#93,.T.);
#261=EDGE_CURVE('',#213,#202,#94,.T.);
#262=EDGE_CURVE('',#213,#214,#95,.T.);
#263=EDGE_CURVE('',#214,#201,#96,.T.);
#264=EDGE_CURVE('',#215,#212,#97,.T.);
#265=EDGE_CURVE('',#215,#200,#98,.T.);
#266=EDGE_CURVE('',#216,#217,#99,.T.);
#267=EDGE_CURVE('',#216,#208,#100,.T.);
#268=EDGE_CURVE('',#217,#211,#101,.T.);
#269=EDGE_CURVE('',#217,#218,#102,.T.);
#270=EDGE_CURVE('',#218,#210,#103,.T.);
#271=EDGE_CURVE('',#218,#219,#104,.T.);
#272=EDGE_CURVE('',#219,#209,#105,.T.);
#273=EDGE_CURVE('',#220,#220,#18,.T.);
#274=EDGE_CURVE('',#220,#221,#106,.T.);
#275=EDGE_CURVE('',#221,#221,#19,.T.);
#276=EDGE_CURVE('',#221,#222,#107,.T.);
#277=EDGE_CURVE('',#222,#222,#20,.T.);
#278=EDGE_CURVE('',#223,#224,#108,.T.);
#279=EDGE_CURVE('',#223,#225,#109,.T.);
#280=EDGE_CURVE('',#226,#225,#110,.T.);
#281=EDGE_CURVE('',#224,#226,#111,.T.);
#282=EDGE_CURVE('',#224,#227,#112,.T.);
#283=EDGE_CURVE('',#228,#226,#113,.T.);
#284=EDGE_CURVE('',#227,#228,#114,.T.);
#285=EDGE_CURVE('',#227,#229,#115,.T.);
#286=EDGE_CURVE('',#230,#228,#116,.T.);
#287=EDGE_CURVE('',#229,#230,#117,.T.);
#288=EDGE_CURVE('',#229,#231,#118,.T.);
#289=EDGE_CURVE('',#232,#230,#119,.T.);
#290=EDGE_CURVE('',#231,#232,#120,.T.);
#291=EDGE_CURVE('',#231,#233,#121,.T.);
#292=EDGE_CURVE('',#234,#232,#122,.T.);
#293=EDGE_CURVE('',#233,#234,#123,.T.);
#294=EDGE_CURVE('',#233,#235,#124,.T.);
#295=EDGE_CURVE('',#236,#234,#125,.T.);
#296=EDGE_CURVE('',#235,#236,#126,.T.);
#297=EDGE_CURVE('',#214,#235,#127,.T.);
#298=EDGE_CURVE('',#216,#236,#128,.T.);
#299=EDGE_CURVE('',#237,#219,#129,.T.);
#300=EDGE_CURVE('',#238,#237,#130,.T.);
#301=EDGE_CURVE('',#238,#215,#131,.T.);
#302=EDGE_CURVE('',#238,#223,#132,.T.);
#303=EDGE_CURVE('',#225,#237,#133,.T.);
#304=ORIENTED_EDGE('',*,*,#239,.T.);
#305=ORIENTED_EDGE('',*,*,#240,.T.);
#306=ORIENTED_EDGE('',*,*,#241,.F.);
#307=ORIENTED_EDGE('',*,*,#242,.F.);
#308=ORIENTED_EDGE('',*,*,#243,.T.);
#309=ORIENTED_EDGE('',*,*,#244,.T.);
#310=ORIENTED_EDGE('',*,*,#245,.T.);
#311=ORIENTED_EDGE('',*,*,#241,.T.);
#312=ORIENTED_EDGE('',*,*,#246,.T.);
#313=ORIENTED_EDGE('',*,*,#247,.F.);
#314=ORIENTED_EDGE('',*,*,#239,.F.);
#315=ORIENTED_EDGE('',*,*,#248,.F.);
#316=ORIENTED_EDGE('',*,*,#249,.T.);
#317=ORIENTED_EDGE('',*,*,#250,.T.);
#318=ORIENTED_EDGE('',*,*,#251,.F.);
#319=ORIENTED_EDGE('',*,*,#252,.F.);
#320=ORIENTED_EDGE('',*,*,#253,.T.);
#321=ORIENTED_EDGE('',*,*,#254,.T.);
#322=ORIENTED_EDGE('',*,*,#255,.T.);
#323=ORIENTED_EDGE('',*,*,#251,.T.);
#324=ORIENTED_EDGE('',*,*,#256,.T.);
#325=ORIENTED_EDGE('',*,*,#257,.F.);
#326=ORIENTED_EDGE('',*,*,#249,.F.);
#327=ORIENTED_EDGE('',*,*,#258,.F.);
#328=ORIENTED_EDGE('',*,*,#259,.F.);
#329=ORIENTED_EDGE('',*,*,#260,.T.);
#330=ORIENTED_EDGE('',*,*,#246,.F.);
#331=ORIENTED_EDGE('',*,*,#261,.F.);
#332=ORIENTED_EDGE('',*,*,#262,.F.);
#333=ORIENTED_EDGE('',*,*,#261,.T.);
#334=ORIENTED_EDGE('',*,*,#248,.T.);
#335=ORIENTED_EDGE('',*,*,#242,.T.);
#336=ORIENTED_EDGE('',*,*,#245,.F.);
#337=ORIENTED_EDGE('',*,*,#263,.F.);
#338=ORIENTED_EDGE('',*,*,#264,.F.);
#339=ORIENTED_EDGE('',*,*,#265,.T.);
#340=ORIENTED_EDGE('',*,*,#243,.F.);
#341=ORIENTED_EDGE('',*,*,#240,.F.);
#342=ORIENTED_EDGE('',*,*,#247,.T.);
#343=ORIENTED_EDGE('',*,*,#260,.F.);
#344=ORIENTED_EDGE('',*,*,#266,.F.);
#345=ORIENTED_EDGE('',*,*,#267,.T.);
#346=ORIENTED_EDGE('',*,*,#253,.F.);
#347=ORIENTED_EDGE('',*,*,#250,.F.);
#348=ORIENTED_EDGE('',*,*,#257,.T.);
#349=ORIENTED_EDGE('',*,*,#268,.F.);
#350=ORIENTED_EDGE('',*,*,#269,.F.);
#351=ORIENTED_EDGE('',*,*,#268,.T.);
#352=ORIENTED_EDGE('',*,*,#256,.F.);
#353=ORIENTED_EDGE('',*,*,#270,.F.);
#354=ORIENTED_EDGE('',*,*,#271,.F.);
#355=ORIENTED_EDGE('',*,*,#270,.T.);
#356=ORIENTED_EDGE('',*,*,#258,.T.);
#357=ORIENTED_EDGE('',*,*,#252,.T.);
#358=ORIENTED_EDGE('',*,*,#255,.F.);
#359=ORIENTED_EDGE('',*,*,#272,.F.);
#360=ORIENTED_EDGE('',*,*,#273,.F.);
#361=ORIENTED_EDGE('',*,*,#274,.T.);
#362=ORIENTED_EDGE('',*,*,#275,.T.);
#363=ORIENTED_EDGE('',*,*,#274,.F.);
#364=ORIENTED_EDGE('',*,*,#275,.F.);
#365=ORIENTED_EDGE('',*,*,#276,.T.);
#366=ORIENTED_EDGE('',*,*,#277,.F.);
#367=ORIENTED_EDGE('',*,*,#276,.F.);
#368=ORIENTED_EDGE('',*,*,#278,.F.);
#369=ORIENTED_EDGE('',*,*,#279,.T.);
#370=ORIENTED_EDGE('',*,*,#280,.F.);
#371=ORIENTED_EDGE('',*,*,#281,.F.);
#372=ORIENTED_EDGE('',*,*,#282,.F.);
#373=ORIENTED_EDGE('',*,*,#281,.T.);
#374=ORIENTED_EDGE('',*,*,#283,.F.);
#375=ORIENTED_EDGE('',*,*,#284,.F.);
#376=ORIENTED_EDGE('',*,*,#285,.F.);
#377=ORIENTED_EDGE('',*,*,#284,.T.);
#378=ORIENTED_EDGE('',*,*,#286,.F.);
#379=ORIENTED_EDGE('',*,*,#287,.F.);
#380=ORIENTED_EDGE('',*,*,#288,.F.);
#381=ORIENTED_EDGE('',*,*,#287,.T.);
#382=ORIENTED_EDGE('',*,*,#289,.F.);
#383=ORIENTED_EDGE('',*,*,#290,.F.);
#384=ORIENTED_EDGE('',*,*,#277,.T.);
#385=ORIENTED_EDGE('',*,*,#291,.F.);
#386=ORIENTED_EDGE('',*,*,#290,.T.);
#387=ORIENTED_EDGE('',*,*,#292,.F.);
#388=ORIENTED_EDGE('',*,*,#293,.F.);
#389=ORIENTED_EDGE('',*,*,#294,.F.);
#390=ORIENTED_EDGE('',*,*,#293,.T.);
#391=ORIENTED_EDGE('',*,*,#295,.F.);
#392=ORIENTED_EDGE('',*,*,#296,.F.);
#393=ORIENTED_EDGE('',*,*,#273,.T.);
#394=ORIENTED_EDGE('',*,*,#262,.T.);
#395=ORIENTED_EDGE('',*,*,#297,.T.);
#396=ORIENTED_EDGE('',*,*,#296,.T.);
#397=ORIENTED_EDGE('',*,*,#298,.F.);
#398=ORIENTED_EDGE('',*,*,#266,.T.);
#399=ORIENTED_EDGE('',*,*,#269,.T.);
#400=ORIENTED_EDGE('',*,*,#271,.T.);
#401=ORIENTED_EDGE('',*,*,#299,.F.);
#402=ORIENTED_EDGE('',*,*,#300,.F.);
#403=ORIENTED_EDGE('',*,*,#301,.T.);
#404=ORIENTED_EDGE('',*,*,#264,.T.);
#405=ORIENTED_EDGE('',*,*,#259,.T.);
#406=ORIENTED_EDGE('',*,*,#302,.F.);
#407=ORIENTED_EDGE('',*,*,#300,.T.);
#408=ORIENTED_EDGE('',*,*,#303,.F.);
#409=ORIENTED_EDGE('',*,*,#279,.F.);
#410=ORIENTED_EDGE('',*,*,#303,.T.);
#411=ORIENTED_EDGE('',*,*,#299,.T.);
#412=ORIENTED_EDGE('',*,*,#272,.T.);
#413=ORIENTED_EDGE('',*,*,#254,.F.);
#414=ORIENTED_EDGE('',*,*,#267,.F.);
#415=ORIENTED_EDGE('',*,*,#298,.T.);
#416=ORIENTED_EDGE('',*,*,#295,.T.);
#417=ORIENTED_EDGE('',*,*,#292,.T.);
#418=ORIENTED_EDGE('',*,*,#289,.T.);
#419=ORIENTED_EDGE('',*,*,#286,.T.);
#420=ORIENTED_EDGE('',*,*,#283,.T.);
#421=ORIENTED_EDGE('',*,*,#280,.T.);
#422=ORIENTED_EDGE('',*,*,#302,.T.);
#423=ORIENTED_EDGE('',*,*,#278,.T.);
#424=ORIENTED_EDGE('',*,*,#282,.T.);
#425=ORIENTED_EDGE('',*,*,#285,.T.);
#426=ORIENTED_EDGE('',*,*,#288,.T.);
#427=ORIENTED_EDGE('',*,*,#291,.T.);
#428=ORIENTED_EDGE('',*,*,#294,.T.);
#429=ORIENTED_EDGE('',*,*,#297,.F.);
#430=ORIENTED_EDGE('',*,*,#263,.T.);
#431=ORIENTED_EDGE('',*,*,#244,.F.);
#432=ORIENTED_EDGE('',*,*,#265,.F.);
#433=ORIENTED_EDGE('',*,*,#301,.F.);
#434=PLANE('',#494);
#435=PLANE('',#495);
#436=PLANE('',#496);
#437=PLANE('',#497);
#438=PLANE('',#498);
#439=PLANE('',#499);
#440=PLANE('',#500);
#441=PLANE('',#501);
#442=PLANE('',#502);
#443=PLANE('',#503);
#444=PLANE('',#504);
#445=PLANE('',#505);
#446=PLANE('',#511);
#447=PLANE('',#512);
#448=PLANE('',#513);
#449=PLANE('',#514);
#450=PLANE('',#515);
#451=PLANE('',#516);
#452=PLANE('',#517);
#453=PLANE('',#518);
#454=PLANE('',#519);
#455=PLANE('',#520);
#456=ADVANCED_FACE('',(#22),#434,.T.);
#457=ADVANCED_FACE('',(#23),#435,.T.);
#458=ADVANCED_FACE('',(#24),#436,.F.);
#459=ADVANCED_FACE('',(#25),#437,.T.);
#460=ADVANCED_FACE('',(#26),#438,.T.);
#461=ADVANCED_FACE('',(#27),#439,.F.);
#462=ADVANCED_FACE('',(#28),#440,.T.);
#463=ADVANCED_FACE('',(#29),#441,.T.);
#464=ADVANCED_FACE('',(#30),#442,.T.);
#465=ADVANCED_FACE('',(#31),#443,.T.);
#466=ADVANCED_FACE('',(#32),#444,.T.);
#467=ADVANCED_FACE('',(#33),#445,.T.);
#468=ADVANCED_FACE('',(#34),#21,.F.);
#469=ADVANCED_FACE('',(#35),#17,.F.);
#470=ADVANCED_FACE('',(#36),#446,.T.);
#471=ADVANCED_FACE('',(#37),#447,.T.);
#472=ADVANCED_FACE('',(#38),#448,.T.);
#473=ADVANCED_FACE('',(#39,#15),#449,.T.);
#474=ADVANCED_FACE('',(#40),#450,.T.);
#475=ADVANCED_FACE('',(#41,#16),#451,.T.);
#476=ADVANCED_FACE('',(#42),#452,.T.);
#477=ADVANCED_FACE('',(#43),#453,.T.);
#478=ADVANCED_FACE('',(#44),#454,.T.);
#479=ADVANCED_FACE('',(#45),#455,.F.);
#480=CLOSED_SHELL('',(#456,#457,#458,#459,#460,#461,#462,#463,#464,#465,
#466,#467,#468,#469,#470,#471,#472,#473,#474,#475,#476,#477,#478,#479));
#481=DERIVED_UNIT_ELEMENT(#483,1.);
#482=DERIVED_UNIT_ELEMENT(#777,-3.);
#483=(
MASS_UNIT()
NAMED_UNIT(*)
SI_UNIT(.KILO.,.GRAM.)
);
#484=DERIVED_UNIT((#481,#482));
#485=MEASURE_REPRESENTATION_ITEM('density measure',
POSITIVE_RATIO_MEASURE(7850.),#484);
#486=PROPERTY_DEFINITION_REPRESENTATION(#491,#488);
#487=PROPERTY_DEFINITION_REPRESENTATION(#492,#489);
#488=REPRESENTATION('material name',(#490),#774);
#489=REPRESENTATION('density',(#485),#774);
#490=DESCRIPTIVE_REPRESENTATION_ITEM('Steel','Steel');
#491=PROPERTY_DEFINITION('material property','material name',#784);
#492=PROPERTY_DEFINITION('material property','density of part',#784);
#493=AXIS2_PLACEMENT_3D('',#639,#521,#522);
#494=AXIS2_PLACEMENT_3D('',#640,#523,#524);
#495=AXIS2_PLACEMENT_3D('',#649,#529,#530);
#496=AXIS2_PLACEMENT_3D('',#655,#534,#535);
#497=AXIS2_PLACEMENT_3D('',#661,#539,#540);
#498=AXIS2_PLACEMENT_3D('',#670,#545,#546);
#499=AXIS2_PLACEMENT_3D('',#676,#550,#551);
#500=AXIS2_PLACEMENT_3D('',#682,#555,#556);
#501=AXIS2_PLACEMENT_3D('',#688,#560,#561);
#502=AXIS2_PLACEMENT_3D('',#692,#564,#565);
#503=AXIS2_PLACEMENT_3D('',#696,#568,#569);
#504=AXIS2_PLACEMENT_3D('',#702,#573,#574);
#505=AXIS2_PLACEMENT_3D('',#706,#577,#578);
#506=AXIS2_PLACEMENT_3D('',#710,#581,#582);
#507=AXIS2_PLACEMENT_3D('',#712,#583,#584);
#508=AXIS2_PLACEMENT_3D('',#715,#586,#587);
#509=AXIS2_PLACEMENT_3D('',#716,#588,#589);
#510=AXIS2_PLACEMENT_3D('',#719,#591,#592);
#511=AXIS2_PLACEMENT_3D('',#720,#593,#594);
#512=AXIS2_PLACEMENT_3D('',#729,#599,#600);
#513=AXIS2_PLACEMENT_3D('',#735,#604,#605);
#514=AXIS2_PLACEMENT_3D('',#741,#609,#610);
#515=AXIS2_PLACEMENT_3D('',#747,#614,#615);
#516=AXIS2_PLACEMENT_3D('',#753,#619,#620);
#517=AXIS2_PLACEMENT_3D('',#759,#624,#625);
#518=AXIS2_PLACEMENT_3D('',#767,#631,#632);
#519=AXIS2_PLACEMENT_3D('',#770,#635,#636);
#520=AXIS2_PLACEMENT_3D('',#771,#637,#638);
#521=DIRECTION('axis',(0.,0.,1.));
#522=DIRECTION('refdir',(1.,0.,0.));
#523=DIRECTION('center_axis',(0.,0.,1.));
#524=DIRECTION('ref_axis',(-0.936329177569044,-0.351123441588393,0.));
#525=DIRECTION('',(-0.936329177569044,-0.351123441588393,0.));
#526=DIRECTION('',(0.351123441588393,-0.936329177569044,0.));
#527=DIRECTION('',(-0.936329177569044,-0.351123441588393,0.));
#528=DIRECTION('',(0.351123441588393,-0.936329177569044,0.));
#529=DIRECTION('center_axis',(0.351123441588393,-0.936329177569044,0.));
#530=DIRECTION('ref_axis',(0.,0.,-1.));
#531=DIRECTION('',(-2.91516545348689E-16,9.20915494807212E-15,-1.));
#532=DIRECTION('',(0.936329177569045,0.351123441588391,0.));
#533=DIRECTION('',(-2.03575449764909E-15,1.21278991349307E-15,1.));
#534=DIRECTION('center_axis',(0.351123441588393,-0.936329177569044,0.));
#535=DIRECTION('ref_axis',(0.936329177569044,0.351123441588393,0.));
#536=DIRECTION('',(-0.936329177569044,-0.351123441588393,0.));
#537=DIRECTION('',(-2.91516545348689E-16,9.20915494807212E-15,-1.));
#538=DIRECTION('',(-2.03575449764909E-15,1.21278991349307E-15,1.));
#539=DIRECTION('center_axis',(0.,0.,-1.));
#540=DIRECTION('ref_axis',(0.936329177569044,0.351123441588393,0.));
#541=DIRECTION('',(0.936329177569044,0.351123441588393,0.));
#542=DIRECTION('',(0.351123441588392,-0.936329177569044,0.));
#543=DIRECTION('',(0.936329177569044,0.351123441588393,0.));
#544=DIRECTION('',(0.351123441588392,-0.936329177569044,0.));
#545=DIRECTION('center_axis',(0.351123441588392,-0.936329177569044,0.));
#546=DIRECTION('ref_axis',(0.,0.,-1.));
#547=DIRECTION('',(2.12919484174688E-15,-5.677852911325E-15,1.));
#548=DIRECTION('',(-0.936329177569044,-0.351123441588392,0.));
#549=DIRECTION('',(-5.52982459872811E-16,1.47461989299416E-15,-1.));
#550=DIRECTION('center_axis',(0.351123441588393,-0.936329177569044,0.));
#551=DIRECTION('ref_axis',(0.936329177569044,0.351123441588393,0.));
#552=DIRECTION('',(0.936329177569044,0.351123441588393,0.));
#553=DIRECTION('',(2.12919484174688E-15,-5.677852911325E-15,1.));
#554=DIRECTION('',(-5.52982459872811E-16,1.47461989299416E-15,-1.));
#555=DIRECTION('center_axis',(0.,0.,1.));
#556=DIRECTION('ref_axis',(-0.936329177569044,-0.351123441588393,0.));
#557=DIRECTION('',(0.936329177569044,0.351123441588393,0.));
#558=DIRECTION('',(0.351123441588393,-0.936329177569044,0.));
#559=DIRECTION('',(0.351123441588393,-0.936329177569044,0.));
#560=DIRECTION('center_axis',(0.936329177569044,0.351123441588393,0.));
#561=DIRECTION('ref_axis',(0.,0.,1.));
#562=DIRECTION('',(0.,0.,-1.));
#563=DIRECTION('',(0.351123441588393,-0.936329177569044,0.));
#564=DIRECTION('center_axis',(-0.936329177569044,-0.351123441588393,0.));
#565=DIRECTION('ref_axis',(0.,0.,-1.));
#566=DIRECTION('',(0.,0.,1.));
#567=DIRECTION('',(0.351123441588393,-0.936329177569044,0.));
#568=DIRECTION('center_axis',(0.936329177569044,0.351123441588393,0.));
#569=DIRECTION('ref_axis',(0.,0.,1.));
#570=DIRECTION('',(0.,0.,-1.));
#571=DIRECTION('',(0.351123441588393,-0.936329177569044,0.));
#572=DIRECTION('',(0.351123441588393,-0.936329177569044,0.));
#573=DIRECTION('center_axis',(0.,0.,-1.));
#574=DIRECTION('ref_axis',(0.936329177569044,0.351123441588393,0.));
#575=DIRECTION('',(-0.936329177569044,-0.351123441588393,0.));
#576=DIRECTION('',(0.351123441588393,-0.936329177569044,0.));
#577=DIRECTION('center_axis',(-0.936329177569044,-0.351123441588393,0.));
#578=DIRECTION('ref_axis',(0.,0.,-1.));
#579=DIRECTION('',(0.,0.,1.));
#580=DIRECTION('',(0.351123441588393,-0.936329177569044,0.));
#581=DIRECTION('center_axis',(0.,-1.,0.));
#582=DIRECTION('ref_axis',(0.,0.,-1.));
#583=DIRECTION('center_axis',(0.,1.,0.));
#584=DIRECTION('ref_axis',(0.,0.,-1.));
#585=DIRECTION('',(-8.65956056235493E-17,0.707106781186548,-0.707106781186547));
#586=DIRECTION('center_axis',(0.,1.,0.));
#587=DIRECTION('ref_axis',(0.,0.,-1.));
#588=DIRECTION('center_axis',(0.,1.,0.));
#589=DIRECTION('ref_axis',(0.,0.,-1.));
#590=DIRECTION('',(0.,1.,0.));
#591=DIRECTION('center_axis',(0.,-1.,0.));
#592=DIRECTION('ref_axis',(0.,0.,-1.));
#593=DIRECTION('center_axis',(0.,-1.,0.));
#594=DIRECTION('ref_axis',(1.,0.,0.));
#595=DIRECTION('',(-1.,0.,0.));
#596=DIRECTION('',(0.,0.,1.));
#597=DIRECTION('',(1.,0.,0.));
#598=DIRECTION('',(0.,0.,1.));
#599=DIRECTION('center_axis',(-1.,0.,0.));
#600=DIRECTION('ref_axis',(0.,-1.,0.));
#601=DIRECTION('',(0.,1.,0.));
#602=DIRECTION('',(0.,-1.,0.));
#603=DIRECTION('',(0.,0.,1.));
#604=DIRECTION('center_axis',(-0.35112344158839,0.936329177569045,0.));
#605=DIRECTION('ref_axis',(-0.936329177569045,-0.35112344158839,0.));
#606=DIRECTION('',(0.936329177569045,0.35112344158839,0.));
#607=DIRECTION('',(-0.936329177569045,-0.35112344158839,0.));
#608=DIRECTION('',(0.,0.,1.));
#609=DIRECTION('center_axis',(0.,1.,0.));
#610=DIRECTION('ref_axis',(-1.,0.,0.));
#611=DIRECTION('',(1.,0.,0.));
#612=DIRECTION('',(-1.,0.,0.));
#613=DIRECTION('',(0.,0.,1.));
#614=DIRECTION('center_axis',(1.,0.,0.));
#615=DIRECTION('ref_axis',(0.,1.,0.));
#616=DIRECTION('',(0.,-1.,0.));
#617=DIRECTION('',(0.,1.,0.));
#618=DIRECTION('',(0.,0.,1.));
#619=DIRECTION('center_axis',(0.,-1.,0.));
#620=DIRECTION('ref_axis',(1.,0.,0.));
#621=DIRECTION('',(-1.,0.,0.));
#622=DIRECTION('',(1.,0.,0.));
#623=DIRECTION('',(0.,0.,1.));
#624=DIRECTION('center_axis',(0.351123441588393,-0.936329177569044,0.));
#625=DIRECTION('ref_axis',(0.936329177569044,0.351123441588393,0.));
#626=DIRECTION('',(0.936329177569044,0.351123441588392,0.));
#627=DIRECTION('',(0.936329177569044,0.351123441588392,0.));
#628=DIRECTION('',(0.936329177569044,0.351123441588392,0.));
#629=DIRECTION('',(0.,0.,1.));
#630=DIRECTION('',(0.936329177569044,0.351123441588392,0.));
#631=DIRECTION('center_axis',(1.,-7.99360577730118E-15,0.));
#632=DIRECTION('ref_axis',(7.99360577730118E-15,1.,0.));
#633=DIRECTION('',(-7.99360577730118E-15,-1.,0.));
#634=DIRECTION('',(7.99360577730118E-15,1.,0.));
#635=DIRECTION('center_axis',(0.,0.,1.));
#636=DIRECTION('ref_axis',(1.,0.,0.));
#637=DIRECTION('center_axis',(0.,0.,1.));
#638=DIRECTION('ref_axis',(1.,0.,0.));
#639=CARTESIAN_POINT('',(0.,0.,0.));
#640=CARTESIAN_POINT('Origin',(2.86571857324174,42.6687886515486,3.5));
#641=CARTESIAN_POINT('',(2.86571857324174,42.6687886515486,3.5));
#642=CARTESIAN_POINT('',(-1.81592731460348,40.9131714436066,3.5));
#643=CARTESIAN_POINT('',(2.86571857324174,42.6687886515486,3.5));
#644=CARTESIAN_POINT('',(-1.28924215222089,39.508677677253,3.5));
#645=CARTESIAN_POINT('',(-1.81592731460348,40.9131714436066,3.5));
#646=CARTESIAN_POINT('',(3.39240373562433,41.264294885195,3.5));
#647=CARTESIAN_POINT('',(3.39240373562433,41.264294885195,3.5));
#648=CARTESIAN_POINT('',(2.86571857324174,42.6687886515486,3.5));
#649=CARTESIAN_POINT('Origin',(1.05158079170172,40.386486281224,1.75));
#650=CARTESIAN_POINT('',(-1.28924215222089,39.508677677253,0.));
#651=CARTESIAN_POINT('',(-1.28924215222089,39.508677677253,1.5));
#652=CARTESIAN_POINT('',(3.39240373562433,41.264294885195,0.));
#653=CARTESIAN_POINT('',(-1.28924215222089,39.508677677253,0.));
#654=CARTESIAN_POINT('',(3.39240373562434,41.264294885195,0.));
#655=CARTESIAN_POINT('Origin',(0.524895629319133,41.7909800475776,1.75));
#656=CARTESIAN_POINT('',(2.86571857324174,42.6687886515486,1.5));
#657=CARTESIAN_POINT('',(-1.81592731460348,40.9131714436066,1.5));
#658=CARTESIAN_POINT('',(2.86571857324174,42.6687886515486,1.5));
#659=CARTESIAN_POINT('',(-1.81592731460348,40.9131714436066,1.5));
#660=CARTESIAN_POINT('',(2.86571857324174,42.6687886515486,0.));
#661=CARTESIAN_POINT('Origin',(-1.81592731460348,40.9131714436066,5.5));
#662=CARTESIAN_POINT('',(-1.81592731460348,40.9131714436066,5.5));
#663=CARTESIAN_POINT('',(2.86571857324174,42.6687886515486,5.5));
#664=CARTESIAN_POINT('',(-1.81592731460348,40.9131714436066,5.5));
#665=CARTESIAN_POINT('',(3.39240373562433,41.264294885195,5.5));
#666=CARTESIAN_POINT('',(2.86571857324174,42.6687886515486,5.5));
#667=CARTESIAN_POINT('',(-1.28924215222089,39.508677677253,5.5));
#668=CARTESIAN_POINT('',(-1.28924215222089,39.508677677253,5.5));
#669=CARTESIAN_POINT('',(-1.81592731460348,40.9131714436066,5.5));
#670=CARTESIAN_POINT('Origin',(1.05158079170172,40.386486281224,7.25));
#671=CARTESIAN_POINT('',(3.39240373562433,41.264294885195,9.));
#672=CARTESIAN_POINT('',(3.39240373562433,41.264294885195,7.5));
#673=CARTESIAN_POINT('',(-1.28924215222089,39.508677677253,9.));
#674=CARTESIAN_POINT('',(3.39240373562433,41.264294885195,9.));
#675=CARTESIAN_POINT('',(-1.28924215222089,39.508677677253,9.));
#676=CARTESIAN_POINT('Origin',(0.524895629319131,41.7909800475776,7.25));
#677=CARTESIAN_POINT('',(-1.81592731460348,40.9131714436066,7.5));
#678=CARTESIAN_POINT('',(2.86571857324174,42.6687886515486,7.5));
#679=CARTESIAN_POINT('',(2.86571857324174,42.6687886515486,7.5));
#680=CARTESIAN_POINT('',(2.86571857324174,42.6687886515486,7.5));
#681=CARTESIAN_POINT('',(-1.81592731460348,40.9131714436066,9.));
#682=CARTESIAN_POINT('Origin',(1.46122480688817,46.4141053618247,1.5));
#683=CARTESIAN_POINT('',(-3.22042108095705,44.6584881538828,1.5));
#684=CARTESIAN_POINT('',(1.46122480688817,46.4141053618247,1.5));
#685=CARTESIAN_POINT('',(-8.37023155758679,42.7273092251466,1.5));
#686=CARTESIAN_POINT('',(-3.22042108095705,44.6584881538828,1.5));
#687=CARTESIAN_POINT('',(1.46122480688817,46.4141053618247,1.5));
#688=CARTESIAN_POINT('Origin',(1.46122480688817,46.4141053618247,0.));
#689=CARTESIAN_POINT('',(1.46122480688817,46.4141053618247,0.));
#690=CARTESIAN_POINT('',(1.46122480688817,46.4141053618247,0.));
#691=CARTESIAN_POINT('',(1.46122480688817,46.4141053618247,0.));
#692=CARTESIAN_POINT('Origin',(-3.22042108095705,44.6584881538828,1.5));
#693=CARTESIAN_POINT('',(-3.22042108095705,44.6584881538828,0.));
#694=CARTESIAN_POINT('',(-3.22042108095705,44.6584881538828,0.75));
#695=CARTESIAN_POINT('',(-3.22042108095705,44.6584881538828,0.));
#696=CARTESIAN_POINT('Origin',(1.46122480688817,46.4141053618247,7.5));
#697=CARTESIAN_POINT('',(1.46122480688817,46.4141053618247,9.));
#698=CARTESIAN_POINT('',(1.46122480688817,46.4141053618247,7.5));
#699=CARTESIAN_POINT('',(1.46122480688817,46.4141053618247,3.75));
#700=CARTESIAN_POINT('',(1.46122480688817,46.4141053618247,9.));
#701=CARTESIAN_POINT('',(1.46122480688817,46.4141053618247,7.5));
#702=CARTESIAN_POINT('Origin',(-3.22042108095705,44.6584881538828,7.5));
#703=CARTESIAN_POINT('',(-3.22042108095705,44.6584881538828,7.5));
#704=CARTESIAN_POINT('',(-10.7110545015094,41.8495006211756,7.5));
#705=CARTESIAN_POINT('',(-3.22042108095705,44.6584881538828,7.5));
#706=CARTESIAN_POINT('Origin',(-3.22042108095705,44.6584881538828,9.));
#707=CARTESIAN_POINT('',(-3.22042108095705,44.6584881538828,9.));
#708=CARTESIAN_POINT('',(-3.22042108095705,44.6584881538828,4.5));
#709=CARTESIAN_POINT('',(-3.22042108095705,44.6584881538828,9.));
#710=CARTESIAN_POINT('Origin',(20.6833172416165,51.4575130884685,4.49697815822223));
#711=CARTESIAN_POINT('',(20.6833172416165,51.0405130884685,6.99697815822223));
#712=CARTESIAN_POINT('Origin',(20.6833172416165,51.0405130884685,4.49697815822223));
#713=CARTESIAN_POINT('',(20.6833172416165,51.8745130884685,6.16297815822224));
#714=CARTESIAN_POINT('',(20.6833172416165,51.4575130884685,6.57997815822223));
#715=CARTESIAN_POINT('Origin',(20.6833172416165,51.8745130884685,4.49697815822223));
#716=CARTESIAN_POINT('Origin',(20.6833172416165,53.5405130884685,4.49697815822223));
#717=CARTESIAN_POINT('',(20.6833172416165,56.0405130884685,6.16297815822223));
#718=CARTESIAN_POINT('',(20.6833172416165,53.5405130884685,6.16297815822223));
#719=CARTESIAN_POINT('Origin',(20.6833172416165,56.0405130884685,4.49697815822223));
#720=CARTESIAN_POINT('Origin',(-31.5350212553953,34.0405130884685,0.));
#721=CARTESIAN_POINT('',(-18.2016879220618,34.0405130884685,0.));
#722=CARTESIAN_POINT('',(-31.5350212553953,34.0405130884685,0.));
#723=CARTESIAN_POINT('',(-18.2016879220618,34.0405130884685,0.));
#724=CARTESIAN_POINT('',(-18.2016879220618,34.0405130884685,9.));
#725=CARTESIAN_POINT('',(-18.2016879220618,34.0405130884685,0.));
#726=CARTESIAN_POINT('',(-31.5350212553953,34.0405130884685,9.));
#727=CARTESIAN_POINT('',(-18.2016879220618,34.0405130884685,9.));
#728=CARTESIAN_POINT('',(-31.5350212553953,34.0405130884685,0.));
#729=CARTESIAN_POINT('Origin',(-31.5350212553953,39.0405130884685,0.));
#730=CARTESIAN_POINT('',(-31.5350212553953,39.0405130884685,0.));
#731=CARTESIAN_POINT('',(-31.5350212553953,34.0405130884685,0.));
#732=CARTESIAN_POINT('',(-31.5350212553953,39.0405130884685,9.));
#733=CARTESIAN_POINT('',(-31.5350212553953,34.0405130884685,9.));
#734=CARTESIAN_POINT('',(-31.5350212553953,39.0405130884685,0.));
#735=CARTESIAN_POINT('Origin',(13.7983120779382,56.0405130884685,0.));
#736=CARTESIAN_POINT('',(13.7983120779382,56.0405130884685,0.));
#737=CARTESIAN_POINT('',(-31.5350212553953,39.0405130884685,0.));
#738=CARTESIAN_POINT('',(13.7983120779382,56.0405130884685,9.));
#739=CARTESIAN_POINT('',(-31.5350212553953,39.0405130884685,9.));
#740=CARTESIAN_POINT('',(13.7983120779382,56.0405130884685,0.));
#741=CARTESIAN_POINT('Origin',(23.7983120779382,56.0405130884685,0.));
#742=CARTESIAN_POINT('',(23.7983120779382,56.0405130884685,0.));
#743=CARTESIAN_POINT('',(13.7983120779382,56.0405130884685,0.));
#744=CARTESIAN_POINT('',(23.7983120779382,56.0405130884685,9.));
#745=CARTESIAN_POINT('',(13.7983120779382,56.0405130884685,9.));
#746=CARTESIAN_POINT('',(23.7983120779382,56.0405130884685,0.));
#747=CARTESIAN_POINT('Origin',(23.7983120779382,51.0405130884685,0.));
#748=CARTESIAN_POINT('',(23.7983120779382,51.0405130884685,0.));
#749=CARTESIAN_POINT('',(23.7983120779382,56.0405130884685,0.));
#750=CARTESIAN_POINT('',(23.7983120779382,51.0405130884685,9.));
#751=CARTESIAN_POINT('',(23.7983120779382,56.0405130884685,9.));
#752=CARTESIAN_POINT('',(23.7983120779382,51.0405130884685,0.));
#753=CARTESIAN_POINT('Origin',(13.7983120779382,51.0405130884685,0.));
#754=CARTESIAN_POINT('',(13.7983120779382,51.0405130884685,0.));
#755=CARTESIAN_POINT('',(23.7983120779382,51.0405130884685,0.));
#756=CARTESIAN_POINT('',(13.7983120779382,51.0405130884685,9.));
#757=CARTESIAN_POINT('',(23.7983120779382,51.0405130884685,9.));
#758=CARTESIAN_POINT('',(13.7983120779382,51.0405130884685,0.));
#759=CARTESIAN_POINT('Origin',(-18.2016879220618,39.0405130884685,0.));
#760=CARTESIAN_POINT('',(-18.2016879220618,39.0405130884685,0.));
#761=CARTESIAN_POINT('',(-18.2016879220618,39.0405130884685,9.));
#762=CARTESIAN_POINT('',(-18.2016879220618,39.0405130884685,9.));
#763=CARTESIAN_POINT('',(-18.2016879220618,39.0405130884685,9.));
#764=CARTESIAN_POINT('',(-18.2016879220618,39.0405130884685,0.));
#765=CARTESIAN_POINT('',(-18.2016879220618,39.0405130884685,0.));
#766=CARTESIAN_POINT('',(-18.2016879220618,39.0405130884685,0.));
#767=CARTESIAN_POINT('Origin',(-18.2016879220618,34.0405130884685,0.));
#768=CARTESIAN_POINT('',(-18.2016879220618,39.0405130884685,0.));
#769=CARTESIAN_POINT('',(-18.2016879220618,39.0405130884685,9.));
#770=CARTESIAN_POINT('Origin',(-3.86835458872854,45.0405130884685,9.));
#771=CARTESIAN_POINT('Origin',(-3.86835458872854,45.0405130884685,0.));
#772=UNCERTAINTY_MEASURE_WITH_UNIT(LENGTH_MEASURE(0.01),#776,
'DISTANCE_ACCURACY_VALUE',
'Maximum model space distance between geometric entities at asserted c
onnectivities');
#773=UNCERTAINTY_MEASURE_WITH_UNIT(LENGTH_MEASURE(0.01),#776,
'DISTANCE_ACCURACY_VALUE',
'Maximum model space distance between geometric entities at asserted c
onnectivities');
#774=(
GEOMETRIC_REPRESENTATION_CONTEXT(3)
GLOBAL_UNCERTAINTY_ASSIGNED_CONTEXT((#772))
GLOBAL_UNIT_ASSIGNED_CONTEXT((#776,#778,#779))
REPRESENTATION_CONTEXT('','3D')
);
#775=(
GEOMETRIC_REPRESENTATION_CONTEXT(3)
GLOBAL_UNCERTAINTY_ASSIGNED_CONTEXT((#773))
GLOBAL_UNIT_ASSIGNED_CONTEXT((#776,#778,#779))
REPRESENTATION_CONTEXT('','3D')
);
#776=(
LENGTH_UNIT()
NAMED_UNIT(*)
SI_UNIT(.MILLI.,.METRE.)
);
#777=(
LENGTH_UNIT()
NAMED_UNIT(*)
SI_UNIT($,.METRE.)
);
#778=(
NAMED_UNIT(*)
PLANE_ANGLE_UNIT()
SI_UNIT($,.RADIAN.)
);
#779=(
NAMED_UNIT(*)
SI_UNIT($,.STERADIAN.)
SOLID_ANGLE_UNIT()
);
#780=SHAPE_DEFINITION_REPRESENTATION(#781,#782);
#781=PRODUCT_DEFINITION_SHAPE('',$,#784);
#782=SHAPE_REPRESENTATION('',(#493),#774);
#783=PRODUCT_DEFINITION_CONTEXT('part definition',#788,'design');
#784=PRODUCT_DEFINITION('2026-05-20-12-36-06-442',
'HallEffect_carrier_Lower_v1',#785,#783);
#785=PRODUCT_DEFINITION_FORMATION('',$,#790);
#786=PRODUCT_RELATED_PRODUCT_CATEGORY('HallEffect_carrier_Lower_v1',
'HallEffect_carrier_Lower_v1',(#790));
#787=APPLICATION_PROTOCOL_DEFINITION('international standard',
'automotive_design',2009,#788);
#788=APPLICATION_CONTEXT(
'Core Data for Automotive Mechanical Design Process');
#789=PRODUCT_CONTEXT('part definition',#788,'mechanical');
#790=PRODUCT('2026-05-20-12-36-06-442','HallEffect_carrier_Lower_v1',$,
(#789));
#791=PRESENTATION_STYLE_ASSIGNMENT((#792));
#792=SURFACE_STYLE_USAGE(.BOTH.,#793);
#793=SURFACE_SIDE_STYLE('',(#794));
#794=SURFACE_STYLE_FILL_AREA(#795);
#795=FILL_AREA_STYLE('Steel - Satin',(#796));
#796=FILL_AREA_STYLE_COLOUR('Steel - Satin',#797);
#797=COLOUR_RGB('Steel - Satin',0.627450980392157,0.627450980392157,0.627450980392157);
ENDSEC;
END-ISO-10303-21;
