ISO-10303-21;
HEADER;
/* Generated by software containing ST-Developer
 * from STEP Tools, Inc. (www.steptools.com) 
 */

FILE_DESCRIPTION(
/* description */ (''),
/* implementation_level */ '2;1');

FILE_NAME(
/* name */ 'Handle_v3.step',
/* time_stamp */ '2026-05-18T11:08:35+02:00',
/* author */ (''),
/* organization */ (''),
/* preprocessor_version */ 'ST-DEVELOPER v20.1',
/* originating_system */ 'Autodesk Translation Framework v15.8.0.0',
/* authorisation */ '');

FILE_SCHEMA (('AUTOMOTIVE_DESIGN { 1 0 10303 214 3 1 1 }'));
ENDSEC;

DATA;
#10=MECHANICAL_DESIGN_GEOMETRIC_PRESENTATION_REPRESENTATION('',(#13),#715);
#11=SHAPE_REPRESENTATION_RELATIONSHIP('SRR','None',#722,#12);
#12=ADVANCED_BREP_SHAPE_REPRESENTATION('',(#14),#714);
#13=STYLED_ITEM('',(#731),#14);
#14=MANIFOLD_SOLID_BREP('Body1',#237);
#15=(
BOUNDED_CURVE()
B_SPLINE_CURVE(5,(#681,#682,#683,#684,#685,#686,#687,#688,#689,#690,#691,
#692,#693,#694,#695,#696,#697,#698,#699,#700,#701,#702,#703,#704,#705,#706,
#707,#708,#709,#710),.UNSPECIFIED.,.F.,.F.)
B_SPLINE_CURVE_WITH_KNOTS((6,1,1,1,1,1,1,1,1,1,1,1,1,1,1,1,1,1,1,1,1,1,
1,1,1,6),(0.,0.04,0.08,0.12,0.16,0.2,0.24,0.28,0.32,0.36,0.4,0.44,0.48,
0.52,0.56,0.6,0.64,0.68,0.72,0.76,0.8,0.84,0.88,0.92,0.96,1.),
 .UNSPECIFIED.)
CURVE()
GEOMETRIC_REPRESENTATION_ITEM()
RATIONAL_B_SPLINE_CURVE((1.,1.,1.,1.,1.,1.,1.,1.,1.,1.,1.,1.,1.,1.,1.,1.,
1.,1.,1.,1.,1.,1.,1.,1.,1.,1.,1.,1.,1.,1.))
REPRESENTATION_ITEM('')
);
#16=(
BOUNDED_SURFACE()
B_SPLINE_SURFACE(5,2,((#410,#411,#412,#413,#414,#415,#416,#417,#418),(#419,
#420,#421,#422,#423,#424,#425,#426,#427),(#428,#429,#430,#431,#432,#433,
#434,#435,#436),(#437,#438,#439,#440,#441,#442,#443,#444,#445),(#446,#447,
#448,#449,#450,#451,#452,#453,#454),(#455,#456,#457,#458,#459,#460,#461,
#462,#463),(#464,#465,#466,#467,#468,#469,#470,#471,#472),(#473,#474,#475,
#476,#477,#478,#479,#480,#481),(#482,#483,#484,#485,#486,#487,#488,#489,
#490),(#491,#492,#493,#494,#495,#496,#497,#498,#499),(#500,#501,#502,#503,
#504,#505,#506,#507,#508),(#509,#510,#511,#512,#513,#514,#515,#516,#517),
(#518,#519,#520,#521,#522,#523,#524,#525,#526),(#527,#528,#529,#530,#531,
#532,#533,#534,#535),(#536,#537,#538,#539,#540,#541,#542,#543,#544),(#545,
#546,#547,#548,#549,#550,#551,#552,#553),(#554,#555,#556,#557,#558,#559,
#560,#561,#562),(#563,#564,#565,#566,#567,#568,#569,#570,#571),(#572,#573,
#574,#575,#576,#577,#578,#579,#580),(#581,#582,#583,#584,#585,#586,#587,
#588,#589),(#590,#591,#592,#593,#594,#595,#596,#597,#598),(#599,#600,#601,
#602,#603,#604,#605,#606,#607),(#608,#609,#610,#611,#612,#613,#614,#615,
#616),(#617,#618,#619,#620,#621,#622,#623,#624,#625),(#626,#627,#628,#629,
#630,#631,#632,#633,#634),(#635,#636,#637,#638,#639,#640,#641,#642,#643),
(#644,#645,#646,#647,#648,#649,#650,#651,#652),(#653,#654,#655,#656,#657,
#658,#659,#660,#661),(#662,#663,#664,#665,#666,#667,#668,#669,#670),(#671,
#672,#673,#674,#675,#676,#677,#678,#679)),.UNSPECIFIED.,.F.,.T.,.F.)
B_SPLINE_SURFACE_WITH_KNOTS((6,1,1,1,1,1,1,1,1,1,1,1,1,1,1,1,1,1,1,1,1,
1,1,1,1,6),(3,2,2,2,3),(0.,0.04,0.08,0.12,0.16,0.2,0.24,0.28,0.32,0.36,
0.4,0.44,0.48,0.52,0.56,0.6,0.64,0.68,0.72,0.76,0.8,0.84,0.88,0.92,0.96,
1.),(0.,1.5707963267949,3.14159265358979,4.71238898038469,6.28318530717959),
 .UNSPECIFIED.)
GEOMETRIC_REPRESENTATION_ITEM()
RATIONAL_B_SPLINE_SURFACE(((1.,0.707106781186548,1.,0.707106781186548,1.,
0.707106781186548,1.,0.707106781186548,1.),(1.,0.707106781186548,1.,0.707106781186548,
1.,0.707106781186548,1.,0.707106781186548,1.),(1.,0.707106781186548,1.,
0.707106781186548,1.,0.707106781186548,1.,0.707106781186548,1.),(1.,0.707106781186548,
1.,0.707106781186548,1.,0.707106781186548,1.,0.707106781186548,1.),(1.,
0.707106781186548,1.,0.707106781186548,1.,0.707106781186548,1.,0.707106781186548,
1.),(1.,0.707106781186548,1.,0.707106781186548,1.,0.707106781186548,1.,
0.707106781186548,1.),(1.,0.707106781186548,1.,0.707106781186548,1.,0.707106781186548,
1.,0.707106781186548,1.),(1.,0.707106781186548,1.,0.707106781186548,1.,
0.707106781186548,1.,0.707106781186548,1.),(1.,0.707106781186548,1.,0.707106781186548,
1.,0.707106781186548,1.,0.707106781186548,1.),(1.,0.707106781186548,1.,
0.707106781186548,1.,0.707106781186548,1.,0.707106781186548,1.),(1.,0.707106781186548,
1.,0.707106781186548,1.,0.707106781186548,1.,0.707106781186548,1.),(1.,
0.707106781186548,1.,0.707106781186548,1.,0.707106781186548,1.,0.707106781186548,
1.),(1.,0.707106781186548,1.,0.707106781186548,1.,0.707106781186548,1.,
0.707106781186548,1.),(1.,0.707106781186548,1.,0.707106781186548,1.,0.707106781186548,
1.,0.707106781186548,1.),(1.,0.707106781186548,1.,0.707106781186548,1.,
0.707106781186548,1.,0.707106781186548,1.),(1.,0.707106781186548,1.,0.707106781186548,
1.,0.707106781186548,1.,0.707106781186548,1.),(1.,0.707106781186548,1.,
0.707106781186548,1.,0.707106781186548,1.,0.707106781186548,1.),(1.,0.707106781186548,
1.,0.707106781186548,1.,0.707106781186548,1.,0.707106781186548,1.),(1.,
0.707106781186548,1.,0.707106781186548,1.,0.707106781186548,1.,0.707106781186548,
1.),(1.,0.707106781186548,1.,0.707106781186548,1.,0.707106781186548,1.,
0.707106781186548,1.),(1.,0.707106781186548,1.,0.707106781186548,1.,0.707106781186548,
1.,0.707106781186548,1.),(1.,0.707106781186548,1.,0.707106781186548,1.,
0.707106781186548,1.,0.707106781186548,1.),(1.,0.707106781186548,1.,0.707106781186548,
1.,0.707106781186548,1.,0.707106781186548,1.),(1.,0.707106781186548,1.,
0.707106781186548,1.,0.707106781186548,1.,0.707106781186548,1.),(1.,0.707106781186548,
1.,0.707106781186548,1.,0.707106781186548,1.,0.707106781186548,1.),(1.,
0.707106781186548,1.,0.707106781186548,1.,0.707106781186548,1.,0.707106781186548,
1.),(1.,0.707106781186548,1.,0.707106781186548,1.,0.707106781186548,1.,
0.707106781186548,1.),(1.,0.707106781186548,1.,0.707106781186548,1.,0.707106781186548,
1.,0.707106781186548,1.),(1.,0.707106781186548,1.,0.707106781186548,1.,
0.707106781186548,1.,0.707106781186548,1.),(1.,0.707106781186548,1.,0.707106781186548,
1.,0.707106781186548,1.,0.707106781186548,1.)))
REPRESENTATION_ITEM('')
SURFACE()
);
#17=FACE_BOUND('',#57,.T.);
#18=CYLINDRICAL_SURFACE('',#266,0.75);
#19=CYLINDRICAL_SURFACE('',#269,2.);
#20=CIRCLE('',#254,0.75);
#21=CIRCLE('',#255,2.);
#22=CIRCLE('',#257,2.);
#23=CIRCLE('',#258,2.);
#24=CIRCLE('',#259,0.75);
#25=CIRCLE('',#260,0.75);
#26=CIRCLE('',#264,0.75);
#27=CIRCLE('',#265,2.);
#28=CIRCLE('',#267,0.75);
#29=CIRCLE('',#268,0.75);
#30=CIRCLE('',#270,2.);
#31=CIRCLE('',#271,2.);
#32=CIRCLE('',#274,3.);
#33=FACE_OUTER_BOUND('',#46,.T.);
#34=FACE_OUTER_BOUND('',#47,.T.);
#35=FACE_OUTER_BOUND('',#48,.T.);
#36=FACE_OUTER_BOUND('',#49,.T.);
#37=FACE_OUTER_BOUND('',#50,.T.);
#38=FACE_OUTER_BOUND('',#51,.T.);
#39=FACE_OUTER_BOUND('',#52,.T.);
#40=FACE_OUTER_BOUND('',#53,.T.);
#41=FACE_OUTER_BOUND('',#54,.T.);
#42=FACE_OUTER_BOUND('',#55,.T.);
#43=FACE_OUTER_BOUND('',#56,.T.);
#44=FACE_OUTER_BOUND('',#58,.T.);
#45=FACE_OUTER_BOUND('',#59,.T.);
#46=EDGE_LOOP('',(#150,#151,#152,#153));
#47=EDGE_LOOP('',(#154,#155,#156,#157));
#48=EDGE_LOOP('',(#158,#159,#160,#161));
#49=EDGE_LOOP('',(#162,#163,#164,#165,#166,#167));
#50=EDGE_LOOP('',(#168,#169,#170,#171));
#51=EDGE_LOOP('',(#172,#173,#174,#175));
#52=EDGE_LOOP('',(#176,#177,#178,#179));
#53=EDGE_LOOP('',(#180,#181,#182,#183,#184,#185,#186,#187,#188,#189,#190,
#191));
#54=EDGE_LOOP('',(#192,#193,#194,#195,#196,#197,#198,#199,#200,#201,#202,
#203));
#55=EDGE_LOOP('',(#204,#205,#206,#207));
#56=EDGE_LOOP('',(#208));
#57=EDGE_LOOP('',(#209));
#58=EDGE_LOOP('',(#210,#211,#212));
#59=EDGE_LOOP('',(#213));
#60=LINE('',#350,#78);
#61=LINE('',#352,#79);
#62=LINE('',#354,#80);
#63=LINE('',#355,#81);
#64=LINE('',#359,#82);
#65=LINE('',#361,#83);
#66=LINE('',#363,#84);
#67=LINE('',#364,#85);
#68=LINE('',#374,#86);
#69=LINE('',#380,#87);
#70=LINE('',#382,#88);
#71=LINE('',#383,#89);
#72=LINE('',#387,#90);
#73=LINE('',#389,#91);
#74=LINE('',#391,#92);
#75=LINE('',#392,#93);
#76=LINE('',#399,#94);
#77=LINE('',#404,#95);
#78=VECTOR('',#280,10.);
#79=VECTOR('',#281,10.);
#80=VECTOR('',#282,10.);
#81=VECTOR('',#283,10.);
#82=VECTOR('',#286,10.);
#83=VECTOR('',#287,10.);
#84=VECTOR('',#288,10.);
#85=VECTOR('',#289,10.);
#86=VECTOR('',#302,10.);
#87=VECTOR('',#309,10.);
#88=VECTOR('',#310,10.);
#89=VECTOR('',#311,10.);
#90=VECTOR('',#314,10.);
#91=VECTOR('',#315,10.);
#92=VECTOR('',#316,10.);
#93=VECTOR('',#317,10.);
#94=VECTOR('',#328,0.75);
#95=VECTOR('',#335,2.);
#96=VERTEX_POINT('',#348);
#97=VERTEX_POINT('',#349);
#98=VERTEX_POINT('',#351);
#99=VERTEX_POINT('',#353);
#100=VERTEX_POINT('',#357);
#101=VERTEX_POINT('',#358);
#102=VERTEX_POINT('',#360);
#103=VERTEX_POINT('',#362);
#104=VERTEX_POINT('',#369);
#105=VERTEX_POINT('',#371);
#106=VERTEX_POINT('',#373);
#107=VERTEX_POINT('',#375);
#108=VERTEX_POINT('',#379);
#109=VERTEX_POINT('',#381);
#110=VERTEX_POINT('',#385);
#111=VERTEX_POINT('',#386);
#112=VERTEX_POINT('',#388);
#113=VERTEX_POINT('',#390);
#114=VERTEX_POINT('',#398);
#115=VERTEX_POINT('',#403);
#116=VERTEX_POINT('',#408);
#117=VERTEX_POINT('',#680);
#118=EDGE_CURVE('',#96,#97,#60,.T.);
#119=EDGE_CURVE('',#96,#98,#61,.T.);
#120=EDGE_CURVE('',#99,#98,#62,.T.);
#121=EDGE_CURVE('',#97,#99,#63,.T.);
#122=EDGE_CURVE('',#100,#101,#64,.T.);
#123=EDGE_CURVE('',#100,#102,#65,.T.);
#124=EDGE_CURVE('',#103,#102,#66,.T.);
#125=EDGE_CURVE('',#101,#103,#67,.T.);
#126=EDGE_CURVE('',#102,#99,#20,.T.);
#127=EDGE_CURVE('',#98,#103,#21,.T.);
#128=EDGE_CURVE('',#101,#104,#22,.T.);
#129=EDGE_CURVE('',#104,#105,#23,.T.);
#130=EDGE_CURVE('',#105,#106,#68,.T.);
#131=EDGE_CURVE('',#106,#107,#24,.T.);
#132=EDGE_CURVE('',#107,#100,#25,.T.);
#133=EDGE_CURVE('',#105,#108,#69,.T.);
#134=EDGE_CURVE('',#109,#108,#70,.T.);
#135=EDGE_CURVE('',#106,#109,#71,.T.);
#136=EDGE_CURVE('',#110,#111,#72,.T.);
#137=EDGE_CURVE('',#110,#112,#73,.T.);
#138=EDGE_CURVE('',#113,#112,#74,.T.);
#139=EDGE_CURVE('',#111,#113,#75,.T.);
#140=EDGE_CURVE('',#112,#109,#26,.T.);
#141=EDGE_CURVE('',#108,#113,#27,.T.);
#142=EDGE_CURVE('',#97,#110,#28,.T.);
#143=EDGE_CURVE('',#107,#114,#76,.T.);
#144=EDGE_CURVE('',#114,#114,#29,.T.);
#145=EDGE_CURVE('',#111,#96,#30,.T.);
#146=EDGE_CURVE('',#104,#115,#77,.T.);
#147=EDGE_CURVE('',#115,#115,#31,.T.);
#148=EDGE_CURVE('',#116,#116,#32,.T.);
#149=EDGE_CURVE('',#116,#117,#15,.T.);
#150=ORIENTED_EDGE('',*,*,#118,.F.);
#151=ORIENTED_EDGE('',*,*,#119,.T.);
#152=ORIENTED_EDGE('',*,*,#120,.F.);
#153=ORIENTED_EDGE('',*,*,#121,.F.);
#154=ORIENTED_EDGE('',*,*,#122,.F.);
#155=ORIENTED_EDGE('',*,*,#123,.T.);
#156=ORIENTED_EDGE('',*,*,#124,.F.);
#157=ORIENTED_EDGE('',*,*,#125,.F.);
#158=ORIENTED_EDGE('',*,*,#124,.T.);
#159=ORIENTED_EDGE('',*,*,#126,.T.);
#160=ORIENTED_EDGE('',*,*,#120,.T.);
#161=ORIENTED_EDGE('',*,*,#127,.T.);
#162=ORIENTED_EDGE('',*,*,#122,.T.);
#163=ORIENTED_EDGE('',*,*,#128,.T.);
#164=ORIENTED_EDGE('',*,*,#129,.T.);
#165=ORIENTED_EDGE('',*,*,#130,.T.);
#166=ORIENTED_EDGE('',*,*,#131,.T.);
#167=ORIENTED_EDGE('',*,*,#132,.T.);
#168=ORIENTED_EDGE('',*,*,#130,.F.);
#169=ORIENTED_EDGE('',*,*,#133,.T.);
#170=ORIENTED_EDGE('',*,*,#134,.F.);
#171=ORIENTED_EDGE('',*,*,#135,.F.);
#172=ORIENTED_EDGE('',*,*,#136,.F.);
#173=ORIENTED_EDGE('',*,*,#137,.T.);
#174=ORIENTED_EDGE('',*,*,#138,.F.);
#175=ORIENTED_EDGE('',*,*,#139,.F.);
#176=ORIENTED_EDGE('',*,*,#138,.T.);
#177=ORIENTED_EDGE('',*,*,#140,.T.);
#178=ORIENTED_EDGE('',*,*,#134,.T.);
#179=ORIENTED_EDGE('',*,*,#141,.T.);
#180=ORIENTED_EDGE('',*,*,#131,.F.);
#181=ORIENTED_EDGE('',*,*,#135,.T.);
#182=ORIENTED_EDGE('',*,*,#140,.F.);
#183=ORIENTED_EDGE('',*,*,#137,.F.);
#184=ORIENTED_EDGE('',*,*,#142,.F.);
#185=ORIENTED_EDGE('',*,*,#121,.T.);
#186=ORIENTED_EDGE('',*,*,#126,.F.);
#187=ORIENTED_EDGE('',*,*,#123,.F.);
#188=ORIENTED_EDGE('',*,*,#132,.F.);
#189=ORIENTED_EDGE('',*,*,#143,.T.);
#190=ORIENTED_EDGE('',*,*,#144,.F.);
#191=ORIENTED_EDGE('',*,*,#143,.F.);
#192=ORIENTED_EDGE('',*,*,#145,.F.);
#193=ORIENTED_EDGE('',*,*,#139,.T.);
#194=ORIENTED_EDGE('',*,*,#141,.F.);
#195=ORIENTED_EDGE('',*,*,#133,.F.);
#196=ORIENTED_EDGE('',*,*,#129,.F.);
#197=ORIENTED_EDGE('',*,*,#146,.T.);
#198=ORIENTED_EDGE('',*,*,#147,.F.);
#199=ORIENTED_EDGE('',*,*,#146,.F.);
#200=ORIENTED_EDGE('',*,*,#128,.F.);
#201=ORIENTED_EDGE('',*,*,#125,.T.);
#202=ORIENTED_EDGE('',*,*,#127,.F.);
#203=ORIENTED_EDGE('',*,*,#119,.F.);
#204=ORIENTED_EDGE('',*,*,#118,.T.);
#205=ORIENTED_EDGE('',*,*,#142,.T.);
#206=ORIENTED_EDGE('',*,*,#136,.T.);
#207=ORIENTED_EDGE('',*,*,#145,.T.);
#208=ORIENTED_EDGE('',*,*,#148,.T.);
#209=ORIENTED_EDGE('',*,*,#147,.T.);
#210=ORIENTED_EDGE('',*,*,#149,.T.);
#211=ORIENTED_EDGE('',*,*,#149,.F.);
#212=ORIENTED_EDGE('',*,*,#148,.F.);
#213=ORIENTED_EDGE('',*,*,#144,.T.);
#214=PLANE('',#251);
#215=PLANE('',#252);
#216=PLANE('',#253);
#217=PLANE('',#256);
#218=PLANE('',#261);
#219=PLANE('',#262);
#220=PLANE('',#263);
#221=PLANE('',#272);
#222=PLANE('',#273);
#223=PLANE('',#275);
#224=ADVANCED_FACE('',(#33),#214,.T.);
#225=ADVANCED_FACE('',(#34),#215,.T.);
#226=ADVANCED_FACE('',(#35),#216,.F.);
#227=ADVANCED_FACE('',(#36),#217,.F.);
#228=ADVANCED_FACE('',(#37),#218,.T.);
#229=ADVANCED_FACE('',(#38),#219,.T.);
#230=ADVANCED_FACE('',(#39),#220,.F.);
#231=ADVANCED_FACE('',(#40),#18,.F.);
#232=ADVANCED_FACE('',(#41),#19,.T.);
#233=ADVANCED_FACE('',(#42),#221,.F.);
#234=ADVANCED_FACE('',(#43,#17),#222,.T.);
#235=ADVANCED_FACE('',(#44),#16,.T.);
#236=ADVANCED_FACE('',(#45),#223,.T.);
#237=CLOSED_SHELL('',(#224,#225,#226,#227,#228,#229,#230,#231,#232,#233,
#234,#235,#236));
#238=DERIVED_UNIT_ELEMENT(#240,1.);
#239=DERIVED_UNIT_ELEMENT(#717,-3.);
#240=(
MASS_UNIT()
NAMED_UNIT(*)
SI_UNIT(.KILO.,.GRAM.)
);
#241=DERIVED_UNIT((#238,#239));
#242=MEASURE_REPRESENTATION_ITEM('density measure',
POSITIVE_RATIO_MEASURE(7850.),#241);
#243=PROPERTY_DEFINITION_REPRESENTATION(#248,#245);
#244=PROPERTY_DEFINITION_REPRESENTATION(#249,#246);
#245=REPRESENTATION('material name',(#247),#714);
#246=REPRESENTATION('density',(#242),#714);
#247=DESCRIPTIVE_REPRESENTATION_ITEM('Steel','Steel');
#248=PROPERTY_DEFINITION('material property','material name',#724);
#249=PROPERTY_DEFINITION('material property','density of part',#724);
#250=AXIS2_PLACEMENT_3D('',#346,#276,#277);
#251=AXIS2_PLACEMENT_3D('',#347,#278,#279);
#252=AXIS2_PLACEMENT_3D('',#356,#284,#285);
#253=AXIS2_PLACEMENT_3D('',#365,#290,#291);
#254=AXIS2_PLACEMENT_3D('',#366,#292,#293);
#255=AXIS2_PLACEMENT_3D('',#367,#294,#295);
#256=AXIS2_PLACEMENT_3D('',#368,#296,#297);
#257=AXIS2_PLACEMENT_3D('',#370,#298,#299);
#258=AXIS2_PLACEMENT_3D('',#372,#300,#301);
#259=AXIS2_PLACEMENT_3D('',#376,#303,#304);
#260=AXIS2_PLACEMENT_3D('',#377,#305,#306);
#261=AXIS2_PLACEMENT_3D('',#378,#307,#308);
#262=AXIS2_PLACEMENT_3D('',#384,#312,#313);
#263=AXIS2_PLACEMENT_3D('',#393,#318,#319);
#264=AXIS2_PLACEMENT_3D('',#394,#320,#321);
#265=AXIS2_PLACEMENT_3D('',#395,#322,#323);
#266=AXIS2_PLACEMENT_3D('',#396,#324,#325);
#267=AXIS2_PLACEMENT_3D('',#397,#326,#327);
#268=AXIS2_PLACEMENT_3D('',#400,#329,#330);
#269=AXIS2_PLACEMENT_3D('',#401,#331,#332);
#270=AXIS2_PLACEMENT_3D('',#402,#333,#334);
#271=AXIS2_PLACEMENT_3D('',#405,#336,#337);
#272=AXIS2_PLACEMENT_3D('',#406,#338,#339);
#273=AXIS2_PLACEMENT_3D('',#407,#340,#341);
#274=AXIS2_PLACEMENT_3D('',#409,#342,#343);
#275=AXIS2_PLACEMENT_3D('',#711,#344,#345);
#276=DIRECTION('axis',(0.,0.,1.));
#277=DIRECTION('refdir',(1.,0.,0.));
#278=DIRECTION('center_axis',(0.,0.,-1.));
#279=DIRECTION('ref_axis',(1.,0.,0.));
#280=DIRECTION('',(-1.,0.,0.));
#281=DIRECTION('',(0.,-1.,0.));
#282=DIRECTION('',(1.,0.,0.));
#283=DIRECTION('',(0.,-1.,0.));
#284=DIRECTION('center_axis',(0.,0.,-1.));
#285=DIRECTION('ref_axis',(1.,0.,0.));
#286=DIRECTION('',(-1.,0.,0.));
#287=DIRECTION('',(0.,-1.,0.));
#288=DIRECTION('',(1.,0.,0.));
#289=DIRECTION('',(0.,-1.,0.));
#290=DIRECTION('center_axis',(0.,1.,0.));
#291=DIRECTION('ref_axis',(1.,0.,0.));
#292=DIRECTION('center_axis',(0.,1.,0.));
#293=DIRECTION('ref_axis',(1.,0.,0.));
#294=DIRECTION('center_axis',(0.,-1.,0.));
#295=DIRECTION('ref_axis',(1.,0.,0.));
#296=DIRECTION('center_axis',(0.,1.,0.));
#297=DIRECTION('ref_axis',(1.,0.,0.));
#298=DIRECTION('center_axis',(0.,-1.,0.));
#299=DIRECTION('ref_axis',(1.,0.,0.));
#300=DIRECTION('center_axis',(0.,-1.,0.));
#301=DIRECTION('ref_axis',(1.,0.,0.));
#302=DIRECTION('',(1.,0.,0.));
#303=DIRECTION('center_axis',(0.,1.,0.));
#304=DIRECTION('ref_axis',(1.,0.,0.));
#305=DIRECTION('center_axis',(0.,1.,0.));
#306=DIRECTION('ref_axis',(1.,0.,0.));
#307=DIRECTION('center_axis',(0.,0.,1.));
#308=DIRECTION('ref_axis',(-1.,0.,0.));
#309=DIRECTION('',(0.,-1.,0.));
#310=DIRECTION('',(-1.,0.,0.));
#311=DIRECTION('',(0.,-1.,0.));
#312=DIRECTION('center_axis',(0.,0.,1.));
#313=DIRECTION('ref_axis',(-1.,0.,0.));
#314=DIRECTION('',(1.,0.,0.));
#315=DIRECTION('',(0.,-1.,0.));
#316=DIRECTION('',(-1.,0.,0.));
#317=DIRECTION('',(0.,-1.,0.));
#318=DIRECTION('center_axis',(0.,1.,0.));
#319=DIRECTION('ref_axis',(1.,0.,0.));
#320=DIRECTION('center_axis',(0.,1.,0.));
#321=DIRECTION('ref_axis',(1.,0.,0.));
#322=DIRECTION('center_axis',(0.,-1.,0.));
#323=DIRECTION('ref_axis',(1.,0.,0.));
#324=DIRECTION('center_axis',(0.,-1.,0.));
#325=DIRECTION('ref_axis',(1.,0.,0.));
#326=DIRECTION('center_axis',(0.,1.,0.));
#327=DIRECTION('ref_axis',(1.,0.,0.));
#328=DIRECTION('',(0.,1.,0.));
#329=DIRECTION('center_axis',(0.,-1.,0.));
#330=DIRECTION('ref_axis',(1.,0.,0.));
#331=DIRECTION('center_axis',(0.,-1.,0.));
#332=DIRECTION('ref_axis',(1.,0.,0.));
#333=DIRECTION('center_axis',(0.,-1.,0.));
#334=DIRECTION('ref_axis',(1.,0.,0.));
#335=DIRECTION('',(0.,1.,0.));
#336=DIRECTION('center_axis',(0.,1.,0.));
#337=DIRECTION('ref_axis',(1.,0.,0.));
#338=DIRECTION('center_axis',(0.,1.,0.));
#339=DIRECTION('ref_axis',(1.,0.,0.));
#340=DIRECTION('center_axis',(0.,-1.,0.));
#341=DIRECTION('ref_axis',(0.,0.,-1.));
#342=DIRECTION('center_axis',(0.,-1.,0.));
#343=DIRECTION('ref_axis',(1.,0.,0.));
#344=DIRECTION('center_axis',(0.,-1.,0.));
#345=DIRECTION('ref_axis',(0.,0.,-1.));
#346=CARTESIAN_POINT('',(0.,0.,0.));
#347=CARTESIAN_POINT('Origin',(0.55901700437095,-2.,0.499999988824129));
#348=CARTESIAN_POINT('',(1.93649167598931,-2.,0.499999988824129));
#349=CARTESIAN_POINT('',(0.55901700437095,-2.,0.499999988824129));
#350=CARTESIAN_POINT('',(0.279508502185475,-2.,0.499999988824129));
#351=CARTESIAN_POINT('',(1.93649167598931,-4.,0.499999988824129));
#352=CARTESIAN_POINT('',(1.93649167598931,-2.,0.499999988824129));
#353=CARTESIAN_POINT('',(0.55901700437095,-4.,0.499999988824129));
#354=CARTESIAN_POINT('',(2.1,-4.,0.499999988824129));
#355=CARTESIAN_POINT('',(0.55901700437095,-2.,0.499999988824129));
#356=CARTESIAN_POINT('Origin',(-1.93649167598931,-2.,0.499999988824129));
#357=CARTESIAN_POINT('',(-0.55901700437095,-2.,0.499999988824129));
#358=CARTESIAN_POINT('',(-1.93649167598931,-2.,0.499999988824129));
#359=CARTESIAN_POINT('',(-0.968245837994653,-2.,0.499999988824129));
#360=CARTESIAN_POINT('',(-0.55901700437095,-4.,0.499999988824129));
#361=CARTESIAN_POINT('',(-0.55901700437095,-2.,0.499999988824129));
#362=CARTESIAN_POINT('',(-1.93649167598931,-4.,0.499999988824129));
#363=CARTESIAN_POINT('',(2.1,-4.,0.499999988824129));
#364=CARTESIAN_POINT('',(-1.93649167598931,-2.,0.499999988824129));
#365=CARTESIAN_POINT('Origin',(0.,-4.,1.24999999441206));
#366=CARTESIAN_POINT('Origin',(0.,-4.,0.));
#367=CARTESIAN_POINT('Origin',(0.,-4.,0.));
#368=CARTESIAN_POINT('Origin',(0.,-2.,0.));
#369=CARTESIAN_POINT('',(-2.,-2.,-2.44929359829471E-16));
#370=CARTESIAN_POINT('Origin',(0.,-2.,0.));
#371=CARTESIAN_POINT('',(-1.93649167598931,-2.,-0.499999988824129));
#372=CARTESIAN_POINT('Origin',(0.,-2.,0.));
#373=CARTESIAN_POINT('',(-0.55901700437095,-2.,-0.499999988824129));
#374=CARTESIAN_POINT('',(-0.279508502185475,-2.,-0.499999988824129));
#375=CARTESIAN_POINT('',(-0.75,-2.,-9.18485099360515E-17));
#376=CARTESIAN_POINT('Origin',(0.,-2.,0.));
#377=CARTESIAN_POINT('Origin',(0.,-2.,0.));
#378=CARTESIAN_POINT('Origin',(-0.55901700437095,-2.,-0.499999988824129));
#379=CARTESIAN_POINT('',(-1.93649167598931,-4.,-0.499999988824129));
#380=CARTESIAN_POINT('',(-1.93649167598931,-2.,-0.499999988824129));
#381=CARTESIAN_POINT('',(-0.55901700437095,-4.,-0.499999988824129));
#382=CARTESIAN_POINT('',(-2.1,-4.,-0.499999988824129));
#383=CARTESIAN_POINT('',(-0.55901700437095,-2.,-0.499999988824129));
#384=CARTESIAN_POINT('Origin',(1.93649167598931,-2.,-0.499999988824129));
#385=CARTESIAN_POINT('',(0.55901700437095,-2.,-0.499999988824129));
#386=CARTESIAN_POINT('',(1.93649167598931,-2.,-0.499999988824129));
#387=CARTESIAN_POINT('',(0.968245837994653,-2.,-0.499999988824129));
#388=CARTESIAN_POINT('',(0.55901700437095,-4.,-0.499999988824129));
#389=CARTESIAN_POINT('',(0.55901700437095,-2.,-0.499999988824129));
#390=CARTESIAN_POINT('',(1.93649167598931,-4.,-0.499999988824129));
#391=CARTESIAN_POINT('',(-2.1,-4.,-0.499999988824129));
#392=CARTESIAN_POINT('',(1.93649167598931,-2.,-0.499999988824129));
#393=CARTESIAN_POINT('Origin',(0.,-4.,-1.24999999441206));
#394=CARTESIAN_POINT('Origin',(0.,-4.,0.));
#395=CARTESIAN_POINT('Origin',(0.,-4.,0.));
#396=CARTESIAN_POINT('Origin',(0.,0.,0.));
#397=CARTESIAN_POINT('Origin',(0.,-2.,0.));
#398=CARTESIAN_POINT('',(-0.75,0.,9.18485099360515E-17));
#399=CARTESIAN_POINT('',(-0.75,0.,-9.18485099360515E-17));
#400=CARTESIAN_POINT('Origin',(0.,0.,0.));
#401=CARTESIAN_POINT('Origin',(0.,0.,0.));
#402=CARTESIAN_POINT('Origin',(0.,-2.,0.));
#403=CARTESIAN_POINT('',(-2.,0.,2.44929359829471E-16));
#404=CARTESIAN_POINT('',(-2.,0.,-2.44929359829471E-16));
#405=CARTESIAN_POINT('Origin',(0.,0.,0.));
#406=CARTESIAN_POINT('Origin',(0.,-2.,0.));
#407=CARTESIAN_POINT('Origin',(0.,0.,0.));
#408=CARTESIAN_POINT('',(3.,0.,0.));
#409=CARTESIAN_POINT('Origin',(0.,0.,0.));
#410=CARTESIAN_POINT('Ctrl Pts',(3.,0.,0.));
#411=CARTESIAN_POINT('Ctrl Pts',(3.,0.,3.));
#412=CARTESIAN_POINT('Ctrl Pts',(0.,0.,3.));
#413=CARTESIAN_POINT('Ctrl Pts',(-3.,0.,3.));
#414=CARTESIAN_POINT('Ctrl Pts',(-3.,0.,0.));
#415=CARTESIAN_POINT('Ctrl Pts',(-3.,0.,-3.));
#416=CARTESIAN_POINT('Ctrl Pts',(0.,0.,-3.));
#417=CARTESIAN_POINT('Ctrl Pts',(3.,0.,-3.));
#418=CARTESIAN_POINT('Ctrl Pts',(3.,0.,0.));
#419=CARTESIAN_POINT('Ctrl Pts',(3.01216539074562,0.210592111887606,0.));
#420=CARTESIAN_POINT('Ctrl Pts',(3.01216539074562,0.210592111887606,3.01216539074562));
#421=CARTESIAN_POINT('Ctrl Pts',(0.,0.210592111887606,3.01216539074562));
#422=CARTESIAN_POINT('Ctrl Pts',(-3.01216539074562,0.210592111887606,3.01216539074562));
#423=CARTESIAN_POINT('Ctrl Pts',(-3.01216539074562,0.210592111887606,0.));
#424=CARTESIAN_POINT('Ctrl Pts',(-3.01216539074562,0.210592111887606,-3.01216539074562));
#425=CARTESIAN_POINT('Ctrl Pts',(0.,0.210592111887606,-3.01216539074562));
#426=CARTESIAN_POINT('Ctrl Pts',(3.01216539074562,0.210592111887606,-3.01216539074562));
#427=CARTESIAN_POINT('Ctrl Pts',(3.01216539074562,0.210592111887606,0.));
#428=CARTESIAN_POINT('Ctrl Pts',(3.03199872708689,0.634034786740409,0.));
#429=CARTESIAN_POINT('Ctrl Pts',(3.03199872708689,0.634034786740409,3.03199872708689));
#430=CARTESIAN_POINT('Ctrl Pts',(0.,0.634034786740409,3.03199872708689));
#431=CARTESIAN_POINT('Ctrl Pts',(-3.03199872708689,0.634034786740409,3.03199872708689));
#432=CARTESIAN_POINT('Ctrl Pts',(-3.03199872708689,0.634034786740409,0.));
#433=CARTESIAN_POINT('Ctrl Pts',(-3.03199872708689,0.634034786740409,-3.03199872708689));
#434=CARTESIAN_POINT('Ctrl Pts',(0.,0.634034786740409,-3.03199872708689));
#435=CARTESIAN_POINT('Ctrl Pts',(3.03199872708689,0.634034786740409,-3.03199872708689));
#436=CARTESIAN_POINT('Ctrl Pts',(3.03199872708689,0.634034786740409,0.));
#437=CARTESIAN_POINT('Ctrl Pts',(3.04825627720869,1.27597429442137,0.));
#438=CARTESIAN_POINT('Ctrl Pts',(3.04825627720869,1.27597429442137,3.04825627720869));
#439=CARTESIAN_POINT('Ctrl Pts',(0.,1.27597429442137,3.04825627720869));
#440=CARTESIAN_POINT('Ctrl Pts',(-3.04825627720869,1.27597429442137,3.04825627720869));
#441=CARTESIAN_POINT('Ctrl Pts',(-3.04825627720869,1.27597429442137,0.));
#442=CARTESIAN_POINT('Ctrl Pts',(-3.04825627720869,1.27597429442137,-3.04825627720869));
#443=CARTESIAN_POINT('Ctrl Pts',(0.,1.27597429442137,-3.04825627720869));
#444=CARTESIAN_POINT('Ctrl Pts',(3.04825627720869,1.27597429442137,-3.04825627720869));
#445=CARTESIAN_POINT('Ctrl Pts',(3.04825627720869,1.27597429442137,0.));
#446=CARTESIAN_POINT('Ctrl Pts',(3.04287871604007,2.14547876866574,0.));
#447=CARTESIAN_POINT('Ctrl Pts',(3.04287871604007,2.14547876866574,3.04287871604007));
#448=CARTESIAN_POINT('Ctrl Pts',(0.,2.14547876866574,3.04287871604007));
#449=CARTESIAN_POINT('Ctrl Pts',(-3.04287871604007,2.14547876866574,3.04287871604007));
#450=CARTESIAN_POINT('Ctrl Pts',(-3.04287871604007,2.14547876866574,0.));
#451=CARTESIAN_POINT('Ctrl Pts',(-3.04287871604007,2.14547876866574,-3.04287871604007));
#452=CARTESIAN_POINT('Ctrl Pts',(0.,2.14547876866574,-3.04287871604007));
#453=CARTESIAN_POINT('Ctrl Pts',(3.04287871604007,2.14547876866574,-3.04287871604007));
#454=CARTESIAN_POINT('Ctrl Pts',(3.04287871604007,2.14547876866574,0.));
#455=CARTESIAN_POINT('Ctrl Pts',(2.99147525993699,3.25435250182859,0.));
#456=CARTESIAN_POINT('Ctrl Pts',(2.99147525993699,3.25435250182859,2.99147525993699));
#457=CARTESIAN_POINT('Ctrl Pts',(0.,3.25435250182859,2.99147525993699));
#458=CARTESIAN_POINT('Ctrl Pts',(-2.99147525993699,3.25435250182859,2.99147525993699));
#459=CARTESIAN_POINT('Ctrl Pts',(-2.99147525993699,3.25435250182859,0.));
#460=CARTESIAN_POINT('Ctrl Pts',(-2.99147525993699,3.25435250182859,-2.99147525993699));
#461=CARTESIAN_POINT('Ctrl Pts',(0.,3.25435250182859,-2.99147525993699));
#462=CARTESIAN_POINT('Ctrl Pts',(2.99147525993699,3.25435250182859,-2.99147525993699));
#463=CARTESIAN_POINT('Ctrl Pts',(2.99147525993699,3.25435250182859,0.));
#464=CARTESIAN_POINT('Ctrl Pts',(2.89736179758871,4.38288249943713,0.));
#465=CARTESIAN_POINT('Ctrl Pts',(2.89736179758871,4.38288249943713,2.89736179758871));
#466=CARTESIAN_POINT('Ctrl Pts',(0.,4.38288249943713,2.89736179758871));
#467=CARTESIAN_POINT('Ctrl Pts',(-2.89736179758871,4.38288249943713,2.89736179758871));
#468=CARTESIAN_POINT('Ctrl Pts',(-2.89736179758871,4.38288249943713,0.));
#469=CARTESIAN_POINT('Ctrl Pts',(-2.89736179758871,4.38288249943713,-2.89736179758871));
#470=CARTESIAN_POINT('Ctrl Pts',(0.,4.38288249943713,-2.89736179758871));
#471=CARTESIAN_POINT('Ctrl Pts',(2.89736179758871,4.38288249943713,-2.89736179758871));
#472=CARTESIAN_POINT('Ctrl Pts',(2.89736179758871,4.38288249943713,0.));
#473=CARTESIAN_POINT('Ctrl Pts',(2.76501858016633,5.52613824036365,0.));
#474=CARTESIAN_POINT('Ctrl Pts',(2.76501858016633,5.52613824036365,2.76501858016633));
#475=CARTESIAN_POINT('Ctrl Pts',(0.,5.52613824036365,2.76501858016633));
#476=CARTESIAN_POINT('Ctrl Pts',(-2.76501858016633,5.52613824036365,2.76501858016633));
#477=CARTESIAN_POINT('Ctrl Pts',(-2.76501858016633,5.52613824036365,0.));
#478=CARTESIAN_POINT('Ctrl Pts',(-2.76501858016633,5.52613824036365,-2.76501858016633));
#479=CARTESIAN_POINT('Ctrl Pts',(0.,5.52613824036365,-2.76501858016633));
#480=CARTESIAN_POINT('Ctrl Pts',(2.76501858016633,5.52613824036365,-2.76501858016633));
#481=CARTESIAN_POINT('Ctrl Pts',(2.76501858016633,5.52613824036365,0.));
#482=CARTESIAN_POINT('Ctrl Pts',(2.60254771821105,6.67551140002188,0.));
#483=CARTESIAN_POINT('Ctrl Pts',(2.60254771821105,6.67551140002188,2.60254771821105));
#484=CARTESIAN_POINT('Ctrl Pts',(0.,6.67551140002188,2.60254771821105));
#485=CARTESIAN_POINT('Ctrl Pts',(-2.60254771821105,6.67551140002188,2.60254771821105));
#486=CARTESIAN_POINT('Ctrl Pts',(-2.60254771821105,6.67551140002188,0.));
#487=CARTESIAN_POINT('Ctrl Pts',(-2.60254771821105,6.67551140002188,-2.60254771821105));
#488=CARTESIAN_POINT('Ctrl Pts',(0.,6.67551140002188,-2.60254771821105));
#489=CARTESIAN_POINT('Ctrl Pts',(2.60254771821105,6.67551140002188,-2.60254771821105));
#490=CARTESIAN_POINT('Ctrl Pts',(2.60254771821105,6.67551140002188,0.));
#491=CARTESIAN_POINT('Ctrl Pts',(2.42251617353661,7.81795178823642,0.));
#492=CARTESIAN_POINT('Ctrl Pts',(2.42251617353661,7.81795178823642,2.42251617353661));
#493=CARTESIAN_POINT('Ctrl Pts',(0.,7.81795178823642,2.42251617353661));
#494=CARTESIAN_POINT('Ctrl Pts',(-2.42251617353661,7.81795178823642,2.42251617353661));
#495=CARTESIAN_POINT('Ctrl Pts',(-2.42251617353661,7.81795178823642,0.));
#496=CARTESIAN_POINT('Ctrl Pts',(-2.42251617353661,7.81795178823642,-2.42251617353661));
#497=CARTESIAN_POINT('Ctrl Pts',(0.,7.81795178823642,-2.42251617353661));
#498=CARTESIAN_POINT('Ctrl Pts',(2.42251617353661,7.81795178823642,-2.42251617353661));
#499=CARTESIAN_POINT('Ctrl Pts',(2.42251617353661,7.81795178823642,0.));
#500=CARTESIAN_POINT('Ctrl Pts',(2.24362423063459,8.93427777681173,0.));
#501=CARTESIAN_POINT('Ctrl Pts',(2.24362423063459,8.93427777681173,2.24362423063459));
#502=CARTESIAN_POINT('Ctrl Pts',(0.,8.93427777681173,2.24362423063459));
#503=CARTESIAN_POINT('Ctrl Pts',(-2.24362423063459,8.93427777681173,2.24362423063459));
#504=CARTESIAN_POINT('Ctrl Pts',(-2.24362423063459,8.93427777681173,0.));
#505=CARTESIAN_POINT('Ctrl Pts',(-2.24362423063459,8.93427777681173,-2.24362423063459));
#506=CARTESIAN_POINT('Ctrl Pts',(0.,8.93427777681173,-2.24362423063459));
#507=CARTESIAN_POINT('Ctrl Pts',(2.24362423063459,8.93427777681173,-2.24362423063459));
#508=CARTESIAN_POINT('Ctrl Pts',(2.24362423063459,8.93427777681173,0.));
#509=CARTESIAN_POINT('Ctrl Pts',(2.08833984467708,10.0020939499061,0.));
#510=CARTESIAN_POINT('Ctrl Pts',(2.08833984467708,10.0020939499061,2.08833984467708));
#511=CARTESIAN_POINT('Ctrl Pts',(0.,10.0020939499061,2.08833984467708));
#512=CARTESIAN_POINT('Ctrl Pts',(-2.08833984467708,10.0020939499061,2.08833984467708));
#513=CARTESIAN_POINT('Ctrl Pts',(-2.08833984467708,10.0020939499061,0.));
#514=CARTESIAN_POINT('Ctrl Pts',(-2.08833984467708,10.0020939499061,-2.08833984467708));
#515=CARTESIAN_POINT('Ctrl Pts',(0.,10.0020939499061,-2.08833984467708));
#516=CARTESIAN_POINT('Ctrl Pts',(2.08833984467708,10.0020939499061,-2.08833984467708));
#517=CARTESIAN_POINT('Ctrl Pts',(2.08833984467708,10.0020939499061,0.));
#518=CARTESIAN_POINT('Ctrl Pts',(1.97894441398012,11.0005348507084,0.));
#519=CARTESIAN_POINT('Ctrl Pts',(1.97894441398012,11.0005348507084,1.97894441398012));
#520=CARTESIAN_POINT('Ctrl Pts',(0.,11.0005348507084,1.97894441398012));
#521=CARTESIAN_POINT('Ctrl Pts',(-1.97894441398012,11.0005348507084,1.97894441398012));
#522=CARTESIAN_POINT('Ctrl Pts',(-1.97894441398012,11.0005348507084,0.));
#523=CARTESIAN_POINT('Ctrl Pts',(-1.97894441398012,11.0005348507084,-1.97894441398012));
#524=CARTESIAN_POINT('Ctrl Pts',(0.,11.0005348507084,-1.97894441398012));
#525=CARTESIAN_POINT('Ctrl Pts',(1.97894441398012,11.0005348507084,-1.97894441398012));
#526=CARTESIAN_POINT('Ctrl Pts',(1.97894441398012,11.0005348507084,0.));
#527=CARTESIAN_POINT('Ctrl Pts',(1.93410344052012,11.9144252684815,0.));
#528=CARTESIAN_POINT('Ctrl Pts',(1.93410344052012,11.9144252684815,1.93410344052012));
#529=CARTESIAN_POINT('Ctrl Pts',(0.,11.9144252684815,1.93410344052012));
#530=CARTESIAN_POINT('Ctrl Pts',(-1.93410344052012,11.9144252684815,1.93410344052012));
#531=CARTESIAN_POINT('Ctrl Pts',(-1.93410344052012,11.9144252684815,0.));
#532=CARTESIAN_POINT('Ctrl Pts',(-1.93410344052012,11.9144252684815,-1.93410344052012));
#533=CARTESIAN_POINT('Ctrl Pts',(0.,11.9144252684815,-1.93410344052012));
#534=CARTESIAN_POINT('Ctrl Pts',(1.93410344052012,11.9144252684815,-1.93410344052012));
#535=CARTESIAN_POINT('Ctrl Pts',(1.93410344052012,11.9144252684815,0.));
#536=CARTESIAN_POINT('Ctrl Pts',(1.96515163870163,12.7387904804041,0.));
#537=CARTESIAN_POINT('Ctrl Pts',(1.96515163870163,12.7387904804041,1.96515163870163));
#538=CARTESIAN_POINT('Ctrl Pts',(0.,12.7387904804041,1.96515163870163));
#539=CARTESIAN_POINT('Ctrl Pts',(-1.96515163870163,12.7387904804041,1.96515163870163));
#540=CARTESIAN_POINT('Ctrl Pts',(-1.96515163870163,12.7387904804041,0.));
#541=CARTESIAN_POINT('Ctrl Pts',(-1.96515163870163,12.7387904804041,-1.96515163870163));
#542=CARTESIAN_POINT('Ctrl Pts',(0.,12.7387904804041,-1.96515163870163));
#543=CARTESIAN_POINT('Ctrl Pts',(1.96515163870163,12.7387904804041,-1.96515163870163));
#544=CARTESIAN_POINT('Ctrl Pts',(1.96515163870163,12.7387904804041,0.));
#545=CARTESIAN_POINT('Ctrl Pts',(2.07245239264474,13.4832822212781,0.));
#546=CARTESIAN_POINT('Ctrl Pts',(2.07245239264474,13.4832822212781,2.07245239264474));
#547=CARTESIAN_POINT('Ctrl Pts',(0.,13.4832822212781,2.07245239264474));
#548=CARTESIAN_POINT('Ctrl Pts',(-2.07245239264474,13.4832822212781,2.07245239264474));
#549=CARTESIAN_POINT('Ctrl Pts',(-2.07245239264474,13.4832822212781,0.));
#550=CARTESIAN_POINT('Ctrl Pts',(-2.07245239264474,13.4832822212781,-2.07245239264474));
#551=CARTESIAN_POINT('Ctrl Pts',(0.,13.4832822212781,-2.07245239264474));
#552=CARTESIAN_POINT('Ctrl Pts',(2.07245239264474,13.4832822212781,-2.07245239264474));
#553=CARTESIAN_POINT('Ctrl Pts',(2.07245239264474,13.4832822212781,0.));
#554=CARTESIAN_POINT('Ctrl Pts',(2.2414453803544,14.1770395983721,0.));
#555=CARTESIAN_POINT('Ctrl Pts',(2.2414453803544,14.1770395983721,2.2414453803544));
#556=CARTESIAN_POINT('Ctrl Pts',(0.,14.1770395983721,2.2414453803544));
#557=CARTESIAN_POINT('Ctrl Pts',(-2.2414453803544,14.1770395983721,2.2414453803544));
#558=CARTESIAN_POINT('Ctrl Pts',(-2.2414453803544,14.1770395983721,0.));
#559=CARTESIAN_POINT('Ctrl Pts',(-2.2414453803544,14.1770395983721,-2.2414453803544));
#560=CARTESIAN_POINT('Ctrl Pts',(0.,14.1770395983721,-2.2414453803544));
#561=CARTESIAN_POINT('Ctrl Pts',(2.2414453803544,14.1770395983721,-2.2414453803544));
#562=CARTESIAN_POINT('Ctrl Pts',(2.2414453803544,14.1770395983721,0.));
#563=CARTESIAN_POINT('Ctrl Pts',(2.44706504445993,14.8573393532734,0.));
#564=CARTESIAN_POINT('Ctrl Pts',(2.44706504445993,14.8573393532734,2.44706504445993));
#565=CARTESIAN_POINT('Ctrl Pts',(0.,14.8573393532734,2.44706504445993));
#566=CARTESIAN_POINT('Ctrl Pts',(-2.44706504445993,14.8573393532734,2.44706504445993));
#567=CARTESIAN_POINT('Ctrl Pts',(-2.44706504445993,14.8573393532734,0.));
#568=CARTESIAN_POINT('Ctrl Pts',(-2.44706504445993,14.8573393532734,-2.44706504445993));
#569=CARTESIAN_POINT('Ctrl Pts',(0.,14.8573393532734,-2.44706504445993));
#570=CARTESIAN_POINT('Ctrl Pts',(2.44706504445993,14.8573393532734,-2.44706504445993));
#571=CARTESIAN_POINT('Ctrl Pts',(2.44706504445993,14.8573393532734,0.));
#572=CARTESIAN_POINT('Ctrl Pts',(2.65847989765724,15.5571287767686,0.));
#573=CARTESIAN_POINT('Ctrl Pts',(2.65847989765724,15.5571287767686,2.65847989765724));
#574=CARTESIAN_POINT('Ctrl Pts',(0.,15.5571287767686,2.65847989765724));
#575=CARTESIAN_POINT('Ctrl Pts',(-2.65847989765724,15.5571287767686,2.65847989765724));
#576=CARTESIAN_POINT('Ctrl Pts',(-2.65847989765724,15.5571287767686,0.));
#577=CARTESIAN_POINT('Ctrl Pts',(-2.65847989765724,15.5571287767686,-2.65847989765724));
#578=CARTESIAN_POINT('Ctrl Pts',(0.,15.5571287767686,-2.65847989765724));
#579=CARTESIAN_POINT('Ctrl Pts',(2.65847989765724,15.5571287767686,-2.65847989765724));
#580=CARTESIAN_POINT('Ctrl Pts',(2.65847989765724,15.5571287767686,0.));
#581=CARTESIAN_POINT('Ctrl Pts',(2.84319566357731,16.2945227327204,0.));
#582=CARTESIAN_POINT('Ctrl Pts',(2.84319566357731,16.2945227327204,2.84319566357731));
#583=CARTESIAN_POINT('Ctrl Pts',(0.,16.2945227327204,2.84319566357731));
#584=CARTESIAN_POINT('Ctrl Pts',(-2.84319566357731,16.2945227327204,2.84319566357731));
#585=CARTESIAN_POINT('Ctrl Pts',(-2.84319566357731,16.2945227327204,0.));
#586=CARTESIAN_POINT('Ctrl Pts',(-2.84319566357731,16.2945227327204,-2.84319566357731));
#587=CARTESIAN_POINT('Ctrl Pts',(0.,16.2945227327204,-2.84319566357731));
#588=CARTESIAN_POINT('Ctrl Pts',(2.84319566357731,16.2945227327204,-2.84319566357731));
#589=CARTESIAN_POINT('Ctrl Pts',(2.84319566357731,16.2945227327204,0.));
#590=CARTESIAN_POINT('Ctrl Pts',(2.97242005346059,17.0575670425878,0.));
#591=CARTESIAN_POINT('Ctrl Pts',(2.97242005346059,17.0575670425878,2.97242005346059));
#592=CARTESIAN_POINT('Ctrl Pts',(0.,17.0575670425878,2.97242005346059));
#593=CARTESIAN_POINT('Ctrl Pts',(-2.97242005346059,17.0575670425878,2.97242005346059));
#594=CARTESIAN_POINT('Ctrl Pts',(-2.97242005346059,17.0575670425878,0.));
#595=CARTESIAN_POINT('Ctrl Pts',(-2.97242005346059,17.0575670425878,-2.97242005346059));
#596=CARTESIAN_POINT('Ctrl Pts',(0.,17.0575670425878,-2.97242005346059));
#597=CARTESIAN_POINT('Ctrl Pts',(2.97242005346059,17.0575670425878,-2.97242005346059));
#598=CARTESIAN_POINT('Ctrl Pts',(2.97242005346059,17.0575670425878,0.));
#599=CARTESIAN_POINT('Ctrl Pts',(3.02146243567348,17.8069655361822,0.));
#600=CARTESIAN_POINT('Ctrl Pts',(3.02146243567347,17.8069655361822,3.02146243567347));
#601=CARTESIAN_POINT('Ctrl Pts',(0.,17.8069655361822,3.02146243567348));
#602=CARTESIAN_POINT('Ctrl Pts',(-3.02146243567347,17.8069655361822,3.02146243567347));
#603=CARTESIAN_POINT('Ctrl Pts',(-3.02146243567348,17.8069655361822,0.));
#604=CARTESIAN_POINT('Ctrl Pts',(-3.02146243567347,17.8069655361822,-3.02146243567347));
#605=CARTESIAN_POINT('Ctrl Pts',(0.,17.8069655361822,-3.02146243567348));
#606=CARTESIAN_POINT('Ctrl Pts',(3.02146243567347,17.8069655361822,-3.02146243567347));
#607=CARTESIAN_POINT('Ctrl Pts',(3.02146243567348,17.8069655361822,0.));
#608=CARTESIAN_POINT('Ctrl Pts',(2.96603386840326,18.4934883978949,0.));
#609=CARTESIAN_POINT('Ctrl Pts',(2.96603386840326,18.4934883978949,2.96603386840326));
#610=CARTESIAN_POINT('Ctrl Pts',(0.,18.4934883978949,2.96603386840326));
#611=CARTESIAN_POINT('Ctrl Pts',(-2.96603386840326,18.4934883978949,2.96603386840326));
#612=CARTESIAN_POINT('Ctrl Pts',(-2.96603386840326,18.4934883978949,0.));
#613=CARTESIAN_POINT('Ctrl Pts',(-2.96603386840326,18.4934883978949,-2.96603386840326));
#614=CARTESIAN_POINT('Ctrl Pts',(0.,18.4934883978949,-2.96603386840326));
#615=CARTESIAN_POINT('Ctrl Pts',(2.96603386840326,18.4934883978949,-2.96603386840326));
#616=CARTESIAN_POINT('Ctrl Pts',(2.96603386840326,18.4934883978949,0.));
#617=CARTESIAN_POINT('Ctrl Pts',(2.78013524035275,19.0700386105845,0.));
#618=CARTESIAN_POINT('Ctrl Pts',(2.78013524035275,19.0700386105845,2.78013524035275));
#619=CARTESIAN_POINT('Ctrl Pts',(0.,19.0700386105845,2.78013524035275));
#620=CARTESIAN_POINT('Ctrl Pts',(-2.78013524035275,19.0700386105845,2.78013524035275));
#621=CARTESIAN_POINT('Ctrl Pts',(-2.78013524035275,19.0700386105845,0.));
#622=CARTESIAN_POINT('Ctrl Pts',(-2.78013524035275,19.0700386105845,-2.78013524035275));
#623=CARTESIAN_POINT('Ctrl Pts',(0.,19.0700386105845,-2.78013524035275));
#624=CARTESIAN_POINT('Ctrl Pts',(2.78013524035275,19.0700386105845,-2.78013524035275));
#625=CARTESIAN_POINT('Ctrl Pts',(2.78013524035275,19.0700386105845,0.));
#626=CARTESIAN_POINT('Ctrl Pts',(2.43249599227459,19.50814354975,0.));
#627=CARTESIAN_POINT('Ctrl Pts',(2.43249599227459,19.50814354975,2.43249599227459));
#628=CARTESIAN_POINT('Ctrl Pts',(0.,19.50814354975,2.43249599227459));
#629=CARTESIAN_POINT('Ctrl Pts',(-2.43249599227459,19.50814354975,2.43249599227459));
#630=CARTESIAN_POINT('Ctrl Pts',(-2.43249599227459,19.50814354975,0.));
#631=CARTESIAN_POINT('Ctrl Pts',(-2.43249599227459,19.50814354975,-2.43249599227459));
#632=CARTESIAN_POINT('Ctrl Pts',(0.,19.50814354975,-2.43249599227459));
#633=CARTESIAN_POINT('Ctrl Pts',(2.43249599227459,19.50814354975,-2.43249599227459));
#634=CARTESIAN_POINT('Ctrl Pts',(2.43249599227459,19.50814354975,0.));
#635=CARTESIAN_POINT('Ctrl Pts',(1.88628719214962,19.8056558778361,0.));
#636=CARTESIAN_POINT('Ctrl Pts',(1.88628719214962,19.8056558778361,1.88628719214962));
#637=CARTESIAN_POINT('Ctrl Pts',(0.,19.8056558778361,1.88628719214962));
#638=CARTESIAN_POINT('Ctrl Pts',(-1.88628719214962,19.8056558778361,1.88628719214962));
#639=CARTESIAN_POINT('Ctrl Pts',(-1.88628719214962,19.8056558778361,0.));
#640=CARTESIAN_POINT('Ctrl Pts',(-1.88628719214962,19.8056558778361,-1.88628719214962));
#641=CARTESIAN_POINT('Ctrl Pts',(0.,19.8056558778361,-1.88628719214962));
#642=CARTESIAN_POINT('Ctrl Pts',(1.88628719214962,19.8056558778361,-1.88628719214962));
#643=CARTESIAN_POINT('Ctrl Pts',(1.88628719214962,19.8056558778361,0.));
#644=CARTESIAN_POINT('Ctrl Pts',(1.26267160496617,19.9399605276237,0.));
#645=CARTESIAN_POINT('Ctrl Pts',(1.26267160496617,19.9399605276237,1.26267160496617));
#646=CARTESIAN_POINT('Ctrl Pts',(0.,19.9399605276237,1.26267160496617));
#647=CARTESIAN_POINT('Ctrl Pts',(-1.26267160496617,19.9399605276237,1.26267160496617));
#648=CARTESIAN_POINT('Ctrl Pts',(-1.26267160496617,19.9399605276237,0.));
#649=CARTESIAN_POINT('Ctrl Pts',(-1.26267160496617,19.9399605276237,-1.26267160496617));
#650=CARTESIAN_POINT('Ctrl Pts',(0.,19.9399605276237,-1.26267160496617));
#651=CARTESIAN_POINT('Ctrl Pts',(1.26267160496617,19.9399605276237,-1.26267160496617));
#652=CARTESIAN_POINT('Ctrl Pts',(1.26267160496617,19.9399605276237,0.));
#653=CARTESIAN_POINT('Ctrl Pts',(0.678082629556351,19.9890844209475,0.));
#654=CARTESIAN_POINT('Ctrl Pts',(0.67808262955635,19.9890844209475,0.67808262955635));
#655=CARTESIAN_POINT('Ctrl Pts',(0.,19.9890844209475,0.678082629556351));
#656=CARTESIAN_POINT('Ctrl Pts',(-0.67808262955635,19.9890844209475,0.67808262955635));
#657=CARTESIAN_POINT('Ctrl Pts',(-0.678082629556351,19.9890844209475,0.));
#658=CARTESIAN_POINT('Ctrl Pts',(-0.67808262955635,19.9890844209475,-0.67808262955635));
#659=CARTESIAN_POINT('Ctrl Pts',(0.,19.9890844209475,-0.678082629556351));
#660=CARTESIAN_POINT('Ctrl Pts',(0.67808262955635,19.9890844209475,-0.67808262955635));
#661=CARTESIAN_POINT('Ctrl Pts',(0.678082629556351,19.9890844209475,0.));
#662=CARTESIAN_POINT('Ctrl Pts',(0.234931848890169,20.0000000200845,0.));
#663=CARTESIAN_POINT('Ctrl Pts',(0.234931848890169,20.0000000200845,0.234931848890169));
#664=CARTESIAN_POINT('Ctrl Pts',(0.,20.0000000200845,0.234931848890169));
#665=CARTESIAN_POINT('Ctrl Pts',(-0.234931848890169,20.0000000200845,0.234931848890169));
#666=CARTESIAN_POINT('Ctrl Pts',(-0.234931848890169,20.0000000200845,0.));
#667=CARTESIAN_POINT('Ctrl Pts',(-0.234931848890169,20.0000000200845,-0.234931848890169));
#668=CARTESIAN_POINT('Ctrl Pts',(0.,20.0000000200845,-0.234931848890169));
#669=CARTESIAN_POINT('Ctrl Pts',(0.234931848890169,20.0000000200845,-0.234931848890169));
#670=CARTESIAN_POINT('Ctrl Pts',(0.234931848890169,20.0000000200845,0.));
#671=CARTESIAN_POINT('Ctrl Pts',(0.,20.,0.));
#672=CARTESIAN_POINT('Ctrl Pts',(0.,20.,0.));
#673=CARTESIAN_POINT('Ctrl Pts',(0.,20.,0.));
#674=CARTESIAN_POINT('Ctrl Pts',(0.,20.,0.));
#675=CARTESIAN_POINT('Ctrl Pts',(0.,20.,0.));
#676=CARTESIAN_POINT('Ctrl Pts',(0.,20.,0.));
#677=CARTESIAN_POINT('Ctrl Pts',(0.,20.,0.));
#678=CARTESIAN_POINT('Ctrl Pts',(0.,20.,0.));
#679=CARTESIAN_POINT('Ctrl Pts',(0.,20.,0.));
#680=CARTESIAN_POINT('',(0.,20.,0.));
#681=CARTESIAN_POINT('Ctrl Pts',(3.,0.,0.));
#682=CARTESIAN_POINT('Ctrl Pts',(3.01216539074562,0.210592111887606,0.));
#683=CARTESIAN_POINT('Ctrl Pts',(3.03199872708689,0.634034786740409,0.));
#684=CARTESIAN_POINT('Ctrl Pts',(3.04825627720869,1.27597429442137,0.));
#685=CARTESIAN_POINT('Ctrl Pts',(3.04287871604007,2.14547876866574,0.));
#686=CARTESIAN_POINT('Ctrl Pts',(2.99147525993699,3.25435250182859,0.));
#687=CARTESIAN_POINT('Ctrl Pts',(2.89736179758871,4.38288249943713,0.));
#688=CARTESIAN_POINT('Ctrl Pts',(2.76501858016633,5.52613824036365,0.));
#689=CARTESIAN_POINT('Ctrl Pts',(2.60254771821105,6.67551140002188,0.));
#690=CARTESIAN_POINT('Ctrl Pts',(2.42251617353661,7.81795178823642,0.));
#691=CARTESIAN_POINT('Ctrl Pts',(2.24362423063459,8.93427777681173,0.));
#692=CARTESIAN_POINT('Ctrl Pts',(2.08833984467708,10.0020939499061,0.));
#693=CARTESIAN_POINT('Ctrl Pts',(1.97894441398012,11.0005348507084,0.));
#694=CARTESIAN_POINT('Ctrl Pts',(1.93410344052012,11.9144252684815,0.));
#695=CARTESIAN_POINT('Ctrl Pts',(1.96515163870163,12.7387904804041,0.));
#696=CARTESIAN_POINT('Ctrl Pts',(2.07245239264474,13.4832822212781,0.));
#697=CARTESIAN_POINT('Ctrl Pts',(2.2414453803544,14.1770395983721,0.));
#698=CARTESIAN_POINT('Ctrl Pts',(2.44706504445993,14.8573393532734,0.));
#699=CARTESIAN_POINT('Ctrl Pts',(2.65847989765724,15.5571287767686,0.));
#700=CARTESIAN_POINT('Ctrl Pts',(2.84319566357731,16.2945227327204,0.));
#701=CARTESIAN_POINT('Ctrl Pts',(2.97242005346059,17.0575670425878,0.));
#702=CARTESIAN_POINT('Ctrl Pts',(3.02146243567348,17.8069655361822,0.));
#703=CARTESIAN_POINT('Ctrl Pts',(2.96603386840326,18.4934883978949,0.));
#704=CARTESIAN_POINT('Ctrl Pts',(2.78013524035275,19.0700386105845,0.));
#705=CARTESIAN_POINT('Ctrl Pts',(2.43249599227459,19.50814354975,0.));
#706=CARTESIAN_POINT('Ctrl Pts',(1.88628719214962,19.8056558778361,0.));
#707=CARTESIAN_POINT('Ctrl Pts',(1.26267160496617,19.9399605276237,0.));
#708=CARTESIAN_POINT('Ctrl Pts',(0.678082629556351,19.9890844209475,0.));
#709=CARTESIAN_POINT('Ctrl Pts',(0.234931848890169,20.0000000200845,0.));
#710=CARTESIAN_POINT('Ctrl Pts',(0.,20.,0.));
#711=CARTESIAN_POINT('Origin',(0.,0.,0.));
#712=UNCERTAINTY_MEASURE_WITH_UNIT(LENGTH_MEASURE(0.01),#716,
'DISTANCE_ACCURACY_VALUE',
'Maximum model space distance between geometric entities at asserted c
onnectivities');
#713=UNCERTAINTY_MEASURE_WITH_UNIT(LENGTH_MEASURE(0.01),#716,
'DISTANCE_ACCURACY_VALUE',
'Maximum model space distance between geometric entities at asserted c
onnectivities');
#714=(
GEOMETRIC_REPRESENTATION_CONTEXT(3)
GLOBAL_UNCERTAINTY_ASSIGNED_CONTEXT((#712))
GLOBAL_UNIT_ASSIGNED_CONTEXT((#716,#718,#719))
REPRESENTATION_CONTEXT('','3D')
);
#715=(
GEOMETRIC_REPRESENTATION_CONTEXT(3)
GLOBAL_UNCERTAINTY_ASSIGNED_CONTEXT((#713))
GLOBAL_UNIT_ASSIGNED_CONTEXT((#716,#718,#719))
REPRESENTATION_CONTEXT('','3D')
);
#716=(
LENGTH_UNIT()
NAMED_UNIT(*)
SI_UNIT(.MILLI.,.METRE.)
);
#717=(
LENGTH_UNIT()
NAMED_UNIT(*)
SI_UNIT($,.METRE.)
);
#718=(
NAMED_UNIT(*)
PLANE_ANGLE_UNIT()
SI_UNIT($,.RADIAN.)
);
#719=(
NAMED_UNIT(*)
SI_UNIT($,.STERADIAN.)
SOLID_ANGLE_UNIT()
);
#720=SHAPE_DEFINITION_REPRESENTATION(#721,#722);
#721=PRODUCT_DEFINITION_SHAPE('',$,#724);
#722=SHAPE_REPRESENTATION('',(#250),#714);
#723=PRODUCT_DEFINITION_CONTEXT('part definition',#728,'design');
#724=PRODUCT_DEFINITION('2026-05-18-09-58-12-160','Handle_v3',#725,#723);
#725=PRODUCT_DEFINITION_FORMATION('',$,#730);
#726=PRODUCT_RELATED_PRODUCT_CATEGORY('Handle_v3','Handle_v3',(#730));
#727=APPLICATION_PROTOCOL_DEFINITION('international standard',
'automotive_design',2009,#728);
#728=APPLICATION_CONTEXT(
'Core Data for Automotive Mechanical Design Process');
#729=PRODUCT_CONTEXT('part definition',#728,'mechanical');
#730=PRODUCT('2026-05-18-09-58-12-160','Handle_v3',$,(#729));
#731=PRESENTATION_STYLE_ASSIGNMENT((#732));
#732=SURFACE_STYLE_USAGE(.BOTH.,#733);
#733=SURFACE_SIDE_STYLE('',(#734));
#734=SURFACE_STYLE_FILL_AREA(#735);
#735=FILL_AREA_STYLE('Steel - Satin',(#736));
#736=FILL_AREA_STYLE_COLOUR('Steel - Satin',#737);
#737=COLOUR_RGB('Steel - Satin',0.627450980392157,0.627450980392157,0.627450980392157);
ENDSEC;
END-ISO-10303-21;
