ISO-10303-21;
HEADER;
/* Generated by software containing ST-Developer
 * from STEP Tools, Inc. (www.steptools.com) 
 */

FILE_DESCRIPTION(
/* description */ (''),
/* implementation_level */ '2;1');

FILE_NAME(
/* name */ 'Horizontal_handle_lowerPart_v1.step',
/* time_stamp */ '2026-05-26T11:08:39+02:00',
/* author */ (''),
/* organization */ (''),
/* preprocessor_version */ 'ST-DEVELOPER v20.1',
/* originating_system */ 'Autodesk Translation Framework v15.8.0.0',
/* authorisation */ '');

FILE_SCHEMA (('AUTOMOTIVE_DESIGN { 1 0 10303 214 3 1 1 }'));
ENDSEC;

DATA;
#10=MECHANICAL_DESIGN_GEOMETRIC_PRESENTATION_REPRESENTATION('',(#13),#286);
#11=SHAPE_REPRESENTATION_RELATIONSHIP('SRR','None',#293,#12);
#12=ADVANCED_BREP_SHAPE_REPRESENTATION('',(#14),#285);
#13=STYLED_ITEM('',(#302),#14);
#14=MANIFOLD_SOLID_BREP('Body1',#167);
#15=FACE_BOUND('',#43,.T.);
#16=FACE_BOUND('',#44,.T.);
#17=FACE_BOUND('',#46,.T.);
#18=FACE_BOUND('',#47,.T.);
#19=PLANE('',#189);
#20=PLANE('',#190);
#21=PLANE('',#191);
#22=PLANE('',#192);
#23=PLANE('',#193);
#24=PLANE('',#194);
#25=CONICAL_SURFACE('',#184,2.083,0.785398163397448);
#26=FACE_OUTER_BOUND('',#35,.T.);
#27=FACE_OUTER_BOUND('',#36,.T.);
#28=FACE_OUTER_BOUND('',#37,.T.);
#29=FACE_OUTER_BOUND('',#38,.T.);
#30=FACE_OUTER_BOUND('',#39,.T.);
#31=FACE_OUTER_BOUND('',#40,.T.);
#32=FACE_OUTER_BOUND('',#41,.T.);
#33=FACE_OUTER_BOUND('',#42,.T.);
#34=FACE_OUTER_BOUND('',#45,.T.);
#35=EDGE_LOOP('',(#116,#117,#118,#119));
#36=EDGE_LOOP('',(#120,#121,#122,#123));
#37=EDGE_LOOP('',(#124,#125,#126,#127));
#38=EDGE_LOOP('',(#128,#129,#130,#131));
#39=EDGE_LOOP('',(#132,#133,#134,#135));
#40=EDGE_LOOP('',(#136,#137,#138,#139));
#41=EDGE_LOOP('',(#140,#141,#142,#143));
#42=EDGE_LOOP('',(#144,#145,#146,#147));
#43=EDGE_LOOP('',(#148));
#44=EDGE_LOOP('',(#149));
#45=EDGE_LOOP('',(#150,#151,#152,#153));
#46=EDGE_LOOP('',(#154));
#47=EDGE_LOOP('',(#155));
#48=LINE('',#245,#63);
#49=LINE('',#251,#64);
#50=LINE('',#255,#65);
#51=LINE('',#260,#66);
#52=LINE('',#262,#67);
#53=LINE('',#264,#68);
#54=LINE('',#265,#69);
#55=LINE('',#268,#70);
#56=LINE('',#270,#71);
#57=LINE('',#271,#72);
#58=LINE('',#274,#73);
#59=LINE('',#276,#74);
#60=LINE('',#277,#75);
#61=LINE('',#279,#76);
#62=LINE('',#280,#77);
#63=VECTOR('',#201,1.666);
#64=VECTOR('',#208,2.083);
#65=VECTOR('',#213,1.666);
#66=VECTOR('',#218,10.);
#67=VECTOR('',#219,10.);
#68=VECTOR('',#220,10.);
#69=VECTOR('',#221,10.);
#70=VECTOR('',#224,10.);
#71=VECTOR('',#225,10.);
#72=VECTOR('',#226,10.);
#73=VECTOR('',#229,10.);
#74=VECTOR('',#230,10.);
#75=VECTOR('',#231,10.);
#76=VECTOR('',#234,10.);
#77=VECTOR('',#235,10.);
#78=CIRCLE('',#182,1.666);
#79=CIRCLE('',#183,1.666);
#80=CIRCLE('',#185,2.5);
#81=CIRCLE('',#186,1.666);
#82=CIRCLE('',#188,1.666);
#83=VERTEX_POINT('',#242);
#84=VERTEX_POINT('',#244);
#85=VERTEX_POINT('',#248);
#86=VERTEX_POINT('',#250);
#87=VERTEX_POINT('',#254);
#88=VERTEX_POINT('',#258);
#89=VERTEX_POINT('',#259);
#90=VERTEX_POINT('',#261);
#91=VERTEX_POINT('',#263);
#92=VERTEX_POINT('',#267);
#93=VERTEX_POINT('',#269);
#94=VERTEX_POINT('',#273);
#95=VERTEX_POINT('',#275);
#96=EDGE_CURVE('',#83,#83,#78,.T.);
#97=EDGE_CURVE('',#83,#84,#48,.T.);
#98=EDGE_CURVE('',#84,#84,#79,.T.);
#99=EDGE_CURVE('',#85,#85,#80,.T.);
#100=EDGE_CURVE('',#85,#86,#49,.T.);
#101=EDGE_CURVE('',#86,#86,#81,.T.);
#102=EDGE_CURVE('',#86,#87,#50,.T.);
#103=EDGE_CURVE('',#87,#87,#82,.T.);
#104=EDGE_CURVE('',#88,#89,#51,.T.);
#105=EDGE_CURVE('',#89,#90,#52,.T.);
#106=EDGE_CURVE('',#91,#90,#53,.T.);
#107=EDGE_CURVE('',#88,#91,#54,.T.);
#108=EDGE_CURVE('',#92,#88,#55,.T.);
#109=EDGE_CURVE('',#93,#91,#56,.T.);
#110=EDGE_CURVE('',#92,#93,#57,.T.);
#111=EDGE_CURVE('',#94,#92,#58,.T.);
#112=EDGE_CURVE('',#95,#93,#59,.T.);
#113=EDGE_CURVE('',#94,#95,#60,.T.);
#114=EDGE_CURVE('',#89,#94,#61,.T.);
#115=EDGE_CURVE('',#90,#95,#62,.T.);
#116=ORIENTED_EDGE('',*,*,#96,.F.);
#117=ORIENTED_EDGE('',*,*,#97,.T.);
#118=ORIENTED_EDGE('',*,*,#98,.F.);
#119=ORIENTED_EDGE('',*,*,#97,.F.);
#120=ORIENTED_EDGE('',*,*,#99,.F.);
#121=ORIENTED_EDGE('',*,*,#100,.T.);
#122=ORIENTED_EDGE('',*,*,#101,.T.);
#123=ORIENTED_EDGE('',*,*,#100,.F.);
#124=ORIENTED_EDGE('',*,*,#101,.F.);
#125=ORIENTED_EDGE('',*,*,#102,.T.);
#126=ORIENTED_EDGE('',*,*,#103,.F.);
#127=ORIENTED_EDGE('',*,*,#102,.F.);
#128=ORIENTED_EDGE('',*,*,#104,.T.);
#129=ORIENTED_EDGE('',*,*,#105,.T.);
#130=ORIENTED_EDGE('',*,*,#106,.F.);
#131=ORIENTED_EDGE('',*,*,#107,.F.);
#132=ORIENTED_EDGE('',*,*,#108,.T.);
#133=ORIENTED_EDGE('',*,*,#107,.T.);
#134=ORIENTED_EDGE('',*,*,#109,.F.);
#135=ORIENTED_EDGE('',*,*,#110,.F.);
#136=ORIENTED_EDGE('',*,*,#111,.T.);
#137=ORIENTED_EDGE('',*,*,#110,.T.);
#138=ORIENTED_EDGE('',*,*,#112,.F.);
#139=ORIENTED_EDGE('',*,*,#113,.F.);
#140=ORIENTED_EDGE('',*,*,#114,.T.);
#141=ORIENTED_EDGE('',*,*,#113,.T.);
#142=ORIENTED_EDGE('',*,*,#115,.F.);
#143=ORIENTED_EDGE('',*,*,#105,.F.);
#144=ORIENTED_EDGE('',*,*,#115,.T.);
#145=ORIENTED_EDGE('',*,*,#112,.T.);
#146=ORIENTED_EDGE('',*,*,#109,.T.);
#147=ORIENTED_EDGE('',*,*,#106,.T.);
#148=ORIENTED_EDGE('',*,*,#96,.T.);
#149=ORIENTED_EDGE('',*,*,#99,.T.);
#150=ORIENTED_EDGE('',*,*,#114,.F.);
#151=ORIENTED_EDGE('',*,*,#104,.F.);
#152=ORIENTED_EDGE('',*,*,#108,.F.);
#153=ORIENTED_EDGE('',*,*,#111,.F.);
#154=ORIENTED_EDGE('',*,*,#98,.T.);
#155=ORIENTED_EDGE('',*,*,#103,.T.);
#156=CYLINDRICAL_SURFACE('',#181,1.666);
#157=CYLINDRICAL_SURFACE('',#187,1.666);
#158=ADVANCED_FACE('',(#26),#156,.F.);
#159=ADVANCED_FACE('',(#27),#25,.F.);
#160=ADVANCED_FACE('',(#28),#157,.F.);
#161=ADVANCED_FACE('',(#29),#19,.T.);
#162=ADVANCED_FACE('',(#30),#20,.T.);
#163=ADVANCED_FACE('',(#31),#21,.T.);
#164=ADVANCED_FACE('',(#32),#22,.T.);
#165=ADVANCED_FACE('',(#33,#15,#16),#23,.T.);
#166=ADVANCED_FACE('',(#34,#17,#18),#24,.F.);
#167=CLOSED_SHELL('',(#158,#159,#160,#161,#162,#163,#164,#165,#166));
#168=DERIVED_UNIT_ELEMENT(#170,1.);
#169=DERIVED_UNIT_ELEMENT(#288,-3.);
#170=(
MASS_UNIT()
NAMED_UNIT(*)
SI_UNIT(.KILO.,.GRAM.)
);
#171=DERIVED_UNIT((#168,#169));
#172=MEASURE_REPRESENTATION_ITEM('density measure',
POSITIVE_RATIO_MEASURE(7850.),#171);
#173=PROPERTY_DEFINITION_REPRESENTATION(#178,#175);
#174=PROPERTY_DEFINITION_REPRESENTATION(#179,#176);
#175=REPRESENTATION('material name',(#177),#285);
#176=REPRESENTATION('density',(#172),#285);
#177=DESCRIPTIVE_REPRESENTATION_ITEM('Steel','Steel');
#178=PROPERTY_DEFINITION('material property','material name',#295);
#179=PROPERTY_DEFINITION('material property','density of part',#295);
#180=AXIS2_PLACEMENT_3D('',#240,#195,#196);
#181=AXIS2_PLACEMENT_3D('',#241,#197,#198);
#182=AXIS2_PLACEMENT_3D('',#243,#199,#200);
#183=AXIS2_PLACEMENT_3D('',#246,#202,#203);
#184=AXIS2_PLACEMENT_3D('',#247,#204,#205);
#185=AXIS2_PLACEMENT_3D('',#249,#206,#207);
#186=AXIS2_PLACEMENT_3D('',#252,#209,#210);
#187=AXIS2_PLACEMENT_3D('',#253,#211,#212);
#188=AXIS2_PLACEMENT_3D('',#256,#214,#215);
#189=AXIS2_PLACEMENT_3D('',#257,#216,#217);
#190=AXIS2_PLACEMENT_3D('',#266,#222,#223);
#191=AXIS2_PLACEMENT_3D('',#272,#227,#228);
#192=AXIS2_PLACEMENT_3D('',#278,#232,#233);
#193=AXIS2_PLACEMENT_3D('',#281,#236,#237);
#194=AXIS2_PLACEMENT_3D('',#282,#238,#239);
#195=DIRECTION('axis',(0.,0.,1.));
#196=DIRECTION('refdir',(1.,0.,0.));
#197=DIRECTION('center_axis',(0.,-1.,0.));
#198=DIRECTION('ref_axis',(0.,0.,1.));
#199=DIRECTION('center_axis',(0.,-1.,0.));
#200=DIRECTION('ref_axis',(0.,0.,1.));
#201=DIRECTION('',(0.,-1.,0.));
#202=DIRECTION('center_axis',(0.,1.,0.));
#203=DIRECTION('ref_axis',(0.,0.,1.));
#204=DIRECTION('center_axis',(0.,1.,0.));
#205=DIRECTION('ref_axis',(0.,0.,1.));
#206=DIRECTION('center_axis',(0.,-1.,0.));
#207=DIRECTION('ref_axis',(0.,0.,1.));
#208=DIRECTION('',(-8.65956056235493E-17,-0.707106781186548,0.707106781186547));
#209=DIRECTION('center_axis',(0.,-1.,0.));
#210=DIRECTION('ref_axis',(0.,0.,1.));
#211=DIRECTION('center_axis',(0.,-1.,0.));
#212=DIRECTION('ref_axis',(0.,0.,1.));
#213=DIRECTION('',(0.,-1.,0.));
#214=DIRECTION('center_axis',(0.,1.,0.));
#215=DIRECTION('ref_axis',(0.,0.,1.));
#216=DIRECTION('center_axis',(0.,0.,1.));
#217=DIRECTION('ref_axis',(1.,0.,0.));
#218=DIRECTION('',(1.,0.,0.));
#219=DIRECTION('',(0.,1.,0.));
#220=DIRECTION('',(1.,0.,0.));
#221=DIRECTION('',(0.,1.,0.));
#222=DIRECTION('center_axis',(-1.,0.,-5.55111512312578E-17));
#223=DIRECTION('ref_axis',(-5.55111512312578E-17,0.,1.));
#224=DIRECTION('',(-5.55111512312578E-17,0.,1.));
#225=DIRECTION('',(-5.55111512312578E-17,0.,1.));
#226=DIRECTION('',(0.,1.,0.));
#227=DIRECTION('center_axis',(-1.58603289232165E-16,0.,-1.));
#228=DIRECTION('ref_axis',(-1.,0.,1.58603289232165E-16));
#229=DIRECTION('',(-1.,0.,1.58603289232165E-16));
#230=DIRECTION('',(-1.,0.,1.58603289232165E-16));
#231=DIRECTION('',(0.,1.,0.));
#232=DIRECTION('center_axis',(1.,0.,-5.55111512312578E-17));
#233=DIRECTION('ref_axis',(-5.55111512312578E-17,0.,-1.));
#234=DIRECTION('',(-5.55111512312578E-17,0.,-1.));
#235=DIRECTION('',(-5.55111512312578E-17,0.,-1.));
#236=DIRECTION('center_axis',(0.,1.,0.));
#237=DIRECTION('ref_axis',(0.,0.,1.));
#238=DIRECTION('center_axis',(0.,1.,0.));
#239=DIRECTION('ref_axis',(1.,0.,0.));
#240=CARTESIAN_POINT('',(0.,0.,0.));
#241=CARTESIAN_POINT('Origin',(-0.0293616065691982,2.5,6.42282848866009));
#242=CARTESIAN_POINT('',(-0.029361606569198,5.,4.75682848866009));
#243=CARTESIAN_POINT('Origin',(-0.0293616065691982,5.,6.42282848866009));
#244=CARTESIAN_POINT('',(-0.029361606569198,0.,4.75682848866009));
#245=CARTESIAN_POINT('',(-0.029361606569198,2.5,4.75682848866009));
#246=CARTESIAN_POINT('Origin',(-0.0293616065691982,0.,6.42282848866009));
#247=CARTESIAN_POINT('Origin',(0.,4.583,0.));
#248=CARTESIAN_POINT('',(3.06161699786838E-16,5.,-2.5));
#249=CARTESIAN_POINT('Origin',(0.,5.,0.));
#250=CARTESIAN_POINT('',(2.04026156737949E-16,4.166,-1.666));
#251=CARTESIAN_POINT('',(2.55093928262394E-16,4.583,-2.083));
#252=CARTESIAN_POINT('Origin',(0.,4.166,0.));
#253=CARTESIAN_POINT('Origin',(0.,2.5,0.));
#254=CARTESIAN_POINT('',(2.04026156737949E-16,0.,-1.666));
#255=CARTESIAN_POINT('',(2.04026156737949E-16,2.5,-1.666));
#256=CARTESIAN_POINT('Origin',(0.,0.,0.));
#257=CARTESIAN_POINT('Origin',(-7.,0.,10.));
#258=CARTESIAN_POINT('',(-7.,0.,10.));
#259=CARTESIAN_POINT('',(7.,0.,10.));
#260=CARTESIAN_POINT('',(-7.,0.,10.));
#261=CARTESIAN_POINT('',(7.,5.,10.));
#262=CARTESIAN_POINT('',(7.,0.,10.));
#263=CARTESIAN_POINT('',(-7.,5.,10.));
#264=CARTESIAN_POINT('',(-7.,5.,10.));
#265=CARTESIAN_POINT('',(-7.,0.,10.));
#266=CARTESIAN_POINT('Origin',(-7.,0.,-10.));
#267=CARTESIAN_POINT('',(-7.,0.,-10.));
#268=CARTESIAN_POINT('',(-7.,0.,-10.));
#269=CARTESIAN_POINT('',(-7.,5.,-10.));
#270=CARTESIAN_POINT('',(-7.,5.,-10.));
#271=CARTESIAN_POINT('',(-7.,0.,-10.));
#272=CARTESIAN_POINT('Origin',(7.,0.,-10.));
#273=CARTESIAN_POINT('',(7.,0.,-10.));
#274=CARTESIAN_POINT('',(7.,0.,-10.));
#275=CARTESIAN_POINT('',(7.,5.,-10.));
#276=CARTESIAN_POINT('',(7.,5.,-10.));
#277=CARTESIAN_POINT('',(7.,0.,-10.));
#278=CARTESIAN_POINT('Origin',(7.,0.,10.));
#279=CARTESIAN_POINT('',(7.,0.,10.));
#280=CARTESIAN_POINT('',(7.,5.,10.));
#281=CARTESIAN_POINT('Origin',(-1.11022302462516E-15,5.,2.22044604925031E-15));
#282=CARTESIAN_POINT('Origin',(-1.11022302462516E-15,0.,2.22044604925031E-15));
#283=UNCERTAINTY_MEASURE_WITH_UNIT(LENGTH_MEASURE(0.01),#287,
'DISTANCE_ACCURACY_VALUE',
'Maximum model space distance between geometric entities at asserted c
onnectivities');
#284=UNCERTAINTY_MEASURE_WITH_UNIT(LENGTH_MEASURE(0.01),#287,
'DISTANCE_ACCURACY_VALUE',
'Maximum model space distance between geometric entities at asserted c
onnectivities');
#285=(
GEOMETRIC_REPRESENTATION_CONTEXT(3)
GLOBAL_UNCERTAINTY_ASSIGNED_CONTEXT((#283))
GLOBAL_UNIT_ASSIGNED_CONTEXT((#287,#289,#290))
REPRESENTATION_CONTEXT('','3D')
);
#286=(
GEOMETRIC_REPRESENTATION_CONTEXT(3)
GLOBAL_UNCERTAINTY_ASSIGNED_CONTEXT((#284))
GLOBAL_UNIT_ASSIGNED_CONTEXT((#287,#289,#290))
REPRESENTATION_CONTEXT('','3D')
);
#287=(
LENGTH_UNIT()
NAMED_UNIT(*)
SI_UNIT(.MILLI.,.METRE.)
);
#288=(
LENGTH_UNIT()
NAMED_UNIT(*)
SI_UNIT($,.METRE.)
);
#289=(
NAMED_UNIT(*)
PLANE_ANGLE_UNIT()
SI_UNIT($,.RADIAN.)
);
#290=(
NAMED_UNIT(*)
SI_UNIT($,.STERADIAN.)
SOLID_ANGLE_UNIT()
);
#291=SHAPE_DEFINITION_REPRESENTATION(#292,#293);
#292=PRODUCT_DEFINITION_SHAPE('',$,#295);
#293=SHAPE_REPRESENTATION('',(#180),#285);
#294=PRODUCT_DEFINITION_CONTEXT('part definition',#299,'design');
#295=PRODUCT_DEFINITION('2026-05-18-10-46-38-645',
'Horizontal_handle_lowerPart_v1',#296,#294);
#296=PRODUCT_DEFINITION_FORMATION('',$,#301);
#297=PRODUCT_RELATED_PRODUCT_CATEGORY('Horizontal_handle_lowerPart_v1',
'Horizontal_handle_lowerPart_v1',(#301));
#298=APPLICATION_PROTOCOL_DEFINITION('international standard',
'automotive_design',2009,#299);
#299=APPLICATION_CONTEXT(
'Core Data for Automotive Mechanical Design Process');
#300=PRODUCT_CONTEXT('part definition',#299,'mechanical');
#301=PRODUCT('2026-05-18-10-46-38-645','Horizontal_handle_lowerPart_v1',
$,(#300));
#302=PRESENTATION_STYLE_ASSIGNMENT((#303));
#303=SURFACE_STYLE_USAGE(.BOTH.,#304);
#304=SURFACE_SIDE_STYLE('',(#305));
#305=SURFACE_STYLE_FILL_AREA(#306);
#306=FILL_AREA_STYLE('Steel - Satin',(#307));
#307=FILL_AREA_STYLE_COLOUR('Steel - Satin',#308);
#308=COLOUR_RGB('Steel - Satin',0.627450980392157,0.627450980392157,0.627450980392157);
ENDSEC;
END-ISO-10303-21;
