ISO-10303-21;
HEADER;
/* Generated by software containing ST-Developer
 * from STEP Tools, Inc. (www.steptools.com) 
 */

FILE_DESCRIPTION(
/* description */ (''),
/* implementation_level */ '2;1');

FILE_NAME(
/* name */ 'Horizontal_handle_upperPart_v1.step',
/* time_stamp */ '2026-05-19T10:58:23+02:00',
/* author */ (''),
/* organization */ (''),
/* preprocessor_version */ 'ST-DEVELOPER v20.1',
/* originating_system */ 'Autodesk Translation Framework v15.8.0.0',
/* authorisation */ '');

FILE_SCHEMA (('AUTOMOTIVE_DESIGN { 1 0 10303 214 3 1 1 }'));
ENDSEC;

DATA;
#10=MECHANICAL_DESIGN_GEOMETRIC_PRESENTATION_REPRESENTATION('',(#13),#632);
#11=SHAPE_REPRESENTATION_RELATIONSHIP('SRR','None',#639,#12);
#12=ADVANCED_BREP_SHAPE_REPRESENTATION('',(#14),#631);
#13=STYLED_ITEM('',(#648),#14);
#14=MANIFOLD_SOLID_BREP('Body1',#232);
#15=(
BOUNDED_CURVE()
B_SPLINE_CURVE(5,(#580,#581,#582,#583,#584,#585,#586,#587,#588,#589,#590,
#591,#592,#593,#594,#595,#596,#597,#598,#599,#600,#601,#602,#603,#604),
 .UNSPECIFIED.,.F.,.F.)
B_SPLINE_CURVE_WITH_KNOTS((6,1,1,1,1,1,1,1,1,1,1,1,1,1,1,1,1,1,1,1,6),(0.,
0.05,0.1,0.15,0.2,0.25,0.3,0.35,0.4,0.45,0.5,0.55,0.6,0.65,0.7,0.75,0.8,
0.85,0.9,0.95,1.),.UNSPECIFIED.)
CURVE()
GEOMETRIC_REPRESENTATION_ITEM()
RATIONAL_B_SPLINE_CURVE((1.,1.,1.,1.,1.,1.,1.,1.,1.,1.,1.,1.,1.,1.,1.,1.,
1.,1.,1.,1.,1.,1.,1.,1.,1.))
REPRESENTATION_ITEM('')
);
#16=(
BOUNDED_SURFACE()
B_SPLINE_SURFACE(5,2,((#353,#354,#355,#356,#357,#358,#359,#360,#361),(#362,
#363,#364,#365,#366,#367,#368,#369,#370),(#371,#372,#373,#374,#375,#376,
#377,#378,#379),(#380,#381,#382,#383,#384,#385,#386,#387,#388),(#389,#390,
#391,#392,#393,#394,#395,#396,#397),(#398,#399,#400,#401,#402,#403,#404,
#405,#406),(#407,#408,#409,#410,#411,#412,#413,#414,#415),(#416,#417,#418,
#419,#420,#421,#422,#423,#424),(#425,#426,#427,#428,#429,#430,#431,#432,
#433),(#434,#435,#436,#437,#438,#439,#440,#441,#442),(#443,#444,#445,#446,
#447,#448,#449,#450,#451),(#452,#453,#454,#455,#456,#457,#458,#459,#460),
(#461,#462,#463,#464,#465,#466,#467,#468,#469),(#470,#471,#472,#473,#474,
#475,#476,#477,#478),(#479,#480,#481,#482,#483,#484,#485,#486,#487),(#488,
#489,#490,#491,#492,#493,#494,#495,#496),(#497,#498,#499,#500,#501,#502,
#503,#504,#505),(#506,#507,#508,#509,#510,#511,#512,#513,#514),(#515,#516,
#517,#518,#519,#520,#521,#522,#523),(#524,#525,#526,#527,#528,#529,#530,
#531,#532),(#533,#534,#535,#536,#537,#538,#539,#540,#541),(#542,#543,#544,
#545,#546,#547,#548,#549,#550),(#551,#552,#553,#554,#555,#556,#557,#558,
#559),(#560,#561,#562,#563,#564,#565,#566,#567,#568),(#569,#570,#571,#572,
#573,#574,#575,#576,#577)),.UNSPECIFIED.,.F.,.T.,.F.)
B_SPLINE_SURFACE_WITH_KNOTS((6,1,1,1,1,1,1,1,1,1,1,1,1,1,1,1,1,1,1,1,6),
(3,2,2,2,3),(0.,0.05,0.1,0.15,0.2,0.25,0.3,0.35,0.4,0.45,0.5,0.55,0.6,0.65,
0.7,0.75,0.8,0.85,0.9,0.95,1.),(0.,1.5707963267949,3.14159265358979,4.71238898038469,
6.28318530717959),.UNSPECIFIED.)
GEOMETRIC_REPRESENTATION_ITEM()
RATIONAL_B_SPLINE_SURFACE(((1.,0.707106781186548,1.,0.707106781186548,1.,
0.707106781186548,1.,0.707106781186548,1.),(1.,0.707106781186548,1.,0.707106781186548,
1.,0.707106781186548,1.,0.707106781186548,1.),(1.,0.707106781186548,1.,
0.707106781186548,1.,0.707106781186548,1.,0.707106781186548,1.),(1.,0.707106781186548,
1.,0.707106781186548,1.,0.707106781186548,1.,0.707106781186548,1.),(1.,
0.707106781186548,1.,0.707106781186548,1.,0.707106781186548,1.,0.707106781186548,
1.),(1.,0.707106781186548,1.,0.707106781186548,1.,0.707106781186548,1.,
0.707106781186548,1.),(1.,0.707106781186548,1.,0.707106781186548,1.,0.707106781186548,
1.,0.707106781186548,1.),(1.,0.707106781186548,1.,0.707106781186548,1.,
0.707106781186548,1.,0.707106781186548,1.),(1.,0.707106781186548,1.,0.707106781186548,
1.,0.707106781186548,1.,0.707106781186548,1.),(1.,0.707106781186548,1.,
0.707106781186548,1.,0.707106781186548,1.,0.707106781186548,1.),(1.,0.707106781186548,
1.,0.707106781186548,1.,0.707106781186548,1.,0.707106781186548,1.),(1.,
0.707106781186548,1.,0.707106781186548,1.,0.707106781186548,1.,0.707106781186548,
1.),(1.,0.707106781186548,1.,0.707106781186548,1.,0.707106781186548,1.,
0.707106781186548,1.),(1.,0.707106781186548,1.,0.707106781186548,1.,0.707106781186548,
1.,0.707106781186548,1.),(1.,0.707106781186548,1.,0.707106781186548,1.,
0.707106781186548,1.,0.707106781186548,1.),(1.,0.707106781186548,1.,0.707106781186548,
1.,0.707106781186548,1.,0.707106781186548,1.),(1.,0.707106781186548,1.,
0.707106781186548,1.,0.707106781186548,1.,0.707106781186548,1.),(1.,0.707106781186548,
1.,0.707106781186548,1.,0.707106781186548,1.,0.707106781186548,1.),(1.,
0.707106781186548,1.,0.707106781186548,1.,0.707106781186548,1.,0.707106781186548,
1.),(1.,0.707106781186548,1.,0.707106781186548,1.,0.707106781186548,1.,
0.707106781186548,1.),(1.,0.707106781186548,1.,0.707106781186548,1.,0.707106781186548,
1.,0.707106781186548,1.),(1.,0.707106781186548,1.,0.707106781186548,1.,
0.707106781186548,1.,0.707106781186548,1.),(1.,0.707106781186548,1.,0.707106781186548,
1.,0.707106781186548,1.,0.707106781186548,1.),(1.,0.707106781186548,1.,
0.707106781186548,1.,0.707106781186548,1.,0.707106781186548,1.),(1.,0.707106781186548,
1.,0.707106781186548,1.,0.707106781186548,1.,0.707106781186548,1.)))
REPRESENTATION_ITEM('')
SURFACE()
);
#17=FACE_BOUND('',#48,.T.);
#18=FACE_BOUND('',#56,.T.);
#19=PLANE('',#249);
#20=PLANE('',#250);
#21=PLANE('',#251);
#22=PLANE('',#252);
#23=PLANE('',#253);
#24=PLANE('',#255);
#25=PLANE('',#256);
#26=PLANE('',#257);
#27=PLANE('',#258);
#28=PLANE('',#259);
#29=PLANE('',#260);
#30=FACE_OUTER_BOUND('',#43,.T.);
#31=FACE_OUTER_BOUND('',#44,.T.);
#32=FACE_OUTER_BOUND('',#45,.T.);
#33=FACE_OUTER_BOUND('',#46,.T.);
#34=FACE_OUTER_BOUND('',#47,.T.);
#35=FACE_OUTER_BOUND('',#49,.T.);
#36=FACE_OUTER_BOUND('',#50,.T.);
#37=FACE_OUTER_BOUND('',#51,.T.);
#38=FACE_OUTER_BOUND('',#52,.T.);
#39=FACE_OUTER_BOUND('',#53,.T.);
#40=FACE_OUTER_BOUND('',#54,.T.);
#41=FACE_OUTER_BOUND('',#55,.T.);
#42=FACE_OUTER_BOUND('',#57,.T.);
#43=EDGE_LOOP('',(#160,#161,#162,#163));
#44=EDGE_LOOP('',(#164));
#45=EDGE_LOOP('',(#165,#166,#167,#168));
#46=EDGE_LOOP('',(#169,#170,#171,#172));
#47=EDGE_LOOP('',(#173,#174,#175,#176));
#48=EDGE_LOOP('',(#177));
#49=EDGE_LOOP('',(#178,#179,#180,#181));
#50=EDGE_LOOP('',(#182,#183,#184));
#51=EDGE_LOOP('',(#185,#186,#187,#188));
#52=EDGE_LOOP('',(#189,#190,#191,#192,#193,#194,#195,#196));
#53=EDGE_LOOP('',(#197,#198,#199,#200));
#54=EDGE_LOOP('',(#201,#202,#203,#204,#205,#206,#207,#208));
#55=EDGE_LOOP('',(#209,#210,#211,#212));
#56=EDGE_LOOP('',(#213));
#57=EDGE_LOOP('',(#214,#215,#216,#217));
#58=LINE('',#323,#83);
#59=LINE('',#329,#84);
#60=LINE('',#331,#85);
#61=LINE('',#333,#86);
#62=LINE('',#334,#87);
#63=LINE('',#338,#88);
#64=LINE('',#340,#89);
#65=LINE('',#342,#90);
#66=LINE('',#343,#91);
#67=LINE('',#345,#92);
#68=LINE('',#346,#93);
#69=LINE('',#349,#94);
#70=LINE('',#351,#95);
#71=LINE('',#352,#96);
#72=LINE('',#609,#97);
#73=LINE('',#611,#98);
#74=LINE('',#613,#99);
#75=LINE('',#614,#100);
#76=LINE('',#616,#101);
#77=LINE('',#618,#102);
#78=LINE('',#619,#103);
#79=LINE('',#622,#104);
#80=LINE('',#623,#105);
#81=LINE('',#625,#106);
#82=LINE('',#626,#107);
#83=VECTOR('',#267,1.666);
#84=VECTOR('',#274,10.);
#85=VECTOR('',#275,10.);
#86=VECTOR('',#276,10.);
#87=VECTOR('',#277,10.);
#88=VECTOR('',#280,10.);
#89=VECTOR('',#281,10.);
#90=VECTOR('',#282,10.);
#91=VECTOR('',#283,10.);
#92=VECTOR('',#286,10.);
#93=VECTOR('',#287,10.);
#94=VECTOR('',#290,10.);
#95=VECTOR('',#291,10.);
#96=VECTOR('',#292,10.);
#97=VECTOR('',#297,10.);
#98=VECTOR('',#298,10.);
#99=VECTOR('',#299,10.);
#100=VECTOR('',#300,10.);
#101=VECTOR('',#303,10.);
#102=VECTOR('',#304,10.);
#103=VECTOR('',#305,10.);
#104=VECTOR('',#308,10.);
#105=VECTOR('',#309,10.);
#106=VECTOR('',#312,10.);
#107=VECTOR('',#313,10.);
#108=CIRCLE('',#247,1.666);
#109=CIRCLE('',#248,1.666);
#110=CIRCLE('',#254,4.00000005960464);
#111=VERTEX_POINT('',#320);
#112=VERTEX_POINT('',#322);
#113=VERTEX_POINT('',#327);
#114=VERTEX_POINT('',#328);
#115=VERTEX_POINT('',#330);
#116=VERTEX_POINT('',#332);
#117=VERTEX_POINT('',#336);
#118=VERTEX_POINT('',#337);
#119=VERTEX_POINT('',#339);
#120=VERTEX_POINT('',#341);
#121=VERTEX_POINT('',#348);
#122=VERTEX_POINT('',#350);
#123=VERTEX_POINT('',#578);
#124=VERTEX_POINT('',#579);
#125=VERTEX_POINT('',#607);
#126=VERTEX_POINT('',#608);
#127=VERTEX_POINT('',#610);
#128=VERTEX_POINT('',#612);
#129=VERTEX_POINT('',#617);
#130=VERTEX_POINT('',#621);
#131=EDGE_CURVE('',#111,#111,#108,.T.);
#132=EDGE_CURVE('',#111,#112,#58,.T.);
#133=EDGE_CURVE('',#112,#112,#109,.T.);
#134=EDGE_CURVE('',#113,#114,#59,.T.);
#135=EDGE_CURVE('',#113,#115,#60,.T.);
#136=EDGE_CURVE('',#116,#115,#61,.T.);
#137=EDGE_CURVE('',#114,#116,#62,.T.);
#138=EDGE_CURVE('',#117,#118,#63,.T.);
#139=EDGE_CURVE('',#117,#119,#64,.T.);
#140=EDGE_CURVE('',#120,#119,#65,.T.);
#141=EDGE_CURVE('',#118,#120,#66,.T.);
#142=EDGE_CURVE('',#119,#116,#67,.T.);
#143=EDGE_CURVE('',#115,#120,#68,.T.);
#144=EDGE_CURVE('',#121,#118,#69,.T.);
#145=EDGE_CURVE('',#122,#121,#70,.T.);
#146=EDGE_CURVE('',#117,#122,#71,.T.);
#147=EDGE_CURVE('',#123,#124,#15,.T.);
#148=EDGE_CURVE('',#123,#123,#110,.T.);
#149=EDGE_CURVE('',#125,#126,#72,.T.);
#150=EDGE_CURVE('',#126,#127,#73,.T.);
#151=EDGE_CURVE('',#128,#127,#74,.T.);
#152=EDGE_CURVE('',#125,#128,#75,.T.);
#153=EDGE_CURVE('',#113,#125,#76,.T.);
#154=EDGE_CURVE('',#129,#128,#77,.T.);
#155=EDGE_CURVE('',#121,#129,#78,.T.);
#156=EDGE_CURVE('',#130,#129,#79,.T.);
#157=EDGE_CURVE('',#122,#130,#80,.T.);
#158=EDGE_CURVE('',#126,#114,#81,.T.);
#159=EDGE_CURVE('',#127,#130,#82,.T.);
#160=ORIENTED_EDGE('',*,*,#131,.F.);
#161=ORIENTED_EDGE('',*,*,#132,.T.);
#162=ORIENTED_EDGE('',*,*,#133,.T.);
#163=ORIENTED_EDGE('',*,*,#132,.F.);
#164=ORIENTED_EDGE('',*,*,#133,.F.);
#165=ORIENTED_EDGE('',*,*,#134,.F.);
#166=ORIENTED_EDGE('',*,*,#135,.T.);
#167=ORIENTED_EDGE('',*,*,#136,.F.);
#168=ORIENTED_EDGE('',*,*,#137,.F.);
#169=ORIENTED_EDGE('',*,*,#138,.F.);
#170=ORIENTED_EDGE('',*,*,#139,.T.);
#171=ORIENTED_EDGE('',*,*,#140,.F.);
#172=ORIENTED_EDGE('',*,*,#141,.F.);
#173=ORIENTED_EDGE('',*,*,#140,.T.);
#174=ORIENTED_EDGE('',*,*,#142,.T.);
#175=ORIENTED_EDGE('',*,*,#136,.T.);
#176=ORIENTED_EDGE('',*,*,#143,.T.);
#177=ORIENTED_EDGE('',*,*,#131,.T.);
#178=ORIENTED_EDGE('',*,*,#138,.T.);
#179=ORIENTED_EDGE('',*,*,#144,.F.);
#180=ORIENTED_EDGE('',*,*,#145,.F.);
#181=ORIENTED_EDGE('',*,*,#146,.F.);
#182=ORIENTED_EDGE('',*,*,#147,.T.);
#183=ORIENTED_EDGE('',*,*,#147,.F.);
#184=ORIENTED_EDGE('',*,*,#148,.F.);
#185=ORIENTED_EDGE('',*,*,#149,.T.);
#186=ORIENTED_EDGE('',*,*,#150,.T.);
#187=ORIENTED_EDGE('',*,*,#151,.F.);
#188=ORIENTED_EDGE('',*,*,#152,.F.);
#189=ORIENTED_EDGE('',*,*,#144,.T.);
#190=ORIENTED_EDGE('',*,*,#141,.T.);
#191=ORIENTED_EDGE('',*,*,#143,.F.);
#192=ORIENTED_EDGE('',*,*,#135,.F.);
#193=ORIENTED_EDGE('',*,*,#153,.T.);
#194=ORIENTED_EDGE('',*,*,#152,.T.);
#195=ORIENTED_EDGE('',*,*,#154,.F.);
#196=ORIENTED_EDGE('',*,*,#155,.F.);
#197=ORIENTED_EDGE('',*,*,#145,.T.);
#198=ORIENTED_EDGE('',*,*,#155,.T.);
#199=ORIENTED_EDGE('',*,*,#156,.F.);
#200=ORIENTED_EDGE('',*,*,#157,.F.);
#201=ORIENTED_EDGE('',*,*,#158,.T.);
#202=ORIENTED_EDGE('',*,*,#137,.T.);
#203=ORIENTED_EDGE('',*,*,#142,.F.);
#204=ORIENTED_EDGE('',*,*,#139,.F.);
#205=ORIENTED_EDGE('',*,*,#146,.T.);
#206=ORIENTED_EDGE('',*,*,#157,.T.);
#207=ORIENTED_EDGE('',*,*,#159,.F.);
#208=ORIENTED_EDGE('',*,*,#150,.F.);
#209=ORIENTED_EDGE('',*,*,#159,.T.);
#210=ORIENTED_EDGE('',*,*,#156,.T.);
#211=ORIENTED_EDGE('',*,*,#154,.T.);
#212=ORIENTED_EDGE('',*,*,#151,.T.);
#213=ORIENTED_EDGE('',*,*,#148,.T.);
#214=ORIENTED_EDGE('',*,*,#134,.T.);
#215=ORIENTED_EDGE('',*,*,#158,.F.);
#216=ORIENTED_EDGE('',*,*,#149,.F.);
#217=ORIENTED_EDGE('',*,*,#153,.F.);
#218=CYLINDRICAL_SURFACE('',#246,1.666);
#219=ADVANCED_FACE('',(#30),#218,.F.);
#220=ADVANCED_FACE('',(#31),#19,.F.);
#221=ADVANCED_FACE('',(#32),#20,.T.);
#222=ADVANCED_FACE('',(#33),#21,.T.);
#223=ADVANCED_FACE('',(#34,#17),#22,.T.);
#224=ADVANCED_FACE('',(#35),#23,.F.);
#225=ADVANCED_FACE('',(#36),#16,.T.);
#226=ADVANCED_FACE('',(#37),#24,.T.);
#227=ADVANCED_FACE('',(#38),#25,.T.);
#228=ADVANCED_FACE('',(#39),#26,.T.);
#229=ADVANCED_FACE('',(#40),#27,.T.);
#230=ADVANCED_FACE('',(#41,#18),#28,.T.);
#231=ADVANCED_FACE('',(#42),#29,.F.);
#232=CLOSED_SHELL('',(#219,#220,#221,#222,#223,#224,#225,#226,#227,#228,
#229,#230,#231));
#233=DERIVED_UNIT_ELEMENT(#235,1.);
#234=DERIVED_UNIT_ELEMENT(#634,-3.);
#235=(
MASS_UNIT()
NAMED_UNIT(*)
SI_UNIT(.KILO.,.GRAM.)
);
#236=DERIVED_UNIT((#233,#234));
#237=MEASURE_REPRESENTATION_ITEM('density measure',
POSITIVE_RATIO_MEASURE(7850.),#236);
#238=PROPERTY_DEFINITION_REPRESENTATION(#243,#240);
#239=PROPERTY_DEFINITION_REPRESENTATION(#244,#241);
#240=REPRESENTATION('material name',(#242),#631);
#241=REPRESENTATION('density',(#237),#631);
#242=DESCRIPTIVE_REPRESENTATION_ITEM('Steel','Steel');
#243=PROPERTY_DEFINITION('material property','material name',#641);
#244=PROPERTY_DEFINITION('material property','density of part',#641);
#245=AXIS2_PLACEMENT_3D('',#318,#261,#262);
#246=AXIS2_PLACEMENT_3D('',#319,#263,#264);
#247=AXIS2_PLACEMENT_3D('',#321,#265,#266);
#248=AXIS2_PLACEMENT_3D('',#324,#268,#269);
#249=AXIS2_PLACEMENT_3D('',#325,#270,#271);
#250=AXIS2_PLACEMENT_3D('',#326,#272,#273);
#251=AXIS2_PLACEMENT_3D('',#335,#278,#279);
#252=AXIS2_PLACEMENT_3D('',#344,#284,#285);
#253=AXIS2_PLACEMENT_3D('',#347,#288,#289);
#254=AXIS2_PLACEMENT_3D('',#605,#293,#294);
#255=AXIS2_PLACEMENT_3D('',#606,#295,#296);
#256=AXIS2_PLACEMENT_3D('',#615,#301,#302);
#257=AXIS2_PLACEMENT_3D('',#620,#306,#307);
#258=AXIS2_PLACEMENT_3D('',#624,#310,#311);
#259=AXIS2_PLACEMENT_3D('',#627,#314,#315);
#260=AXIS2_PLACEMENT_3D('',#628,#316,#317);
#261=DIRECTION('axis',(0.,0.,1.));
#262=DIRECTION('refdir',(1.,0.,0.));
#263=DIRECTION('center_axis',(0.,1.,0.));
#264=DIRECTION('ref_axis',(0.,0.,-1.));
#265=DIRECTION('center_axis',(0.,1.,0.));
#266=DIRECTION('ref_axis',(0.,0.,-1.));
#267=DIRECTION('',(0.,1.,0.));
#268=DIRECTION('center_axis',(0.,1.,0.));
#269=DIRECTION('ref_axis',(0.,0.,-1.));
#270=DIRECTION('center_axis',(0.,1.,0.));
#271=DIRECTION('ref_axis',(0.,0.,-1.));
#272=DIRECTION('center_axis',(-3.96508223080413E-17,0.,1.));
#273=DIRECTION('ref_axis',(-1.,0.,-3.96508223080413E-17));
#274=DIRECTION('',(1.,0.,3.96508223080413E-17));
#275=DIRECTION('',(0.,-1.,0.));
#276=DIRECTION('',(-1.,0.,-3.96508223080413E-17));
#277=DIRECTION('',(0.,-1.,0.));
#278=DIRECTION('center_axis',(0.,0.,-1.));
#279=DIRECTION('ref_axis',(1.,0.,0.));
#280=DIRECTION('',(-1.,0.,0.));
#281=DIRECTION('',(0.,-1.,0.));
#282=DIRECTION('',(1.,0.,0.));
#283=DIRECTION('',(0.,-1.,0.));
#284=DIRECTION('center_axis',(0.,-1.,0.));
#285=DIRECTION('ref_axis',(0.,0.,-1.));
#286=DIRECTION('',(0.,0.,1.));
#287=DIRECTION('',(0.,0.,-1.));
#288=DIRECTION('center_axis',(0.,1.,0.));
#289=DIRECTION('ref_axis',(1.,0.,0.));
#290=DIRECTION('',(-5.55111512312578E-17,0.,1.));
#291=DIRECTION('',(-1.,0.,1.58603289232165E-16));
#292=DIRECTION('',(-5.55111512312578E-17,0.,-1.));
#293=DIRECTION('center_axis',(0.,-1.,0.));
#294=DIRECTION('ref_axis',(1.,0.,0.));
#295=DIRECTION('center_axis',(0.,0.,1.));
#296=DIRECTION('ref_axis',(1.,0.,0.));
#297=DIRECTION('',(1.,0.,0.));
#298=DIRECTION('',(0.,1.,0.));
#299=DIRECTION('',(1.,0.,0.));
#300=DIRECTION('',(0.,1.,0.));
#301=DIRECTION('center_axis',(-1.,0.,-5.55111512312578E-17));
#302=DIRECTION('ref_axis',(-5.55111512312578E-17,0.,1.));
#303=DIRECTION('',(-5.55111512312578E-17,0.,1.));
#304=DIRECTION('',(-5.55111512312578E-17,0.,1.));
#305=DIRECTION('',(0.,1.,0.));
#306=DIRECTION('center_axis',(-1.58603289232165E-16,0.,-1.));
#307=DIRECTION('ref_axis',(-1.,0.,1.58603289232165E-16));
#308=DIRECTION('',(-1.,0.,1.58603289232165E-16));
#309=DIRECTION('',(0.,1.,0.));
#310=DIRECTION('center_axis',(1.,0.,-5.55111512312578E-17));
#311=DIRECTION('ref_axis',(-5.55111512312578E-17,0.,-1.));
#312=DIRECTION('',(-5.55111512312578E-17,0.,-1.));
#313=DIRECTION('',(-5.55111512312578E-17,0.,-1.));
#314=DIRECTION('center_axis',(0.,1.,0.));
#315=DIRECTION('ref_axis',(0.,0.,1.));
#316=DIRECTION('center_axis',(0.,1.,0.));
#317=DIRECTION('ref_axis',(1.,0.,0.));
#318=CARTESIAN_POINT('',(0.,0.,0.));
#319=CARTESIAN_POINT('Origin',(0.,-3.5,0.));
#320=CARTESIAN_POINT('',(2.04026156737949E-16,-5.5,1.666));
#321=CARTESIAN_POINT('Origin',(0.,-5.5,0.));
#322=CARTESIAN_POINT('',(2.04026156737949E-16,-1.5,1.666));
#323=CARTESIAN_POINT('',(2.04026156737949E-16,-3.5,1.666));
#324=CARTESIAN_POINT('Origin',(0.,-1.5,0.));
#325=CARTESIAN_POINT('Origin',(0.,-1.5,0.));
#326=CARTESIAN_POINT('Origin',(7.,0.,4.5));
#327=CARTESIAN_POINT('',(-7.,0.,4.5));
#328=CARTESIAN_POINT('',(7.,0.,4.5));
#329=CARTESIAN_POINT('',(3.5,0.,4.5));
#330=CARTESIAN_POINT('',(-7.,-5.5,4.5));
#331=CARTESIAN_POINT('',(-7.,0.,4.5));
#332=CARTESIAN_POINT('',(7.,-5.5,4.5));
#333=CARTESIAN_POINT('',(7.,-5.5,4.5));
#334=CARTESIAN_POINT('',(7.,0.,4.5));
#335=CARTESIAN_POINT('Origin',(-7.,0.,-4.5));
#336=CARTESIAN_POINT('',(7.,0.,-4.5));
#337=CARTESIAN_POINT('',(-7.,0.,-4.5));
#338=CARTESIAN_POINT('',(-3.5,0.,-4.5));
#339=CARTESIAN_POINT('',(7.,-5.5,-4.5));
#340=CARTESIAN_POINT('',(7.,0.,-4.5));
#341=CARTESIAN_POINT('',(-7.,-5.5,-4.5));
#342=CARTESIAN_POINT('',(-7.,-5.5,-4.5));
#343=CARTESIAN_POINT('',(-7.,0.,-4.5));
#344=CARTESIAN_POINT('Origin',(1.11022302462516E-15,-5.5,1.11022302462516E-15));
#345=CARTESIAN_POINT('',(7.,-5.5,-4.5));
#346=CARTESIAN_POINT('',(-7.,-5.5,4.5));
#347=CARTESIAN_POINT('Origin',(-1.11022302462516E-15,0.,2.22044604925031E-15));
#348=CARTESIAN_POINT('',(-7.,0.,-10.));
#349=CARTESIAN_POINT('',(-7.,0.,-10.));
#350=CARTESIAN_POINT('',(7.,0.,-10.));
#351=CARTESIAN_POINT('',(7.,0.,-10.));
#352=CARTESIAN_POINT('',(7.,0.,10.));
#353=CARTESIAN_POINT('Ctrl Pts',(4.00000005960464,2.00000002980232,0.));
#354=CARTESIAN_POINT('Ctrl Pts',(4.00000005960464,2.00000002980232,4.00000005960464));
#355=CARTESIAN_POINT('Ctrl Pts',(0.,2.00000002980232,4.00000005960464));
#356=CARTESIAN_POINT('Ctrl Pts',(-4.00000005960464,2.00000002980232,4.00000005960464));
#357=CARTESIAN_POINT('Ctrl Pts',(-4.00000005960464,2.00000002980232,0.));
#358=CARTESIAN_POINT('Ctrl Pts',(-4.00000005960464,2.00000002980232,-4.00000005960464));
#359=CARTESIAN_POINT('Ctrl Pts',(0.,2.00000002980232,-4.00000005960464));
#360=CARTESIAN_POINT('Ctrl Pts',(4.00000005960464,2.00000002980232,-4.00000005960464));
#361=CARTESIAN_POINT('Ctrl Pts',(4.00000005960464,2.00000002980232,0.));
#362=CARTESIAN_POINT('Ctrl Pts',(4.00107744282653,2.15793376794365,0.));
#363=CARTESIAN_POINT('Ctrl Pts',(4.00107744282653,2.15793376794365,4.00107744282653));
#364=CARTESIAN_POINT('Ctrl Pts',(0.,2.15793376794365,4.00107744282653));
#365=CARTESIAN_POINT('Ctrl Pts',(-4.00107744282653,2.15793376794365,4.00107744282653));
#366=CARTESIAN_POINT('Ctrl Pts',(-4.00107744282653,2.15793376794365,0.));
#367=CARTESIAN_POINT('Ctrl Pts',(-4.00107744282653,2.15793376794365,-4.00107744282653));
#368=CARTESIAN_POINT('Ctrl Pts',(0.,2.15793376794365,-4.00107744282653));
#369=CARTESIAN_POINT('Ctrl Pts',(4.00107744282653,2.15793376794365,-4.00107744282653));
#370=CARTESIAN_POINT('Ctrl Pts',(4.00107744282653,2.15793376794365,0.));
#371=CARTESIAN_POINT('Ctrl Pts',(3.99544621762533,2.47957329020131,0.));
#372=CARTESIAN_POINT('Ctrl Pts',(3.99544621762533,2.47957329020131,3.99544621762533));
#373=CARTESIAN_POINT('Ctrl Pts',(0.,2.47957329020131,3.99544621762533));
#374=CARTESIAN_POINT('Ctrl Pts',(-3.99544621762533,2.47957329020131,3.99544621762533));
#375=CARTESIAN_POINT('Ctrl Pts',(-3.99544621762533,2.47957329020131,0.));
#376=CARTESIAN_POINT('Ctrl Pts',(-3.99544621762533,2.47957329020131,-3.99544621762533));
#377=CARTESIAN_POINT('Ctrl Pts',(0.,2.47957329020131,-3.99544621762533));
#378=CARTESIAN_POINT('Ctrl Pts',(3.99544621762533,2.47957329020131,-3.99544621762533));
#379=CARTESIAN_POINT('Ctrl Pts',(3.99544621762533,2.47957329020131,0.));
#380=CARTESIAN_POINT('Ctrl Pts',(3.96364053822418,2.97934870612904,0.));
#381=CARTESIAN_POINT('Ctrl Pts',(3.96364053822418,2.97934870612904,3.96364053822418));
#382=CARTESIAN_POINT('Ctrl Pts',(0.,2.97934870612904,3.96364053822418));
#383=CARTESIAN_POINT('Ctrl Pts',(-3.96364053822418,2.97934870612904,3.96364053822418));
#384=CARTESIAN_POINT('Ctrl Pts',(-3.96364053822418,2.97934870612904,0.));
#385=CARTESIAN_POINT('Ctrl Pts',(-3.96364053822418,2.97934870612904,-3.96364053822418));
#386=CARTESIAN_POINT('Ctrl Pts',(0.,2.97934870612904,-3.96364053822418));
#387=CARTESIAN_POINT('Ctrl Pts',(3.96364053822418,2.97934870612904,-3.96364053822418));
#388=CARTESIAN_POINT('Ctrl Pts',(3.96364053822418,2.97934870612904,0.));
#389=CARTESIAN_POINT('Ctrl Pts',(3.87433207562142,3.68048955660582,0.));
#390=CARTESIAN_POINT('Ctrl Pts',(3.87433207562142,3.68048955660582,3.87433207562142));
#391=CARTESIAN_POINT('Ctrl Pts',(0.,3.68048955660582,3.87433207562142));
#392=CARTESIAN_POINT('Ctrl Pts',(-3.87433207562142,3.68048955660582,3.87433207562142));
#393=CARTESIAN_POINT('Ctrl Pts',(-3.87433207562142,3.68048955660582,0.));
#394=CARTESIAN_POINT('Ctrl Pts',(-3.87433207562142,3.68048955660582,-3.87433207562142));
#395=CARTESIAN_POINT('Ctrl Pts',(0.,3.68048955660582,-3.87433207562142));
#396=CARTESIAN_POINT('Ctrl Pts',(3.87433207562142,3.68048955660582,-3.87433207562142));
#397=CARTESIAN_POINT('Ctrl Pts',(3.87433207562142,3.68048955660582,0.));
#398=CARTESIAN_POINT('Ctrl Pts',(3.68614229503695,4.61538344583665,0.));
#399=CARTESIAN_POINT('Ctrl Pts',(3.68614229503694,4.61538344583665,3.68614229503694));
#400=CARTESIAN_POINT('Ctrl Pts',(0.,4.61538344583665,3.68614229503695));
#401=CARTESIAN_POINT('Ctrl Pts',(-3.68614229503694,4.61538344583665,3.68614229503694));
#402=CARTESIAN_POINT('Ctrl Pts',(-3.68614229503695,4.61538344583665,0.));
#403=CARTESIAN_POINT('Ctrl Pts',(-3.68614229503694,4.61538344583665,-3.68614229503694));
#404=CARTESIAN_POINT('Ctrl Pts',(0.,4.61538344583665,-3.68614229503695));
#405=CARTESIAN_POINT('Ctrl Pts',(3.68614229503694,4.61538344583665,-3.68614229503694));
#406=CARTESIAN_POINT('Ctrl Pts',(3.68614229503695,4.61538344583665,0.));
#407=CARTESIAN_POINT('Ctrl Pts',(3.42838289152697,5.60881744779369,0.));
#408=CARTESIAN_POINT('Ctrl Pts',(3.42838289152697,5.60881744779369,3.42838289152697));
#409=CARTESIAN_POINT('Ctrl Pts',(0.,5.60881744779369,3.42838289152697));
#410=CARTESIAN_POINT('Ctrl Pts',(-3.42838289152697,5.60881744779369,3.42838289152697));
#411=CARTESIAN_POINT('Ctrl Pts',(-3.42838289152697,5.60881744779369,0.));
#412=CARTESIAN_POINT('Ctrl Pts',(-3.42838289152697,5.60881744779369,-3.42838289152697));
#413=CARTESIAN_POINT('Ctrl Pts',(0.,5.60881744779369,-3.42838289152697));
#414=CARTESIAN_POINT('Ctrl Pts',(3.42838289152697,5.60881744779369,-3.42838289152697));
#415=CARTESIAN_POINT('Ctrl Pts',(3.42838289152697,5.60881744779369,0.));
#416=CARTESIAN_POINT('Ctrl Pts',(3.11640663807212,6.65978813139276,0.));
#417=CARTESIAN_POINT('Ctrl Pts',(3.11640663807212,6.65978813139276,3.11640663807212));
#418=CARTESIAN_POINT('Ctrl Pts',(0.,6.65978813139276,3.11640663807212));
#419=CARTESIAN_POINT('Ctrl Pts',(-3.11640663807212,6.65978813139276,3.11640663807212));
#420=CARTESIAN_POINT('Ctrl Pts',(-3.11640663807212,6.65978813139276,0.));
#421=CARTESIAN_POINT('Ctrl Pts',(-3.11640663807212,6.65978813139276,-3.11640663807212));
#422=CARTESIAN_POINT('Ctrl Pts',(0.,6.65978813139276,-3.11640663807212));
#423=CARTESIAN_POINT('Ctrl Pts',(3.11640663807212,6.65978813139276,-3.11640663807212));
#424=CARTESIAN_POINT('Ctrl Pts',(3.11640663807212,6.65978813139276,0.));
#425=CARTESIAN_POINT('Ctrl Pts',(2.77805683978006,7.76549180551576,0.));
#426=CARTESIAN_POINT('Ctrl Pts',(2.77805683978006,7.76549180551576,2.77805683978006));
#427=CARTESIAN_POINT('Ctrl Pts',(0.,7.76549180551576,2.77805683978006));
#428=CARTESIAN_POINT('Ctrl Pts',(-2.77805683978006,7.76549180551576,2.77805683978006));
#429=CARTESIAN_POINT('Ctrl Pts',(-2.77805683978006,7.76549180551576,0.));
#430=CARTESIAN_POINT('Ctrl Pts',(-2.77805683978006,7.76549180551576,-2.77805683978006));
#431=CARTESIAN_POINT('Ctrl Pts',(0.,7.76549180551576,-2.77805683978006));
#432=CARTESIAN_POINT('Ctrl Pts',(2.77805683978006,7.76549180551576,-2.77805683978006));
#433=CARTESIAN_POINT('Ctrl Pts',(2.77805683978006,7.76549180551576,0.));
#434=CARTESIAN_POINT('Ctrl Pts',(2.45514659467346,8.9206172052235,0.));
#435=CARTESIAN_POINT('Ctrl Pts',(2.45514659467346,8.9206172052235,2.45514659467346));
#436=CARTESIAN_POINT('Ctrl Pts',(0.,8.9206172052235,2.45514659467346));
#437=CARTESIAN_POINT('Ctrl Pts',(-2.45514659467346,8.9206172052235,2.45514659467346));
#438=CARTESIAN_POINT('Ctrl Pts',(-2.45514659467346,8.9206172052235,0.));
#439=CARTESIAN_POINT('Ctrl Pts',(-2.45514659467346,8.9206172052235,-2.45514659467346));
#440=CARTESIAN_POINT('Ctrl Pts',(0.,8.9206172052235,-2.45514659467346));
#441=CARTESIAN_POINT('Ctrl Pts',(2.45514659467346,8.9206172052235,-2.45514659467346));
#442=CARTESIAN_POINT('Ctrl Pts',(2.45514659467346,8.9206172052235,0.));
#443=CARTESIAN_POINT('Ctrl Pts',(2.19363901827324,10.1168379164554,0.));
#444=CARTESIAN_POINT('Ctrl Pts',(2.19363901827324,10.1168379164554,2.19363901827324));
#445=CARTESIAN_POINT('Ctrl Pts',(0.,10.1168379164554,2.19363901827324));
#446=CARTESIAN_POINT('Ctrl Pts',(-2.19363901827324,10.1168379164554,2.19363901827324));
#447=CARTESIAN_POINT('Ctrl Pts',(-2.19363901827324,10.1168379164554,0.));
#448=CARTESIAN_POINT('Ctrl Pts',(-2.19363901827324,10.1168379164554,-2.19363901827324));
#449=CARTESIAN_POINT('Ctrl Pts',(0.,10.1168379164554,-2.19363901827324));
#450=CARTESIAN_POINT('Ctrl Pts',(2.19363901827324,10.1168379164554,-2.19363901827324));
#451=CARTESIAN_POINT('Ctrl Pts',(2.19363901827324,10.1168379164554,0.));
#452=CARTESIAN_POINT('Ctrl Pts',(2.03580647022308,11.3422366026841,0.));
#453=CARTESIAN_POINT('Ctrl Pts',(2.03580647022308,11.3422366026841,2.03580647022308));
#454=CARTESIAN_POINT('Ctrl Pts',(0.,11.3422366026841,2.03580647022308));
#455=CARTESIAN_POINT('Ctrl Pts',(-2.03580647022308,11.3422366026841,2.03580647022308));
#456=CARTESIAN_POINT('Ctrl Pts',(-2.03580647022308,11.3422366026841,0.));
#457=CARTESIAN_POINT('Ctrl Pts',(-2.03580647022308,11.3422366026841,-2.03580647022308));
#458=CARTESIAN_POINT('Ctrl Pts',(0.,11.3422366026841,-2.03580647022308));
#459=CARTESIAN_POINT('Ctrl Pts',(2.03580647022308,11.3422366026841,-2.03580647022308));
#460=CARTESIAN_POINT('Ctrl Pts',(2.03580647022308,11.3422366026841,0.));
#461=CARTESIAN_POINT('Ctrl Pts',(2.01109348016872,12.5805520754592,0.));
#462=CARTESIAN_POINT('Ctrl Pts',(2.01109348016872,12.5805520754592,2.01109348016872));
#463=CARTESIAN_POINT('Ctrl Pts',(0.,12.5805520754592,2.01109348016872));
#464=CARTESIAN_POINT('Ctrl Pts',(-2.01109348016872,12.5805520754592,2.01109348016872));
#465=CARTESIAN_POINT('Ctrl Pts',(-2.01109348016872,12.5805520754592,0.));
#466=CARTESIAN_POINT('Ctrl Pts',(-2.01109348016872,12.5805520754592,-2.01109348016872));
#467=CARTESIAN_POINT('Ctrl Pts',(0.,12.5805520754592,-2.01109348016872));
#468=CARTESIAN_POINT('Ctrl Pts',(2.01109348016872,12.5805520754592,-2.01109348016872));
#469=CARTESIAN_POINT('Ctrl Pts',(2.01109348016872,12.5805520754592,0.));
#470=CARTESIAN_POINT('Ctrl Pts',(2.12827524064684,13.8106208667824,0.));
#471=CARTESIAN_POINT('Ctrl Pts',(2.12827524064683,13.8106208667824,2.12827524064683));
#472=CARTESIAN_POINT('Ctrl Pts',(0.,13.8106208667824,2.12827524064684));
#473=CARTESIAN_POINT('Ctrl Pts',(-2.12827524064683,13.8106208667824,2.12827524064683));
#474=CARTESIAN_POINT('Ctrl Pts',(-2.12827524064684,13.8106208667824,0.));
#475=CARTESIAN_POINT('Ctrl Pts',(-2.12827524064683,13.8106208667824,-2.12827524064683));
#476=CARTESIAN_POINT('Ctrl Pts',(0.,13.8106208667824,-2.12827524064684));
#477=CARTESIAN_POINT('Ctrl Pts',(2.12827524064683,13.8106208667824,-2.12827524064683));
#478=CARTESIAN_POINT('Ctrl Pts',(2.12827524064684,13.8106208667824,0.));
#479=CARTESIAN_POINT('Ctrl Pts',(2.36412925596572,15.0050835194691,0.));
#480=CARTESIAN_POINT('Ctrl Pts',(2.36412925596572,15.0050835194691,2.36412925596572));
#481=CARTESIAN_POINT('Ctrl Pts',(0.,15.0050835194691,2.36412925596572));
#482=CARTESIAN_POINT('Ctrl Pts',(-2.36412925596572,15.0050835194691,2.36412925596572));
#483=CARTESIAN_POINT('Ctrl Pts',(-2.36412925596572,15.0050835194691,0.));
#484=CARTESIAN_POINT('Ctrl Pts',(-2.36412925596572,15.0050835194691,-2.36412925596572));
#485=CARTESIAN_POINT('Ctrl Pts',(0.,15.0050835194691,-2.36412925596572));
#486=CARTESIAN_POINT('Ctrl Pts',(2.36412925596572,15.0050835194691,-2.36412925596572));
#487=CARTESIAN_POINT('Ctrl Pts',(2.36412925596572,15.0050835194691,0.));
#488=CARTESIAN_POINT('Ctrl Pts',(2.66150494705371,16.1312009121175,0.));
#489=CARTESIAN_POINT('Ctrl Pts',(2.66150494705371,16.1312009121175,2.66150494705371));
#490=CARTESIAN_POINT('Ctrl Pts',(0.,16.1312009121175,2.66150494705371));
#491=CARTESIAN_POINT('Ctrl Pts',(-2.66150494705371,16.1312009121175,2.66150494705371));
#492=CARTESIAN_POINT('Ctrl Pts',(-2.66150494705371,16.1312009121175,0.));
#493=CARTESIAN_POINT('Ctrl Pts',(-2.66150494705371,16.1312009121175,-2.66150494705371));
#494=CARTESIAN_POINT('Ctrl Pts',(0.,16.1312009121175,-2.66150494705371));
#495=CARTESIAN_POINT('Ctrl Pts',(2.66150494705371,16.1312009121175,-2.66150494705371));
#496=CARTESIAN_POINT('Ctrl Pts',(2.66150494705371,16.1312009121175,0.));
#497=CARTESIAN_POINT('Ctrl Pts',(2.9434196819209,17.1552211831319,0.));
#498=CARTESIAN_POINT('Ctrl Pts',(2.9434196819209,17.1552211831319,2.9434196819209));
#499=CARTESIAN_POINT('Ctrl Pts',(0.,17.1552211831319,2.9434196819209));
#500=CARTESIAN_POINT('Ctrl Pts',(-2.9434196819209,17.1552211831319,2.9434196819209));
#501=CARTESIAN_POINT('Ctrl Pts',(-2.9434196819209,17.1552211831319,0.));
#502=CARTESIAN_POINT('Ctrl Pts',(-2.9434196819209,17.1552211831319,-2.9434196819209));
#503=CARTESIAN_POINT('Ctrl Pts',(0.,17.1552211831319,-2.9434196819209));
#504=CARTESIAN_POINT('Ctrl Pts',(2.9434196819209,17.1552211831319,-2.9434196819209));
#505=CARTESIAN_POINT('Ctrl Pts',(2.9434196819209,17.1552211831319,0.));
#506=CARTESIAN_POINT('Ctrl Pts',(3.12330831366562,18.0461101945571,0.));
#507=CARTESIAN_POINT('Ctrl Pts',(3.12330831366562,18.0461101945571,3.12330831366562));
#508=CARTESIAN_POINT('Ctrl Pts',(0.,18.0461101945571,3.12330831366562));
#509=CARTESIAN_POINT('Ctrl Pts',(-3.12330831366562,18.0461101945571,3.12330831366562));
#510=CARTESIAN_POINT('Ctrl Pts',(-3.12330831366562,18.0461101945571,0.));
#511=CARTESIAN_POINT('Ctrl Pts',(-3.12330831366562,18.0461101945571,-3.12330831366562));
#512=CARTESIAN_POINT('Ctrl Pts',(0.,18.0461101945571,-3.12330831366562));
#513=CARTESIAN_POINT('Ctrl Pts',(3.12330831366562,18.0461101945571,-3.12330831366562));
#514=CARTESIAN_POINT('Ctrl Pts',(3.12330831366562,18.0461101945571,0.));
#515=CARTESIAN_POINT('Ctrl Pts',(3.1161691453365,18.7793690204003,0.));
#516=CARTESIAN_POINT('Ctrl Pts',(3.1161691453365,18.7793690204003,3.1161691453365));
#517=CARTESIAN_POINT('Ctrl Pts',(0.,18.7793690204003,3.1161691453365));
#518=CARTESIAN_POINT('Ctrl Pts',(-3.1161691453365,18.7793690204003,3.1161691453365));
#519=CARTESIAN_POINT('Ctrl Pts',(-3.1161691453365,18.7793690204003,0.));
#520=CARTESIAN_POINT('Ctrl Pts',(-3.1161691453365,18.7793690204003,-3.1161691453365));
#521=CARTESIAN_POINT('Ctrl Pts',(0.,18.7793690204003,-3.1161691453365));
#522=CARTESIAN_POINT('Ctrl Pts',(3.1161691453365,18.7793690204003,-3.1161691453365));
#523=CARTESIAN_POINT('Ctrl Pts',(3.1161691453365,18.7793690204003,0.));
#524=CARTESIAN_POINT('Ctrl Pts',(2.85040120977549,19.3417516116947,0.));
#525=CARTESIAN_POINT('Ctrl Pts',(2.85040120977549,19.3417516116947,2.85040120977549));
#526=CARTESIAN_POINT('Ctrl Pts',(0.,19.3417516116947,2.85040120977549));
#527=CARTESIAN_POINT('Ctrl Pts',(-2.85040120977549,19.3417516116947,2.85040120977549));
#528=CARTESIAN_POINT('Ctrl Pts',(-2.85040120977549,19.3417516116947,0.));
#529=CARTESIAN_POINT('Ctrl Pts',(-2.85040120977549,19.3417516116947,-2.85040120977549));
#530=CARTESIAN_POINT('Ctrl Pts',(0.,19.3417516116947,-2.85040120977549));
#531=CARTESIAN_POINT('Ctrl Pts',(2.85040120977549,19.3417516116947,-2.85040120977549));
#532=CARTESIAN_POINT('Ctrl Pts',(2.85040120977549,19.3417516116947,0.));
#533=CARTESIAN_POINT('Ctrl Pts',(2.2765618724263,19.7337651878609,0.));
#534=CARTESIAN_POINT('Ctrl Pts',(2.2765618724263,19.7337651878609,2.2765618724263));
#535=CARTESIAN_POINT('Ctrl Pts',(0.,19.7337651878609,2.2765618724263));
#536=CARTESIAN_POINT('Ctrl Pts',(-2.2765618724263,19.7337651878609,2.2765618724263));
#537=CARTESIAN_POINT('Ctrl Pts',(-2.2765618724263,19.7337651878609,0.));
#538=CARTESIAN_POINT('Ctrl Pts',(-2.2765618724263,19.7337651878609,-2.2765618724263));
#539=CARTESIAN_POINT('Ctrl Pts',(0.,19.7337651878609,-2.2765618724263));
#540=CARTESIAN_POINT('Ctrl Pts',(2.2765618724263,19.7337651878609,-2.2765618724263));
#541=CARTESIAN_POINT('Ctrl Pts',(2.2765618724263,19.7337651878609,0.));
#542=CARTESIAN_POINT('Ctrl Pts',(1.5452387864006,19.9169205650047,0.));
#543=CARTESIAN_POINT('Ctrl Pts',(1.5452387864006,19.9169205650047,1.5452387864006));
#544=CARTESIAN_POINT('Ctrl Pts',(0.,19.9169205650047,1.5452387864006));
#545=CARTESIAN_POINT('Ctrl Pts',(-1.5452387864006,19.9169205650047,1.5452387864006));
#546=CARTESIAN_POINT('Ctrl Pts',(-1.5452387864006,19.9169205650047,0.));
#547=CARTESIAN_POINT('Ctrl Pts',(-1.5452387864006,19.9169205650047,-1.5452387864006));
#548=CARTESIAN_POINT('Ctrl Pts',(0.,19.9169205650047,-1.5452387864006));
#549=CARTESIAN_POINT('Ctrl Pts',(1.5452387864006,19.9169205650047,-1.5452387864006));
#550=CARTESIAN_POINT('Ctrl Pts',(1.5452387864006,19.9169205650047,0.));
#551=CARTESIAN_POINT('Ctrl Pts',(0.835808249203537,19.9848949135168,0.));
#552=CARTESIAN_POINT('Ctrl Pts',(0.835808249203537,19.9848949135168,0.835808249203537));
#553=CARTESIAN_POINT('Ctrl Pts',(0.,19.9848949135168,0.835808249203537));
#554=CARTESIAN_POINT('Ctrl Pts',(-0.835808249203537,19.9848949135168,0.835808249203537));
#555=CARTESIAN_POINT('Ctrl Pts',(-0.835808249203537,19.9848949135168,0.));
#556=CARTESIAN_POINT('Ctrl Pts',(-0.835808249203537,19.9848949135168,-0.835808249203537));
#557=CARTESIAN_POINT('Ctrl Pts',(0.,19.9848949135168,-0.835808249203537));
#558=CARTESIAN_POINT('Ctrl Pts',(0.835808249203537,19.9848949135168,-0.835808249203537));
#559=CARTESIAN_POINT('Ctrl Pts',(0.835808249203537,19.9848949135168,0.));
#560=CARTESIAN_POINT('Ctrl Pts',(0.290638572809432,20.0000000298023,0.));
#561=CARTESIAN_POINT('Ctrl Pts',(0.290638572809432,20.0000000298023,0.290638572809432));
#562=CARTESIAN_POINT('Ctrl Pts',(0.,20.0000000298023,0.290638572809432));
#563=CARTESIAN_POINT('Ctrl Pts',(-0.290638572809432,20.0000000298023,0.290638572809432));
#564=CARTESIAN_POINT('Ctrl Pts',(-0.290638572809432,20.0000000298023,0.));
#565=CARTESIAN_POINT('Ctrl Pts',(-0.290638572809432,20.0000000298023,-0.290638572809432));
#566=CARTESIAN_POINT('Ctrl Pts',(0.,20.0000000298023,-0.290638572809432));
#567=CARTESIAN_POINT('Ctrl Pts',(0.290638572809432,20.0000000298023,-0.290638572809432));
#568=CARTESIAN_POINT('Ctrl Pts',(0.290638572809432,20.0000000298023,0.));
#569=CARTESIAN_POINT('Ctrl Pts',(0.,20.0000000298023,0.));
#570=CARTESIAN_POINT('Ctrl Pts',(0.,20.0000000298023,0.));
#571=CARTESIAN_POINT('Ctrl Pts',(0.,20.0000000298023,0.));
#572=CARTESIAN_POINT('Ctrl Pts',(0.,20.0000000298023,0.));
#573=CARTESIAN_POINT('Ctrl Pts',(0.,20.0000000298023,0.));
#574=CARTESIAN_POINT('Ctrl Pts',(0.,20.0000000298023,0.));
#575=CARTESIAN_POINT('Ctrl Pts',(0.,20.0000000298023,0.));
#576=CARTESIAN_POINT('Ctrl Pts',(0.,20.0000000298023,0.));
#577=CARTESIAN_POINT('Ctrl Pts',(0.,20.0000000298023,0.));
#578=CARTESIAN_POINT('',(4.00000005960464,2.,0.));
#579=CARTESIAN_POINT('',(0.,20.0000000298023,0.));
#580=CARTESIAN_POINT('Ctrl Pts',(4.00000005960464,2.00000002980232,0.));
#581=CARTESIAN_POINT('Ctrl Pts',(4.00107744282653,2.15793376794365,0.));
#582=CARTESIAN_POINT('Ctrl Pts',(3.99544621762533,2.47957329020131,0.));
#583=CARTESIAN_POINT('Ctrl Pts',(3.96364053822418,2.97934870612904,0.));
#584=CARTESIAN_POINT('Ctrl Pts',(3.87433207562142,3.68048955660582,0.));
#585=CARTESIAN_POINT('Ctrl Pts',(3.68614229503695,4.61538344583665,0.));
#586=CARTESIAN_POINT('Ctrl Pts',(3.42838289152697,5.60881744779369,0.));
#587=CARTESIAN_POINT('Ctrl Pts',(3.11640663807212,6.65978813139276,0.));
#588=CARTESIAN_POINT('Ctrl Pts',(2.77805683978006,7.76549180551576,0.));
#589=CARTESIAN_POINT('Ctrl Pts',(2.45514659467346,8.9206172052235,0.));
#590=CARTESIAN_POINT('Ctrl Pts',(2.19363901827324,10.1168379164554,0.));
#591=CARTESIAN_POINT('Ctrl Pts',(2.03580647022308,11.3422366026841,0.));
#592=CARTESIAN_POINT('Ctrl Pts',(2.01109348016872,12.5805520754592,0.));
#593=CARTESIAN_POINT('Ctrl Pts',(2.12827524064684,13.8106208667824,0.));
#594=CARTESIAN_POINT('Ctrl Pts',(2.36412925596572,15.0050835194691,0.));
#595=CARTESIAN_POINT('Ctrl Pts',(2.66150494705371,16.1312009121175,0.));
#596=CARTESIAN_POINT('Ctrl Pts',(2.9434196819209,17.1552211831319,0.));
#597=CARTESIAN_POINT('Ctrl Pts',(3.12330831366562,18.0461101945571,0.));
#598=CARTESIAN_POINT('Ctrl Pts',(3.1161691453365,18.7793690204003,0.));
#599=CARTESIAN_POINT('Ctrl Pts',(2.85040120977549,19.3417516116947,0.));
#600=CARTESIAN_POINT('Ctrl Pts',(2.2765618724263,19.7337651878609,0.));
#601=CARTESIAN_POINT('Ctrl Pts',(1.5452387864006,19.9169205650047,0.));
#602=CARTESIAN_POINT('Ctrl Pts',(0.835808249203537,19.9848949135168,0.));
#603=CARTESIAN_POINT('Ctrl Pts',(0.290638572809432,20.0000000298023,0.));
#604=CARTESIAN_POINT('Ctrl Pts',(0.,20.0000000298023,0.));
#605=CARTESIAN_POINT('Origin',(0.,2.00000002980232,0.));
#606=CARTESIAN_POINT('Origin',(-7.,0.,10.));
#607=CARTESIAN_POINT('',(-7.,0.,10.));
#608=CARTESIAN_POINT('',(7.,0.,10.));
#609=CARTESIAN_POINT('',(-7.,0.,10.));
#610=CARTESIAN_POINT('',(7.,2.,10.));
#611=CARTESIAN_POINT('',(7.,0.,10.));
#612=CARTESIAN_POINT('',(-7.,2.,10.));
#613=CARTESIAN_POINT('',(-7.,2.,10.));
#614=CARTESIAN_POINT('',(-7.,0.,10.));
#615=CARTESIAN_POINT('Origin',(-7.,0.,-10.));
#616=CARTESIAN_POINT('',(-7.,0.,-10.));
#617=CARTESIAN_POINT('',(-7.,2.,-10.));
#618=CARTESIAN_POINT('',(-7.,2.,-10.));
#619=CARTESIAN_POINT('',(-7.,0.,-10.));
#620=CARTESIAN_POINT('Origin',(7.,0.,-10.));
#621=CARTESIAN_POINT('',(7.,2.,-10.));
#622=CARTESIAN_POINT('',(7.,2.,-10.));
#623=CARTESIAN_POINT('',(7.,0.,-10.));
#624=CARTESIAN_POINT('Origin',(7.,0.,10.));
#625=CARTESIAN_POINT('',(7.,0.,10.));
#626=CARTESIAN_POINT('',(7.,2.,10.));
#627=CARTESIAN_POINT('Origin',(-1.11022302462516E-15,2.,2.22044604925031E-15));
#628=CARTESIAN_POINT('Origin',(-1.11022302462516E-15,0.,2.22044604925031E-15));
#629=UNCERTAINTY_MEASURE_WITH_UNIT(LENGTH_MEASURE(0.01),#633,
'DISTANCE_ACCURACY_VALUE',
'Maximum model space distance between geometric entities at asserted c
onnectivities');
#630=UNCERTAINTY_MEASURE_WITH_UNIT(LENGTH_MEASURE(0.01),#633,
'DISTANCE_ACCURACY_VALUE',
'Maximum model space distance between geometric entities at asserted c
onnectivities');
#631=(
GEOMETRIC_REPRESENTATION_CONTEXT(3)
GLOBAL_UNCERTAINTY_ASSIGNED_CONTEXT((#629))
GLOBAL_UNIT_ASSIGNED_CONTEXT((#633,#635,#636))
REPRESENTATION_CONTEXT('','3D')
);
#632=(
GEOMETRIC_REPRESENTATION_CONTEXT(3)
GLOBAL_UNCERTAINTY_ASSIGNED_CONTEXT((#630))
GLOBAL_UNIT_ASSIGNED_CONTEXT((#633,#635,#636))
REPRESENTATION_CONTEXT('','3D')
);
#633=(
LENGTH_UNIT()
NAMED_UNIT(*)
SI_UNIT(.MILLI.,.METRE.)
);
#634=(
LENGTH_UNIT()
NAMED_UNIT(*)
SI_UNIT($,.METRE.)
);
#635=(
NAMED_UNIT(*)
PLANE_ANGLE_UNIT()
SI_UNIT($,.RADIAN.)
);
#636=(
NAMED_UNIT(*)
SI_UNIT($,.STERADIAN.)
SOLID_ANGLE_UNIT()
);
#637=SHAPE_DEFINITION_REPRESENTATION(#638,#639);
#638=PRODUCT_DEFINITION_SHAPE('',$,#641);
#639=SHAPE_REPRESENTATION('',(#245),#631);
#640=PRODUCT_DEFINITION_CONTEXT('part definition',#645,'design');
#641=PRODUCT_DEFINITION('2026-05-18-10-23-21-566',
'Horizontal_handle_upperPart_v1',#642,#640);
#642=PRODUCT_DEFINITION_FORMATION('',$,#647);
#643=PRODUCT_RELATED_PRODUCT_CATEGORY('Horizontal_handle_upperPart_v1',
'Horizontal_handle_upperPart_v1',(#647));
#644=APPLICATION_PROTOCOL_DEFINITION('international standard',
'automotive_design',2009,#645);
#645=APPLICATION_CONTEXT(
'Core Data for Automotive Mechanical Design Process');
#646=PRODUCT_CONTEXT('part definition',#645,'mechanical');
#647=PRODUCT('2026-05-18-10-23-21-566','Horizontal_handle_upperPart_v1',
$,(#646));
#648=PRESENTATION_STYLE_ASSIGNMENT((#649));
#649=SURFACE_STYLE_USAGE(.BOTH.,#650);
#650=SURFACE_SIDE_STYLE('',(#651));
#651=SURFACE_STYLE_FILL_AREA(#652);
#652=FILL_AREA_STYLE('Steel - Satin',(#653));
#653=FILL_AREA_STYLE_COLOUR('Steel - Satin',#654);
#654=COLOUR_RGB('Steel - Satin',0.627450980392157,0.627450980392157,0.627450980392157);
ENDSEC;
END-ISO-10303-21;
