ISO-10303-21;
HEADER;
/* Generated by software containing ST-Developer
 * from STEP Tools, Inc. (www.steptools.com) 
 */

FILE_DESCRIPTION(
/* description */ (''),
/* implementation_level */ '2;1');

FILE_NAME(
/* name */ 'MagneetHouder_onderkant_v1.step',
/* time_stamp */ '2026-05-26T12:14:14+02:00',
/* author */ (''),
/* organization */ (''),
/* preprocessor_version */ 'ST-DEVELOPER v20.1',
/* originating_system */ 'Autodesk Translation Framework v15.8.0.0',
/* authorisation */ '');

FILE_SCHEMA (('AUTOMOTIVE_DESIGN { 1 0 10303 214 3 1 1 }'));
ENDSEC;

DATA;
#10=MECHANICAL_DESIGN_GEOMETRIC_PRESENTATION_REPRESENTATION('',(#13),#1197);
#11=SHAPE_REPRESENTATION_RELATIONSHIP('SRR','None',#1204,#12);
#12=ADVANCED_BREP_SHAPE_REPRESENTATION('',(#14),#1196);
#13=STYLED_ITEM('',(#1213),#14);
#14=MANIFOLD_SOLID_BREP('Body1',#745);
#15=FACE_BOUND('',#89,.T.);
#16=FACE_BOUND('',#93,.T.);
#17=CIRCLE('',#786,1.65);
#18=CIRCLE('',#787,1.65);
#19=CIRCLE('',#791,1.65);
#20=CIRCLE('',#792,1.65);
#21=CYLINDRICAL_SURFACE('',#785,1.65);
#22=CYLINDRICAL_SURFACE('',#790,1.65);
#23=FACE_OUTER_BOUND('',#61,.T.);
#24=FACE_OUTER_BOUND('',#62,.T.);
#25=FACE_OUTER_BOUND('',#63,.T.);
#26=FACE_OUTER_BOUND('',#64,.T.);
#27=FACE_OUTER_BOUND('',#65,.T.);
#28=FACE_OUTER_BOUND('',#66,.T.);
#29=FACE_OUTER_BOUND('',#67,.T.);
#30=FACE_OUTER_BOUND('',#68,.T.);
#31=FACE_OUTER_BOUND('',#69,.T.);
#32=FACE_OUTER_BOUND('',#70,.T.);
#33=FACE_OUTER_BOUND('',#71,.T.);
#34=FACE_OUTER_BOUND('',#72,.T.);
#35=FACE_OUTER_BOUND('',#73,.T.);
#36=FACE_OUTER_BOUND('',#74,.T.);
#37=FACE_OUTER_BOUND('',#75,.T.);
#38=FACE_OUTER_BOUND('',#76,.T.);
#39=FACE_OUTER_BOUND('',#77,.T.);
#40=FACE_OUTER_BOUND('',#78,.T.);
#41=FACE_OUTER_BOUND('',#79,.T.);
#42=FACE_OUTER_BOUND('',#80,.T.);
#43=FACE_OUTER_BOUND('',#81,.T.);
#44=FACE_OUTER_BOUND('',#82,.T.);
#45=FACE_OUTER_BOUND('',#83,.T.);
#46=FACE_OUTER_BOUND('',#84,.T.);
#47=FACE_OUTER_BOUND('',#85,.T.);
#48=FACE_OUTER_BOUND('',#86,.T.);
#49=FACE_OUTER_BOUND('',#87,.T.);
#50=FACE_OUTER_BOUND('',#88,.T.);
#51=FACE_OUTER_BOUND('',#90,.T.);
#52=FACE_OUTER_BOUND('',#91,.T.);
#53=FACE_OUTER_BOUND('',#92,.T.);
#54=FACE_OUTER_BOUND('',#94,.T.);
#55=FACE_OUTER_BOUND('',#95,.T.);
#56=FACE_OUTER_BOUND('',#96,.T.);
#57=FACE_OUTER_BOUND('',#97,.T.);
#58=FACE_OUTER_BOUND('',#98,.T.);
#59=FACE_OUTER_BOUND('',#99,.T.);
#60=FACE_OUTER_BOUND('',#100,.T.);
#61=EDGE_LOOP('',(#467,#468,#469,#470));
#62=EDGE_LOOP('',(#471,#472,#473,#474));
#63=EDGE_LOOP('',(#475,#476,#477,#478));
#64=EDGE_LOOP('',(#479,#480,#481,#482));
#65=EDGE_LOOP('',(#483,#484,#485,#486));
#66=EDGE_LOOP('',(#487,#488,#489,#490));
#67=EDGE_LOOP('',(#491,#492,#493,#494));
#68=EDGE_LOOP('',(#495,#496,#497,#498));
#69=EDGE_LOOP('',(#499,#500,#501,#502));
#70=EDGE_LOOP('',(#503,#504,#505,#506));
#71=EDGE_LOOP('',(#507,#508,#509,#510));
#72=EDGE_LOOP('',(#511,#512,#513,#514));
#73=EDGE_LOOP('',(#515,#516,#517,#518));
#74=EDGE_LOOP('',(#519,#520,#521,#522));
#75=EDGE_LOOP('',(#523,#524,#525,#526));
#76=EDGE_LOOP('',(#527,#528,#529,#530));
#77=EDGE_LOOP('',(#531,#532,#533,#534,#535,#536,#537,#538));
#78=EDGE_LOOP('',(#539,#540,#541,#542,#543,#544,#545,#546));
#79=EDGE_LOOP('',(#547,#548,#549,#550));
#80=EDGE_LOOP('',(#551,#552,#553,#554,#555,#556,#557,#558));
#81=EDGE_LOOP('',(#559,#560,#561,#562,#563,#564,#565,#566));
#82=EDGE_LOOP('',(#567,#568,#569,#570));
#83=EDGE_LOOP('',(#571,#572,#573,#574));
#84=EDGE_LOOP('',(#575,#576,#577,#578,#579,#580,#581,#582));
#85=EDGE_LOOP('',(#583,#584,#585,#586,#587,#588,#589,#590));
#86=EDGE_LOOP('',(#591,#592,#593,#594));
#87=EDGE_LOOP('',(#595,#596,#597,#598));
#88=EDGE_LOOP('',(#599,#600,#601,#602,#603,#604,#605,#606,#607,#608,#609,
#610,#611,#612,#613,#614));
#89=EDGE_LOOP('',(#615));
#90=EDGE_LOOP('',(#616));
#91=EDGE_LOOP('',(#617,#618,#619,#620));
#92=EDGE_LOOP('',(#621,#622,#623,#624,#625,#626,#627,#628,#629,#630,#631,
#632,#633,#634,#635,#636));
#93=EDGE_LOOP('',(#637));
#94=EDGE_LOOP('',(#638));
#95=EDGE_LOOP('',(#639,#640,#641,#642));
#96=EDGE_LOOP('',(#643,#644,#645,#646,#647,#648,#649,#650));
#97=EDGE_LOOP('',(#651,#652,#653,#654));
#98=EDGE_LOOP('',(#655,#656,#657,#658,#659,#660,#661,#662));
#99=EDGE_LOOP('',(#663,#664,#665,#666));
#100=EDGE_LOOP('',(#667,#668,#669,#670));
#101=LINE('',#989,#199);
#102=LINE('',#991,#200);
#103=LINE('',#993,#201);
#104=LINE('',#994,#202);
#105=LINE('',#998,#203);
#106=LINE('',#1000,#204);
#107=LINE('',#1002,#205);
#108=LINE('',#1003,#206);
#109=LINE('',#1007,#207);
#110=LINE('',#1009,#208);
#111=LINE('',#1011,#209);
#112=LINE('',#1012,#210);
#113=LINE('',#1016,#211);
#114=LINE('',#1018,#212);
#115=LINE('',#1020,#213);
#116=LINE('',#1021,#214);
#117=LINE('',#1025,#215);
#118=LINE('',#1027,#216);
#119=LINE('',#1029,#217);
#120=LINE('',#1030,#218);
#121=LINE('',#1033,#219);
#122=LINE('',#1035,#220);
#123=LINE('',#1036,#221);
#124=LINE('',#1040,#222);
#125=LINE('',#1042,#223);
#126=LINE('',#1044,#224);
#127=LINE('',#1045,#225);
#128=LINE('',#1049,#226);
#129=LINE('',#1051,#227);
#130=LINE('',#1053,#228);
#131=LINE('',#1054,#229);
#132=LINE('',#1058,#230);
#133=LINE('',#1060,#231);
#134=LINE('',#1062,#232);
#135=LINE('',#1063,#233);
#136=LINE('',#1067,#234);
#137=LINE('',#1069,#235);
#138=LINE('',#1071,#236);
#139=LINE('',#1072,#237);
#140=LINE('',#1074,#238);
#141=LINE('',#1075,#239);
#142=LINE('',#1079,#240);
#143=LINE('',#1081,#241);
#144=LINE('',#1083,#242);
#145=LINE('',#1084,#243);
#146=LINE('',#1086,#244);
#147=LINE('',#1087,#245);
#148=LINE('',#1091,#246);
#149=LINE('',#1093,#247);
#150=LINE('',#1095,#248);
#151=LINE('',#1096,#249);
#152=LINE('',#1099,#250);
#153=LINE('',#1101,#251);
#154=LINE('',#1102,#252);
#155=LINE('',#1106,#253);
#156=LINE('',#1108,#254);
#157=LINE('',#1110,#255);
#158=LINE('',#1111,#256);
#159=LINE('',#1113,#257);
#160=LINE('',#1114,#258);
#161=LINE('',#1115,#259);
#162=LINE('',#1118,#260);
#163=LINE('',#1119,#261);
#164=LINE('',#1121,#262);
#165=LINE('',#1122,#263);
#166=LINE('',#1125,#264);
#167=LINE('',#1126,#265);
#168=LINE('',#1128,#266);
#169=LINE('',#1129,#267);
#170=LINE('',#1130,#268);
#171=LINE('',#1132,#269);
#172=LINE('',#1133,#270);
#173=LINE('',#1134,#271);
#174=LINE('',#1137,#272);
#175=LINE('',#1138,#273);
#176=LINE('',#1140,#274);
#177=LINE('',#1142,#275);
#178=LINE('',#1143,#276);
#179=LINE('',#1144,#277);
#180=LINE('',#1146,#278);
#181=LINE('',#1147,#279);
#182=LINE('',#1153,#280);
#183=LINE('',#1158,#281);
#184=LINE('',#1159,#282);
#185=LINE('',#1160,#283);
#186=LINE('',#1166,#284);
#187=LINE('',#1171,#285);
#188=LINE('',#1172,#286);
#189=LINE('',#1173,#287);
#190=LINE('',#1178,#288);
#191=LINE('',#1179,#289);
#192=LINE('',#1180,#290);
#193=LINE('',#1183,#291);
#194=LINE('',#1184,#292);
#195=LINE('',#1185,#293);
#196=LINE('',#1188,#294);
#197=LINE('',#1189,#295);
#198=LINE('',#1191,#296);
#199=VECTOR('',#805,10.);
#200=VECTOR('',#806,10.);
#201=VECTOR('',#807,10.);
#202=VECTOR('',#808,10.);
#203=VECTOR('',#811,10.);
#204=VECTOR('',#812,10.);
#205=VECTOR('',#813,10.);
#206=VECTOR('',#814,10.);
#207=VECTOR('',#817,10.);
#208=VECTOR('',#818,10.);
#209=VECTOR('',#819,10.);
#210=VECTOR('',#820,10.);
#211=VECTOR('',#823,10.);
#212=VECTOR('',#824,10.);
#213=VECTOR('',#825,10.);
#214=VECTOR('',#826,10.);
#215=VECTOR('',#829,10.);
#216=VECTOR('',#830,10.);
#217=VECTOR('',#831,10.);
#218=VECTOR('',#832,10.);
#219=VECTOR('',#835,10.);
#220=VECTOR('',#836,10.);
#221=VECTOR('',#837,10.);
#222=VECTOR('',#840,10.);
#223=VECTOR('',#841,10.);
#224=VECTOR('',#842,10.);
#225=VECTOR('',#843,10.);
#226=VECTOR('',#846,10.);
#227=VECTOR('',#847,10.);
#228=VECTOR('',#848,10.);
#229=VECTOR('',#849,10.);
#230=VECTOR('',#852,10.);
#231=VECTOR('',#853,10.);
#232=VECTOR('',#854,10.);
#233=VECTOR('',#855,10.);
#234=VECTOR('',#858,10.);
#235=VECTOR('',#859,10.);
#236=VECTOR('',#860,10.);
#237=VECTOR('',#861,10.);
#238=VECTOR('',#864,10.);
#239=VECTOR('',#865,10.);
#240=VECTOR('',#868,10.);
#241=VECTOR('',#869,10.);
#242=VECTOR('',#870,10.);
#243=VECTOR('',#871,10.);
#244=VECTOR('',#874,10.);
#245=VECTOR('',#875,10.);
#246=VECTOR('',#878,10.);
#247=VECTOR('',#879,10.);
#248=VECTOR('',#880,10.);
#249=VECTOR('',#881,10.);
#250=VECTOR('',#884,10.);
#251=VECTOR('',#885,10.);
#252=VECTOR('',#886,10.);
#253=VECTOR('',#889,10.);
#254=VECTOR('',#890,10.);
#255=VECTOR('',#891,10.);
#256=VECTOR('',#892,10.);
#257=VECTOR('',#895,10.);
#258=VECTOR('',#896,10.);
#259=VECTOR('',#897,10.);
#260=VECTOR('',#900,10.);
#261=VECTOR('',#901,10.);
#262=VECTOR('',#902,10.);
#263=VECTOR('',#903,10.);
#264=VECTOR('',#906,10.);
#265=VECTOR('',#907,10.);
#266=VECTOR('',#910,10.);
#267=VECTOR('',#911,10.);
#268=VECTOR('',#912,10.);
#269=VECTOR('',#915,10.);
#270=VECTOR('',#916,10.);
#271=VECTOR('',#917,10.);
#272=VECTOR('',#920,10.);
#273=VECTOR('',#921,10.);
#274=VECTOR('',#924,10.);
#275=VECTOR('',#927,10.);
#276=VECTOR('',#928,10.);
#277=VECTOR('',#929,10.);
#278=VECTOR('',#932,10.);
#279=VECTOR('',#933,10.);
#280=VECTOR('',#940,1.65);
#281=VECTOR('',#945,10.);
#282=VECTOR('',#946,10.);
#283=VECTOR('',#947,10.);
#284=VECTOR('',#954,1.65);
#285=VECTOR('',#959,10.);
#286=VECTOR('',#960,10.);
#287=VECTOR('',#961,10.);
#288=VECTOR('',#966,10.);
#289=VECTOR('',#967,10.);
#290=VECTOR('',#968,10.);
#291=VECTOR('',#971,10.);
#292=VECTOR('',#972,10.);
#293=VECTOR('',#973,10.);
#294=VECTOR('',#976,10.);
#295=VECTOR('',#977,10.);
#296=VECTOR('',#980,10.);
#297=VERTEX_POINT('',#987);
#298=VERTEX_POINT('',#988);
#299=VERTEX_POINT('',#990);
#300=VERTEX_POINT('',#992);
#301=VERTEX_POINT('',#996);
#302=VERTEX_POINT('',#997);
#303=VERTEX_POINT('',#999);
#304=VERTEX_POINT('',#1001);
#305=VERTEX_POINT('',#1005);
#306=VERTEX_POINT('',#1006);
#307=VERTEX_POINT('',#1008);
#308=VERTEX_POINT('',#1010);
#309=VERTEX_POINT('',#1014);
#310=VERTEX_POINT('',#1015);
#311=VERTEX_POINT('',#1017);
#312=VERTEX_POINT('',#1019);
#313=VERTEX_POINT('',#1023);
#314=VERTEX_POINT('',#1024);
#315=VERTEX_POINT('',#1026);
#316=VERTEX_POINT('',#1028);
#317=VERTEX_POINT('',#1032);
#318=VERTEX_POINT('',#1034);
#319=VERTEX_POINT('',#1038);
#320=VERTEX_POINT('',#1039);
#321=VERTEX_POINT('',#1041);
#322=VERTEX_POINT('',#1043);
#323=VERTEX_POINT('',#1047);
#324=VERTEX_POINT('',#1048);
#325=VERTEX_POINT('',#1050);
#326=VERTEX_POINT('',#1052);
#327=VERTEX_POINT('',#1056);
#328=VERTEX_POINT('',#1057);
#329=VERTEX_POINT('',#1059);
#330=VERTEX_POINT('',#1061);
#331=VERTEX_POINT('',#1065);
#332=VERTEX_POINT('',#1066);
#333=VERTEX_POINT('',#1068);
#334=VERTEX_POINT('',#1070);
#335=VERTEX_POINT('',#1077);
#336=VERTEX_POINT('',#1078);
#337=VERTEX_POINT('',#1080);
#338=VERTEX_POINT('',#1082);
#339=VERTEX_POINT('',#1089);
#340=VERTEX_POINT('',#1090);
#341=VERTEX_POINT('',#1092);
#342=VERTEX_POINT('',#1094);
#343=VERTEX_POINT('',#1098);
#344=VERTEX_POINT('',#1100);
#345=VERTEX_POINT('',#1104);
#346=VERTEX_POINT('',#1105);
#347=VERTEX_POINT('',#1107);
#348=VERTEX_POINT('',#1109);
#349=VERTEX_POINT('',#1117);
#350=VERTEX_POINT('',#1120);
#351=VERTEX_POINT('',#1124);
#352=VERTEX_POINT('',#1136);
#353=VERTEX_POINT('',#1150);
#354=VERTEX_POINT('',#1152);
#355=VERTEX_POINT('',#1156);
#356=VERTEX_POINT('',#1157);
#357=VERTEX_POINT('',#1163);
#358=VERTEX_POINT('',#1165);
#359=VERTEX_POINT('',#1169);
#360=VERTEX_POINT('',#1170);
#361=VERTEX_POINT('',#1176);
#362=VERTEX_POINT('',#1177);
#363=VERTEX_POINT('',#1182);
#364=VERTEX_POINT('',#1187);
#365=EDGE_CURVE('',#297,#298,#101,.T.);
#366=EDGE_CURVE('',#297,#299,#102,.T.);
#367=EDGE_CURVE('',#300,#299,#103,.T.);
#368=EDGE_CURVE('',#298,#300,#104,.T.);
#369=EDGE_CURVE('',#301,#302,#105,.T.);
#370=EDGE_CURVE('',#303,#302,#106,.T.);
#371=EDGE_CURVE('',#303,#304,#107,.T.);
#372=EDGE_CURVE('',#301,#304,#108,.T.);
#373=EDGE_CURVE('',#305,#306,#109,.T.);
#374=EDGE_CURVE('',#305,#307,#110,.T.);
#375=EDGE_CURVE('',#308,#307,#111,.T.);
#376=EDGE_CURVE('',#306,#308,#112,.T.);
#377=EDGE_CURVE('',#309,#310,#113,.T.);
#378=EDGE_CURVE('',#311,#310,#114,.T.);
#379=EDGE_CURVE('',#311,#312,#115,.T.);
#380=EDGE_CURVE('',#309,#312,#116,.T.);
#381=EDGE_CURVE('',#313,#314,#117,.T.);
#382=EDGE_CURVE('',#313,#315,#118,.T.);
#383=EDGE_CURVE('',#316,#315,#119,.T.);
#384=EDGE_CURVE('',#314,#316,#120,.T.);
#385=EDGE_CURVE('',#314,#317,#121,.T.);
#386=EDGE_CURVE('',#317,#318,#122,.T.);
#387=EDGE_CURVE('',#318,#313,#123,.T.);
#388=EDGE_CURVE('',#319,#320,#124,.T.);
#389=EDGE_CURVE('',#321,#320,#125,.T.);
#390=EDGE_CURVE('',#321,#322,#126,.T.);
#391=EDGE_CURVE('',#319,#322,#127,.T.);
#392=EDGE_CURVE('',#323,#324,#128,.T.);
#393=EDGE_CURVE('',#323,#325,#129,.T.);
#394=EDGE_CURVE('',#326,#325,#130,.T.);
#395=EDGE_CURVE('',#324,#326,#131,.T.);
#396=EDGE_CURVE('',#327,#328,#132,.T.);
#397=EDGE_CURVE('',#329,#328,#133,.T.);
#398=EDGE_CURVE('',#329,#330,#134,.T.);
#399=EDGE_CURVE('',#327,#330,#135,.T.);
#400=EDGE_CURVE('',#331,#332,#136,.T.);
#401=EDGE_CURVE('',#333,#332,#137,.T.);
#402=EDGE_CURVE('',#333,#334,#138,.T.);
#403=EDGE_CURVE('',#331,#334,#139,.T.);
#404=EDGE_CURVE('',#298,#323,#140,.T.);
#405=EDGE_CURVE('',#324,#297,#141,.T.);
#406=EDGE_CURVE('',#335,#336,#142,.T.);
#407=EDGE_CURVE('',#335,#337,#143,.T.);
#408=EDGE_CURVE('',#338,#337,#144,.T.);
#409=EDGE_CURVE('',#336,#338,#145,.T.);
#410=EDGE_CURVE('',#306,#335,#146,.T.);
#411=EDGE_CURVE('',#336,#305,#147,.T.);
#412=EDGE_CURVE('',#339,#340,#148,.T.);
#413=EDGE_CURVE('',#341,#340,#149,.T.);
#414=EDGE_CURVE('',#342,#341,#150,.T.);
#415=EDGE_CURVE('',#339,#342,#151,.T.);
#416=EDGE_CURVE('',#317,#343,#152,.T.);
#417=EDGE_CURVE('',#344,#343,#153,.T.);
#418=EDGE_CURVE('',#318,#344,#154,.T.);
#419=EDGE_CURVE('',#345,#346,#155,.T.);
#420=EDGE_CURVE('',#347,#346,#156,.T.);
#421=EDGE_CURVE('',#347,#348,#157,.T.);
#422=EDGE_CURVE('',#345,#348,#158,.T.);
#423=EDGE_CURVE('',#302,#329,#159,.T.);
#424=EDGE_CURVE('',#299,#301,#160,.T.);
#425=EDGE_CURVE('',#330,#326,#161,.T.);
#426=EDGE_CURVE('',#332,#349,#162,.T.);
#427=EDGE_CURVE('',#325,#331,#163,.T.);
#428=EDGE_CURVE('',#350,#300,#164,.T.);
#429=EDGE_CURVE('',#349,#350,#165,.T.);
#430=EDGE_CURVE('',#349,#351,#166,.T.);
#431=EDGE_CURVE('',#351,#333,#167,.T.);
#432=EDGE_CURVE('',#348,#319,#168,.T.);
#433=EDGE_CURVE('',#343,#347,#169,.T.);
#434=EDGE_CURVE('',#320,#316,#170,.T.);
#435=EDGE_CURVE('',#328,#303,#171,.T.);
#436=EDGE_CURVE('',#315,#327,#172,.T.);
#437=EDGE_CURVE('',#304,#344,#173,.T.);
#438=EDGE_CURVE('',#352,#350,#174,.T.);
#439=EDGE_CURVE('',#351,#352,#175,.T.);
#440=EDGE_CURVE('',#322,#345,#176,.T.);
#441=EDGE_CURVE('',#310,#339,#177,.T.);
#442=EDGE_CURVE('',#307,#309,#178,.T.);
#443=EDGE_CURVE('',#340,#338,#179,.T.);
#444=EDGE_CURVE('',#337,#321,#180,.T.);
#445=EDGE_CURVE('',#346,#308,#181,.T.);
#446=EDGE_CURVE('',#353,#353,#17,.T.);
#447=EDGE_CURVE('',#353,#354,#182,.T.);
#448=EDGE_CURVE('',#354,#354,#18,.T.);
#449=EDGE_CURVE('',#355,#356,#183,.T.);
#450=EDGE_CURVE('',#356,#341,#184,.T.);
#451=EDGE_CURVE('',#334,#355,#185,.T.);
#452=EDGE_CURVE('',#357,#357,#19,.T.);
#453=EDGE_CURVE('',#357,#358,#186,.T.);
#454=EDGE_CURVE('',#358,#358,#20,.T.);
#455=EDGE_CURVE('',#359,#360,#187,.T.);
#456=EDGE_CURVE('',#360,#352,#188,.T.);
#457=EDGE_CURVE('',#312,#359,#189,.T.);
#458=EDGE_CURVE('',#361,#362,#190,.T.);
#459=EDGE_CURVE('',#362,#360,#191,.T.);
#460=EDGE_CURVE('',#361,#359,#192,.T.);
#461=EDGE_CURVE('',#363,#361,#193,.T.);
#462=EDGE_CURVE('',#342,#311,#194,.T.);
#463=EDGE_CURVE('',#363,#356,#195,.T.);
#464=EDGE_CURVE('',#364,#363,#196,.T.);
#465=EDGE_CURVE('',#364,#355,#197,.T.);
#466=EDGE_CURVE('',#362,#364,#198,.T.);
#467=ORIENTED_EDGE('',*,*,#365,.F.);
#468=ORIENTED_EDGE('',*,*,#366,.T.);
#469=ORIENTED_EDGE('',*,*,#367,.F.);
#470=ORIENTED_EDGE('',*,*,#368,.F.);
#471=ORIENTED_EDGE('',*,*,#369,.T.);
#472=ORIENTED_EDGE('',*,*,#370,.F.);
#473=ORIENTED_EDGE('',*,*,#371,.T.);
#474=ORIENTED_EDGE('',*,*,#372,.F.);
#475=ORIENTED_EDGE('',*,*,#373,.F.);
#476=ORIENTED_EDGE('',*,*,#374,.T.);
#477=ORIENTED_EDGE('',*,*,#375,.F.);
#478=ORIENTED_EDGE('',*,*,#376,.F.);
#479=ORIENTED_EDGE('',*,*,#377,.T.);
#480=ORIENTED_EDGE('',*,*,#378,.F.);
#481=ORIENTED_EDGE('',*,*,#379,.T.);
#482=ORIENTED_EDGE('',*,*,#380,.F.);
#483=ORIENTED_EDGE('',*,*,#381,.F.);
#484=ORIENTED_EDGE('',*,*,#382,.T.);
#485=ORIENTED_EDGE('',*,*,#383,.F.);
#486=ORIENTED_EDGE('',*,*,#384,.F.);
#487=ORIENTED_EDGE('',*,*,#381,.T.);
#488=ORIENTED_EDGE('',*,*,#385,.T.);
#489=ORIENTED_EDGE('',*,*,#386,.T.);
#490=ORIENTED_EDGE('',*,*,#387,.T.);
#491=ORIENTED_EDGE('',*,*,#388,.T.);
#492=ORIENTED_EDGE('',*,*,#389,.F.);
#493=ORIENTED_EDGE('',*,*,#390,.T.);
#494=ORIENTED_EDGE('',*,*,#391,.F.);
#495=ORIENTED_EDGE('',*,*,#392,.F.);
#496=ORIENTED_EDGE('',*,*,#393,.T.);
#497=ORIENTED_EDGE('',*,*,#394,.F.);
#498=ORIENTED_EDGE('',*,*,#395,.F.);
#499=ORIENTED_EDGE('',*,*,#396,.T.);
#500=ORIENTED_EDGE('',*,*,#397,.F.);
#501=ORIENTED_EDGE('',*,*,#398,.T.);
#502=ORIENTED_EDGE('',*,*,#399,.F.);
#503=ORIENTED_EDGE('',*,*,#400,.T.);
#504=ORIENTED_EDGE('',*,*,#401,.F.);
#505=ORIENTED_EDGE('',*,*,#402,.T.);
#506=ORIENTED_EDGE('',*,*,#403,.F.);
#507=ORIENTED_EDGE('',*,*,#365,.T.);
#508=ORIENTED_EDGE('',*,*,#404,.T.);
#509=ORIENTED_EDGE('',*,*,#392,.T.);
#510=ORIENTED_EDGE('',*,*,#405,.T.);
#511=ORIENTED_EDGE('',*,*,#406,.F.);
#512=ORIENTED_EDGE('',*,*,#407,.T.);
#513=ORIENTED_EDGE('',*,*,#408,.F.);
#514=ORIENTED_EDGE('',*,*,#409,.F.);
#515=ORIENTED_EDGE('',*,*,#373,.T.);
#516=ORIENTED_EDGE('',*,*,#410,.T.);
#517=ORIENTED_EDGE('',*,*,#406,.T.);
#518=ORIENTED_EDGE('',*,*,#411,.T.);
#519=ORIENTED_EDGE('',*,*,#412,.T.);
#520=ORIENTED_EDGE('',*,*,#413,.F.);
#521=ORIENTED_EDGE('',*,*,#414,.F.);
#522=ORIENTED_EDGE('',*,*,#415,.F.);
#523=ORIENTED_EDGE('',*,*,#386,.F.);
#524=ORIENTED_EDGE('',*,*,#416,.T.);
#525=ORIENTED_EDGE('',*,*,#417,.F.);
#526=ORIENTED_EDGE('',*,*,#418,.F.);
#527=ORIENTED_EDGE('',*,*,#419,.T.);
#528=ORIENTED_EDGE('',*,*,#420,.F.);
#529=ORIENTED_EDGE('',*,*,#421,.T.);
#530=ORIENTED_EDGE('',*,*,#422,.F.);
#531=ORIENTED_EDGE('',*,*,#423,.F.);
#532=ORIENTED_EDGE('',*,*,#369,.F.);
#533=ORIENTED_EDGE('',*,*,#424,.F.);
#534=ORIENTED_EDGE('',*,*,#366,.F.);
#535=ORIENTED_EDGE('',*,*,#405,.F.);
#536=ORIENTED_EDGE('',*,*,#395,.T.);
#537=ORIENTED_EDGE('',*,*,#425,.F.);
#538=ORIENTED_EDGE('',*,*,#398,.F.);
#539=ORIENTED_EDGE('',*,*,#426,.F.);
#540=ORIENTED_EDGE('',*,*,#400,.F.);
#541=ORIENTED_EDGE('',*,*,#427,.F.);
#542=ORIENTED_EDGE('',*,*,#393,.F.);
#543=ORIENTED_EDGE('',*,*,#404,.F.);
#544=ORIENTED_EDGE('',*,*,#368,.T.);
#545=ORIENTED_EDGE('',*,*,#428,.F.);
#546=ORIENTED_EDGE('',*,*,#429,.F.);
#547=ORIENTED_EDGE('',*,*,#426,.T.);
#548=ORIENTED_EDGE('',*,*,#430,.T.);
#549=ORIENTED_EDGE('',*,*,#431,.T.);
#550=ORIENTED_EDGE('',*,*,#401,.T.);
#551=ORIENTED_EDGE('',*,*,#432,.F.);
#552=ORIENTED_EDGE('',*,*,#421,.F.);
#553=ORIENTED_EDGE('',*,*,#433,.F.);
#554=ORIENTED_EDGE('',*,*,#416,.F.);
#555=ORIENTED_EDGE('',*,*,#385,.F.);
#556=ORIENTED_EDGE('',*,*,#384,.T.);
#557=ORIENTED_EDGE('',*,*,#434,.F.);
#558=ORIENTED_EDGE('',*,*,#388,.F.);
#559=ORIENTED_EDGE('',*,*,#435,.F.);
#560=ORIENTED_EDGE('',*,*,#396,.F.);
#561=ORIENTED_EDGE('',*,*,#436,.F.);
#562=ORIENTED_EDGE('',*,*,#382,.F.);
#563=ORIENTED_EDGE('',*,*,#387,.F.);
#564=ORIENTED_EDGE('',*,*,#418,.T.);
#565=ORIENTED_EDGE('',*,*,#437,.F.);
#566=ORIENTED_EDGE('',*,*,#371,.F.);
#567=ORIENTED_EDGE('',*,*,#429,.T.);
#568=ORIENTED_EDGE('',*,*,#438,.F.);
#569=ORIENTED_EDGE('',*,*,#439,.F.);
#570=ORIENTED_EDGE('',*,*,#430,.F.);
#571=ORIENTED_EDGE('',*,*,#432,.T.);
#572=ORIENTED_EDGE('',*,*,#391,.T.);
#573=ORIENTED_EDGE('',*,*,#440,.T.);
#574=ORIENTED_EDGE('',*,*,#422,.T.);
#575=ORIENTED_EDGE('',*,*,#441,.F.);
#576=ORIENTED_EDGE('',*,*,#377,.F.);
#577=ORIENTED_EDGE('',*,*,#442,.F.);
#578=ORIENTED_EDGE('',*,*,#374,.F.);
#579=ORIENTED_EDGE('',*,*,#411,.F.);
#580=ORIENTED_EDGE('',*,*,#409,.T.);
#581=ORIENTED_EDGE('',*,*,#443,.F.);
#582=ORIENTED_EDGE('',*,*,#412,.F.);
#583=ORIENTED_EDGE('',*,*,#440,.F.);
#584=ORIENTED_EDGE('',*,*,#390,.F.);
#585=ORIENTED_EDGE('',*,*,#444,.F.);
#586=ORIENTED_EDGE('',*,*,#407,.F.);
#587=ORIENTED_EDGE('',*,*,#410,.F.);
#588=ORIENTED_EDGE('',*,*,#376,.T.);
#589=ORIENTED_EDGE('',*,*,#445,.F.);
#590=ORIENTED_EDGE('',*,*,#419,.F.);
#591=ORIENTED_EDGE('',*,*,#423,.T.);
#592=ORIENTED_EDGE('',*,*,#397,.T.);
#593=ORIENTED_EDGE('',*,*,#435,.T.);
#594=ORIENTED_EDGE('',*,*,#370,.T.);
#595=ORIENTED_EDGE('',*,*,#446,.F.);
#596=ORIENTED_EDGE('',*,*,#447,.T.);
#597=ORIENTED_EDGE('',*,*,#448,.F.);
#598=ORIENTED_EDGE('',*,*,#447,.F.);
#599=ORIENTED_EDGE('',*,*,#449,.T.);
#600=ORIENTED_EDGE('',*,*,#450,.T.);
#601=ORIENTED_EDGE('',*,*,#413,.T.);
#602=ORIENTED_EDGE('',*,*,#443,.T.);
#603=ORIENTED_EDGE('',*,*,#408,.T.);
#604=ORIENTED_EDGE('',*,*,#444,.T.);
#605=ORIENTED_EDGE('',*,*,#389,.T.);
#606=ORIENTED_EDGE('',*,*,#434,.T.);
#607=ORIENTED_EDGE('',*,*,#383,.T.);
#608=ORIENTED_EDGE('',*,*,#436,.T.);
#609=ORIENTED_EDGE('',*,*,#399,.T.);
#610=ORIENTED_EDGE('',*,*,#425,.T.);
#611=ORIENTED_EDGE('',*,*,#394,.T.);
#612=ORIENTED_EDGE('',*,*,#427,.T.);
#613=ORIENTED_EDGE('',*,*,#403,.T.);
#614=ORIENTED_EDGE('',*,*,#451,.T.);
#615=ORIENTED_EDGE('',*,*,#446,.T.);
#616=ORIENTED_EDGE('',*,*,#448,.T.);
#617=ORIENTED_EDGE('',*,*,#452,.F.);
#618=ORIENTED_EDGE('',*,*,#453,.T.);
#619=ORIENTED_EDGE('',*,*,#454,.F.);
#620=ORIENTED_EDGE('',*,*,#453,.F.);
#621=ORIENTED_EDGE('',*,*,#455,.T.);
#622=ORIENTED_EDGE('',*,*,#456,.T.);
#623=ORIENTED_EDGE('',*,*,#438,.T.);
#624=ORIENTED_EDGE('',*,*,#428,.T.);
#625=ORIENTED_EDGE('',*,*,#367,.T.);
#626=ORIENTED_EDGE('',*,*,#424,.T.);
#627=ORIENTED_EDGE('',*,*,#372,.T.);
#628=ORIENTED_EDGE('',*,*,#437,.T.);
#629=ORIENTED_EDGE('',*,*,#417,.T.);
#630=ORIENTED_EDGE('',*,*,#433,.T.);
#631=ORIENTED_EDGE('',*,*,#420,.T.);
#632=ORIENTED_EDGE('',*,*,#445,.T.);
#633=ORIENTED_EDGE('',*,*,#375,.T.);
#634=ORIENTED_EDGE('',*,*,#442,.T.);
#635=ORIENTED_EDGE('',*,*,#380,.T.);
#636=ORIENTED_EDGE('',*,*,#457,.T.);
#637=ORIENTED_EDGE('',*,*,#452,.T.);
#638=ORIENTED_EDGE('',*,*,#454,.T.);
#639=ORIENTED_EDGE('',*,*,#458,.T.);
#640=ORIENTED_EDGE('',*,*,#459,.T.);
#641=ORIENTED_EDGE('',*,*,#455,.F.);
#642=ORIENTED_EDGE('',*,*,#460,.F.);
#643=ORIENTED_EDGE('',*,*,#461,.T.);
#644=ORIENTED_EDGE('',*,*,#460,.T.);
#645=ORIENTED_EDGE('',*,*,#457,.F.);
#646=ORIENTED_EDGE('',*,*,#379,.F.);
#647=ORIENTED_EDGE('',*,*,#462,.F.);
#648=ORIENTED_EDGE('',*,*,#414,.T.);
#649=ORIENTED_EDGE('',*,*,#450,.F.);
#650=ORIENTED_EDGE('',*,*,#463,.F.);
#651=ORIENTED_EDGE('',*,*,#464,.T.);
#652=ORIENTED_EDGE('',*,*,#463,.T.);
#653=ORIENTED_EDGE('',*,*,#449,.F.);
#654=ORIENTED_EDGE('',*,*,#465,.F.);
#655=ORIENTED_EDGE('',*,*,#466,.T.);
#656=ORIENTED_EDGE('',*,*,#465,.T.);
#657=ORIENTED_EDGE('',*,*,#451,.F.);
#658=ORIENTED_EDGE('',*,*,#402,.F.);
#659=ORIENTED_EDGE('',*,*,#431,.F.);
#660=ORIENTED_EDGE('',*,*,#439,.T.);
#661=ORIENTED_EDGE('',*,*,#456,.F.);
#662=ORIENTED_EDGE('',*,*,#459,.F.);
#663=ORIENTED_EDGE('',*,*,#441,.T.);
#664=ORIENTED_EDGE('',*,*,#415,.T.);
#665=ORIENTED_EDGE('',*,*,#462,.T.);
#666=ORIENTED_EDGE('',*,*,#378,.T.);
#667=ORIENTED_EDGE('',*,*,#466,.F.);
#668=ORIENTED_EDGE('',*,*,#458,.F.);
#669=ORIENTED_EDGE('',*,*,#461,.F.);
#670=ORIENTED_EDGE('',*,*,#464,.F.);
#671=PLANE('',#759);
#672=PLANE('',#760);
#673=PLANE('',#761);
#674=PLANE('',#762);
#675=PLANE('',#763);
#676=PLANE('',#764);
#677=PLANE('',#765);
#678=PLANE('',#766);
#679=PLANE('',#767);
#680=PLANE('',#768);
#681=PLANE('',#769);
#682=PLANE('',#770);
#683=PLANE('',#771);
#684=PLANE('',#772);
#685=PLANE('',#773);
#686=PLANE('',#774);
#687=PLANE('',#775);
#688=PLANE('',#776);
#689=PLANE('',#777);
#690=PLANE('',#778);
#691=PLANE('',#779);
#692=PLANE('',#780);
#693=PLANE('',#781);
#694=PLANE('',#782);
#695=PLANE('',#783);
#696=PLANE('',#784);
#697=PLANE('',#788);
#698=PLANE('',#789);
#699=PLANE('',#793);
#700=PLANE('',#794);
#701=PLANE('',#795);
#702=PLANE('',#796);
#703=PLANE('',#797);
#704=PLANE('',#798);
#705=PLANE('',#799);
#706=PLANE('',#800);
#707=ADVANCED_FACE('',(#23),#671,.T.);
#708=ADVANCED_FACE('',(#24),#672,.T.);
#709=ADVANCED_FACE('',(#25),#673,.T.);
#710=ADVANCED_FACE('',(#26),#674,.T.);
#711=ADVANCED_FACE('',(#27),#675,.T.);
#712=ADVANCED_FACE('',(#28),#676,.T.);
#713=ADVANCED_FACE('',(#29),#677,.T.);
#714=ADVANCED_FACE('',(#30),#678,.T.);
#715=ADVANCED_FACE('',(#31),#679,.T.);
#716=ADVANCED_FACE('',(#32),#680,.T.);
#717=ADVANCED_FACE('',(#33),#681,.T.);
#718=ADVANCED_FACE('',(#34),#682,.T.);
#719=ADVANCED_FACE('',(#35),#683,.T.);
#720=ADVANCED_FACE('',(#36),#684,.T.);
#721=ADVANCED_FACE('',(#37),#685,.T.);
#722=ADVANCED_FACE('',(#38),#686,.T.);
#723=ADVANCED_FACE('',(#39),#687,.T.);
#724=ADVANCED_FACE('',(#40),#688,.T.);
#725=ADVANCED_FACE('',(#41),#689,.T.);
#726=ADVANCED_FACE('',(#42),#690,.T.);
#727=ADVANCED_FACE('',(#43),#691,.T.);
#728=ADVANCED_FACE('',(#44),#692,.T.);
#729=ADVANCED_FACE('',(#45),#693,.T.);
#730=ADVANCED_FACE('',(#46),#694,.T.);
#731=ADVANCED_FACE('',(#47),#695,.T.);
#732=ADVANCED_FACE('',(#48),#696,.T.);
#733=ADVANCED_FACE('',(#49),#21,.F.);
#734=ADVANCED_FACE('',(#50,#15),#697,.T.);
#735=ADVANCED_FACE('',(#51),#698,.T.);
#736=ADVANCED_FACE('',(#52),#22,.F.);
#737=ADVANCED_FACE('',(#53,#16),#699,.T.);
#738=ADVANCED_FACE('',(#54),#700,.T.);
#739=ADVANCED_FACE('',(#55),#701,.T.);
#740=ADVANCED_FACE('',(#56),#702,.T.);
#741=ADVANCED_FACE('',(#57),#703,.T.);
#742=ADVANCED_FACE('',(#58),#704,.T.);
#743=ADVANCED_FACE('',(#59),#705,.T.);
#744=ADVANCED_FACE('',(#60),#706,.F.);
#745=CLOSED_SHELL('',(#707,#708,#709,#710,#711,#712,#713,#714,#715,#716,
#717,#718,#719,#720,#721,#722,#723,#724,#725,#726,#727,#728,#729,#730,#731,
#732,#733,#734,#735,#736,#737,#738,#739,#740,#741,#742,#743,#744));
#746=DERIVED_UNIT_ELEMENT(#748,1.);
#747=DERIVED_UNIT_ELEMENT(#1199,-3.);
#748=(
MASS_UNIT()
NAMED_UNIT(*)
SI_UNIT(.KILO.,.GRAM.)
);
#749=DERIVED_UNIT((#746,#747));
#750=MEASURE_REPRESENTATION_ITEM('density measure',
POSITIVE_RATIO_MEASURE(7850.),#749);
#751=PROPERTY_DEFINITION_REPRESENTATION(#756,#753);
#752=PROPERTY_DEFINITION_REPRESENTATION(#757,#754);
#753=REPRESENTATION('material name',(#755),#1196);
#754=REPRESENTATION('density',(#750),#1196);
#755=DESCRIPTIVE_REPRESENTATION_ITEM('Steel','Steel');
#756=PROPERTY_DEFINITION('material property','material name',#1206);
#757=PROPERTY_DEFINITION('material property','density of part',#1206);
#758=AXIS2_PLACEMENT_3D('',#985,#801,#802);
#759=AXIS2_PLACEMENT_3D('',#986,#803,#804);
#760=AXIS2_PLACEMENT_3D('',#995,#809,#810);
#761=AXIS2_PLACEMENT_3D('',#1004,#815,#816);
#762=AXIS2_PLACEMENT_3D('',#1013,#821,#822);
#763=AXIS2_PLACEMENT_3D('',#1022,#827,#828);
#764=AXIS2_PLACEMENT_3D('',#1031,#833,#834);
#765=AXIS2_PLACEMENT_3D('',#1037,#838,#839);
#766=AXIS2_PLACEMENT_3D('',#1046,#844,#845);
#767=AXIS2_PLACEMENT_3D('',#1055,#850,#851);
#768=AXIS2_PLACEMENT_3D('',#1064,#856,#857);
#769=AXIS2_PLACEMENT_3D('',#1073,#862,#863);
#770=AXIS2_PLACEMENT_3D('',#1076,#866,#867);
#771=AXIS2_PLACEMENT_3D('',#1085,#872,#873);
#772=AXIS2_PLACEMENT_3D('',#1088,#876,#877);
#773=AXIS2_PLACEMENT_3D('',#1097,#882,#883);
#774=AXIS2_PLACEMENT_3D('',#1103,#887,#888);
#775=AXIS2_PLACEMENT_3D('',#1112,#893,#894);
#776=AXIS2_PLACEMENT_3D('',#1116,#898,#899);
#777=AXIS2_PLACEMENT_3D('',#1123,#904,#905);
#778=AXIS2_PLACEMENT_3D('',#1127,#908,#909);
#779=AXIS2_PLACEMENT_3D('',#1131,#913,#914);
#780=AXIS2_PLACEMENT_3D('',#1135,#918,#919);
#781=AXIS2_PLACEMENT_3D('',#1139,#922,#923);
#782=AXIS2_PLACEMENT_3D('',#1141,#925,#926);
#783=AXIS2_PLACEMENT_3D('',#1145,#930,#931);
#784=AXIS2_PLACEMENT_3D('',#1148,#934,#935);
#785=AXIS2_PLACEMENT_3D('',#1149,#936,#937);
#786=AXIS2_PLACEMENT_3D('',#1151,#938,#939);
#787=AXIS2_PLACEMENT_3D('',#1154,#941,#942);
#788=AXIS2_PLACEMENT_3D('',#1155,#943,#944);
#789=AXIS2_PLACEMENT_3D('',#1161,#948,#949);
#790=AXIS2_PLACEMENT_3D('',#1162,#950,#951);
#791=AXIS2_PLACEMENT_3D('',#1164,#952,#953);
#792=AXIS2_PLACEMENT_3D('',#1167,#955,#956);
#793=AXIS2_PLACEMENT_3D('',#1168,#957,#958);
#794=AXIS2_PLACEMENT_3D('',#1174,#962,#963);
#795=AXIS2_PLACEMENT_3D('',#1175,#964,#965);
#796=AXIS2_PLACEMENT_3D('',#1181,#969,#970);
#797=AXIS2_PLACEMENT_3D('',#1186,#974,#975);
#798=AXIS2_PLACEMENT_3D('',#1190,#978,#979);
#799=AXIS2_PLACEMENT_3D('',#1192,#981,#982);
#800=AXIS2_PLACEMENT_3D('',#1193,#983,#984);
#801=DIRECTION('axis',(0.,0.,1.));
#802=DIRECTION('refdir',(1.,0.,0.));
#803=DIRECTION('center_axis',(2.77555756156289E-16,0.,-1.));
#804=DIRECTION('ref_axis',(-1.,0.,-2.77555756156289E-16));
#805=DIRECTION('',(1.,0.,2.77555756156289E-16));
#806=DIRECTION('',(0.,1.,0.));
#807=DIRECTION('',(-1.,0.,-2.77555756156289E-16));
#808=DIRECTION('',(0.,1.,0.));
#809=DIRECTION('center_axis',(-2.31296463463574E-17,0.,-1.));
#810=DIRECTION('ref_axis',(-1.,0.,2.31296463463574E-17));
#811=DIRECTION('',(0.,-1.,0.));
#812=DIRECTION('',(1.,0.,-2.31296463463574E-17));
#813=DIRECTION('',(0.,1.,0.));
#814=DIRECTION('',(-1.,0.,2.31296463463574E-17));
#815=DIRECTION('center_axis',(-3.46944695195362E-16,0.,-1.));
#816=DIRECTION('ref_axis',(-1.,0.,3.46944695195362E-16));
#817=DIRECTION('',(1.,0.,-3.46944695195362E-16));
#818=DIRECTION('',(0.,1.,0.));
#819=DIRECTION('',(-1.,0.,3.46944695195362E-16));
#820=DIRECTION('',(0.,1.,0.));
#821=DIRECTION('center_axis',(-2.31296463463574E-17,0.,-1.));
#822=DIRECTION('ref_axis',(-1.,0.,2.31296463463574E-17));
#823=DIRECTION('',(0.,-1.,0.));
#824=DIRECTION('',(1.,0.,-2.31296463463574E-17));
#825=DIRECTION('',(0.,1.,0.));
#826=DIRECTION('',(-1.,0.,2.31296463463574E-17));
#827=DIRECTION('center_axis',(-2.08166817117217E-16,0.,1.));
#828=DIRECTION('ref_axis',(1.,0.,2.08166817117217E-16));
#829=DIRECTION('',(-1.,0.,-2.08166817117217E-16));
#830=DIRECTION('',(0.,1.,0.));
#831=DIRECTION('',(1.,0.,2.08166817117217E-16));
#832=DIRECTION('',(0.,1.,0.));
#833=DIRECTION('center_axis',(0.,1.,0.));
#834=DIRECTION('ref_axis',(0.,0.,1.));
#835=DIRECTION('',(0.,0.,1.));
#836=DIRECTION('',(1.,0.,6.93889390390723E-17));
#837=DIRECTION('',(0.,0.,-1.));
#838=DIRECTION('center_axis',(0.,0.,1.));
#839=DIRECTION('ref_axis',(1.,0.,0.));
#840=DIRECTION('',(0.,1.,0.));
#841=DIRECTION('',(1.,0.,0.));
#842=DIRECTION('',(0.,-1.,0.));
#843=DIRECTION('',(-1.,0.,0.));
#844=DIRECTION('center_axis',(-2.77555756156289E-16,0.,1.));
#845=DIRECTION('ref_axis',(1.,0.,2.77555756156289E-16));
#846=DIRECTION('',(-1.,0.,-2.77555756156289E-16));
#847=DIRECTION('',(0.,1.,0.));
#848=DIRECTION('',(1.,0.,2.77555756156289E-16));
#849=DIRECTION('',(0.,1.,0.));
#850=DIRECTION('center_axis',(0.,0.,1.));
#851=DIRECTION('ref_axis',(1.,0.,0.));
#852=DIRECTION('',(0.,-1.,0.));
#853=DIRECTION('',(-1.,0.,0.));
#854=DIRECTION('',(0.,1.,0.));
#855=DIRECTION('',(1.,0.,0.));
#856=DIRECTION('center_axis',(0.,0.,1.));
#857=DIRECTION('ref_axis',(1.,0.,0.));
#858=DIRECTION('',(0.,-1.,0.));
#859=DIRECTION('',(-1.,0.,0.));
#860=DIRECTION('',(0.,1.,0.));
#861=DIRECTION('',(1.,0.,0.));
#862=DIRECTION('center_axis',(0.,1.,0.));
#863=DIRECTION('ref_axis',(0.,0.,1.));
#864=DIRECTION('',(0.,0.,-1.));
#865=DIRECTION('',(0.,0.,1.));
#866=DIRECTION('center_axis',(2.08166817117217E-16,0.,1.));
#867=DIRECTION('ref_axis',(1.,0.,-2.08166817117217E-16));
#868=DIRECTION('',(-1.,0.,2.08166817117217E-16));
#869=DIRECTION('',(0.,1.,0.));
#870=DIRECTION('',(1.,0.,-2.08166817117217E-16));
#871=DIRECTION('',(0.,1.,0.));
#872=DIRECTION('center_axis',(0.,1.,0.));
#873=DIRECTION('ref_axis',(0.,0.,1.));
#874=DIRECTION('',(0.,0.,-1.));
#875=DIRECTION('',(0.,0.,1.));
#876=DIRECTION('center_axis',(0.,0.,1.));
#877=DIRECTION('ref_axis',(1.,0.,0.));
#878=DIRECTION('',(0.,1.,0.));
#879=DIRECTION('',(1.,0.,0.));
#880=DIRECTION('',(0.,1.,0.));
#881=DIRECTION('',(-1.,0.,0.));
#882=DIRECTION('center_axis',(6.93889390390723E-17,0.,-1.));
#883=DIRECTION('ref_axis',(-1.,0.,-6.93889390390723E-17));
#884=DIRECTION('',(0.,1.,0.));
#885=DIRECTION('',(-1.,0.,-6.93889390390723E-17));
#886=DIRECTION('',(0.,1.,0.));
#887=DIRECTION('center_axis',(-2.31296463463574E-17,0.,-1.));
#888=DIRECTION('ref_axis',(-1.,0.,2.31296463463574E-17));
#889=DIRECTION('',(0.,1.,0.));
#890=DIRECTION('',(-1.,0.,2.31296463463574E-17));
#891=DIRECTION('',(0.,-1.,0.));
#892=DIRECTION('',(1.,0.,-2.31296463463574E-17));
#893=DIRECTION('center_axis',(-1.,0.,0.));
#894=DIRECTION('ref_axis',(0.,0.,1.));
#895=DIRECTION('',(0.,0.,-1.));
#896=DIRECTION('',(0.,0.,1.));
#897=DIRECTION('',(0.,0.,1.));
#898=DIRECTION('center_axis',(1.,0.,0.));
#899=DIRECTION('ref_axis',(0.,0.,-1.));
#900=DIRECTION('',(0.,0.,1.));
#901=DIRECTION('',(0.,0.,-1.));
#902=DIRECTION('',(0.,0.,-1.));
#903=DIRECTION('',(0.,1.,0.));
#904=DIRECTION('center_axis',(0.,1.,0.));
#905=DIRECTION('ref_axis',(0.,0.,1.));
#906=DIRECTION('',(1.,0.,-2.31296463463574E-17));
#907=DIRECTION('',(-1.48029736616688E-16,0.,-1.));
#908=DIRECTION('center_axis',(-1.,0.,0.));
#909=DIRECTION('ref_axis',(0.,0.,1.));
#910=DIRECTION('',(0.,0.,-1.));
#911=DIRECTION('',(-1.73472347597681E-16,0.,1.));
#912=DIRECTION('',(0.,0.,1.));
#913=DIRECTION('center_axis',(1.,0.,0.));
#914=DIRECTION('ref_axis',(0.,0.,-1.));
#915=DIRECTION('',(0.,0.,1.));
#916=DIRECTION('',(0.,0.,-1.));
#917=DIRECTION('',(0.,0.,-1.));
#918=DIRECTION('center_axis',(-2.31296463463574E-17,0.,-1.));
#919=DIRECTION('ref_axis',(-1.,0.,2.31296463463574E-17));
#920=DIRECTION('',(-1.,0.,2.31296463463574E-17));
#921=DIRECTION('',(0.,1.,0.));
#922=DIRECTION('center_axis',(0.,1.,0.));
#923=DIRECTION('ref_axis',(0.,0.,1.));
#924=DIRECTION('',(0.,0.,1.));
#925=DIRECTION('center_axis',(-1.,0.,0.));
#926=DIRECTION('ref_axis',(0.,0.,1.));
#927=DIRECTION('',(0.,0.,-1.));
#928=DIRECTION('',(-6.93889390390723E-16,0.,1.));
#929=DIRECTION('',(0.,0.,1.));
#930=DIRECTION('center_axis',(1.,0.,0.));
#931=DIRECTION('ref_axis',(0.,0.,-1.));
#932=DIRECTION('',(0.,0.,-1.));
#933=DIRECTION('',(0.,0.,-1.));
#934=DIRECTION('center_axis',(0.,1.,0.));
#935=DIRECTION('ref_axis',(0.,0.,1.));
#936=DIRECTION('center_axis',(0.,1.,0.));
#937=DIRECTION('ref_axis',(1.,0.,0.));
#938=DIRECTION('center_axis',(0.,-1.,0.));
#939=DIRECTION('ref_axis',(1.,0.,0.));
#940=DIRECTION('',(0.,-1.,0.));
#941=DIRECTION('center_axis',(0.,1.,0.));
#942=DIRECTION('ref_axis',(1.,0.,0.));
#943=DIRECTION('center_axis',(0.,1.,0.));
#944=DIRECTION('ref_axis',(1.,0.,0.));
#945=DIRECTION('',(-1.,0.,0.));
#946=DIRECTION('',(7.40148683083438E-17,0.,1.));
#947=DIRECTION('',(-7.40148683083438E-17,0.,-1.));
#948=DIRECTION('center_axis',(0.,1.,0.));
#949=DIRECTION('ref_axis',(0.,0.,1.));
#950=DIRECTION('center_axis',(0.,1.,0.));
#951=DIRECTION('ref_axis',(1.,0.,0.));
#952=DIRECTION('center_axis',(0.,-1.,0.));
#953=DIRECTION('ref_axis',(1.,0.,0.));
#954=DIRECTION('',(0.,-1.,0.));
#955=DIRECTION('center_axis',(0.,1.,0.));
#956=DIRECTION('ref_axis',(1.,0.,0.));
#957=DIRECTION('center_axis',(0.,1.,0.));
#958=DIRECTION('ref_axis',(1.,0.,0.));
#959=DIRECTION('',(1.,0.,9.25185853854297E-17));
#960=DIRECTION('',(-7.40148683083438E-17,0.,-1.));
#961=DIRECTION('',(7.40148683083438E-17,0.,1.));
#962=DIRECTION('center_axis',(0.,1.,0.));
#963=DIRECTION('ref_axis',(0.,0.,1.));
#964=DIRECTION('center_axis',(2.77555756156289E-16,0.,1.));
#965=DIRECTION('ref_axis',(1.,0.,-2.77555756156289E-16));
#966=DIRECTION('',(1.,0.,-2.77555756156289E-16));
#967=DIRECTION('',(0.,1.,0.));
#968=DIRECTION('',(0.,1.,0.));
#969=DIRECTION('center_axis',(-1.,0.,-3.70074341541719E-16));
#970=DIRECTION('ref_axis',(-3.70074341541719E-16,0.,1.));
#971=DIRECTION('',(-3.70074341541719E-16,0.,1.));
#972=DIRECTION('',(-3.70074341541719E-16,0.,1.));
#973=DIRECTION('',(0.,1.,0.));
#974=DIRECTION('center_axis',(9.25185853854298E-17,0.,-1.));
#975=DIRECTION('ref_axis',(-1.,0.,-9.25185853854298E-17));
#976=DIRECTION('',(-1.,0.,-9.25185853854298E-17));
#977=DIRECTION('',(0.,1.,0.));
#978=DIRECTION('center_axis',(1.,0.,-1.48029736616688E-16));
#979=DIRECTION('ref_axis',(-1.48029736616688E-16,0.,-1.));
#980=DIRECTION('',(-1.48029736616688E-16,0.,-1.));
#981=DIRECTION('center_axis',(0.,1.,0.));
#982=DIRECTION('ref_axis',(0.,0.,1.));
#983=DIRECTION('center_axis',(0.,1.,0.));
#984=DIRECTION('ref_axis',(1.,0.,0.));
#985=CARTESIAN_POINT('',(0.,0.,0.));
#986=CARTESIAN_POINT('Origin',(4.1,5.,0.5));
#987=CARTESIAN_POINT('',(3.1,5.,0.5));
#988=CARTESIAN_POINT('',(4.1,5.,0.5));
#989=CARTESIAN_POINT('',(3.85,5.,0.5));
#990=CARTESIAN_POINT('',(3.1,8.,0.5));
#991=CARTESIAN_POINT('',(3.1,5.,0.5));
#992=CARTESIAN_POINT('',(4.1,8.,0.5));
#993=CARTESIAN_POINT('',(4.1,8.,0.5));
#994=CARTESIAN_POINT('',(4.1,5.,0.5));
#995=CARTESIAN_POINT('Origin',(6.,3.,1.3));
#996=CARTESIAN_POINT('',(3.1,8.,1.3));
#997=CARTESIAN_POINT('',(3.1,3.,1.3));
#998=CARTESIAN_POINT('',(3.1,3.,1.3));
#999=CARTESIAN_POINT('',(0.499999999999997,3.,1.3));
#1000=CARTESIAN_POINT('',(3.,3.,1.3));
#1001=CARTESIAN_POINT('',(0.499999999999997,8.,1.3));
#1002=CARTESIAN_POINT('',(0.499999999999997,3.,1.3));
#1003=CARTESIAN_POINT('',(-6.,8.,1.3));
#1004=CARTESIAN_POINT('Origin',(-3.1,5.,0.5));
#1005=CARTESIAN_POINT('',(-4.1,5.,0.5));
#1006=CARTESIAN_POINT('',(-3.1,5.,0.5));
#1007=CARTESIAN_POINT('',(-3.35,5.,0.5));
#1008=CARTESIAN_POINT('',(-4.1,8.,0.5));
#1009=CARTESIAN_POINT('',(-4.1,5.,0.5));
#1010=CARTESIAN_POINT('',(-3.1,8.,0.5));
#1011=CARTESIAN_POINT('',(-3.1,8.,0.5));
#1012=CARTESIAN_POINT('',(-3.1,5.,0.5));
#1013=CARTESIAN_POINT('Origin',(6.,3.,1.3));
#1014=CARTESIAN_POINT('',(-4.1,8.,1.3));
#1015=CARTESIAN_POINT('',(-4.1,3.,1.3));
#1016=CARTESIAN_POINT('',(-4.1,3.,1.3));
#1017=CARTESIAN_POINT('',(-6.,3.,1.3));
#1018=CARTESIAN_POINT('',(3.,3.,1.3));
#1019=CARTESIAN_POINT('',(-6.,8.,1.3));
#1020=CARTESIAN_POINT('',(-6.,3.,1.3));
#1021=CARTESIAN_POINT('',(-6.,8.,1.3));
#1022=CARTESIAN_POINT('Origin',(-0.500000000000003,5.,-0.5));
#1023=CARTESIAN_POINT('',(0.499999999999997,5.,-0.5));
#1024=CARTESIAN_POINT('',(-0.500000000000003,5.,-0.5));
#1025=CARTESIAN_POINT('',(-0.250000000000003,5.,-0.5));
#1026=CARTESIAN_POINT('',(0.499999999999997,8.,-0.5));
#1027=CARTESIAN_POINT('',(0.499999999999997,5.,-0.5));
#1028=CARTESIAN_POINT('',(-0.500000000000003,8.,-0.5));
#1029=CARTESIAN_POINT('',(0.499999999999997,8.,-0.5));
#1030=CARTESIAN_POINT('',(-0.500000000000003,5.,-0.5));
#1031=CARTESIAN_POINT('Origin',(-3.19189119579733E-15,5.,0.));
#1032=CARTESIAN_POINT('',(-0.500000000000003,5.,0.5));
#1033=CARTESIAN_POINT('',(-0.500000000000003,5.,1.3));
#1034=CARTESIAN_POINT('',(0.499999999999997,5.,0.5));
#1035=CARTESIAN_POINT('',(0.249999999999997,5.,0.5));
#1036=CARTESIAN_POINT('',(0.499999999999997,5.,-1.3));
#1037=CARTESIAN_POINT('Origin',(-6.,3.,-1.3));
#1038=CARTESIAN_POINT('',(-0.500000000000003,3.,-1.3));
#1039=CARTESIAN_POINT('',(-0.500000000000003,8.,-1.3));
#1040=CARTESIAN_POINT('',(-0.500000000000003,3.,-1.3));
#1041=CARTESIAN_POINT('',(-3.1,8.,-1.3));
#1042=CARTESIAN_POINT('',(6.,8.,-1.3));
#1043=CARTESIAN_POINT('',(-3.1,3.,-1.3));
#1044=CARTESIAN_POINT('',(-3.1,3.,-1.3));
#1045=CARTESIAN_POINT('',(-3.,3.,-1.3));
#1046=CARTESIAN_POINT('Origin',(3.1,5.,-0.5));
#1047=CARTESIAN_POINT('',(4.1,5.,-0.5));
#1048=CARTESIAN_POINT('',(3.1,5.,-0.5));
#1049=CARTESIAN_POINT('',(3.35,5.,-0.5));
#1050=CARTESIAN_POINT('',(4.1,8.,-0.5));
#1051=CARTESIAN_POINT('',(4.1,5.,-0.5));
#1052=CARTESIAN_POINT('',(3.1,8.,-0.5));
#1053=CARTESIAN_POINT('',(4.1,8.,-0.5));
#1054=CARTESIAN_POINT('',(3.1,5.,-0.5));
#1055=CARTESIAN_POINT('Origin',(-6.,3.,-1.3));
#1056=CARTESIAN_POINT('',(0.499999999999997,8.,-1.3));
#1057=CARTESIAN_POINT('',(0.499999999999997,3.,-1.3));
#1058=CARTESIAN_POINT('',(0.499999999999997,3.,-1.3));
#1059=CARTESIAN_POINT('',(3.1,3.,-1.3));
#1060=CARTESIAN_POINT('',(-3.,3.,-1.3));
#1061=CARTESIAN_POINT('',(3.1,8.,-1.3));
#1062=CARTESIAN_POINT('',(3.1,3.,-1.3));
#1063=CARTESIAN_POINT('',(6.,8.,-1.3));
#1064=CARTESIAN_POINT('Origin',(-6.,3.,-1.3));
#1065=CARTESIAN_POINT('',(4.1,8.,-1.3));
#1066=CARTESIAN_POINT('',(4.1,3.,-1.3));
#1067=CARTESIAN_POINT('',(4.1,3.,-1.3));
#1068=CARTESIAN_POINT('',(6.,3.,-1.3));
#1069=CARTESIAN_POINT('',(-3.,3.,-1.3));
#1070=CARTESIAN_POINT('',(6.,8.,-1.3));
#1071=CARTESIAN_POINT('',(6.,3.,-1.3));
#1072=CARTESIAN_POINT('',(6.,8.,-1.3));
#1073=CARTESIAN_POINT('Origin',(3.6,5.,0.));
#1074=CARTESIAN_POINT('',(4.1,5.,-1.3));
#1075=CARTESIAN_POINT('',(3.1,5.,1.3));
#1076=CARTESIAN_POINT('Origin',(-4.1,5.,-0.5));
#1077=CARTESIAN_POINT('',(-3.1,5.,-0.5));
#1078=CARTESIAN_POINT('',(-4.1,5.,-0.5));
#1079=CARTESIAN_POINT('',(-3.85,5.,-0.5));
#1080=CARTESIAN_POINT('',(-3.1,8.,-0.5));
#1081=CARTESIAN_POINT('',(-3.1,5.,-0.5));
#1082=CARTESIAN_POINT('',(-4.1,8.,-0.5));
#1083=CARTESIAN_POINT('',(-3.1,8.,-0.5));
#1084=CARTESIAN_POINT('',(-4.1,5.,-0.5));
#1085=CARTESIAN_POINT('Origin',(-3.6,5.,0.));
#1086=CARTESIAN_POINT('',(-3.1,5.,-1.3));
#1087=CARTESIAN_POINT('',(-4.1,5.,1.3));
#1088=CARTESIAN_POINT('Origin',(-6.,3.,-1.3));
#1089=CARTESIAN_POINT('',(-4.1,3.,-1.3));
#1090=CARTESIAN_POINT('',(-4.1,8.,-1.3));
#1091=CARTESIAN_POINT('',(-4.1,3.,-1.3));
#1092=CARTESIAN_POINT('',(-6.,8.,-1.3));
#1093=CARTESIAN_POINT('',(6.,8.,-1.3));
#1094=CARTESIAN_POINT('',(-6.,3.,-1.3));
#1095=CARTESIAN_POINT('',(-6.,3.,-1.3));
#1096=CARTESIAN_POINT('',(-3.,3.,-1.3));
#1097=CARTESIAN_POINT('Origin',(0.499999999999997,5.,0.5));
#1098=CARTESIAN_POINT('',(-0.500000000000003,8.,0.5));
#1099=CARTESIAN_POINT('',(-0.500000000000003,5.,0.5));
#1100=CARTESIAN_POINT('',(0.499999999999997,8.,0.5));
#1101=CARTESIAN_POINT('',(0.499999999999997,8.,0.5));
#1102=CARTESIAN_POINT('',(0.499999999999997,5.,0.5));
#1103=CARTESIAN_POINT('Origin',(6.,3.,1.3));
#1104=CARTESIAN_POINT('',(-3.1,3.,1.3));
#1105=CARTESIAN_POINT('',(-3.1,8.,1.3));
#1106=CARTESIAN_POINT('',(-3.1,3.,1.3));
#1107=CARTESIAN_POINT('',(-0.500000000000003,8.,1.3));
#1108=CARTESIAN_POINT('',(-6.,8.,1.3));
#1109=CARTESIAN_POINT('',(-0.500000000000003,3.,1.3));
#1110=CARTESIAN_POINT('',(-0.500000000000003,3.,1.3));
#1111=CARTESIAN_POINT('',(3.,3.,1.3));
#1112=CARTESIAN_POINT('Origin',(3.1,3.,-1.3));
#1113=CARTESIAN_POINT('',(3.1,3.,-0.649999999999999));
#1114=CARTESIAN_POINT('',(3.1,8.,0.5));
#1115=CARTESIAN_POINT('',(3.1,8.,-0.5));
#1116=CARTESIAN_POINT('Origin',(4.1,3.,1.3));
#1117=CARTESIAN_POINT('',(4.1,3.,1.3));
#1118=CARTESIAN_POINT('',(4.1,3.,0.650000000000001));
#1119=CARTESIAN_POINT('',(4.1,8.,-1.3));
#1120=CARTESIAN_POINT('',(4.1,8.,1.3));
#1121=CARTESIAN_POINT('',(4.1,8.,1.3));
#1122=CARTESIAN_POINT('',(4.1,3.,1.3));
#1123=CARTESIAN_POINT('Origin',(0.,3.,2.22044604925031E-15));
#1124=CARTESIAN_POINT('',(6.,3.,1.3));
#1125=CARTESIAN_POINT('',(3.,3.,1.3));
#1126=CARTESIAN_POINT('',(6.,3.,7.5));
#1127=CARTESIAN_POINT('Origin',(-0.500000000000003,3.,-1.3));
#1128=CARTESIAN_POINT('',(-0.500000000000003,3.,-0.649999999999999));
#1129=CARTESIAN_POINT('',(-0.500000000000003,8.,0.5));
#1130=CARTESIAN_POINT('',(-0.500000000000003,8.,-0.5));
#1131=CARTESIAN_POINT('Origin',(0.499999999999997,3.,1.3));
#1132=CARTESIAN_POINT('',(0.499999999999997,3.,0.650000000000001));
#1133=CARTESIAN_POINT('',(0.499999999999997,8.,-1.3));
#1134=CARTESIAN_POINT('',(0.499999999999997,8.,1.3));
#1135=CARTESIAN_POINT('Origin',(6.,3.,1.3));
#1136=CARTESIAN_POINT('',(6.,8.,1.3));
#1137=CARTESIAN_POINT('',(-6.,8.,1.3));
#1138=CARTESIAN_POINT('',(6.,3.,1.3));
#1139=CARTESIAN_POINT('Origin',(0.,3.,2.22044604925031E-15));
#1140=CARTESIAN_POINT('',(-3.1,3.,0.650000000000001));
#1141=CARTESIAN_POINT('Origin',(-4.1,3.,-1.3));
#1142=CARTESIAN_POINT('',(-4.1,3.,-0.649999999999999));
#1143=CARTESIAN_POINT('',(-4.1,8.,0.5));
#1144=CARTESIAN_POINT('',(-4.1,8.,-0.5));
#1145=CARTESIAN_POINT('Origin',(-3.1,3.,1.3));
#1146=CARTESIAN_POINT('',(-3.1,8.,-1.3));
#1147=CARTESIAN_POINT('',(-3.1,8.,1.3));
#1148=CARTESIAN_POINT('Origin',(0.,3.,2.22044604925031E-15));
#1149=CARTESIAN_POINT('Origin',(3.18526046615008E-16,3.,-4.4));
#1150=CARTESIAN_POINT('',(-1.65,8.,-4.4));
#1151=CARTESIAN_POINT('Origin',(3.18526046615008E-16,8.,-4.4));
#1152=CARTESIAN_POINT('',(-1.65,3.,-4.4));
#1153=CARTESIAN_POINT('',(-1.65,3.,-4.4));
#1154=CARTESIAN_POINT('Origin',(3.18526046615008E-16,3.,-4.4));
#1155=CARTESIAN_POINT('Origin',(0.,8.,-4.4));
#1156=CARTESIAN_POINT('',(6.,8.,-7.5));
#1157=CARTESIAN_POINT('',(-6.,8.,-7.5));
#1158=CARTESIAN_POINT('',(6.,8.,-7.5));
#1159=CARTESIAN_POINT('',(-6.,8.,-7.5));
#1160=CARTESIAN_POINT('',(6.,8.,7.5));
#1161=CARTESIAN_POINT('Origin',(0.,3.,2.22044604925031E-15));
#1162=CARTESIAN_POINT('Origin',(-2.20318545005979E-16,3.,4.4));
#1163=CARTESIAN_POINT('',(-1.65,8.,4.4));
#1164=CARTESIAN_POINT('Origin',(-2.20318545005979E-16,8.,4.4));
#1165=CARTESIAN_POINT('',(-1.65,3.,4.4));
#1166=CARTESIAN_POINT('',(-1.65,3.,4.4));
#1167=CARTESIAN_POINT('Origin',(-2.20318545005979E-16,3.,4.4));
#1168=CARTESIAN_POINT('Origin',(0.,8.,4.4));
#1169=CARTESIAN_POINT('',(-6.,8.,7.5));
#1170=CARTESIAN_POINT('',(6.,8.,7.5));
#1171=CARTESIAN_POINT('',(-6.,8.,7.5));
#1172=CARTESIAN_POINT('',(6.,8.,7.5));
#1173=CARTESIAN_POINT('',(-6.,8.,-7.5));
#1174=CARTESIAN_POINT('Origin',(0.,3.,2.22044604925031E-15));
#1175=CARTESIAN_POINT('Origin',(-6.,0.,7.5));
#1176=CARTESIAN_POINT('',(-6.,0.,7.5));
#1177=CARTESIAN_POINT('',(6.,0.,7.5));
#1178=CARTESIAN_POINT('',(-6.,0.,7.5));
#1179=CARTESIAN_POINT('',(6.,0.,7.5));
#1180=CARTESIAN_POINT('',(-6.,0.,7.5));
#1181=CARTESIAN_POINT('Origin',(-6.,0.,-7.5));
#1182=CARTESIAN_POINT('',(-6.,0.,-7.5));
#1183=CARTESIAN_POINT('',(-6.,0.,-7.5));
#1184=CARTESIAN_POINT('',(-6.,3.,-7.5));
#1185=CARTESIAN_POINT('',(-6.,0.,-7.5));
#1186=CARTESIAN_POINT('Origin',(6.,0.,-7.5));
#1187=CARTESIAN_POINT('',(6.,0.,-7.5));
#1188=CARTESIAN_POINT('',(6.,0.,-7.5));
#1189=CARTESIAN_POINT('',(6.,0.,-7.5));
#1190=CARTESIAN_POINT('Origin',(6.,0.,7.5));
#1191=CARTESIAN_POINT('',(6.,0.,7.5));
#1192=CARTESIAN_POINT('Origin',(0.,3.,2.22044604925031E-15));
#1193=CARTESIAN_POINT('Origin',(0.,0.,2.22044604925031E-15));
#1194=UNCERTAINTY_MEASURE_WITH_UNIT(LENGTH_MEASURE(0.01),#1198,
'DISTANCE_ACCURACY_VALUE',
'Maximum model space distance between geometric entities at asserted c
onnectivities');
#1195=UNCERTAINTY_MEASURE_WITH_UNIT(LENGTH_MEASURE(0.01),#1198,
'DISTANCE_ACCURACY_VALUE',
'Maximum model space distance between geometric entities at asserted c
onnectivities');
#1196=(
GEOMETRIC_REPRESENTATION_CONTEXT(3)
GLOBAL_UNCERTAINTY_ASSIGNED_CONTEXT((#1194))
GLOBAL_UNIT_ASSIGNED_CONTEXT((#1198,#1200,#1201))
REPRESENTATION_CONTEXT('','3D')
);
#1197=(
GEOMETRIC_REPRESENTATION_CONTEXT(3)
GLOBAL_UNCERTAINTY_ASSIGNED_CONTEXT((#1195))
GLOBAL_UNIT_ASSIGNED_CONTEXT((#1198,#1200,#1201))
REPRESENTATION_CONTEXT('','3D')
);
#1198=(
LENGTH_UNIT()
NAMED_UNIT(*)
SI_UNIT(.MILLI.,.METRE.)
);
#1199=(
LENGTH_UNIT()
NAMED_UNIT(*)
SI_UNIT($,.METRE.)
);
#1200=(
NAMED_UNIT(*)
PLANE_ANGLE_UNIT()
SI_UNIT($,.RADIAN.)
);
#1201=(
NAMED_UNIT(*)
SI_UNIT($,.STERADIAN.)
SOLID_ANGLE_UNIT()
);
#1202=SHAPE_DEFINITION_REPRESENTATION(#1203,#1204);
#1203=PRODUCT_DEFINITION_SHAPE('',$,#1206);
#1204=SHAPE_REPRESENTATION('',(#758),#1196);
#1205=PRODUCT_DEFINITION_CONTEXT('part definition',#1210,'design');
#1206=PRODUCT_DEFINITION('2026-05-26-10-11-32-863',
'MagneetHouder_onderkant_v1',#1207,#1205);
#1207=PRODUCT_DEFINITION_FORMATION('',$,#1212);
#1208=PRODUCT_RELATED_PRODUCT_CATEGORY('MagneetHouder_onderkant_v1',
'MagneetHouder_onderkant_v1',(#1212));
#1209=APPLICATION_PROTOCOL_DEFINITION('international standard',
'automotive_design',2009,#1210);
#1210=APPLICATION_CONTEXT(
'Core Data for Automotive Mechanical Design Process');
#1211=PRODUCT_CONTEXT('part definition',#1210,'mechanical');
#1212=PRODUCT('2026-05-26-10-11-32-863','MagneetHouder_onderkant_v1',$,
(#1211));
#1213=PRESENTATION_STYLE_ASSIGNMENT((#1214));
#1214=SURFACE_STYLE_USAGE(.BOTH.,#1215);
#1215=SURFACE_SIDE_STYLE('',(#1216));
#1216=SURFACE_STYLE_FILL_AREA(#1217);
#1217=FILL_AREA_STYLE('Steel - Satin',(#1218));
#1218=FILL_AREA_STYLE_COLOUR('Steel - Satin',#1219);
#1219=COLOUR_RGB('Steel - Satin',0.627450980392157,0.627450980392157,0.627450980392157);
ENDSEC;
END-ISO-10303-21;
