ISO-10303-21;
HEADER;
/* Generated by software containing ST-Developer
 * from STEP Tools, Inc. (www.steptools.com) 
 */

FILE_DESCRIPTION(
/* description */ (''),
/* implementation_level */ '2;1');

FILE_NAME(
/* name */ 'MagneetHouder_bovenkant_v1.step',
/* time_stamp */ '2026-05-26T12:13:57+02:00',
/* author */ (''),
/* organization */ (''),
/* preprocessor_version */ 'ST-DEVELOPER v20.1',
/* originating_system */ 'Autodesk Translation Framework v15.8.0.0',
/* authorisation */ '');

FILE_SCHEMA (('AUTOMOTIVE_DESIGN { 1 0 10303 214 3 1 1 }'));
ENDSEC;

DATA;
#10=MECHANICAL_DESIGN_GEOMETRIC_PRESENTATION_REPRESENTATION('',(#13),#932);
#11=SHAPE_REPRESENTATION_RELATIONSHIP('SRR','None',#939,#12);
#12=ADVANCED_BREP_SHAPE_REPRESENTATION('',(#14),#931);
#13=STYLED_ITEM('',(#948),#14);
#14=MANIFOLD_SOLID_BREP('Body1',#540);
#15=FACE_BOUND('',#98,.T.);
#16=FACE_BOUND('',#99,.T.);
#17=FACE_BOUND('',#105,.T.);
#18=CYLINDRICAL_SURFACE('',#590,0.75);
#19=CYLINDRICAL_SURFACE('',#592,1.5);
#20=CYLINDRICAL_SURFACE('',#596,0.75);
#21=CYLINDRICAL_SURFACE('',#598,1.5);
#22=CYLINDRICAL_SURFACE('',#600,4.75);
#23=CIRCLE('',#557,0.75);
#24=CIRCLE('',#558,1.5);
#25=CIRCLE('',#560,1.5);
#26=CIRCLE('',#561,1.5);
#27=CIRCLE('',#562,0.75);
#28=CIRCLE('',#563,0.75);
#29=CIRCLE('',#565,0.75);
#30=CIRCLE('',#566,1.5);
#31=CIRCLE('',#570,0.75);
#32=CIRCLE('',#571,1.5);
#33=CIRCLE('',#573,1.5);
#34=CIRCLE('',#574,0.75);
#35=CIRCLE('',#576,0.75);
#36=CIRCLE('',#577,0.75);
#37=CIRCLE('',#578,1.5);
#38=CIRCLE('',#579,1.5);
#39=CIRCLE('',#583,0.75);
#40=CIRCLE('',#584,1.5);
#41=CIRCLE('',#588,0.75);
#42=CIRCLE('',#589,1.5);
#43=CIRCLE('',#591,0.75);
#44=CIRCLE('',#593,1.5);
#45=CIRCLE('',#595,1.5);
#46=CIRCLE('',#597,0.75);
#47=CIRCLE('',#601,4.75);
#48=CIRCLE('',#602,4.75);
#49=FACE_OUTER_BOUND('',#79,.T.);
#50=FACE_OUTER_BOUND('',#80,.T.);
#51=FACE_OUTER_BOUND('',#81,.T.);
#52=FACE_OUTER_BOUND('',#82,.T.);
#53=FACE_OUTER_BOUND('',#83,.T.);
#54=FACE_OUTER_BOUND('',#84,.T.);
#55=FACE_OUTER_BOUND('',#85,.T.);
#56=FACE_OUTER_BOUND('',#86,.T.);
#57=FACE_OUTER_BOUND('',#87,.T.);
#58=FACE_OUTER_BOUND('',#88,.T.);
#59=FACE_OUTER_BOUND('',#89,.T.);
#60=FACE_OUTER_BOUND('',#90,.T.);
#61=FACE_OUTER_BOUND('',#91,.T.);
#62=FACE_OUTER_BOUND('',#92,.T.);
#63=FACE_OUTER_BOUND('',#93,.T.);
#64=FACE_OUTER_BOUND('',#94,.T.);
#65=FACE_OUTER_BOUND('',#95,.T.);
#66=FACE_OUTER_BOUND('',#96,.T.);
#67=FACE_OUTER_BOUND('',#97,.T.);
#68=FACE_OUTER_BOUND('',#100,.T.);
#69=FACE_OUTER_BOUND('',#101,.T.);
#70=FACE_OUTER_BOUND('',#102,.T.);
#71=FACE_OUTER_BOUND('',#103,.T.);
#72=FACE_OUTER_BOUND('',#104,.T.);
#73=FACE_OUTER_BOUND('',#106,.T.);
#74=FACE_OUTER_BOUND('',#107,.T.);
#75=FACE_OUTER_BOUND('',#108,.T.);
#76=FACE_OUTER_BOUND('',#109,.T.);
#77=FACE_OUTER_BOUND('',#110,.T.);
#78=FACE_OUTER_BOUND('',#111,.T.);
#79=EDGE_LOOP('',(#335,#336,#337,#338));
#80=EDGE_LOOP('',(#339,#340,#341,#342));
#81=EDGE_LOOP('',(#343,#344,#345,#346));
#82=EDGE_LOOP('',(#347,#348,#349,#350,#351,#352));
#83=EDGE_LOOP('',(#353,#354,#355,#356));
#84=EDGE_LOOP('',(#357,#358,#359,#360));
#85=EDGE_LOOP('',(#361,#362,#363,#364));
#86=EDGE_LOOP('',(#365,#366,#367,#368));
#87=EDGE_LOOP('',(#369,#370,#371,#372));
#88=EDGE_LOOP('',(#373,#374,#375,#376,#377,#378));
#89=EDGE_LOOP('',(#379,#380,#381,#382));
#90=EDGE_LOOP('',(#383,#384,#385,#386));
#91=EDGE_LOOP('',(#387,#388,#389,#390));
#92=EDGE_LOOP('',(#391,#392,#393,#394));
#93=EDGE_LOOP('',(#395,#396,#397,#398));
#94=EDGE_LOOP('',(#399,#400,#401,#402));
#95=EDGE_LOOP('',(#403,#404,#405,#406,#407,#408,#409,#410,#411,#412,#413,
#414));
#96=EDGE_LOOP('',(#415,#416,#417,#418,#419,#420,#421,#422,#423,#424,#425,
#426));
#97=EDGE_LOOP('',(#427,#428,#429,#430));
#98=EDGE_LOOP('',(#431));
#99=EDGE_LOOP('',(#432));
#100=EDGE_LOOP('',(#433,#434,#435,#436,#437,#438,#439,#440,#441,#442,#443,
#444));
#101=EDGE_LOOP('',(#445,#446,#447,#448,#449,#450,#451,#452,#453,#454,#455,
#456));
#102=EDGE_LOOP('',(#457));
#103=EDGE_LOOP('',(#458,#459,#460,#461));
#104=EDGE_LOOP('',(#462,#463,#464,#465));
#105=EDGE_LOOP('',(#466));
#106=EDGE_LOOP('',(#467,#468,#469,#470));
#107=EDGE_LOOP('',(#471,#472,#473,#474));
#108=EDGE_LOOP('',(#475,#476,#477,#478));
#109=EDGE_LOOP('',(#479,#480,#481,#482));
#110=EDGE_LOOP('',(#483));
#111=EDGE_LOOP('',(#484));
#112=LINE('',#777,#161);
#113=LINE('',#779,#162);
#114=LINE('',#781,#163);
#115=LINE('',#782,#164);
#116=LINE('',#786,#165);
#117=LINE('',#788,#166);
#118=LINE('',#790,#167);
#119=LINE('',#791,#168);
#120=LINE('',#801,#169);
#121=LINE('',#809,#170);
#122=LINE('',#814,#171);
#123=LINE('',#816,#172);
#124=LINE('',#818,#173);
#125=LINE('',#819,#174);
#126=LINE('',#823,#175);
#127=LINE('',#825,#176);
#128=LINE('',#827,#177);
#129=LINE('',#828,#178);
#130=LINE('',#836,#179);
#131=LINE('',#844,#180);
#132=LINE('',#850,#181);
#133=LINE('',#852,#182);
#134=LINE('',#853,#183);
#135=LINE('',#856,#184);
#136=LINE('',#858,#185);
#137=LINE('',#859,#186);
#138=LINE('',#865,#187);
#139=LINE('',#867,#188);
#140=LINE('',#868,#189);
#141=LINE('',#871,#190);
#142=LINE('',#873,#191);
#143=LINE('',#874,#192);
#144=LINE('',#880,#193);
#145=LINE('',#884,#194);
#146=LINE('',#889,#195);
#147=LINE('',#891,#196);
#148=LINE('',#893,#197);
#149=LINE('',#894,#198);
#150=LINE('',#899,#199);
#151=LINE('',#902,#200);
#152=LINE('',#908,#201);
#153=LINE('',#913,#202);
#154=LINE('',#915,#203);
#155=LINE('',#917,#204);
#156=LINE('',#918,#205);
#157=LINE('',#920,#206);
#158=LINE('',#921,#207);
#159=LINE('',#923,#208);
#160=LINE('',#925,#209);
#161=VECTOR('',#614,10.);
#162=VECTOR('',#615,10.);
#163=VECTOR('',#616,10.);
#164=VECTOR('',#617,10.);
#165=VECTOR('',#620,10.);
#166=VECTOR('',#621,10.);
#167=VECTOR('',#622,10.);
#168=VECTOR('',#623,10.);
#169=VECTOR('',#636,10.);
#170=VECTOR('',#645,10.);
#171=VECTOR('',#650,10.);
#172=VECTOR('',#651,10.);
#173=VECTOR('',#652,10.);
#174=VECTOR('',#653,10.);
#175=VECTOR('',#656,10.);
#176=VECTOR('',#657,10.);
#177=VECTOR('',#658,10.);
#178=VECTOR('',#659,10.);
#179=VECTOR('',#670,10.);
#180=VECTOR('',#679,10.);
#181=VECTOR('',#686,10.);
#182=VECTOR('',#687,10.);
#183=VECTOR('',#688,10.);
#184=VECTOR('',#691,10.);
#185=VECTOR('',#692,10.);
#186=VECTOR('',#693,10.);
#187=VECTOR('',#702,10.);
#188=VECTOR('',#703,10.);
#189=VECTOR('',#704,10.);
#190=VECTOR('',#707,10.);
#191=VECTOR('',#708,10.);
#192=VECTOR('',#709,10.);
#193=VECTOR('',#718,0.75);
#194=VECTOR('',#723,1.5);
#195=VECTOR('',#728,10.);
#196=VECTOR('',#729,10.);
#197=VECTOR('',#730,10.);
#198=VECTOR('',#731,10.);
#199=VECTOR('',#736,0.75);
#200=VECTOR('',#741,1.5);
#201=VECTOR('',#748,4.75);
#202=VECTOR('',#753,10.);
#203=VECTOR('',#754,10.);
#204=VECTOR('',#755,10.);
#205=VECTOR('',#756,10.);
#206=VECTOR('',#759,10.);
#207=VECTOR('',#760,10.);
#208=VECTOR('',#763,10.);
#209=VECTOR('',#766,10.);
#210=VERTEX_POINT('',#775);
#211=VERTEX_POINT('',#776);
#212=VERTEX_POINT('',#778);
#213=VERTEX_POINT('',#780);
#214=VERTEX_POINT('',#784);
#215=VERTEX_POINT('',#785);
#216=VERTEX_POINT('',#787);
#217=VERTEX_POINT('',#789);
#218=VERTEX_POINT('',#796);
#219=VERTEX_POINT('',#798);
#220=VERTEX_POINT('',#800);
#221=VERTEX_POINT('',#802);
#222=VERTEX_POINT('',#806);
#223=VERTEX_POINT('',#808);
#224=VERTEX_POINT('',#812);
#225=VERTEX_POINT('',#813);
#226=VERTEX_POINT('',#815);
#227=VERTEX_POINT('',#817);
#228=VERTEX_POINT('',#821);
#229=VERTEX_POINT('',#822);
#230=VERTEX_POINT('',#824);
#231=VERTEX_POINT('',#826);
#232=VERTEX_POINT('',#833);
#233=VERTEX_POINT('',#835);
#234=VERTEX_POINT('',#839);
#235=VERTEX_POINT('',#841);
#236=VERTEX_POINT('',#843);
#237=VERTEX_POINT('',#845);
#238=VERTEX_POINT('',#849);
#239=VERTEX_POINT('',#851);
#240=VERTEX_POINT('',#855);
#241=VERTEX_POINT('',#857);
#242=VERTEX_POINT('',#864);
#243=VERTEX_POINT('',#866);
#244=VERTEX_POINT('',#870);
#245=VERTEX_POINT('',#872);
#246=VERTEX_POINT('',#879);
#247=VERTEX_POINT('',#883);
#248=VERTEX_POINT('',#887);
#249=VERTEX_POINT('',#888);
#250=VERTEX_POINT('',#890);
#251=VERTEX_POINT('',#892);
#252=VERTEX_POINT('',#895);
#253=VERTEX_POINT('',#898);
#254=VERTEX_POINT('',#905);
#255=VERTEX_POINT('',#907);
#256=VERTEX_POINT('',#911);
#257=VERTEX_POINT('',#912);
#258=VERTEX_POINT('',#914);
#259=VERTEX_POINT('',#916);
#260=EDGE_CURVE('',#210,#211,#112,.T.);
#261=EDGE_CURVE('',#210,#212,#113,.T.);
#262=EDGE_CURVE('',#213,#212,#114,.T.);
#263=EDGE_CURVE('',#211,#213,#115,.T.);
#264=EDGE_CURVE('',#214,#215,#116,.T.);
#265=EDGE_CURVE('',#214,#216,#117,.T.);
#266=EDGE_CURVE('',#217,#216,#118,.T.);
#267=EDGE_CURVE('',#215,#217,#119,.T.);
#268=EDGE_CURVE('',#212,#217,#23,.T.);
#269=EDGE_CURVE('',#216,#213,#24,.T.);
#270=EDGE_CURVE('',#211,#218,#25,.T.);
#271=EDGE_CURVE('',#218,#219,#26,.T.);
#272=EDGE_CURVE('',#219,#220,#120,.T.);
#273=EDGE_CURVE('',#220,#221,#27,.T.);
#274=EDGE_CURVE('',#221,#210,#28,.T.);
#275=EDGE_CURVE('',#215,#222,#29,.T.);
#276=EDGE_CURVE('',#222,#223,#121,.T.);
#277=EDGE_CURVE('',#223,#214,#30,.T.);
#278=EDGE_CURVE('',#224,#225,#122,.T.);
#279=EDGE_CURVE('',#224,#226,#123,.T.);
#280=EDGE_CURVE('',#227,#226,#124,.T.);
#281=EDGE_CURVE('',#225,#227,#125,.T.);
#282=EDGE_CURVE('',#228,#229,#126,.T.);
#283=EDGE_CURVE('',#228,#230,#127,.T.);
#284=EDGE_CURVE('',#231,#230,#128,.T.);
#285=EDGE_CURVE('',#229,#231,#129,.T.);
#286=EDGE_CURVE('',#226,#231,#31,.T.);
#287=EDGE_CURVE('',#230,#227,#32,.T.);
#288=EDGE_CURVE('',#225,#232,#33,.T.);
#289=EDGE_CURVE('',#232,#233,#130,.T.);
#290=EDGE_CURVE('',#233,#224,#34,.T.);
#291=EDGE_CURVE('',#229,#234,#35,.T.);
#292=EDGE_CURVE('',#234,#235,#36,.T.);
#293=EDGE_CURVE('',#235,#236,#131,.T.);
#294=EDGE_CURVE('',#236,#237,#37,.T.);
#295=EDGE_CURVE('',#237,#228,#38,.T.);
#296=EDGE_CURVE('',#222,#238,#132,.T.);
#297=EDGE_CURVE('',#239,#238,#133,.T.);
#298=EDGE_CURVE('',#223,#239,#134,.T.);
#299=EDGE_CURVE('',#219,#240,#135,.T.);
#300=EDGE_CURVE('',#241,#240,#136,.T.);
#301=EDGE_CURVE('',#220,#241,#137,.T.);
#302=EDGE_CURVE('',#238,#241,#39,.T.);
#303=EDGE_CURVE('',#240,#239,#40,.T.);
#304=EDGE_CURVE('',#235,#242,#138,.T.);
#305=EDGE_CURVE('',#243,#242,#139,.T.);
#306=EDGE_CURVE('',#236,#243,#140,.T.);
#307=EDGE_CURVE('',#232,#244,#141,.T.);
#308=EDGE_CURVE('',#245,#244,#142,.T.);
#309=EDGE_CURVE('',#233,#245,#143,.T.);
#310=EDGE_CURVE('',#242,#245,#41,.T.);
#311=EDGE_CURVE('',#244,#243,#42,.T.);
#312=EDGE_CURVE('',#221,#246,#144,.T.);
#313=EDGE_CURVE('',#246,#246,#43,.T.);
#314=EDGE_CURVE('',#218,#247,#145,.T.);
#315=EDGE_CURVE('',#247,#247,#44,.T.);
#316=EDGE_CURVE('',#248,#249,#146,.T.);
#317=EDGE_CURVE('',#250,#248,#147,.T.);
#318=EDGE_CURVE('',#251,#250,#148,.T.);
#319=EDGE_CURVE('',#249,#251,#149,.T.);
#320=EDGE_CURVE('',#252,#252,#45,.T.);
#321=EDGE_CURVE('',#234,#253,#150,.T.);
#322=EDGE_CURVE('',#253,#253,#46,.T.);
#323=EDGE_CURVE('',#237,#252,#151,.T.);
#324=EDGE_CURVE('',#254,#254,#47,.T.);
#325=EDGE_CURVE('',#254,#255,#152,.T.);
#326=EDGE_CURVE('',#255,#255,#48,.T.);
#327=EDGE_CURVE('',#256,#257,#153,.T.);
#328=EDGE_CURVE('',#257,#258,#154,.T.);
#329=EDGE_CURVE('',#258,#259,#155,.T.);
#330=EDGE_CURVE('',#259,#256,#156,.T.);
#331=EDGE_CURVE('',#248,#257,#157,.T.);
#332=EDGE_CURVE('',#250,#256,#158,.T.);
#333=EDGE_CURVE('',#251,#259,#159,.T.);
#334=EDGE_CURVE('',#249,#258,#160,.T.);
#335=ORIENTED_EDGE('',*,*,#260,.F.);
#336=ORIENTED_EDGE('',*,*,#261,.T.);
#337=ORIENTED_EDGE('',*,*,#262,.F.);
#338=ORIENTED_EDGE('',*,*,#263,.F.);
#339=ORIENTED_EDGE('',*,*,#264,.F.);
#340=ORIENTED_EDGE('',*,*,#265,.T.);
#341=ORIENTED_EDGE('',*,*,#266,.F.);
#342=ORIENTED_EDGE('',*,*,#267,.F.);
#343=ORIENTED_EDGE('',*,*,#268,.T.);
#344=ORIENTED_EDGE('',*,*,#266,.T.);
#345=ORIENTED_EDGE('',*,*,#269,.T.);
#346=ORIENTED_EDGE('',*,*,#262,.T.);
#347=ORIENTED_EDGE('',*,*,#260,.T.);
#348=ORIENTED_EDGE('',*,*,#270,.T.);
#349=ORIENTED_EDGE('',*,*,#271,.T.);
#350=ORIENTED_EDGE('',*,*,#272,.T.);
#351=ORIENTED_EDGE('',*,*,#273,.T.);
#352=ORIENTED_EDGE('',*,*,#274,.T.);
#353=ORIENTED_EDGE('',*,*,#264,.T.);
#354=ORIENTED_EDGE('',*,*,#275,.T.);
#355=ORIENTED_EDGE('',*,*,#276,.T.);
#356=ORIENTED_EDGE('',*,*,#277,.T.);
#357=ORIENTED_EDGE('',*,*,#278,.F.);
#358=ORIENTED_EDGE('',*,*,#279,.T.);
#359=ORIENTED_EDGE('',*,*,#280,.F.);
#360=ORIENTED_EDGE('',*,*,#281,.F.);
#361=ORIENTED_EDGE('',*,*,#282,.F.);
#362=ORIENTED_EDGE('',*,*,#283,.T.);
#363=ORIENTED_EDGE('',*,*,#284,.F.);
#364=ORIENTED_EDGE('',*,*,#285,.F.);
#365=ORIENTED_EDGE('',*,*,#286,.T.);
#366=ORIENTED_EDGE('',*,*,#284,.T.);
#367=ORIENTED_EDGE('',*,*,#287,.T.);
#368=ORIENTED_EDGE('',*,*,#280,.T.);
#369=ORIENTED_EDGE('',*,*,#278,.T.);
#370=ORIENTED_EDGE('',*,*,#288,.T.);
#371=ORIENTED_EDGE('',*,*,#289,.T.);
#372=ORIENTED_EDGE('',*,*,#290,.T.);
#373=ORIENTED_EDGE('',*,*,#282,.T.);
#374=ORIENTED_EDGE('',*,*,#291,.T.);
#375=ORIENTED_EDGE('',*,*,#292,.T.);
#376=ORIENTED_EDGE('',*,*,#293,.T.);
#377=ORIENTED_EDGE('',*,*,#294,.T.);
#378=ORIENTED_EDGE('',*,*,#295,.T.);
#379=ORIENTED_EDGE('',*,*,#276,.F.);
#380=ORIENTED_EDGE('',*,*,#296,.T.);
#381=ORIENTED_EDGE('',*,*,#297,.F.);
#382=ORIENTED_EDGE('',*,*,#298,.F.);
#383=ORIENTED_EDGE('',*,*,#272,.F.);
#384=ORIENTED_EDGE('',*,*,#299,.T.);
#385=ORIENTED_EDGE('',*,*,#300,.F.);
#386=ORIENTED_EDGE('',*,*,#301,.F.);
#387=ORIENTED_EDGE('',*,*,#302,.T.);
#388=ORIENTED_EDGE('',*,*,#300,.T.);
#389=ORIENTED_EDGE('',*,*,#303,.T.);
#390=ORIENTED_EDGE('',*,*,#297,.T.);
#391=ORIENTED_EDGE('',*,*,#293,.F.);
#392=ORIENTED_EDGE('',*,*,#304,.T.);
#393=ORIENTED_EDGE('',*,*,#305,.F.);
#394=ORIENTED_EDGE('',*,*,#306,.F.);
#395=ORIENTED_EDGE('',*,*,#289,.F.);
#396=ORIENTED_EDGE('',*,*,#307,.T.);
#397=ORIENTED_EDGE('',*,*,#308,.F.);
#398=ORIENTED_EDGE('',*,*,#309,.F.);
#399=ORIENTED_EDGE('',*,*,#310,.T.);
#400=ORIENTED_EDGE('',*,*,#308,.T.);
#401=ORIENTED_EDGE('',*,*,#311,.T.);
#402=ORIENTED_EDGE('',*,*,#305,.T.);
#403=ORIENTED_EDGE('',*,*,#273,.F.);
#404=ORIENTED_EDGE('',*,*,#301,.T.);
#405=ORIENTED_EDGE('',*,*,#302,.F.);
#406=ORIENTED_EDGE('',*,*,#296,.F.);
#407=ORIENTED_EDGE('',*,*,#275,.F.);
#408=ORIENTED_EDGE('',*,*,#267,.T.);
#409=ORIENTED_EDGE('',*,*,#268,.F.);
#410=ORIENTED_EDGE('',*,*,#261,.F.);
#411=ORIENTED_EDGE('',*,*,#274,.F.);
#412=ORIENTED_EDGE('',*,*,#312,.T.);
#413=ORIENTED_EDGE('',*,*,#313,.F.);
#414=ORIENTED_EDGE('',*,*,#312,.F.);
#415=ORIENTED_EDGE('',*,*,#277,.F.);
#416=ORIENTED_EDGE('',*,*,#298,.T.);
#417=ORIENTED_EDGE('',*,*,#303,.F.);
#418=ORIENTED_EDGE('',*,*,#299,.F.);
#419=ORIENTED_EDGE('',*,*,#271,.F.);
#420=ORIENTED_EDGE('',*,*,#314,.T.);
#421=ORIENTED_EDGE('',*,*,#315,.F.);
#422=ORIENTED_EDGE('',*,*,#314,.F.);
#423=ORIENTED_EDGE('',*,*,#270,.F.);
#424=ORIENTED_EDGE('',*,*,#263,.T.);
#425=ORIENTED_EDGE('',*,*,#269,.F.);
#426=ORIENTED_EDGE('',*,*,#265,.F.);
#427=ORIENTED_EDGE('',*,*,#316,.F.);
#428=ORIENTED_EDGE('',*,*,#317,.F.);
#429=ORIENTED_EDGE('',*,*,#318,.F.);
#430=ORIENTED_EDGE('',*,*,#319,.F.);
#431=ORIENTED_EDGE('',*,*,#320,.T.);
#432=ORIENTED_EDGE('',*,*,#315,.T.);
#433=ORIENTED_EDGE('',*,*,#290,.F.);
#434=ORIENTED_EDGE('',*,*,#309,.T.);
#435=ORIENTED_EDGE('',*,*,#310,.F.);
#436=ORIENTED_EDGE('',*,*,#304,.F.);
#437=ORIENTED_EDGE('',*,*,#292,.F.);
#438=ORIENTED_EDGE('',*,*,#321,.T.);
#439=ORIENTED_EDGE('',*,*,#322,.F.);
#440=ORIENTED_EDGE('',*,*,#321,.F.);
#441=ORIENTED_EDGE('',*,*,#291,.F.);
#442=ORIENTED_EDGE('',*,*,#285,.T.);
#443=ORIENTED_EDGE('',*,*,#286,.F.);
#444=ORIENTED_EDGE('',*,*,#279,.F.);
#445=ORIENTED_EDGE('',*,*,#294,.F.);
#446=ORIENTED_EDGE('',*,*,#306,.T.);
#447=ORIENTED_EDGE('',*,*,#311,.F.);
#448=ORIENTED_EDGE('',*,*,#307,.F.);
#449=ORIENTED_EDGE('',*,*,#288,.F.);
#450=ORIENTED_EDGE('',*,*,#281,.T.);
#451=ORIENTED_EDGE('',*,*,#287,.F.);
#452=ORIENTED_EDGE('',*,*,#283,.F.);
#453=ORIENTED_EDGE('',*,*,#295,.F.);
#454=ORIENTED_EDGE('',*,*,#323,.T.);
#455=ORIENTED_EDGE('',*,*,#320,.F.);
#456=ORIENTED_EDGE('',*,*,#323,.F.);
#457=ORIENTED_EDGE('',*,*,#313,.T.);
#458=ORIENTED_EDGE('',*,*,#324,.F.);
#459=ORIENTED_EDGE('',*,*,#325,.T.);
#460=ORIENTED_EDGE('',*,*,#326,.F.);
#461=ORIENTED_EDGE('',*,*,#325,.F.);
#462=ORIENTED_EDGE('',*,*,#327,.T.);
#463=ORIENTED_EDGE('',*,*,#328,.T.);
#464=ORIENTED_EDGE('',*,*,#329,.T.);
#465=ORIENTED_EDGE('',*,*,#330,.T.);
#466=ORIENTED_EDGE('',*,*,#324,.T.);
#467=ORIENTED_EDGE('',*,*,#317,.T.);
#468=ORIENTED_EDGE('',*,*,#331,.T.);
#469=ORIENTED_EDGE('',*,*,#327,.F.);
#470=ORIENTED_EDGE('',*,*,#332,.F.);
#471=ORIENTED_EDGE('',*,*,#318,.T.);
#472=ORIENTED_EDGE('',*,*,#332,.T.);
#473=ORIENTED_EDGE('',*,*,#330,.F.);
#474=ORIENTED_EDGE('',*,*,#333,.F.);
#475=ORIENTED_EDGE('',*,*,#319,.T.);
#476=ORIENTED_EDGE('',*,*,#333,.T.);
#477=ORIENTED_EDGE('',*,*,#329,.F.);
#478=ORIENTED_EDGE('',*,*,#334,.F.);
#479=ORIENTED_EDGE('',*,*,#316,.T.);
#480=ORIENTED_EDGE('',*,*,#334,.T.);
#481=ORIENTED_EDGE('',*,*,#328,.F.);
#482=ORIENTED_EDGE('',*,*,#331,.F.);
#483=ORIENTED_EDGE('',*,*,#326,.T.);
#484=ORIENTED_EDGE('',*,*,#322,.T.);
#485=PLANE('',#554);
#486=PLANE('',#555);
#487=PLANE('',#556);
#488=PLANE('',#559);
#489=PLANE('',#564);
#490=PLANE('',#567);
#491=PLANE('',#568);
#492=PLANE('',#569);
#493=PLANE('',#572);
#494=PLANE('',#575);
#495=PLANE('',#580);
#496=PLANE('',#581);
#497=PLANE('',#582);
#498=PLANE('',#585);
#499=PLANE('',#586);
#500=PLANE('',#587);
#501=PLANE('',#594);
#502=PLANE('',#599);
#503=PLANE('',#603);
#504=PLANE('',#604);
#505=PLANE('',#605);
#506=PLANE('',#606);
#507=PLANE('',#607);
#508=PLANE('',#608);
#509=PLANE('',#609);
#510=ADVANCED_FACE('',(#49),#485,.T.);
#511=ADVANCED_FACE('',(#50),#486,.T.);
#512=ADVANCED_FACE('',(#51),#487,.T.);
#513=ADVANCED_FACE('',(#52),#488,.T.);
#514=ADVANCED_FACE('',(#53),#489,.T.);
#515=ADVANCED_FACE('',(#54),#490,.T.);
#516=ADVANCED_FACE('',(#55),#491,.T.);
#517=ADVANCED_FACE('',(#56),#492,.T.);
#518=ADVANCED_FACE('',(#57),#493,.T.);
#519=ADVANCED_FACE('',(#58),#494,.T.);
#520=ADVANCED_FACE('',(#59),#495,.T.);
#521=ADVANCED_FACE('',(#60),#496,.T.);
#522=ADVANCED_FACE('',(#61),#497,.T.);
#523=ADVANCED_FACE('',(#62),#498,.T.);
#524=ADVANCED_FACE('',(#63),#499,.T.);
#525=ADVANCED_FACE('',(#64),#500,.T.);
#526=ADVANCED_FACE('',(#65),#18,.F.);
#527=ADVANCED_FACE('',(#66),#19,.T.);
#528=ADVANCED_FACE('',(#67,#15,#16),#501,.F.);
#529=ADVANCED_FACE('',(#68),#20,.F.);
#530=ADVANCED_FACE('',(#69),#21,.T.);
#531=ADVANCED_FACE('',(#70),#502,.F.);
#532=ADVANCED_FACE('',(#71),#22,.F.);
#533=ADVANCED_FACE('',(#72,#17),#503,.T.);
#534=ADVANCED_FACE('',(#73),#504,.T.);
#535=ADVANCED_FACE('',(#74),#505,.T.);
#536=ADVANCED_FACE('',(#75),#506,.T.);
#537=ADVANCED_FACE('',(#76),#507,.T.);
#538=ADVANCED_FACE('',(#77),#508,.T.);
#539=ADVANCED_FACE('',(#78),#509,.F.);
#540=CLOSED_SHELL('',(#510,#511,#512,#513,#514,#515,#516,#517,#518,#519,
#520,#521,#522,#523,#524,#525,#526,#527,#528,#529,#530,#531,#532,#533,#534,
#535,#536,#537,#538,#539));
#541=DERIVED_UNIT_ELEMENT(#543,1.);
#542=DERIVED_UNIT_ELEMENT(#934,-3.);
#543=(
MASS_UNIT()
NAMED_UNIT(*)
SI_UNIT(.KILO.,.GRAM.)
);
#544=DERIVED_UNIT((#541,#542));
#545=MEASURE_REPRESENTATION_ITEM('density measure',
POSITIVE_RATIO_MEASURE(7850.),#544);
#546=PROPERTY_DEFINITION_REPRESENTATION(#551,#548);
#547=PROPERTY_DEFINITION_REPRESENTATION(#552,#549);
#548=REPRESENTATION('material name',(#550),#931);
#549=REPRESENTATION('density',(#545),#931);
#550=DESCRIPTIVE_REPRESENTATION_ITEM('Steel','Steel');
#551=PROPERTY_DEFINITION('material property','material name',#941);
#552=PROPERTY_DEFINITION('material property','density of part',#941);
#553=AXIS2_PLACEMENT_3D('',#773,#610,#611);
#554=AXIS2_PLACEMENT_3D('',#774,#612,#613);
#555=AXIS2_PLACEMENT_3D('',#783,#618,#619);
#556=AXIS2_PLACEMENT_3D('',#792,#624,#625);
#557=AXIS2_PLACEMENT_3D('',#793,#626,#627);
#558=AXIS2_PLACEMENT_3D('',#794,#628,#629);
#559=AXIS2_PLACEMENT_3D('',#795,#630,#631);
#560=AXIS2_PLACEMENT_3D('',#797,#632,#633);
#561=AXIS2_PLACEMENT_3D('',#799,#634,#635);
#562=AXIS2_PLACEMENT_3D('',#803,#637,#638);
#563=AXIS2_PLACEMENT_3D('',#804,#639,#640);
#564=AXIS2_PLACEMENT_3D('',#805,#641,#642);
#565=AXIS2_PLACEMENT_3D('',#807,#643,#644);
#566=AXIS2_PLACEMENT_3D('',#810,#646,#647);
#567=AXIS2_PLACEMENT_3D('',#811,#648,#649);
#568=AXIS2_PLACEMENT_3D('',#820,#654,#655);
#569=AXIS2_PLACEMENT_3D('',#829,#660,#661);
#570=AXIS2_PLACEMENT_3D('',#830,#662,#663);
#571=AXIS2_PLACEMENT_3D('',#831,#664,#665);
#572=AXIS2_PLACEMENT_3D('',#832,#666,#667);
#573=AXIS2_PLACEMENT_3D('',#834,#668,#669);
#574=AXIS2_PLACEMENT_3D('',#837,#671,#672);
#575=AXIS2_PLACEMENT_3D('',#838,#673,#674);
#576=AXIS2_PLACEMENT_3D('',#840,#675,#676);
#577=AXIS2_PLACEMENT_3D('',#842,#677,#678);
#578=AXIS2_PLACEMENT_3D('',#846,#680,#681);
#579=AXIS2_PLACEMENT_3D('',#847,#682,#683);
#580=AXIS2_PLACEMENT_3D('',#848,#684,#685);
#581=AXIS2_PLACEMENT_3D('',#854,#689,#690);
#582=AXIS2_PLACEMENT_3D('',#860,#694,#695);
#583=AXIS2_PLACEMENT_3D('',#861,#696,#697);
#584=AXIS2_PLACEMENT_3D('',#862,#698,#699);
#585=AXIS2_PLACEMENT_3D('',#863,#700,#701);
#586=AXIS2_PLACEMENT_3D('',#869,#705,#706);
#587=AXIS2_PLACEMENT_3D('',#875,#710,#711);
#588=AXIS2_PLACEMENT_3D('',#876,#712,#713);
#589=AXIS2_PLACEMENT_3D('',#877,#714,#715);
#590=AXIS2_PLACEMENT_3D('',#878,#716,#717);
#591=AXIS2_PLACEMENT_3D('',#881,#719,#720);
#592=AXIS2_PLACEMENT_3D('',#882,#721,#722);
#593=AXIS2_PLACEMENT_3D('',#885,#724,#725);
#594=AXIS2_PLACEMENT_3D('',#886,#726,#727);
#595=AXIS2_PLACEMENT_3D('',#896,#732,#733);
#596=AXIS2_PLACEMENT_3D('',#897,#734,#735);
#597=AXIS2_PLACEMENT_3D('',#900,#737,#738);
#598=AXIS2_PLACEMENT_3D('',#901,#739,#740);
#599=AXIS2_PLACEMENT_3D('',#903,#742,#743);
#600=AXIS2_PLACEMENT_3D('',#904,#744,#745);
#601=AXIS2_PLACEMENT_3D('',#906,#746,#747);
#602=AXIS2_PLACEMENT_3D('',#909,#749,#750);
#603=AXIS2_PLACEMENT_3D('',#910,#751,#752);
#604=AXIS2_PLACEMENT_3D('',#919,#757,#758);
#605=AXIS2_PLACEMENT_3D('',#922,#761,#762);
#606=AXIS2_PLACEMENT_3D('',#924,#764,#765);
#607=AXIS2_PLACEMENT_3D('',#926,#767,#768);
#608=AXIS2_PLACEMENT_3D('',#927,#769,#770);
#609=AXIS2_PLACEMENT_3D('',#928,#771,#772);
#610=DIRECTION('axis',(0.,0.,1.));
#611=DIRECTION('refdir',(1.,0.,0.));
#612=DIRECTION('center_axis',(1.85037170770859E-16,0.,1.));
#613=DIRECTION('ref_axis',(-1.,0.,1.85037170770859E-16));
#614=DIRECTION('',(1.,0.,-1.85037170770859E-16));
#615=DIRECTION('',(0.,-1.,0.));
#616=DIRECTION('',(-1.,0.,1.85037170770859E-16));
#617=DIRECTION('',(0.,-1.,0.));
#618=DIRECTION('center_axis',(1.85037170770859E-16,0.,1.));
#619=DIRECTION('ref_axis',(-1.,0.,1.85037170770859E-16));
#620=DIRECTION('',(1.,0.,-1.85037170770859E-16));
#621=DIRECTION('',(0.,-1.,0.));
#622=DIRECTION('',(-1.,0.,1.85037170770859E-16));
#623=DIRECTION('',(0.,-1.,0.));
#624=DIRECTION('center_axis',(0.,-1.,0.));
#625=DIRECTION('ref_axis',(-1.,0.,0.));
#626=DIRECTION('center_axis',(0.,1.,0.));
#627=DIRECTION('ref_axis',(1.,0.,0.));
#628=DIRECTION('center_axis',(0.,-1.,0.));
#629=DIRECTION('ref_axis',(-1.,0.,0.));
#630=DIRECTION('center_axis',(0.,-1.,0.));
#631=DIRECTION('ref_axis',(-1.,0.,0.));
#632=DIRECTION('center_axis',(0.,-1.,0.));
#633=DIRECTION('ref_axis',(-1.,0.,0.));
#634=DIRECTION('center_axis',(0.,-1.,0.));
#635=DIRECTION('ref_axis',(-1.,0.,0.));
#636=DIRECTION('',(-1.,0.,0.));
#637=DIRECTION('center_axis',(0.,1.,0.));
#638=DIRECTION('ref_axis',(-1.,0.,0.));
#639=DIRECTION('center_axis',(0.,1.,0.));
#640=DIRECTION('ref_axis',(-1.,0.,0.));
#641=DIRECTION('center_axis',(0.,-1.,0.));
#642=DIRECTION('ref_axis',(-1.,0.,0.));
#643=DIRECTION('center_axis',(0.,1.,0.));
#644=DIRECTION('ref_axis',(-1.,0.,0.));
#645=DIRECTION('',(-1.,0.,0.));
#646=DIRECTION('center_axis',(0.,-1.,0.));
#647=DIRECTION('ref_axis',(-1.,0.,0.));
#648=DIRECTION('center_axis',(0.,0.,-1.));
#649=DIRECTION('ref_axis',(1.,0.,0.));
#650=DIRECTION('',(-1.,0.,0.));
#651=DIRECTION('',(0.,-1.,0.));
#652=DIRECTION('',(1.,0.,0.));
#653=DIRECTION('',(0.,-1.,0.));
#654=DIRECTION('center_axis',(0.,0.,-1.));
#655=DIRECTION('ref_axis',(1.,0.,0.));
#656=DIRECTION('',(-1.,0.,0.));
#657=DIRECTION('',(0.,-1.,0.));
#658=DIRECTION('',(1.,0.,0.));
#659=DIRECTION('',(0.,-1.,0.));
#660=DIRECTION('center_axis',(0.,-1.,0.));
#661=DIRECTION('ref_axis',(-1.,0.,0.));
#662=DIRECTION('center_axis',(0.,1.,0.));
#663=DIRECTION('ref_axis',(1.,0.,0.));
#664=DIRECTION('center_axis',(0.,-1.,0.));
#665=DIRECTION('ref_axis',(-1.,0.,0.));
#666=DIRECTION('center_axis',(0.,-1.,0.));
#667=DIRECTION('ref_axis',(-1.,0.,0.));
#668=DIRECTION('center_axis',(0.,-1.,0.));
#669=DIRECTION('ref_axis',(-1.,0.,0.));
#670=DIRECTION('',(1.,0.,1.85037170770859E-16));
#671=DIRECTION('center_axis',(0.,1.,0.));
#672=DIRECTION('ref_axis',(-1.,0.,0.));
#673=DIRECTION('center_axis',(0.,-1.,0.));
#674=DIRECTION('ref_axis',(-1.,0.,0.));
#675=DIRECTION('center_axis',(0.,1.,0.));
#676=DIRECTION('ref_axis',(-1.,0.,0.));
#677=DIRECTION('center_axis',(0.,1.,0.));
#678=DIRECTION('ref_axis',(-1.,0.,0.));
#679=DIRECTION('',(1.,0.,1.85037170770859E-16));
#680=DIRECTION('center_axis',(0.,-1.,0.));
#681=DIRECTION('ref_axis',(-1.,0.,0.));
#682=DIRECTION('center_axis',(0.,-1.,0.));
#683=DIRECTION('ref_axis',(-1.,0.,0.));
#684=DIRECTION('center_axis',(0.,0.,-1.));
#685=DIRECTION('ref_axis',(1.,0.,0.));
#686=DIRECTION('',(0.,-1.,0.));
#687=DIRECTION('',(1.,0.,0.));
#688=DIRECTION('',(0.,-1.,0.));
#689=DIRECTION('center_axis',(0.,0.,-1.));
#690=DIRECTION('ref_axis',(1.,0.,0.));
#691=DIRECTION('',(0.,-1.,0.));
#692=DIRECTION('',(1.,0.,0.));
#693=DIRECTION('',(0.,-1.,0.));
#694=DIRECTION('center_axis',(0.,-1.,0.));
#695=DIRECTION('ref_axis',(-1.,0.,0.));
#696=DIRECTION('center_axis',(0.,1.,0.));
#697=DIRECTION('ref_axis',(1.,0.,0.));
#698=DIRECTION('center_axis',(0.,-1.,0.));
#699=DIRECTION('ref_axis',(-1.,0.,0.));
#700=DIRECTION('center_axis',(-1.85037170770859E-16,0.,1.));
#701=DIRECTION('ref_axis',(-1.,0.,-1.85037170770859E-16));
#702=DIRECTION('',(0.,-1.,0.));
#703=DIRECTION('',(-1.,0.,-1.85037170770859E-16));
#704=DIRECTION('',(0.,-1.,0.));
#705=DIRECTION('center_axis',(-1.85037170770859E-16,0.,1.));
#706=DIRECTION('ref_axis',(-1.,0.,-1.85037170770859E-16));
#707=DIRECTION('',(0.,-1.,0.));
#708=DIRECTION('',(-1.,0.,-1.85037170770859E-16));
#709=DIRECTION('',(0.,-1.,0.));
#710=DIRECTION('center_axis',(0.,-1.,0.));
#711=DIRECTION('ref_axis',(-1.,0.,0.));
#712=DIRECTION('center_axis',(0.,1.,0.));
#713=DIRECTION('ref_axis',(1.,0.,0.));
#714=DIRECTION('center_axis',(0.,-1.,0.));
#715=DIRECTION('ref_axis',(-1.,0.,0.));
#716=DIRECTION('center_axis',(0.,-1.,0.));
#717=DIRECTION('ref_axis',(-1.,0.,0.));
#718=DIRECTION('',(0.,1.,0.));
#719=DIRECTION('center_axis',(0.,-1.,0.));
#720=DIRECTION('ref_axis',(-1.,0.,0.));
#721=DIRECTION('center_axis',(0.,-1.,0.));
#722=DIRECTION('ref_axis',(-1.,0.,0.));
#723=DIRECTION('',(0.,1.,0.));
#724=DIRECTION('center_axis',(0.,1.,0.));
#725=DIRECTION('ref_axis',(-1.,0.,0.));
#726=DIRECTION('center_axis',(0.,1.,0.));
#727=DIRECTION('ref_axis',(1.,0.,0.));
#728=DIRECTION('',(0.,0.,-1.));
#729=DIRECTION('',(1.,0.,-9.25185853854297E-17));
#730=DIRECTION('',(0.,0.,1.));
#731=DIRECTION('',(-1.,0.,0.));
#732=DIRECTION('center_axis',(0.,1.,0.));
#733=DIRECTION('ref_axis',(-1.,0.,0.));
#734=DIRECTION('center_axis',(0.,-1.,0.));
#735=DIRECTION('ref_axis',(-1.,0.,0.));
#736=DIRECTION('',(0.,1.,0.));
#737=DIRECTION('center_axis',(0.,-1.,0.));
#738=DIRECTION('ref_axis',(-1.,0.,0.));
#739=DIRECTION('center_axis',(0.,-1.,0.));
#740=DIRECTION('ref_axis',(-1.,0.,0.));
#741=DIRECTION('',(0.,1.,0.));
#742=DIRECTION('center_axis',(0.,1.,0.));
#743=DIRECTION('ref_axis',(1.,0.,0.));
#744=DIRECTION('center_axis',(0.,1.,0.));
#745=DIRECTION('ref_axis',(1.,0.,0.));
#746=DIRECTION('center_axis',(0.,-1.,0.));
#747=DIRECTION('ref_axis',(1.,0.,0.));
#748=DIRECTION('',(0.,-1.,0.));
#749=DIRECTION('center_axis',(0.,1.,0.));
#750=DIRECTION('ref_axis',(1.,0.,0.));
#751=DIRECTION('center_axis',(0.,1.,0.));
#752=DIRECTION('ref_axis',(1.,0.,0.));
#753=DIRECTION('',(1.,0.,1.85037170770859E-16));
#754=DIRECTION('',(7.40148683083438E-17,0.,-1.));
#755=DIRECTION('',(-1.,0.,-1.85037170770859E-16));
#756=DIRECTION('',(0.,0.,1.));
#757=DIRECTION('center_axis',(9.25185853854297E-17,0.,1.));
#758=DIRECTION('ref_axis',(1.,0.,-9.25185853854297E-17));
#759=DIRECTION('',(0.,1.,0.));
#760=DIRECTION('',(0.,1.,0.));
#761=DIRECTION('center_axis',(-1.,0.,0.));
#762=DIRECTION('ref_axis',(0.,0.,1.));
#763=DIRECTION('',(0.,1.,0.));
#764=DIRECTION('center_axis',(0.,0.,-1.));
#765=DIRECTION('ref_axis',(-1.,0.,0.));
#766=DIRECTION('',(0.,1.,0.));
#767=DIRECTION('center_axis',(1.,0.,0.));
#768=DIRECTION('ref_axis',(0.,0.,-1.));
#769=DIRECTION('center_axis',(0.,1.,0.));
#770=DIRECTION('ref_axis',(0.,0.,1.));
#771=DIRECTION('center_axis',(0.,1.,0.));
#772=DIRECTION('ref_axis',(1.,0.,0.));
#773=CARTESIAN_POINT('',(0.,0.,0.));
#774=CARTESIAN_POINT('Origin',(1.4790199457749,-2.5,-4.65));
#775=CARTESIAN_POINT('',(0.707106781186547,-2.5,-4.65));
#776=CARTESIAN_POINT('',(1.4790199457749,-2.5,-4.65));
#777=CARTESIAN_POINT('',(0.739509972887452,-2.5,-4.65));
#778=CARTESIAN_POINT('',(0.707106781186547,-5.,-4.65));
#779=CARTESIAN_POINT('',(0.707106781186547,-2.5,-4.65));
#780=CARTESIAN_POINT('',(1.4790199457749,-5.,-4.65));
#781=CARTESIAN_POINT('',(-1.5,-5.,-4.65));
#782=CARTESIAN_POINT('',(1.4790199457749,-2.5,-4.65));
#783=CARTESIAN_POINT('Origin',(-0.707106781186548,-2.5,-4.65));
#784=CARTESIAN_POINT('',(-1.4790199457749,-2.5,-4.65));
#785=CARTESIAN_POINT('',(-0.707106781186548,-2.5,-4.65));
#786=CARTESIAN_POINT('',(-0.353553390593274,-2.5,-4.65));
#787=CARTESIAN_POINT('',(-1.4790199457749,-5.,-4.65));
#788=CARTESIAN_POINT('',(-1.4790199457749,-2.5,-4.65));
#789=CARTESIAN_POINT('',(-0.707106781186547,-5.,-4.65));
#790=CARTESIAN_POINT('',(-1.5,-5.,-4.65));
#791=CARTESIAN_POINT('',(-0.707106781186548,-2.5,-4.65));
#792=CARTESIAN_POINT('Origin',(0.,-5.,-5.275));
#793=CARTESIAN_POINT('Origin',(0.,-5.,-4.4));
#794=CARTESIAN_POINT('Origin',(0.,-5.,-4.4));
#795=CARTESIAN_POINT('Origin',(0.,-2.5,-4.4));
#796=CARTESIAN_POINT('',(1.5,-2.5,-4.4));
#797=CARTESIAN_POINT('Origin',(0.,-2.5,-4.4));
#798=CARTESIAN_POINT('',(1.4790199457749,-2.5,-4.15));
#799=CARTESIAN_POINT('Origin',(0.,-2.5,-4.4));
#800=CARTESIAN_POINT('',(0.707106781186548,-2.5,-4.15));
#801=CARTESIAN_POINT('',(0.353553390593274,-2.5,-4.15));
#802=CARTESIAN_POINT('',(0.75,-2.5,-4.4));
#803=CARTESIAN_POINT('Origin',(0.,-2.5,-4.4));
#804=CARTESIAN_POINT('Origin',(0.,-2.5,-4.4));
#805=CARTESIAN_POINT('Origin',(0.,-2.5,-4.4));
#806=CARTESIAN_POINT('',(-0.707106781186547,-2.5,-4.15));
#807=CARTESIAN_POINT('Origin',(0.,-2.5,-4.4));
#808=CARTESIAN_POINT('',(-1.4790199457749,-2.5,-4.15));
#809=CARTESIAN_POINT('',(-0.739509972887452,-2.5,-4.15));
#810=CARTESIAN_POINT('Origin',(0.,-2.5,-4.4));
#811=CARTESIAN_POINT('Origin',(-1.4790199457749,-2.5,4.65));
#812=CARTESIAN_POINT('',(-0.707106781186547,-2.5,4.65));
#813=CARTESIAN_POINT('',(-1.4790199457749,-2.5,4.65));
#814=CARTESIAN_POINT('',(-0.739509972887452,-2.5,4.65));
#815=CARTESIAN_POINT('',(-0.707106781186547,-5.,4.65));
#816=CARTESIAN_POINT('',(-0.707106781186547,-2.5,4.65));
#817=CARTESIAN_POINT('',(-1.4790199457749,-5.,4.65));
#818=CARTESIAN_POINT('',(1.5,-5.,4.65));
#819=CARTESIAN_POINT('',(-1.4790199457749,-2.5,4.65));
#820=CARTESIAN_POINT('Origin',(0.707106781186548,-2.5,4.65));
#821=CARTESIAN_POINT('',(1.4790199457749,-2.5,4.65));
#822=CARTESIAN_POINT('',(0.707106781186548,-2.5,4.65));
#823=CARTESIAN_POINT('',(0.353553390593274,-2.5,4.65));
#824=CARTESIAN_POINT('',(1.4790199457749,-5.,4.65));
#825=CARTESIAN_POINT('',(1.4790199457749,-2.5,4.65));
#826=CARTESIAN_POINT('',(0.707106781186547,-5.,4.65));
#827=CARTESIAN_POINT('',(1.5,-5.,4.65));
#828=CARTESIAN_POINT('',(0.707106781186548,-2.5,4.65));
#829=CARTESIAN_POINT('Origin',(0.,-5.,5.275));
#830=CARTESIAN_POINT('Origin',(0.,-5.,4.4));
#831=CARTESIAN_POINT('Origin',(0.,-5.,4.4));
#832=CARTESIAN_POINT('Origin',(0.,-2.5,4.4));
#833=CARTESIAN_POINT('',(-1.4790199457749,-2.5,4.15));
#834=CARTESIAN_POINT('Origin',(0.,-2.5,4.4));
#835=CARTESIAN_POINT('',(-0.707106781186547,-2.5,4.15));
#836=CARTESIAN_POINT('',(-0.353553390593274,-2.5,4.15));
#837=CARTESIAN_POINT('Origin',(0.,-2.5,4.4));
#838=CARTESIAN_POINT('Origin',(0.,-2.5,4.4));
#839=CARTESIAN_POINT('',(0.75,-2.5,4.4));
#840=CARTESIAN_POINT('Origin',(0.,-2.5,4.4));
#841=CARTESIAN_POINT('',(0.707106781186548,-2.5,4.15));
#842=CARTESIAN_POINT('Origin',(0.,-2.5,4.4));
#843=CARTESIAN_POINT('',(1.4790199457749,-2.5,4.15));
#844=CARTESIAN_POINT('',(0.739509972887452,-2.5,4.15));
#845=CARTESIAN_POINT('',(1.5,-2.5,4.4));
#846=CARTESIAN_POINT('Origin',(0.,-2.5,4.4));
#847=CARTESIAN_POINT('Origin',(0.,-2.5,4.4));
#848=CARTESIAN_POINT('Origin',(-1.4790199457749,-2.5,-4.15));
#849=CARTESIAN_POINT('',(-0.707106781186547,-5.,-4.15));
#850=CARTESIAN_POINT('',(-0.707106781186547,-2.5,-4.15));
#851=CARTESIAN_POINT('',(-1.4790199457749,-5.,-4.15));
#852=CARTESIAN_POINT('',(1.5,-5.,-4.15));
#853=CARTESIAN_POINT('',(-1.4790199457749,-2.5,-4.15));
#854=CARTESIAN_POINT('Origin',(0.707106781186548,-2.5,-4.15));
#855=CARTESIAN_POINT('',(1.4790199457749,-5.,-4.15));
#856=CARTESIAN_POINT('',(1.4790199457749,-2.5,-4.15));
#857=CARTESIAN_POINT('',(0.707106781186547,-5.,-4.15));
#858=CARTESIAN_POINT('',(1.5,-5.,-4.15));
#859=CARTESIAN_POINT('',(0.707106781186548,-2.5,-4.15));
#860=CARTESIAN_POINT('Origin',(0.,-5.,-3.525));
#861=CARTESIAN_POINT('Origin',(0.,-5.,-4.4));
#862=CARTESIAN_POINT('Origin',(0.,-5.,-4.4));
#863=CARTESIAN_POINT('Origin',(1.4790199457749,-2.5,4.15));
#864=CARTESIAN_POINT('',(0.707106781186548,-5.,4.15));
#865=CARTESIAN_POINT('',(0.707106781186548,-2.5,4.15));
#866=CARTESIAN_POINT('',(1.4790199457749,-5.,4.15));
#867=CARTESIAN_POINT('',(-1.5,-5.,4.15));
#868=CARTESIAN_POINT('',(1.4790199457749,-2.5,4.15));
#869=CARTESIAN_POINT('Origin',(-0.707106781186547,-2.5,4.15));
#870=CARTESIAN_POINT('',(-1.4790199457749,-5.,4.15));
#871=CARTESIAN_POINT('',(-1.4790199457749,-2.5,4.15));
#872=CARTESIAN_POINT('',(-0.707106781186547,-5.,4.15));
#873=CARTESIAN_POINT('',(-1.5,-5.,4.15));
#874=CARTESIAN_POINT('',(-0.707106781186547,-2.5,4.15));
#875=CARTESIAN_POINT('Origin',(0.,-5.,3.525));
#876=CARTESIAN_POINT('Origin',(0.,-5.,4.4));
#877=CARTESIAN_POINT('Origin',(0.,-5.,4.4));
#878=CARTESIAN_POINT('Origin',(0.,0.,-4.4));
#879=CARTESIAN_POINT('',(0.75,0.,-4.4));
#880=CARTESIAN_POINT('',(0.75,0.,-4.4));
#881=CARTESIAN_POINT('Origin',(0.,0.,-4.4));
#882=CARTESIAN_POINT('Origin',(0.,0.,-4.4));
#883=CARTESIAN_POINT('',(1.5,0.,-4.4));
#884=CARTESIAN_POINT('',(1.5,0.,-4.4));
#885=CARTESIAN_POINT('Origin',(0.,0.,-4.4));
#886=CARTESIAN_POINT('Origin',(0.,0.,-1.11022302462516E-15));
#887=CARTESIAN_POINT('',(6.,0.,7.5));
#888=CARTESIAN_POINT('',(6.,0.,-7.5));
#889=CARTESIAN_POINT('',(6.,0.,7.5));
#890=CARTESIAN_POINT('',(-6.,0.,7.5));
#891=CARTESIAN_POINT('',(-6.,0.,7.5));
#892=CARTESIAN_POINT('',(-6.,0.,-7.5));
#893=CARTESIAN_POINT('',(-6.,0.,-7.5));
#894=CARTESIAN_POINT('',(6.,0.,-7.5));
#895=CARTESIAN_POINT('',(1.5,0.,4.4));
#896=CARTESIAN_POINT('Origin',(0.,0.,4.4));
#897=CARTESIAN_POINT('Origin',(0.,0.,4.4));
#898=CARTESIAN_POINT('',(0.75,0.,4.4));
#899=CARTESIAN_POINT('',(0.75,0.,4.4));
#900=CARTESIAN_POINT('Origin',(0.,0.,4.4));
#901=CARTESIAN_POINT('Origin',(0.,0.,4.4));
#902=CARTESIAN_POINT('',(1.5,0.,4.4));
#903=CARTESIAN_POINT('Origin',(0.,0.,-1.11022302462516E-15));
#904=CARTESIAN_POINT('Origin',(0.,1.,0.));
#905=CARTESIAN_POINT('',(-4.75,4.5,5.81707229594993E-16));
#906=CARTESIAN_POINT('Origin',(0.,4.5,0.));
#907=CARTESIAN_POINT('',(-4.75,1.,5.81707229594993E-16));
#908=CARTESIAN_POINT('',(-4.75,1.,5.81707229594993E-16));
#909=CARTESIAN_POINT('Origin',(0.,1.,0.));
#910=CARTESIAN_POINT('Origin',(0.,4.5,-1.11022302462516E-15));
#911=CARTESIAN_POINT('',(-6.,4.5,7.5));
#912=CARTESIAN_POINT('',(6.,4.5,7.5));
#913=CARTESIAN_POINT('',(6.,4.5,7.5));
#914=CARTESIAN_POINT('',(6.,4.5,-7.5));
#915=CARTESIAN_POINT('',(6.,4.5,-7.5));
#916=CARTESIAN_POINT('',(-6.,4.5,-7.5));
#917=CARTESIAN_POINT('',(-6.,4.5,-7.5));
#918=CARTESIAN_POINT('',(-6.,4.5,7.5));
#919=CARTESIAN_POINT('Origin',(-6.,0.,7.5));
#920=CARTESIAN_POINT('',(6.,0.,7.5));
#921=CARTESIAN_POINT('',(-6.,0.,7.5));
#922=CARTESIAN_POINT('Origin',(-6.,0.,-7.5));
#923=CARTESIAN_POINT('',(-6.,0.,-7.5));
#924=CARTESIAN_POINT('Origin',(6.,0.,-7.5));
#925=CARTESIAN_POINT('',(6.,0.,-7.5));
#926=CARTESIAN_POINT('Origin',(6.,0.,7.5));
#927=CARTESIAN_POINT('Origin',(0.,1.,-1.11022302462516E-15));
#928=CARTESIAN_POINT('Origin',(0.,0.,-1.11022302462516E-15));
#929=UNCERTAINTY_MEASURE_WITH_UNIT(LENGTH_MEASURE(0.01),#933,
'DISTANCE_ACCURACY_VALUE',
'Maximum model space distance between geometric entities at asserted c
onnectivities');
#930=UNCERTAINTY_MEASURE_WITH_UNIT(LENGTH_MEASURE(0.01),#933,
'DISTANCE_ACCURACY_VALUE',
'Maximum model space distance between geometric entities at asserted c
onnectivities');
#931=(
GEOMETRIC_REPRESENTATION_CONTEXT(3)
GLOBAL_UNCERTAINTY_ASSIGNED_CONTEXT((#929))
GLOBAL_UNIT_ASSIGNED_CONTEXT((#933,#935,#936))
REPRESENTATION_CONTEXT('','3D')
);
#932=(
GEOMETRIC_REPRESENTATION_CONTEXT(3)
GLOBAL_UNCERTAINTY_ASSIGNED_CONTEXT((#930))
GLOBAL_UNIT_ASSIGNED_CONTEXT((#933,#935,#936))
REPRESENTATION_CONTEXT('','3D')
);
#933=(
LENGTH_UNIT()
NAMED_UNIT(*)
SI_UNIT(.MILLI.,.METRE.)
);
#934=(
LENGTH_UNIT()
NAMED_UNIT(*)
SI_UNIT($,.METRE.)
);
#935=(
NAMED_UNIT(*)
PLANE_ANGLE_UNIT()
SI_UNIT($,.RADIAN.)
);
#936=(
NAMED_UNIT(*)
SI_UNIT($,.STERADIAN.)
SOLID_ANGLE_UNIT()
);
#937=SHAPE_DEFINITION_REPRESENTATION(#938,#939);
#938=PRODUCT_DEFINITION_SHAPE('',$,#941);
#939=SHAPE_REPRESENTATION('',(#553),#931);
#940=PRODUCT_DEFINITION_CONTEXT('part definition',#945,'design');
#941=PRODUCT_DEFINITION('2026-05-26-10-42-52-047',
'MagneetHouder_bovenkant_v1',#942,#940);
#942=PRODUCT_DEFINITION_FORMATION('',$,#947);
#943=PRODUCT_RELATED_PRODUCT_CATEGORY('MagneetHouder_bovenkant_v1',
'MagneetHouder_bovenkant_v1',(#947));
#944=APPLICATION_PROTOCOL_DEFINITION('international standard',
'automotive_design',2009,#945);
#945=APPLICATION_CONTEXT(
'Core Data for Automotive Mechanical Design Process');
#946=PRODUCT_CONTEXT('part definition',#945,'mechanical');
#947=PRODUCT('2026-05-26-10-42-52-047','MagneetHouder_bovenkant_v1',$,(#946));
#948=PRESENTATION_STYLE_ASSIGNMENT((#949));
#949=SURFACE_STYLE_USAGE(.BOTH.,#950);
#950=SURFACE_SIDE_STYLE('',(#951));
#951=SURFACE_STYLE_FILL_AREA(#952);
#952=FILL_AREA_STYLE('Steel - Satin',(#953));
#953=FILL_AREA_STYLE_COLOUR('Steel - Satin',#954);
#954=COLOUR_RGB('Steel - Satin',0.627450980392157,0.627450980392157,0.627450980392157);
ENDSEC;
END-ISO-10303-21;
