ISO-10303-21;
HEADER;
/* Generated by software containing ST-Developer
 * from STEP Tools, Inc. (www.steptools.com) 
 */

FILE_DESCRIPTION(
/* description */ (''),
/* implementation_level */ '2;1');

FILE_NAME(
/* name */ 'Wheel_v2.step',
/* time_stamp */ '2026-05-04T12:43:00+02:00',
/* author */ (''),
/* organization */ (''),
/* preprocessor_version */ 'ST-DEVELOPER v20.1',
/* originating_system */ 'Autodesk Translation Framework v15.8.0.0',
/* authorisation */ '');

FILE_SCHEMA (('AUTOMOTIVE_DESIGN { 1 0 10303 214 3 1 1 }'));
ENDSEC;

DATA;
#10=MECHANICAL_DESIGN_GEOMETRIC_PRESENTATION_REPRESENTATION('',(#13),#1193);
#11=SHAPE_REPRESENTATION_RELATIONSHIP('SRR','None',#1200,#12);
#12=ADVANCED_BREP_SHAPE_REPRESENTATION('',(#14),#1192);
#13=STYLED_ITEM('',(#1209),#14);
#14=MANIFOLD_SOLID_BREP('Body1',#413);
#15=FACE_BOUND('',#86,.T.);
#16=FACE_BOUND('',#87,.T.);
#17=FACE_BOUND('',#88,.T.);
#18=FACE_BOUND('',#89,.T.);
#19=FACE_BOUND('',#90,.T.);
#20=FACE_BOUND('',#91,.T.);
#21=FACE_BOUND('',#93,.T.);
#22=FACE_BOUND('',#94,.T.);
#23=FACE_BOUND('',#95,.T.);
#24=FACE_BOUND('',#96,.T.);
#25=FACE_BOUND('',#97,.T.);
#26=FACE_BOUND('',#98,.T.);
#27=PLANE('',#430);
#28=PLANE('',#431);
#29=PLANE('',#432);
#30=PLANE('',#433);
#31=PLANE('',#434);
#32=PLANE('',#435);
#33=PLANE('',#436);
#34=PLANE('',#437);
#35=PLANE('',#438);
#36=PLANE('',#439);
#37=PLANE('',#440);
#38=PLANE('',#441);
#39=PLANE('',#445);
#40=PLANE('',#446);
#41=CIRCLE('',#428,2.);
#42=CIRCLE('',#429,2.);
#43=CIRCLE('',#443,52.5);
#44=CIRCLE('',#444,52.5);
#45=CYLINDRICAL_SURFACE('',#427,2.);
#46=CYLINDRICAL_SURFACE('',#442,52.5);
#47=FACE_OUTER_BOUND('',#67,.T.);
#48=FACE_OUTER_BOUND('',#68,.T.);
#49=FACE_OUTER_BOUND('',#69,.T.);
#50=FACE_OUTER_BOUND('',#70,.T.);
#51=FACE_OUTER_BOUND('',#71,.T.);
#52=FACE_OUTER_BOUND('',#72,.T.);
#53=FACE_OUTER_BOUND('',#73,.T.);
#54=FACE_OUTER_BOUND('',#74,.T.);
#55=FACE_OUTER_BOUND('',#75,.T.);
#56=FACE_OUTER_BOUND('',#76,.T.);
#57=FACE_OUTER_BOUND('',#77,.T.);
#58=FACE_OUTER_BOUND('',#78,.T.);
#59=FACE_OUTER_BOUND('',#79,.T.);
#60=FACE_OUTER_BOUND('',#80,.T.);
#61=FACE_OUTER_BOUND('',#81,.T.);
#62=FACE_OUTER_BOUND('',#82,.T.);
#63=FACE_OUTER_BOUND('',#83,.T.);
#64=FACE_OUTER_BOUND('',#84,.T.);
#65=FACE_OUTER_BOUND('',#85,.T.);
#66=FACE_OUTER_BOUND('',#92,.T.);
#67=EDGE_LOOP('',(#281,#282,#283,#284));
#68=EDGE_LOOP('',(#285,#286,#287,#288));
#69=EDGE_LOOP('',(#289,#290,#291,#292));
#70=EDGE_LOOP('',(#293,#294,#295,#296));
#71=EDGE_LOOP('',(#297,#298,#299,#300));
#72=EDGE_LOOP('',(#301,#302,#303,#304));
#73=EDGE_LOOP('',(#305,#306,#307,#308));
#74=EDGE_LOOP('',(#309,#310,#311,#312));
#75=EDGE_LOOP('',(#313,#314,#315,#316));
#76=EDGE_LOOP('',(#317,#318,#319,#320));
#77=EDGE_LOOP('',(#321,#322,#323,#324));
#78=EDGE_LOOP('',(#325,#326,#327,#328));
#79=EDGE_LOOP('',(#329,#330,#331,#332));
#80=EDGE_LOOP('',(#333,#334,#335,#336));
#81=EDGE_LOOP('',(#337,#338,#339,#340));
#82=EDGE_LOOP('',(#341,#342,#343,#344));
#83=EDGE_LOOP('',(#345,#346,#347,#348));
#84=EDGE_LOOP('',(#349,#350,#351,#352));
#85=EDGE_LOOP('',(#353));
#86=EDGE_LOOP('',(#354));
#87=EDGE_LOOP('',(#355));
#88=EDGE_LOOP('',(#356,#357,#358,#359,#360,#361,#362,#363,#364,#365,#366,
#367));
#89=EDGE_LOOP('',(#368));
#90=EDGE_LOOP('',(#369));
#91=EDGE_LOOP('',(#370));
#92=EDGE_LOOP('',(#371));
#93=EDGE_LOOP('',(#372));
#94=EDGE_LOOP('',(#373));
#95=EDGE_LOOP('',(#374,#375,#376,#377,#378,#379,#380,#381,#382,#383,#384,
#385));
#96=EDGE_LOOP('',(#386));
#97=EDGE_LOOP('',(#387));
#98=EDGE_LOOP('',(#388));
#99=LINE('',#639,#141);
#100=LINE('',#782,#142);
#101=LINE('',#822,#143);
#102=LINE('',#827,#144);
#103=LINE('',#829,#145);
#104=LINE('',#831,#146);
#105=LINE('',#832,#147);
#106=LINE('',#835,#148);
#107=LINE('',#837,#149);
#108=LINE('',#838,#150);
#109=LINE('',#841,#151);
#110=LINE('',#843,#152);
#111=LINE('',#844,#153);
#112=LINE('',#847,#154);
#113=LINE('',#849,#155);
#114=LINE('',#850,#156);
#115=LINE('',#853,#157);
#116=LINE('',#855,#158);
#117=LINE('',#856,#159);
#118=LINE('',#859,#160);
#119=LINE('',#861,#161);
#120=LINE('',#862,#162);
#121=LINE('',#865,#163);
#122=LINE('',#867,#164);
#123=LINE('',#868,#165);
#124=LINE('',#871,#166);
#125=LINE('',#873,#167);
#126=LINE('',#874,#168);
#127=LINE('',#877,#169);
#128=LINE('',#879,#170);
#129=LINE('',#880,#171);
#130=LINE('',#883,#172);
#131=LINE('',#885,#173);
#132=LINE('',#886,#174);
#133=LINE('',#889,#175);
#134=LINE('',#891,#176);
#135=LINE('',#892,#177);
#136=LINE('',#894,#178);
#137=LINE('',#895,#179);
#138=LINE('',#1003,#180);
#139=LINE('',#1146,#181);
#140=LINE('',#1186,#182);
#141=VECTOR('',#449,10.);
#142=VECTOR('',#450,10.);
#143=VECTOR('',#455,2.);
#144=VECTOR('',#460,10.);
#145=VECTOR('',#461,10.);
#146=VECTOR('',#462,10.);
#147=VECTOR('',#463,10.);
#148=VECTOR('',#466,10.);
#149=VECTOR('',#467,10.);
#150=VECTOR('',#468,10.);
#151=VECTOR('',#471,10.);
#152=VECTOR('',#472,10.);
#153=VECTOR('',#473,10.);
#154=VECTOR('',#476,10.);
#155=VECTOR('',#477,10.);
#156=VECTOR('',#478,10.);
#157=VECTOR('',#481,10.);
#158=VECTOR('',#482,10.);
#159=VECTOR('',#483,10.);
#160=VECTOR('',#486,10.);
#161=VECTOR('',#487,10.);
#162=VECTOR('',#488,10.);
#163=VECTOR('',#491,10.);
#164=VECTOR('',#492,10.);
#165=VECTOR('',#493,10.);
#166=VECTOR('',#496,10.);
#167=VECTOR('',#497,10.);
#168=VECTOR('',#498,10.);
#169=VECTOR('',#501,10.);
#170=VECTOR('',#502,10.);
#171=VECTOR('',#503,10.);
#172=VECTOR('',#506,10.);
#173=VECTOR('',#507,10.);
#174=VECTOR('',#508,10.);
#175=VECTOR('',#511,10.);
#176=VECTOR('',#512,10.);
#177=VECTOR('',#513,10.);
#178=VECTOR('',#516,10.);
#179=VECTOR('',#517,10.);
#180=VECTOR('',#518,10.);
#181=VECTOR('',#519,10.);
#182=VECTOR('',#524,52.5);
#183=(
BOUNDED_CURVE()
B_SPLINE_CURVE(5,(#603,#604,#605,#606,#607,#608,#609,#610,#611,#612,#613,
#614,#615,#616,#617,#618,#619,#620,#621,#622,#623,#624,#625,#626,#627,#628,
#629,#630,#631,#632,#633,#634,#635,#636,#637),.UNSPECIFIED.,.T.,.F.)
B_SPLINE_CURVE_WITH_KNOTS((6,1,1,1,1,1,1,1,1,1,1,1,1,1,1,1,1,1,1,1,1,1,
1,1,1,1,1,1,1,1,6),(-1.,-0.966666666666667,-0.933333333333333,-0.9,-0.866666666666667,
-0.833333333333333,-0.8,-0.766666666666667,-0.733333333333333,-0.7,-0.666666666666667,
-0.633333333333333,-0.6,-0.566666666666667,-0.533333333333333,-0.5,-0.466666666666667,
-0.433333333333333,-0.4,-0.366666666666667,-0.333333333333333,-0.3,-0.266666666666667,
-0.233333333333333,-0.2,-0.166666666666667,-0.133333333333333,-0.1,-0.0666666666666667,
-0.0333333333333333,0.),.UNSPECIFIED.)
CURVE()
GEOMETRIC_REPRESENTATION_ITEM()
RATIONAL_B_SPLINE_CURVE((1.,1.,1.,1.,1.,1.,1.,1.,1.,1.,1.,1.,1.,1.,1.,1.,
1.,1.,1.,1.,1.,1.,1.,1.,1.,1.,1.,1.,1.,1.,1.,1.,1.,1.,1.))
REPRESENTATION_ITEM('')
);
#184=(
BOUNDED_CURVE()
B_SPLINE_CURVE(5,(#640,#641,#642,#643,#644,#645,#646,#647,#648,#649,#650,
#651,#652,#653,#654,#655,#656,#657,#658,#659,#660,#661,#662,#663,#664,#665,
#666,#667,#668,#669,#670,#671,#672,#673,#674),.UNSPECIFIED.,.T.,.F.)
B_SPLINE_CURVE_WITH_KNOTS((6,1,1,1,1,1,1,1,1,1,1,1,1,1,1,1,1,1,1,1,1,1,
1,1,1,1,1,1,1,1,6),(-1.,-0.966666666666667,-0.933333333333333,-0.9,-0.866666666666667,
-0.833333333333333,-0.8,-0.766666666666667,-0.733333333333333,-0.7,-0.666666666666667,
-0.633333333333333,-0.6,-0.566666666666667,-0.533333333333333,-0.5,-0.466666666666667,
-0.433333333333333,-0.4,-0.366666666666667,-0.333333333333333,-0.3,-0.266666666666667,
-0.233333333333333,-0.2,-0.166666666666667,-0.133333333333333,-0.1,-0.0666666666666667,
-0.0333333333333333,0.),.UNSPECIFIED.)
CURVE()
GEOMETRIC_REPRESENTATION_ITEM()
RATIONAL_B_SPLINE_CURVE((1.,1.,1.,1.,1.,1.,1.,1.,1.,1.,1.,1.,1.,1.,1.,1.,
1.,1.,1.,1.,1.,1.,1.,1.,1.,1.,1.,1.,1.,1.,1.,1.,1.,1.,1.))
REPRESENTATION_ITEM('')
);
#185=(
BOUNDED_CURVE()
B_SPLINE_CURVE(5,(#746,#747,#748,#749,#750,#751,#752,#753,#754,#755,#756,
#757,#758,#759,#760,#761,#762,#763,#764,#765,#766,#767,#768,#769,#770,#771,
#772,#773,#774,#775,#776,#777,#778,#779,#780),.UNSPECIFIED.,.T.,.F.)
B_SPLINE_CURVE_WITH_KNOTS((6,1,1,1,1,1,1,1,1,1,1,1,1,1,1,1,1,1,1,1,1,1,
1,1,1,1,1,1,1,1,6),(0.,0.0333333333333333,0.0666666666666667,0.1,0.133333333333333,
0.166666666666667,0.2,0.233333333333333,0.266666666666667,0.3,0.333333333333333,
0.366666666666667,0.4,0.433333333333333,0.466666666666667,0.5,0.533333333333333,
0.566666666666667,0.6,0.633333333333333,0.666666666666667,0.7,0.733333333333333,
0.766666666666667,0.8,0.833333333333333,0.866666666666667,0.9,0.933333333333333,
0.966666666666667,1.),.UNSPECIFIED.)
CURVE()
GEOMETRIC_REPRESENTATION_ITEM()
RATIONAL_B_SPLINE_CURVE((1.,1.,1.,1.,1.,1.,1.,1.,1.,1.,1.,1.,1.,1.,1.,1.,
1.,1.,1.,1.,1.,1.,1.,1.,1.,1.,1.,1.,1.,1.,1.,1.,1.,1.,1.))
REPRESENTATION_ITEM('')
);
#186=(
BOUNDED_CURVE()
B_SPLINE_CURVE(5,(#783,#784,#785,#786,#787,#788,#789,#790,#791,#792,#793,
#794,#795,#796,#797,#798,#799,#800,#801,#802,#803,#804,#805,#806,#807,#808,
#809,#810,#811,#812,#813,#814,#815,#816,#817),.UNSPECIFIED.,.T.,.F.)
B_SPLINE_CURVE_WITH_KNOTS((6,1,1,1,1,1,1,1,1,1,1,1,1,1,1,1,1,1,1,1,1,1,
1,1,1,1,1,1,1,1,6),(0.,0.0333333333333333,0.0666666666666667,0.1,0.133333333333333,
0.166666666666667,0.2,0.233333333333333,0.266666666666667,0.3,0.333333333333333,
0.366666666666667,0.4,0.433333333333333,0.466666666666667,0.5,0.533333333333333,
0.566666666666667,0.6,0.633333333333333,0.666666666666667,0.7,0.733333333333333,
0.766666666666667,0.8,0.833333333333333,0.866666666666667,0.9,0.933333333333333,
0.966666666666667,1.),.UNSPECIFIED.)
CURVE()
GEOMETRIC_REPRESENTATION_ITEM()
RATIONAL_B_SPLINE_CURVE((1.,1.,1.,1.,1.,1.,1.,1.,1.,1.,1.,1.,1.,1.,1.,1.,
1.,1.,1.,1.,1.,1.,1.,1.,1.,1.,1.,1.,1.,1.,1.,1.,1.,1.,1.))
REPRESENTATION_ITEM('')
);
#187=(
BOUNDED_CURVE()
B_SPLINE_CURVE(5,(#967,#968,#969,#970,#971,#972,#973,#974,#975,#976,#977,
#978,#979,#980,#981,#982,#983,#984,#985,#986,#987,#988,#989,#990,#991,#992,
#993,#994,#995,#996,#997,#998,#999,#1000,#1001),.UNSPECIFIED.,.T.,.F.)
B_SPLINE_CURVE_WITH_KNOTS((6,1,1,1,1,1,1,1,1,1,1,1,1,1,1,1,1,1,1,1,1,1,
1,1,1,1,1,1,1,1,6),(0.,0.0333333333333333,0.0666666666666667,0.1,0.133333333333333,
0.166666666666667,0.2,0.233333333333333,0.266666666666667,0.3,0.333333333333333,
0.366666666666667,0.4,0.433333333333333,0.466666666666667,0.5,0.533333333333333,
0.566666666666667,0.6,0.633333333333333,0.666666666666667,0.7,0.733333333333333,
0.766666666666667,0.8,0.833333333333333,0.866666666666667,0.9,0.933333333333333,
0.966666666666667,1.),.UNSPECIFIED.)
CURVE()
GEOMETRIC_REPRESENTATION_ITEM()
RATIONAL_B_SPLINE_CURVE((1.,1.,1.,1.,1.,1.,1.,1.,1.,1.,1.,1.,1.,1.,1.,1.,
1.,1.,1.,1.,1.,1.,1.,1.,1.,1.,1.,1.,1.,1.,1.,1.,1.,1.,1.))
REPRESENTATION_ITEM('')
);
#188=(
BOUNDED_CURVE()
B_SPLINE_CURVE(5,(#1004,#1005,#1006,#1007,#1008,#1009,#1010,#1011,#1012,
#1013,#1014,#1015,#1016,#1017,#1018,#1019,#1020,#1021,#1022,#1023,#1024,
#1025,#1026,#1027,#1028,#1029,#1030,#1031,#1032,#1033,#1034,#1035,#1036,
#1037,#1038),.UNSPECIFIED.,.T.,.F.)
B_SPLINE_CURVE_WITH_KNOTS((6,1,1,1,1,1,1,1,1,1,1,1,1,1,1,1,1,1,1,1,1,1,
1,1,1,1,1,1,1,1,6),(0.,0.0333333333333333,0.0666666666666667,0.1,0.133333333333333,
0.166666666666667,0.2,0.233333333333333,0.266666666666667,0.3,0.333333333333333,
0.366666666666667,0.4,0.433333333333333,0.466666666666667,0.5,0.533333333333333,
0.566666666666667,0.6,0.633333333333333,0.666666666666667,0.7,0.733333333333333,
0.766666666666667,0.8,0.833333333333333,0.866666666666667,0.9,0.933333333333333,
0.966666666666667,1.),.UNSPECIFIED.)
CURVE()
GEOMETRIC_REPRESENTATION_ITEM()
RATIONAL_B_SPLINE_CURVE((1.,1.,1.,1.,1.,1.,1.,1.,1.,1.,1.,1.,1.,1.,1.,1.,
1.,1.,1.,1.,1.,1.,1.,1.,1.,1.,1.,1.,1.,1.,1.,1.,1.,1.,1.))
REPRESENTATION_ITEM('')
);
#189=(
BOUNDED_CURVE()
B_SPLINE_CURVE(5,(#1110,#1111,#1112,#1113,#1114,#1115,#1116,#1117,#1118,
#1119,#1120,#1121,#1122,#1123,#1124,#1125,#1126,#1127,#1128,#1129,#1130,
#1131,#1132,#1133,#1134,#1135,#1136,#1137,#1138,#1139,#1140,#1141,#1142,
#1143,#1144),.UNSPECIFIED.,.T.,.F.)
B_SPLINE_CURVE_WITH_KNOTS((6,1,1,1,1,1,1,1,1,1,1,1,1,1,1,1,1,1,1,1,1,1,
1,1,1,1,1,1,1,1,6),(-1.,-0.966666666666667,-0.933333333333333,-0.9,-0.866666666666667,
-0.833333333333333,-0.8,-0.766666666666667,-0.733333333333333,-0.7,-0.666666666666667,
-0.633333333333333,-0.6,-0.566666666666667,-0.533333333333333,-0.5,-0.466666666666667,
-0.433333333333333,-0.4,-0.366666666666667,-0.333333333333333,-0.3,-0.266666666666667,
-0.233333333333333,-0.2,-0.166666666666667,-0.133333333333333,-0.1,-0.0666666666666667,
-0.0333333333333333,0.),.UNSPECIFIED.)
CURVE()
GEOMETRIC_REPRESENTATION_ITEM()
RATIONAL_B_SPLINE_CURVE((1.,1.,1.,1.,1.,1.,1.,1.,1.,1.,1.,1.,1.,1.,1.,1.,
1.,1.,1.,1.,1.,1.,1.,1.,1.,1.,1.,1.,1.,1.,1.,1.,1.,1.,1.))
REPRESENTATION_ITEM('')
);
#190=(
BOUNDED_CURVE()
B_SPLINE_CURVE(5,(#1147,#1148,#1149,#1150,#1151,#1152,#1153,#1154,#1155,
#1156,#1157,#1158,#1159,#1160,#1161,#1162,#1163,#1164,#1165,#1166,#1167,
#1168,#1169,#1170,#1171,#1172,#1173,#1174,#1175,#1176,#1177,#1178,#1179,
#1180,#1181),.UNSPECIFIED.,.T.,.F.)
B_SPLINE_CURVE_WITH_KNOTS((6,1,1,1,1,1,1,1,1,1,1,1,1,1,1,1,1,1,1,1,1,1,
1,1,1,1,1,1,1,1,6),(-1.,-0.966666666666667,-0.933333333333333,-0.9,-0.866666666666667,
-0.833333333333333,-0.8,-0.766666666666667,-0.733333333333333,-0.7,-0.666666666666667,
-0.633333333333333,-0.6,-0.566666666666667,-0.533333333333333,-0.5,-0.466666666666667,
-0.433333333333333,-0.4,-0.366666666666667,-0.333333333333333,-0.3,-0.266666666666667,
-0.233333333333333,-0.2,-0.166666666666667,-0.133333333333333,-0.1,-0.0666666666666667,
-0.0333333333333333,0.),.UNSPECIFIED.)
CURVE()
GEOMETRIC_REPRESENTATION_ITEM()
RATIONAL_B_SPLINE_CURVE((1.,1.,1.,1.,1.,1.,1.,1.,1.,1.,1.,1.,1.,1.,1.,1.,
1.,1.,1.,1.,1.,1.,1.,1.,1.,1.,1.,1.,1.,1.,1.,1.,1.,1.,1.))
REPRESENTATION_ITEM('')
);
#191=VERTEX_POINT('',#602);
#192=VERTEX_POINT('',#638);
#193=VERTEX_POINT('',#745);
#194=VERTEX_POINT('',#781);
#195=VERTEX_POINT('',#819);
#196=VERTEX_POINT('',#821);
#197=VERTEX_POINT('',#825);
#198=VERTEX_POINT('',#826);
#199=VERTEX_POINT('',#828);
#200=VERTEX_POINT('',#830);
#201=VERTEX_POINT('',#834);
#202=VERTEX_POINT('',#836);
#203=VERTEX_POINT('',#840);
#204=VERTEX_POINT('',#842);
#205=VERTEX_POINT('',#846);
#206=VERTEX_POINT('',#848);
#207=VERTEX_POINT('',#852);
#208=VERTEX_POINT('',#854);
#209=VERTEX_POINT('',#858);
#210=VERTEX_POINT('',#860);
#211=VERTEX_POINT('',#864);
#212=VERTEX_POINT('',#866);
#213=VERTEX_POINT('',#870);
#214=VERTEX_POINT('',#872);
#215=VERTEX_POINT('',#876);
#216=VERTEX_POINT('',#878);
#217=VERTEX_POINT('',#882);
#218=VERTEX_POINT('',#884);
#219=VERTEX_POINT('',#888);
#220=VERTEX_POINT('',#890);
#221=VERTEX_POINT('',#966);
#222=VERTEX_POINT('',#1002);
#223=VERTEX_POINT('',#1109);
#224=VERTEX_POINT('',#1145);
#225=VERTEX_POINT('',#1183);
#226=VERTEX_POINT('',#1185);
#227=EDGE_CURVE('',#191,#191,#183,.T.);
#228=EDGE_CURVE('',#191,#192,#99,.T.);
#229=EDGE_CURVE('',#192,#192,#184,.T.);
#230=EDGE_CURVE('',#193,#193,#185,.T.);
#231=EDGE_CURVE('',#193,#194,#100,.T.);
#232=EDGE_CURVE('',#194,#194,#186,.T.);
#233=EDGE_CURVE('',#195,#195,#41,.T.);
#234=EDGE_CURVE('',#195,#196,#101,.T.);
#235=EDGE_CURVE('',#196,#196,#42,.T.);
#236=EDGE_CURVE('',#197,#198,#102,.T.);
#237=EDGE_CURVE('',#198,#199,#103,.T.);
#238=EDGE_CURVE('',#200,#199,#104,.T.);
#239=EDGE_CURVE('',#197,#200,#105,.T.);
#240=EDGE_CURVE('',#201,#197,#106,.T.);
#241=EDGE_CURVE('',#202,#200,#107,.T.);
#242=EDGE_CURVE('',#201,#202,#108,.T.);
#243=EDGE_CURVE('',#203,#201,#109,.T.);
#244=EDGE_CURVE('',#204,#202,#110,.T.);
#245=EDGE_CURVE('',#203,#204,#111,.T.);
#246=EDGE_CURVE('',#205,#203,#112,.T.);
#247=EDGE_CURVE('',#206,#204,#113,.T.);
#248=EDGE_CURVE('',#205,#206,#114,.T.);
#249=EDGE_CURVE('',#207,#205,#115,.T.);
#250=EDGE_CURVE('',#208,#206,#116,.T.);
#251=EDGE_CURVE('',#207,#208,#117,.T.);
#252=EDGE_CURVE('',#209,#207,#118,.T.);
#253=EDGE_CURVE('',#210,#208,#119,.T.);
#254=EDGE_CURVE('',#209,#210,#120,.T.);
#255=EDGE_CURVE('',#211,#209,#121,.T.);
#256=EDGE_CURVE('',#212,#210,#122,.T.);
#257=EDGE_CURVE('',#211,#212,#123,.T.);
#258=EDGE_CURVE('',#213,#211,#124,.T.);
#259=EDGE_CURVE('',#214,#212,#125,.T.);
#260=EDGE_CURVE('',#213,#214,#126,.T.);
#261=EDGE_CURVE('',#215,#213,#127,.T.);
#262=EDGE_CURVE('',#216,#214,#128,.T.);
#263=EDGE_CURVE('',#215,#216,#129,.T.);
#264=EDGE_CURVE('',#217,#215,#130,.T.);
#265=EDGE_CURVE('',#218,#216,#131,.T.);
#266=EDGE_CURVE('',#217,#218,#132,.T.);
#267=EDGE_CURVE('',#219,#217,#133,.T.);
#268=EDGE_CURVE('',#220,#218,#134,.T.);
#269=EDGE_CURVE('',#219,#220,#135,.T.);
#270=EDGE_CURVE('',#198,#219,#136,.T.);
#271=EDGE_CURVE('',#199,#220,#137,.T.);
#272=EDGE_CURVE('',#221,#221,#187,.T.);
#273=EDGE_CURVE('',#221,#222,#138,.T.);
#274=EDGE_CURVE('',#222,#222,#188,.T.);
#275=EDGE_CURVE('',#223,#223,#189,.T.);
#276=EDGE_CURVE('',#223,#224,#139,.T.);
#277=EDGE_CURVE('',#224,#224,#190,.T.);
#278=EDGE_CURVE('',#225,#225,#43,.T.);
#279=EDGE_CURVE('',#225,#226,#140,.T.);
#280=EDGE_CURVE('',#226,#226,#44,.T.);
#281=ORIENTED_EDGE('',*,*,#227,.T.);
#282=ORIENTED_EDGE('',*,*,#228,.T.);
#283=ORIENTED_EDGE('',*,*,#229,.F.);
#284=ORIENTED_EDGE('',*,*,#228,.F.);
#285=ORIENTED_EDGE('',*,*,#230,.T.);
#286=ORIENTED_EDGE('',*,*,#231,.T.);
#287=ORIENTED_EDGE('',*,*,#232,.F.);
#288=ORIENTED_EDGE('',*,*,#231,.F.);
#289=ORIENTED_EDGE('',*,*,#233,.F.);
#290=ORIENTED_EDGE('',*,*,#234,.T.);
#291=ORIENTED_EDGE('',*,*,#235,.T.);
#292=ORIENTED_EDGE('',*,*,#234,.F.);
#293=ORIENTED_EDGE('',*,*,#236,.T.);
#294=ORIENTED_EDGE('',*,*,#237,.T.);
#295=ORIENTED_EDGE('',*,*,#238,.F.);
#296=ORIENTED_EDGE('',*,*,#239,.F.);
#297=ORIENTED_EDGE('',*,*,#240,.T.);
#298=ORIENTED_EDGE('',*,*,#239,.T.);
#299=ORIENTED_EDGE('',*,*,#241,.F.);
#300=ORIENTED_EDGE('',*,*,#242,.F.);
#301=ORIENTED_EDGE('',*,*,#243,.T.);
#302=ORIENTED_EDGE('',*,*,#242,.T.);
#303=ORIENTED_EDGE('',*,*,#244,.F.);
#304=ORIENTED_EDGE('',*,*,#245,.F.);
#305=ORIENTED_EDGE('',*,*,#246,.T.);
#306=ORIENTED_EDGE('',*,*,#245,.T.);
#307=ORIENTED_EDGE('',*,*,#247,.F.);
#308=ORIENTED_EDGE('',*,*,#248,.F.);
#309=ORIENTED_EDGE('',*,*,#249,.T.);
#310=ORIENTED_EDGE('',*,*,#248,.T.);
#311=ORIENTED_EDGE('',*,*,#250,.F.);
#312=ORIENTED_EDGE('',*,*,#251,.F.);
#313=ORIENTED_EDGE('',*,*,#252,.T.);
#314=ORIENTED_EDGE('',*,*,#251,.T.);
#315=ORIENTED_EDGE('',*,*,#253,.F.);
#316=ORIENTED_EDGE('',*,*,#254,.F.);
#317=ORIENTED_EDGE('',*,*,#255,.T.);
#318=ORIENTED_EDGE('',*,*,#254,.T.);
#319=ORIENTED_EDGE('',*,*,#256,.F.);
#320=ORIENTED_EDGE('',*,*,#257,.F.);
#321=ORIENTED_EDGE('',*,*,#258,.T.);
#322=ORIENTED_EDGE('',*,*,#257,.T.);
#323=ORIENTED_EDGE('',*,*,#259,.F.);
#324=ORIENTED_EDGE('',*,*,#260,.F.);
#325=ORIENTED_EDGE('',*,*,#261,.T.);
#326=ORIENTED_EDGE('',*,*,#260,.T.);
#327=ORIENTED_EDGE('',*,*,#262,.F.);
#328=ORIENTED_EDGE('',*,*,#263,.F.);
#329=ORIENTED_EDGE('',*,*,#264,.T.);
#330=ORIENTED_EDGE('',*,*,#263,.T.);
#331=ORIENTED_EDGE('',*,*,#265,.F.);
#332=ORIENTED_EDGE('',*,*,#266,.F.);
#333=ORIENTED_EDGE('',*,*,#267,.T.);
#334=ORIENTED_EDGE('',*,*,#266,.T.);
#335=ORIENTED_EDGE('',*,*,#268,.F.);
#336=ORIENTED_EDGE('',*,*,#269,.F.);
#337=ORIENTED_EDGE('',*,*,#270,.T.);
#338=ORIENTED_EDGE('',*,*,#269,.T.);
#339=ORIENTED_EDGE('',*,*,#271,.F.);
#340=ORIENTED_EDGE('',*,*,#237,.F.);
#341=ORIENTED_EDGE('',*,*,#272,.T.);
#342=ORIENTED_EDGE('',*,*,#273,.T.);
#343=ORIENTED_EDGE('',*,*,#274,.F.);
#344=ORIENTED_EDGE('',*,*,#273,.F.);
#345=ORIENTED_EDGE('',*,*,#275,.T.);
#346=ORIENTED_EDGE('',*,*,#276,.T.);
#347=ORIENTED_EDGE('',*,*,#277,.F.);
#348=ORIENTED_EDGE('',*,*,#276,.F.);
#349=ORIENTED_EDGE('',*,*,#278,.F.);
#350=ORIENTED_EDGE('',*,*,#279,.T.);
#351=ORIENTED_EDGE('',*,*,#280,.T.);
#352=ORIENTED_EDGE('',*,*,#279,.F.);
#353=ORIENTED_EDGE('',*,*,#278,.T.);
#354=ORIENTED_EDGE('',*,*,#277,.T.);
#355=ORIENTED_EDGE('',*,*,#274,.T.);
#356=ORIENTED_EDGE('',*,*,#271,.T.);
#357=ORIENTED_EDGE('',*,*,#268,.T.);
#358=ORIENTED_EDGE('',*,*,#265,.T.);
#359=ORIENTED_EDGE('',*,*,#262,.T.);
#360=ORIENTED_EDGE('',*,*,#259,.T.);
#361=ORIENTED_EDGE('',*,*,#256,.T.);
#362=ORIENTED_EDGE('',*,*,#253,.T.);
#363=ORIENTED_EDGE('',*,*,#250,.T.);
#364=ORIENTED_EDGE('',*,*,#247,.T.);
#365=ORIENTED_EDGE('',*,*,#244,.T.);
#366=ORIENTED_EDGE('',*,*,#241,.T.);
#367=ORIENTED_EDGE('',*,*,#238,.T.);
#368=ORIENTED_EDGE('',*,*,#233,.T.);
#369=ORIENTED_EDGE('',*,*,#232,.T.);
#370=ORIENTED_EDGE('',*,*,#229,.T.);
#371=ORIENTED_EDGE('',*,*,#280,.F.);
#372=ORIENTED_EDGE('',*,*,#275,.F.);
#373=ORIENTED_EDGE('',*,*,#272,.F.);
#374=ORIENTED_EDGE('',*,*,#270,.F.);
#375=ORIENTED_EDGE('',*,*,#236,.F.);
#376=ORIENTED_EDGE('',*,*,#240,.F.);
#377=ORIENTED_EDGE('',*,*,#243,.F.);
#378=ORIENTED_EDGE('',*,*,#246,.F.);
#379=ORIENTED_EDGE('',*,*,#249,.F.);
#380=ORIENTED_EDGE('',*,*,#252,.F.);
#381=ORIENTED_EDGE('',*,*,#255,.F.);
#382=ORIENTED_EDGE('',*,*,#258,.F.);
#383=ORIENTED_EDGE('',*,*,#261,.F.);
#384=ORIENTED_EDGE('',*,*,#264,.F.);
#385=ORIENTED_EDGE('',*,*,#267,.F.);
#386=ORIENTED_EDGE('',*,*,#235,.F.);
#387=ORIENTED_EDGE('',*,*,#230,.F.);
#388=ORIENTED_EDGE('',*,*,#227,.F.);
#389=(
BOUNDED_SURFACE()
B_SPLINE_SURFACE(5,1,((#532,#533),(#534,#535),(#536,#537),(#538,#539),(#540,
#541),(#542,#543),(#544,#545),(#546,#547),(#548,#549),(#550,#551),(#552,
#553),(#554,#555),(#556,#557),(#558,#559),(#560,#561),(#562,#563),(#564,
#565),(#566,#567),(#568,#569),(#570,#571),(#572,#573),(#574,#575),(#576,
#577),(#578,#579),(#580,#581),(#582,#583),(#584,#585),(#586,#587),(#588,
#589),(#590,#591),(#592,#593),(#594,#595),(#596,#597),(#598,#599),(#600,
#601)),.UNSPECIFIED.,.T.,.F.,.F.)
B_SPLINE_SURFACE_WITH_KNOTS((6,1,1,1,1,1,1,1,1,1,1,1,1,1,1,1,1,1,1,1,1,
1,1,1,1,1,1,1,1,1,6),(2,2),(-1.,-0.966666666666667,-0.933333333333333,-0.9,
-0.866666666666667,-0.833333333333333,-0.8,-0.766666666666667,-0.733333333333333,
-0.7,-0.666666666666667,-0.633333333333333,-0.6,-0.566666666666667,-0.533333333333333,
-0.5,-0.466666666666667,-0.433333333333333,-0.4,-0.366666666666667,-0.333333333333333,
-0.3,-0.266666666666667,-0.233333333333333,-0.2,-0.166666666666667,-0.133333333333333,
-0.1,-0.0666666666666667,-0.0333333333333333,0.),(0.,0.4),.UNSPECIFIED.)
GEOMETRIC_REPRESENTATION_ITEM()
RATIONAL_B_SPLINE_SURFACE(((1.,1.),(1.,1.),(1.,1.),(1.,1.),(1.,1.),(1.,
1.),(1.,1.),(1.,1.),(1.,1.),(1.,1.),(1.,1.),(1.,1.),(1.,1.),(1.,1.),(1.,
1.),(1.,1.),(1.,1.),(1.,1.),(1.,1.),(1.,1.),(1.,1.),(1.,1.),(1.,1.),(1.,
1.),(1.,1.),(1.,1.),(1.,1.),(1.,1.),(1.,1.),(1.,1.),(1.,1.),(1.,1.),(1.,
1.),(1.,1.),(1.,1.)))
REPRESENTATION_ITEM('')
SURFACE()
);
#390=(
BOUNDED_SURFACE()
B_SPLINE_SURFACE(5,1,((#675,#676),(#677,#678),(#679,#680),(#681,#682),(#683,
#684),(#685,#686),(#687,#688),(#689,#690),(#691,#692),(#693,#694),(#695,
#696),(#697,#698),(#699,#700),(#701,#702),(#703,#704),(#705,#706),(#707,
#708),(#709,#710),(#711,#712),(#713,#714),(#715,#716),(#717,#718),(#719,
#720),(#721,#722),(#723,#724),(#725,#726),(#727,#728),(#729,#730),(#731,
#732),(#733,#734),(#735,#736),(#737,#738),(#739,#740),(#741,#742),(#743,
#744)),.UNSPECIFIED.,.T.,.F.,.F.)
B_SPLINE_SURFACE_WITH_KNOTS((6,1,1,1,1,1,1,1,1,1,1,1,1,1,1,1,1,1,1,1,1,
1,1,1,1,1,1,1,1,1,6),(2,2),(0.,0.0333333333333333,0.0666666666666667,0.1,
0.133333333333333,0.166666666666667,0.2,0.233333333333333,0.266666666666667,
0.3,0.333333333333333,0.366666666666667,0.4,0.433333333333333,0.466666666666667,
0.5,0.533333333333333,0.566666666666667,0.6,0.633333333333333,0.666666666666667,
0.7,0.733333333333333,0.766666666666667,0.8,0.833333333333333,0.866666666666667,
0.9,0.933333333333333,0.966666666666667,1.),(0.,0.4),.UNSPECIFIED.)
GEOMETRIC_REPRESENTATION_ITEM()
RATIONAL_B_SPLINE_SURFACE(((1.,1.),(1.,1.),(1.,1.),(1.,1.),(1.,1.),(1.,
1.),(1.,1.),(1.,1.),(1.,1.),(1.,1.),(1.,1.),(1.,1.),(1.,1.),(1.,1.),(1.,
1.),(1.,1.),(1.,1.),(1.,1.),(1.,1.),(1.,1.),(1.,1.),(1.,1.),(1.,1.),(1.,
1.),(1.,1.),(1.,1.),(1.,1.),(1.,1.),(1.,1.),(1.,1.),(1.,1.),(1.,1.),(1.,
1.),(1.,1.),(1.,1.)))
REPRESENTATION_ITEM('')
SURFACE()
);
#391=(
BOUNDED_SURFACE()
B_SPLINE_SURFACE(5,1,((#896,#897),(#898,#899),(#900,#901),(#902,#903),(#904,
#905),(#906,#907),(#908,#909),(#910,#911),(#912,#913),(#914,#915),(#916,
#917),(#918,#919),(#920,#921),(#922,#923),(#924,#925),(#926,#927),(#928,
#929),(#930,#931),(#932,#933),(#934,#935),(#936,#937),(#938,#939),(#940,
#941),(#942,#943),(#944,#945),(#946,#947),(#948,#949),(#950,#951),(#952,
#953),(#954,#955),(#956,#957),(#958,#959),(#960,#961),(#962,#963),(#964,
#965)),.UNSPECIFIED.,.T.,.F.,.F.)
B_SPLINE_SURFACE_WITH_KNOTS((6,1,1,1,1,1,1,1,1,1,1,1,1,1,1,1,1,1,1,1,1,
1,1,1,1,1,1,1,1,1,6),(2,2),(0.,0.0333333333333333,0.0666666666666667,0.1,
0.133333333333333,0.166666666666667,0.2,0.233333333333333,0.266666666666667,
0.3,0.333333333333333,0.366666666666667,0.4,0.433333333333333,0.466666666666667,
0.5,0.533333333333333,0.566666666666667,0.6,0.633333333333333,0.666666666666667,
0.7,0.733333333333333,0.766666666666667,0.8,0.833333333333333,0.866666666666667,
0.9,0.933333333333333,0.966666666666667,1.),(0.,0.4),.UNSPECIFIED.)
GEOMETRIC_REPRESENTATION_ITEM()
RATIONAL_B_SPLINE_SURFACE(((1.,1.),(1.,1.),(1.,1.),(1.,1.),(1.,1.),(1.,
1.),(1.,1.),(1.,1.),(1.,1.),(1.,1.),(1.,1.),(1.,1.),(1.,1.),(1.,1.),(1.,
1.),(1.,1.),(1.,1.),(1.,1.),(1.,1.),(1.,1.),(1.,1.),(1.,1.),(1.,1.),(1.,
1.),(1.,1.),(1.,1.),(1.,1.),(1.,1.),(1.,1.),(1.,1.),(1.,1.),(1.,1.),(1.,
1.),(1.,1.),(1.,1.)))
REPRESENTATION_ITEM('')
SURFACE()
);
#392=(
BOUNDED_SURFACE()
B_SPLINE_SURFACE(5,1,((#1039,#1040),(#1041,#1042),(#1043,#1044),(#1045,
#1046),(#1047,#1048),(#1049,#1050),(#1051,#1052),(#1053,#1054),(#1055,#1056),
(#1057,#1058),(#1059,#1060),(#1061,#1062),(#1063,#1064),(#1065,#1066),(#1067,
#1068),(#1069,#1070),(#1071,#1072),(#1073,#1074),(#1075,#1076),(#1077,#1078),
(#1079,#1080),(#1081,#1082),(#1083,#1084),(#1085,#1086),(#1087,#1088),(#1089,
#1090),(#1091,#1092),(#1093,#1094),(#1095,#1096),(#1097,#1098),(#1099,#1100),
(#1101,#1102),(#1103,#1104),(#1105,#1106),(#1107,#1108)),.UNSPECIFIED.,
 .T.,.F.,.F.)
B_SPLINE_SURFACE_WITH_KNOTS((6,1,1,1,1,1,1,1,1,1,1,1,1,1,1,1,1,1,1,1,1,
1,1,1,1,1,1,1,1,1,6),(2,2),(-1.,-0.966666666666667,-0.933333333333333,-0.9,
-0.866666666666667,-0.833333333333333,-0.8,-0.766666666666667,-0.733333333333333,
-0.7,-0.666666666666667,-0.633333333333333,-0.6,-0.566666666666667,-0.533333333333333,
-0.5,-0.466666666666667,-0.433333333333333,-0.4,-0.366666666666667,-0.333333333333333,
-0.3,-0.266666666666667,-0.233333333333333,-0.2,-0.166666666666667,-0.133333333333333,
-0.1,-0.0666666666666667,-0.0333333333333333,0.),(0.,0.4),.UNSPECIFIED.)
GEOMETRIC_REPRESENTATION_ITEM()
RATIONAL_B_SPLINE_SURFACE(((1.,1.),(1.,1.),(1.,1.),(1.,1.),(1.,1.),(1.,
1.),(1.,1.),(1.,1.),(1.,1.),(1.,1.),(1.,1.),(1.,1.),(1.,1.),(1.,1.),(1.,
1.),(1.,1.),(1.,1.),(1.,1.),(1.,1.),(1.,1.),(1.,1.),(1.,1.),(1.,1.),(1.,
1.),(1.,1.),(1.,1.),(1.,1.),(1.,1.),(1.,1.),(1.,1.),(1.,1.),(1.,1.),(1.,
1.),(1.,1.),(1.,1.)))
REPRESENTATION_ITEM('')
SURFACE()
);
#393=ADVANCED_FACE('',(#47),#389,.T.);
#394=ADVANCED_FACE('',(#48),#390,.T.);
#395=ADVANCED_FACE('',(#49),#45,.F.);
#396=ADVANCED_FACE('',(#50),#27,.T.);
#397=ADVANCED_FACE('',(#51),#28,.T.);
#398=ADVANCED_FACE('',(#52),#29,.T.);
#399=ADVANCED_FACE('',(#53),#30,.T.);
#400=ADVANCED_FACE('',(#54),#31,.T.);
#401=ADVANCED_FACE('',(#55),#32,.T.);
#402=ADVANCED_FACE('',(#56),#33,.T.);
#403=ADVANCED_FACE('',(#57),#34,.T.);
#404=ADVANCED_FACE('',(#58),#35,.T.);
#405=ADVANCED_FACE('',(#59),#36,.T.);
#406=ADVANCED_FACE('',(#60),#37,.T.);
#407=ADVANCED_FACE('',(#61),#38,.T.);
#408=ADVANCED_FACE('',(#62),#391,.T.);
#409=ADVANCED_FACE('',(#63),#392,.T.);
#410=ADVANCED_FACE('',(#64),#46,.T.);
#411=ADVANCED_FACE('',(#65,#15,#16,#17,#18,#19,#20),#39,.T.);
#412=ADVANCED_FACE('',(#66,#21,#22,#23,#24,#25,#26),#40,.F.);
#413=CLOSED_SHELL('',(#393,#394,#395,#396,#397,#398,#399,#400,#401,#402,
#403,#404,#405,#406,#407,#408,#409,#410,#411,#412));
#414=DERIVED_UNIT_ELEMENT(#416,1.);
#415=DERIVED_UNIT_ELEMENT(#1195,-3.);
#416=(
MASS_UNIT()
NAMED_UNIT(*)
SI_UNIT(.KILO.,.GRAM.)
);
#417=DERIVED_UNIT((#414,#415));
#418=MEASURE_REPRESENTATION_ITEM('density measure',
POSITIVE_RATIO_MEASURE(7850.),#417);
#419=PROPERTY_DEFINITION_REPRESENTATION(#424,#421);
#420=PROPERTY_DEFINITION_REPRESENTATION(#425,#422);
#421=REPRESENTATION('material name',(#423),#1192);
#422=REPRESENTATION('density',(#418),#1192);
#423=DESCRIPTIVE_REPRESENTATION_ITEM('Steel','Steel');
#424=PROPERTY_DEFINITION('material property','material name',#1202);
#425=PROPERTY_DEFINITION('material property','density of part',#1202);
#426=AXIS2_PLACEMENT_3D('',#531,#447,#448);
#427=AXIS2_PLACEMENT_3D('',#818,#451,#452);
#428=AXIS2_PLACEMENT_3D('',#820,#453,#454);
#429=AXIS2_PLACEMENT_3D('',#823,#456,#457);
#430=AXIS2_PLACEMENT_3D('',#824,#458,#459);
#431=AXIS2_PLACEMENT_3D('',#833,#464,#465);
#432=AXIS2_PLACEMENT_3D('',#839,#469,#470);
#433=AXIS2_PLACEMENT_3D('',#845,#474,#475);
#434=AXIS2_PLACEMENT_3D('',#851,#479,#480);
#435=AXIS2_PLACEMENT_3D('',#857,#484,#485);
#436=AXIS2_PLACEMENT_3D('',#863,#489,#490);
#437=AXIS2_PLACEMENT_3D('',#869,#494,#495);
#438=AXIS2_PLACEMENT_3D('',#875,#499,#500);
#439=AXIS2_PLACEMENT_3D('',#881,#504,#505);
#440=AXIS2_PLACEMENT_3D('',#887,#509,#510);
#441=AXIS2_PLACEMENT_3D('',#893,#514,#515);
#442=AXIS2_PLACEMENT_3D('',#1182,#520,#521);
#443=AXIS2_PLACEMENT_3D('',#1184,#522,#523);
#444=AXIS2_PLACEMENT_3D('',#1187,#525,#526);
#445=AXIS2_PLACEMENT_3D('',#1188,#527,#528);
#446=AXIS2_PLACEMENT_3D('',#1189,#529,#530);
#447=DIRECTION('axis',(0.,0.,1.));
#448=DIRECTION('refdir',(1.,0.,0.));
#449=DIRECTION('',(0.,1.,0.));
#450=DIRECTION('',(0.,1.,0.));
#451=DIRECTION('center_axis',(0.,1.,0.));
#452=DIRECTION('ref_axis',(1.,0.,0.));
#453=DIRECTION('center_axis',(0.,-1.,0.));
#454=DIRECTION('ref_axis',(1.,0.,0.));
#455=DIRECTION('',(0.,-1.,0.));
#456=DIRECTION('center_axis',(0.,-1.,0.));
#457=DIRECTION('ref_axis',(1.,0.,0.));
#458=DIRECTION('center_axis',(4.2700885562506E-17,0.,1.));
#459=DIRECTION('ref_axis',(1.,0.,-4.2700885562506E-17));
#460=DIRECTION('',(1.,0.,-4.2700885562506E-17));
#461=DIRECTION('',(0.,1.,0.));
#462=DIRECTION('',(1.,0.,-4.2700885562506E-17));
#463=DIRECTION('',(0.,1.,0.));
#464=DIRECTION('center_axis',(-1.,0.,0.));
#465=DIRECTION('ref_axis',(0.,0.,1.));
#466=DIRECTION('',(0.,0.,1.));
#467=DIRECTION('',(0.,0.,1.));
#468=DIRECTION('',(0.,1.,0.));
#469=DIRECTION('center_axis',(3.46944695195361E-16,0.,1.));
#470=DIRECTION('ref_axis',(1.,0.,-3.46944695195361E-16));
#471=DIRECTION('',(1.,0.,-3.46944695195361E-16));
#472=DIRECTION('',(1.,0.,-3.46944695195361E-16));
#473=DIRECTION('',(0.,1.,0.));
#474=DIRECTION('center_axis',(1.,0.,1.28102656687518E-16));
#475=DIRECTION('ref_axis',(1.28102656687518E-16,0.,-1.));
#476=DIRECTION('',(1.28102656687518E-16,0.,-1.));
#477=DIRECTION('',(1.28102656687518E-16,0.,-1.));
#478=DIRECTION('',(0.,1.,0.));
#479=DIRECTION('center_axis',(4.2700885562506E-17,0.,1.));
#480=DIRECTION('ref_axis',(1.,0.,-4.2700885562506E-17));
#481=DIRECTION('',(1.,0.,-4.2700885562506E-17));
#482=DIRECTION('',(1.,0.,-4.2700885562506E-17));
#483=DIRECTION('',(0.,1.,0.));
#484=DIRECTION('center_axis',(1.,0.,5.20417042793042E-16));
#485=DIRECTION('ref_axis',(5.20417042793042E-16,0.,-1.));
#486=DIRECTION('',(5.20417042793042E-16,0.,-1.));
#487=DIRECTION('',(5.20417042793042E-16,0.,-1.));
#488=DIRECTION('',(0.,1.,0.));
#489=DIRECTION('center_axis',(0.,0.,-1.));
#490=DIRECTION('ref_axis',(-1.,0.,0.));
#491=DIRECTION('',(-1.,0.,0.));
#492=DIRECTION('',(-1.,0.,0.));
#493=DIRECTION('',(0.,1.,0.));
#494=DIRECTION('center_axis',(1.,0.,1.28102656687518E-16));
#495=DIRECTION('ref_axis',(1.28102656687518E-16,0.,-1.));
#496=DIRECTION('',(1.28102656687518E-16,0.,-1.));
#497=DIRECTION('',(1.28102656687518E-16,0.,-1.));
#498=DIRECTION('',(0.,1.,0.));
#499=DIRECTION('center_axis',(-3.46944695195361E-16,0.,-1.));
#500=DIRECTION('ref_axis',(-1.,0.,3.46944695195361E-16));
#501=DIRECTION('',(-1.,0.,3.46944695195361E-16));
#502=DIRECTION('',(-1.,0.,3.46944695195361E-16));
#503=DIRECTION('',(0.,1.,0.));
#504=DIRECTION('center_axis',(-1.,0.,0.));
#505=DIRECTION('ref_axis',(0.,0.,1.));
#506=DIRECTION('',(0.,0.,1.));
#507=DIRECTION('',(0.,0.,1.));
#508=DIRECTION('',(0.,1.,0.));
#509=DIRECTION('center_axis',(0.,0.,-1.));
#510=DIRECTION('ref_axis',(-1.,0.,0.));
#511=DIRECTION('',(-1.,0.,0.));
#512=DIRECTION('',(-1.,0.,0.));
#513=DIRECTION('',(0.,1.,0.));
#514=DIRECTION('center_axis',(-1.,0.,1.73472347597681E-16));
#515=DIRECTION('ref_axis',(1.73472347597681E-16,0.,1.));
#516=DIRECTION('',(1.73472347597681E-16,0.,1.));
#517=DIRECTION('',(1.73472347597681E-16,0.,1.));
#518=DIRECTION('',(0.,1.,0.));
#519=DIRECTION('',(0.,1.,0.));
#520=DIRECTION('center_axis',(0.,1.,0.));
#521=DIRECTION('ref_axis',(1.,0.,0.));
#522=DIRECTION('center_axis',(0.,1.,0.));
#523=DIRECTION('ref_axis',(1.,0.,0.));
#524=DIRECTION('',(0.,-1.,0.));
#525=DIRECTION('center_axis',(0.,1.,0.));
#526=DIRECTION('ref_axis',(1.,0.,0.));
#527=DIRECTION('center_axis',(0.,1.,0.));
#528=DIRECTION('ref_axis',(1.,0.,0.));
#529=DIRECTION('center_axis',(0.,1.,0.));
#530=DIRECTION('ref_axis',(1.,0.,0.));
#531=CARTESIAN_POINT('',(0.,0.,0.));
#532=CARTESIAN_POINT('Ctrl Pts',(7.03068470004184,0.,7.1112216003017));
#533=CARTESIAN_POINT('Ctrl Pts',(7.03068470004184,4.,7.1112216003017));
#534=CARTESIAN_POINT('Ctrl Pts',(7.48740555616545,0.,6.65256836764976));
#535=CARTESIAN_POINT('Ctrl Pts',(7.48740555616545,4.,6.65256836764976));
#536=CARTESIAN_POINT('Ctrl Pts',(8.47366567371491,0.,5.80830725757955));
#537=CARTESIAN_POINT('Ctrl Pts',(8.47366567371491,4.,5.80830725757955));
#538=CARTESIAN_POINT('Ctrl Pts',(10.1626063447773,0.,4.7700645308434));
#539=CARTESIAN_POINT('Ctrl Pts',(10.1626063447773,4.,4.7700645308434));
#540=CARTESIAN_POINT('Ctrl Pts',(12.7778746728133,0.,3.85670532781965));
#541=CARTESIAN_POINT('Ctrl Pts',(12.7778746728133,4.,3.85670532781965));
#542=CARTESIAN_POINT('Ctrl Pts',(16.4445941697883,0.,3.46009015929684));
#543=CARTESIAN_POINT('Ctrl Pts',(16.4445941697883,4.,3.46009015929684));
#544=CARTESIAN_POINT('Ctrl Pts',(20.263444494278,0.,3.72125818083614));
#545=CARTESIAN_POINT('Ctrl Pts',(20.263444494278,4.,3.72125818083614));
#546=CARTESIAN_POINT('Ctrl Pts',(23.9834039071755,0.,4.53576496626449));
#547=CARTESIAN_POINT('Ctrl Pts',(23.9834039071755,4.,4.53576496626449));
#548=CARTESIAN_POINT('Ctrl Pts',(27.3769580718909,0.,5.80850425993431));
#549=CARTESIAN_POINT('Ctrl Pts',(27.3769580718909,4.,5.80850425993431));
#550=CARTESIAN_POINT('Ctrl Pts',(30.2766594314561,0.,7.48920230909669));
#551=CARTESIAN_POINT('Ctrl Pts',(30.2766594314561,4.,7.48920230909669));
#552=CARTESIAN_POINT('Ctrl Pts',(32.5754799397535,0.,9.56332948134537));
#553=CARTESIAN_POINT('Ctrl Pts',(32.5754799397535,4.,9.56332948134537));
#554=CARTESIAN_POINT('Ctrl Pts',(34.2114145862327,0.,12.0234428708087));
#555=CARTESIAN_POINT('Ctrl Pts',(34.2114145862327,4.,12.0234428708087));
#556=CARTESIAN_POINT('Ctrl Pts',(35.1575308644535,0.,14.8466352080603));
#557=CARTESIAN_POINT('Ctrl Pts',(35.1575308644535,4.,14.8466352080603));
#558=CARTESIAN_POINT('Ctrl Pts',(35.4102961251554,0.,17.9696602624073));
#559=CARTESIAN_POINT('Ctrl Pts',(35.4102961251554,4.,17.9696602624073));
#560=CARTESIAN_POINT('Ctrl Pts',(34.9786985410443,0.,21.2637164735121));
#561=CARTESIAN_POINT('Ctrl Pts',(34.9786985410443,4.,21.2637164735121));
#562=CARTESIAN_POINT('Ctrl Pts',(33.8878352993402,0.,24.558192197742));
#563=CARTESIAN_POINT('Ctrl Pts',(33.8878352993402,4.,24.558192197742));
#564=CARTESIAN_POINT('Ctrl Pts',(32.1831096990002,0.,27.6653877179341));
#565=CARTESIAN_POINT('Ctrl Pts',(32.1831096990002,4.,27.6653877179341));
#566=CARTESIAN_POINT('Ctrl Pts',(29.9347031714943,0.,30.4050868832702));
#567=CARTESIAN_POINT('Ctrl Pts',(29.9347031714943,4.,30.4050868832702));
#568=CARTESIAN_POINT('Ctrl Pts',(27.2417288217472,0.,32.6282906374116));
#569=CARTESIAN_POINT('Ctrl Pts',(27.2417288217472,4.,32.6282906374116));
#570=CARTESIAN_POINT('Ctrl Pts',(24.2382553758554,0.,34.2440633469938));
#571=CARTESIAN_POINT('Ctrl Pts',(24.2382553758554,4.,34.2440633469938));
#572=CARTESIAN_POINT('Ctrl Pts',(21.0780200245089,0.,35.2082427047406));
#573=CARTESIAN_POINT('Ctrl Pts',(21.0780200245089,4.,35.2082427047406));
#574=CARTESIAN_POINT('Ctrl Pts',(17.9171269243931,0.,35.5086528669111));
#575=CARTESIAN_POINT('Ctrl Pts',(17.9171269243931,4.,35.5086528669111));
#576=CARTESIAN_POINT('Ctrl Pts',(14.8976459836015,0.,35.1520514096328));
#577=CARTESIAN_POINT('Ctrl Pts',(14.8976459836015,4.,35.1520514096328));
#578=CARTESIAN_POINT('Ctrl Pts',(12.1305761115414,0.,34.1504779997925));
#579=CARTESIAN_POINT('Ctrl Pts',(12.1305761115414,4.,34.1504779997925));
#580=CARTESIAN_POINT('Ctrl Pts',(9.67937466986512,0.,32.5085636395615));
#581=CARTESIAN_POINT('Ctrl Pts',(9.67937466986512,4.,32.5085636395615));
#582=CARTESIAN_POINT('Ctrl Pts',(7.57872431229344,0.,30.2408800635795));
#583=CARTESIAN_POINT('Ctrl Pts',(7.57872431229344,4.,30.2408800635795));
#584=CARTESIAN_POINT('Ctrl Pts',(5.85358690071634,0.,27.3902002068262));
#585=CARTESIAN_POINT('Ctrl Pts',(5.85358690071634,4.,27.3902002068262));
#586=CARTESIAN_POINT('Ctrl Pts',(4.53619280978819,0.,24.0435954575411));
#587=CARTESIAN_POINT('Ctrl Pts',(4.53619280978819,4.,24.0435954575411));
#588=CARTESIAN_POINT('Ctrl Pts',(3.68801427836614,0.,20.3548893339122));
#589=CARTESIAN_POINT('Ctrl Pts',(3.68801427836614,4.,20.3548893339122));
#590=CARTESIAN_POINT('Ctrl Pts',(3.40613570384019,0.,16.5487094099051));
#591=CARTESIAN_POINT('Ctrl Pts',(3.40613570384019,4.,16.5487094099051));
#592=CARTESIAN_POINT('Ctrl Pts',(3.79186956981406,0.,12.8795554363852));
#593=CARTESIAN_POINT('Ctrl Pts',(3.79186956981406,4.,12.8795554363852));
#594=CARTESIAN_POINT('Ctrl Pts',(4.69976551363072,0.,10.2558775773299));
#595=CARTESIAN_POINT('Ctrl Pts',(4.69976551363072,4.,10.2558775773299));
#596=CARTESIAN_POINT('Ctrl Pts',(5.73334053697327,0.,8.56022665349117));
#597=CARTESIAN_POINT('Ctrl Pts',(5.73334053697327,4.,8.56022665349117));
#598=CARTESIAN_POINT('Ctrl Pts',(6.57396384391824,0.,7.56987483295364));
#599=CARTESIAN_POINT('Ctrl Pts',(6.57396384391824,4.,7.56987483295364));
#600=CARTESIAN_POINT('Ctrl Pts',(7.03068470004184,0.,7.1112216003017));
#601=CARTESIAN_POINT('Ctrl Pts',(7.03068470004184,4.,7.1112216003017));
#602=CARTESIAN_POINT('',(7.03068470004184,0.,7.1112216003017));
#603=CARTESIAN_POINT('Ctrl Pts',(7.03068470004184,0.,7.1112216003017));
#604=CARTESIAN_POINT('Ctrl Pts',(7.48740555616545,0.,6.65256836764976));
#605=CARTESIAN_POINT('Ctrl Pts',(8.47366567371491,0.,5.80830725757955));
#606=CARTESIAN_POINT('Ctrl Pts',(10.1626063447773,0.,4.7700645308434));
#607=CARTESIAN_POINT('Ctrl Pts',(12.7778746728133,0.,3.85670532781965));
#608=CARTESIAN_POINT('Ctrl Pts',(16.4445941697883,0.,3.46009015929684));
#609=CARTESIAN_POINT('Ctrl Pts',(20.263444494278,0.,3.72125818083614));
#610=CARTESIAN_POINT('Ctrl Pts',(23.9834039071755,0.,4.53576496626449));
#611=CARTESIAN_POINT('Ctrl Pts',(27.3769580718909,0.,5.80850425993431));
#612=CARTESIAN_POINT('Ctrl Pts',(30.2766594314561,0.,7.48920230909669));
#613=CARTESIAN_POINT('Ctrl Pts',(32.5754799397535,0.,9.56332948134537));
#614=CARTESIAN_POINT('Ctrl Pts',(34.2114145862327,0.,12.0234428708087));
#615=CARTESIAN_POINT('Ctrl Pts',(35.1575308644535,0.,14.8466352080603));
#616=CARTESIAN_POINT('Ctrl Pts',(35.4102961251554,0.,17.9696602624073));
#617=CARTESIAN_POINT('Ctrl Pts',(34.9786985410443,0.,21.2637164735121));
#618=CARTESIAN_POINT('Ctrl Pts',(33.8878352993402,0.,24.558192197742));
#619=CARTESIAN_POINT('Ctrl Pts',(32.1831096990002,0.,27.6653877179341));
#620=CARTESIAN_POINT('Ctrl Pts',(29.9347031714943,0.,30.4050868832702));
#621=CARTESIAN_POINT('Ctrl Pts',(27.2417288217472,0.,32.6282906374116));
#622=CARTESIAN_POINT('Ctrl Pts',(24.2382553758554,0.,34.2440633469938));
#623=CARTESIAN_POINT('Ctrl Pts',(21.0780200245089,0.,35.2082427047406));
#624=CARTESIAN_POINT('Ctrl Pts',(17.9171269243931,0.,35.5086528669111));
#625=CARTESIAN_POINT('Ctrl Pts',(14.8976459836015,0.,35.1520514096328));
#626=CARTESIAN_POINT('Ctrl Pts',(12.1305761115414,0.,34.1504779997925));
#627=CARTESIAN_POINT('Ctrl Pts',(9.67937466986512,0.,32.5085636395615));
#628=CARTESIAN_POINT('Ctrl Pts',(7.57872431229344,0.,30.2408800635795));
#629=CARTESIAN_POINT('Ctrl Pts',(5.85358690071634,0.,27.3902002068262));
#630=CARTESIAN_POINT('Ctrl Pts',(4.53619280978819,0.,24.0435954575411));
#631=CARTESIAN_POINT('Ctrl Pts',(3.68801427836614,0.,20.3548893339122));
#632=CARTESIAN_POINT('Ctrl Pts',(3.40613570384019,0.,16.5487094099051));
#633=CARTESIAN_POINT('Ctrl Pts',(3.79186956981406,0.,12.8795554363852));
#634=CARTESIAN_POINT('Ctrl Pts',(4.69976551363072,0.,10.2558775773299));
#635=CARTESIAN_POINT('Ctrl Pts',(5.73334053697327,0.,8.56022665349117));
#636=CARTESIAN_POINT('Ctrl Pts',(6.57396384391824,0.,7.56987483295364));
#637=CARTESIAN_POINT('Ctrl Pts',(7.03068470004184,0.,7.1112216003017));
#638=CARTESIAN_POINT('',(7.03068470004184,4.,7.1112216003017));
#639=CARTESIAN_POINT('',(7.03068470004184,0.,7.1112216003017));
#640=CARTESIAN_POINT('Ctrl Pts',(7.03068470004184,4.,7.1112216003017));
#641=CARTESIAN_POINT('Ctrl Pts',(7.48740555616545,4.,6.65256836764976));
#642=CARTESIAN_POINT('Ctrl Pts',(8.47366567371491,4.,5.80830725757955));
#643=CARTESIAN_POINT('Ctrl Pts',(10.1626063447773,4.,4.7700645308434));
#644=CARTESIAN_POINT('Ctrl Pts',(12.7778746728133,4.,3.85670532781965));
#645=CARTESIAN_POINT('Ctrl Pts',(16.4445941697883,4.,3.46009015929684));
#646=CARTESIAN_POINT('Ctrl Pts',(20.263444494278,4.,3.72125818083614));
#647=CARTESIAN_POINT('Ctrl Pts',(23.9834039071755,4.,4.53576496626449));
#648=CARTESIAN_POINT('Ctrl Pts',(27.3769580718909,4.,5.80850425993431));
#649=CARTESIAN_POINT('Ctrl Pts',(30.2766594314561,4.,7.48920230909669));
#650=CARTESIAN_POINT('Ctrl Pts',(32.5754799397535,4.,9.56332948134537));
#651=CARTESIAN_POINT('Ctrl Pts',(34.2114145862327,4.,12.0234428708087));
#652=CARTESIAN_POINT('Ctrl Pts',(35.1575308644535,4.,14.8466352080603));
#653=CARTESIAN_POINT('Ctrl Pts',(35.4102961251554,4.,17.9696602624073));
#654=CARTESIAN_POINT('Ctrl Pts',(34.9786985410443,4.,21.2637164735121));
#655=CARTESIAN_POINT('Ctrl Pts',(33.8878352993402,4.,24.558192197742));
#656=CARTESIAN_POINT('Ctrl Pts',(32.1831096990002,4.,27.6653877179341));
#657=CARTESIAN_POINT('Ctrl Pts',(29.9347031714943,4.,30.4050868832702));
#658=CARTESIAN_POINT('Ctrl Pts',(27.2417288217472,4.,32.6282906374116));
#659=CARTESIAN_POINT('Ctrl Pts',(24.2382553758554,4.,34.2440633469938));
#660=CARTESIAN_POINT('Ctrl Pts',(21.0780200245089,4.,35.2082427047406));
#661=CARTESIAN_POINT('Ctrl Pts',(17.9171269243931,4.,35.5086528669111));
#662=CARTESIAN_POINT('Ctrl Pts',(14.8976459836015,4.,35.1520514096328));
#663=CARTESIAN_POINT('Ctrl Pts',(12.1305761115414,4.,34.1504779997925));
#664=CARTESIAN_POINT('Ctrl Pts',(9.67937466986512,4.,32.5085636395615));
#665=CARTESIAN_POINT('Ctrl Pts',(7.57872431229344,4.,30.2408800635795));
#666=CARTESIAN_POINT('Ctrl Pts',(5.85358690071634,4.,27.3902002068262));
#667=CARTESIAN_POINT('Ctrl Pts',(4.53619280978819,4.,24.0435954575411));
#668=CARTESIAN_POINT('Ctrl Pts',(3.68801427836614,4.,20.3548893339122));
#669=CARTESIAN_POINT('Ctrl Pts',(3.40613570384019,4.,16.5487094099051));
#670=CARTESIAN_POINT('Ctrl Pts',(3.79186956981406,4.,12.8795554363852));
#671=CARTESIAN_POINT('Ctrl Pts',(4.69976551363072,4.,10.2558775773299));
#672=CARTESIAN_POINT('Ctrl Pts',(5.73334053697327,4.,8.56022665349117));
#673=CARTESIAN_POINT('Ctrl Pts',(6.57396384391824,4.,7.56987483295364));
#674=CARTESIAN_POINT('Ctrl Pts',(7.03068470004184,4.,7.1112216003017));
#675=CARTESIAN_POINT('Ctrl Pts',(-7.03068470004184,0.,7.1112216003017));
#676=CARTESIAN_POINT('Ctrl Pts',(-7.03068470004184,4.,7.1112216003017));
#677=CARTESIAN_POINT('Ctrl Pts',(-6.57396384391824,0.,7.56987483295364));
#678=CARTESIAN_POINT('Ctrl Pts',(-6.57396384391824,4.,7.56987483295364));
#679=CARTESIAN_POINT('Ctrl Pts',(-5.73334053697327,0.,8.56022665349117));
#680=CARTESIAN_POINT('Ctrl Pts',(-5.73334053697327,4.,8.56022665349117));
#681=CARTESIAN_POINT('Ctrl Pts',(-4.69976551363072,0.,10.2558775773299));
#682=CARTESIAN_POINT('Ctrl Pts',(-4.69976551363072,4.,10.2558775773299));
#683=CARTESIAN_POINT('Ctrl Pts',(-3.79186956981406,0.,12.8795554363852));
#684=CARTESIAN_POINT('Ctrl Pts',(-3.79186956981406,4.,12.8795554363852));
#685=CARTESIAN_POINT('Ctrl Pts',(-3.40613570384019,0.,16.5487094099051));
#686=CARTESIAN_POINT('Ctrl Pts',(-3.40613570384019,4.,16.5487094099051));
#687=CARTESIAN_POINT('Ctrl Pts',(-3.68801427836614,0.,20.3548893339122));
#688=CARTESIAN_POINT('Ctrl Pts',(-3.68801427836614,4.,20.3548893339122));
#689=CARTESIAN_POINT('Ctrl Pts',(-4.53619280978819,0.,24.0435954575411));
#690=CARTESIAN_POINT('Ctrl Pts',(-4.53619280978819,4.,24.0435954575411));
#691=CARTESIAN_POINT('Ctrl Pts',(-5.85358690071634,0.,27.3902002068262));
#692=CARTESIAN_POINT('Ctrl Pts',(-5.85358690071634,4.,27.3902002068262));
#693=CARTESIAN_POINT('Ctrl Pts',(-7.57872431229344,0.,30.2408800635795));
#694=CARTESIAN_POINT('Ctrl Pts',(-7.57872431229344,4.,30.2408800635795));
#695=CARTESIAN_POINT('Ctrl Pts',(-9.67937466986512,0.,32.5085636395615));
#696=CARTESIAN_POINT('Ctrl Pts',(-9.67937466986512,4.,32.5085636395615));
#697=CARTESIAN_POINT('Ctrl Pts',(-12.1305761115414,0.,34.1504779997925));
#698=CARTESIAN_POINT('Ctrl Pts',(-12.1305761115414,4.,34.1504779997925));
#699=CARTESIAN_POINT('Ctrl Pts',(-14.8976459836015,0.,35.1520514096328));
#700=CARTESIAN_POINT('Ctrl Pts',(-14.8976459836015,4.,35.1520514096328));
#701=CARTESIAN_POINT('Ctrl Pts',(-17.9171269243931,0.,35.5086528669111));
#702=CARTESIAN_POINT('Ctrl Pts',(-17.9171269243931,4.,35.5086528669111));
#703=CARTESIAN_POINT('Ctrl Pts',(-21.0780200245089,0.,35.2082427047406));
#704=CARTESIAN_POINT('Ctrl Pts',(-21.0780200245089,4.,35.2082427047406));
#705=CARTESIAN_POINT('Ctrl Pts',(-24.2382553758554,0.,34.2440633469938));
#706=CARTESIAN_POINT('Ctrl Pts',(-24.2382553758554,4.,34.2440633469938));
#707=CARTESIAN_POINT('Ctrl Pts',(-27.2417288217472,0.,32.6282906374116));
#708=CARTESIAN_POINT('Ctrl Pts',(-27.2417288217472,4.,32.6282906374116));
#709=CARTESIAN_POINT('Ctrl Pts',(-29.9347031714943,0.,30.4050868832702));
#710=CARTESIAN_POINT('Ctrl Pts',(-29.9347031714943,4.,30.4050868832702));
#711=CARTESIAN_POINT('Ctrl Pts',(-32.1831096990002,0.,27.6653877179341));
#712=CARTESIAN_POINT('Ctrl Pts',(-32.1831096990002,4.,27.6653877179341));
#713=CARTESIAN_POINT('Ctrl Pts',(-33.8878352993402,0.,24.558192197742));
#714=CARTESIAN_POINT('Ctrl Pts',(-33.8878352993402,4.,24.558192197742));
#715=CARTESIAN_POINT('Ctrl Pts',(-34.9786985410443,0.,21.2637164735121));
#716=CARTESIAN_POINT('Ctrl Pts',(-34.9786985410443,4.,21.2637164735121));
#717=CARTESIAN_POINT('Ctrl Pts',(-35.4102961251554,0.,17.9696602624073));
#718=CARTESIAN_POINT('Ctrl Pts',(-35.4102961251554,4.,17.9696602624073));
#719=CARTESIAN_POINT('Ctrl Pts',(-35.1575308644535,0.,14.8466352080603));
#720=CARTESIAN_POINT('Ctrl Pts',(-35.1575308644535,4.,14.8466352080603));
#721=CARTESIAN_POINT('Ctrl Pts',(-34.2114145862327,0.,12.0234428708087));
#722=CARTESIAN_POINT('Ctrl Pts',(-34.2114145862327,4.,12.0234428708087));
#723=CARTESIAN_POINT('Ctrl Pts',(-32.5754799397535,0.,9.56332948134537));
#724=CARTESIAN_POINT('Ctrl Pts',(-32.5754799397535,4.,9.56332948134537));
#725=CARTESIAN_POINT('Ctrl Pts',(-30.2766594314561,0.,7.48920230909669));
#726=CARTESIAN_POINT('Ctrl Pts',(-30.2766594314561,4.,7.48920230909669));
#727=CARTESIAN_POINT('Ctrl Pts',(-27.3769580718909,0.,5.80850425993431));
#728=CARTESIAN_POINT('Ctrl Pts',(-27.3769580718909,4.,5.80850425993431));
#729=CARTESIAN_POINT('Ctrl Pts',(-23.9834039071755,0.,4.53576496626449));
#730=CARTESIAN_POINT('Ctrl Pts',(-23.9834039071755,4.,4.53576496626449));
#731=CARTESIAN_POINT('Ctrl Pts',(-20.263444494278,0.,3.72125818083614));
#732=CARTESIAN_POINT('Ctrl Pts',(-20.263444494278,4.,3.72125818083614));
#733=CARTESIAN_POINT('Ctrl Pts',(-16.4445941697883,0.,3.46009015929684));
#734=CARTESIAN_POINT('Ctrl Pts',(-16.4445941697883,4.,3.46009015929684));
#735=CARTESIAN_POINT('Ctrl Pts',(-12.7778746728133,0.,3.85670532781965));
#736=CARTESIAN_POINT('Ctrl Pts',(-12.7778746728133,4.,3.85670532781965));
#737=CARTESIAN_POINT('Ctrl Pts',(-10.1626063447773,0.,4.7700645308434));
#738=CARTESIAN_POINT('Ctrl Pts',(-10.1626063447773,4.,4.7700645308434));
#739=CARTESIAN_POINT('Ctrl Pts',(-8.47366567371491,0.,5.80830725757955));
#740=CARTESIAN_POINT('Ctrl Pts',(-8.47366567371491,4.,5.80830725757955));
#741=CARTESIAN_POINT('Ctrl Pts',(-7.48740555616545,0.,6.65256836764976));
#742=CARTESIAN_POINT('Ctrl Pts',(-7.48740555616545,4.,6.65256836764976));
#743=CARTESIAN_POINT('Ctrl Pts',(-7.03068470004184,0.,7.1112216003017));
#744=CARTESIAN_POINT('Ctrl Pts',(-7.03068470004184,4.,7.1112216003017));
#745=CARTESIAN_POINT('',(-7.03068470004184,0.,7.1112216003017));
#746=CARTESIAN_POINT('Ctrl Pts',(-7.03068470004184,0.,7.1112216003017));
#747=CARTESIAN_POINT('Ctrl Pts',(-6.57396384391824,0.,7.56987483295364));
#748=CARTESIAN_POINT('Ctrl Pts',(-5.73334053697327,0.,8.56022665349117));
#749=CARTESIAN_POINT('Ctrl Pts',(-4.69976551363072,0.,10.2558775773299));
#750=CARTESIAN_POINT('Ctrl Pts',(-3.79186956981406,0.,12.8795554363852));
#751=CARTESIAN_POINT('Ctrl Pts',(-3.40613570384019,0.,16.5487094099051));
#752=CARTESIAN_POINT('Ctrl Pts',(-3.68801427836614,0.,20.3548893339122));
#753=CARTESIAN_POINT('Ctrl Pts',(-4.53619280978819,0.,24.0435954575411));
#754=CARTESIAN_POINT('Ctrl Pts',(-5.85358690071634,0.,27.3902002068262));
#755=CARTESIAN_POINT('Ctrl Pts',(-7.57872431229344,0.,30.2408800635795));
#756=CARTESIAN_POINT('Ctrl Pts',(-9.67937466986512,0.,32.5085636395615));
#757=CARTESIAN_POINT('Ctrl Pts',(-12.1305761115414,0.,34.1504779997925));
#758=CARTESIAN_POINT('Ctrl Pts',(-14.8976459836015,0.,35.1520514096328));
#759=CARTESIAN_POINT('Ctrl Pts',(-17.9171269243931,0.,35.5086528669111));
#760=CARTESIAN_POINT('Ctrl Pts',(-21.0780200245089,0.,35.2082427047406));
#761=CARTESIAN_POINT('Ctrl Pts',(-24.2382553758554,0.,34.2440633469938));
#762=CARTESIAN_POINT('Ctrl Pts',(-27.2417288217472,0.,32.6282906374116));
#763=CARTESIAN_POINT('Ctrl Pts',(-29.9347031714943,0.,30.4050868832702));
#764=CARTESIAN_POINT('Ctrl Pts',(-32.1831096990002,0.,27.6653877179341));
#765=CARTESIAN_POINT('Ctrl Pts',(-33.8878352993402,0.,24.558192197742));
#766=CARTESIAN_POINT('Ctrl Pts',(-34.9786985410443,0.,21.2637164735121));
#767=CARTESIAN_POINT('Ctrl Pts',(-35.4102961251554,0.,17.9696602624073));
#768=CARTESIAN_POINT('Ctrl Pts',(-35.1575308644535,0.,14.8466352080603));
#769=CARTESIAN_POINT('Ctrl Pts',(-34.2114145862327,0.,12.0234428708087));
#770=CARTESIAN_POINT('Ctrl Pts',(-32.5754799397535,0.,9.56332948134537));
#771=CARTESIAN_POINT('Ctrl Pts',(-30.2766594314561,0.,7.48920230909669));
#772=CARTESIAN_POINT('Ctrl Pts',(-27.3769580718909,0.,5.80850425993431));
#773=CARTESIAN_POINT('Ctrl Pts',(-23.9834039071755,0.,4.53576496626449));
#774=CARTESIAN_POINT('Ctrl Pts',(-20.263444494278,0.,3.72125818083614));
#775=CARTESIAN_POINT('Ctrl Pts',(-16.4445941697883,0.,3.46009015929684));
#776=CARTESIAN_POINT('Ctrl Pts',(-12.7778746728133,0.,3.85670532781965));
#777=CARTESIAN_POINT('Ctrl Pts',(-10.1626063447773,0.,4.7700645308434));
#778=CARTESIAN_POINT('Ctrl Pts',(-8.47366567371491,0.,5.80830725757955));
#779=CARTESIAN_POINT('Ctrl Pts',(-7.48740555616545,0.,6.65256836764976));
#780=CARTESIAN_POINT('Ctrl Pts',(-7.03068470004184,0.,7.1112216003017));
#781=CARTESIAN_POINT('',(-7.03068470004184,4.,7.1112216003017));
#782=CARTESIAN_POINT('',(-7.03068470004184,0.,7.1112216003017));
#783=CARTESIAN_POINT('Ctrl Pts',(-7.03068470004184,4.,7.1112216003017));
#784=CARTESIAN_POINT('Ctrl Pts',(-6.57396384391824,4.,7.56987483295364));
#785=CARTESIAN_POINT('Ctrl Pts',(-5.73334053697327,4.,8.56022665349117));
#786=CARTESIAN_POINT('Ctrl Pts',(-4.69976551363072,4.,10.2558775773299));
#787=CARTESIAN_POINT('Ctrl Pts',(-3.79186956981406,4.,12.8795554363852));
#788=CARTESIAN_POINT('Ctrl Pts',(-3.40613570384019,4.,16.5487094099051));
#789=CARTESIAN_POINT('Ctrl Pts',(-3.68801427836614,4.,20.3548893339122));
#790=CARTESIAN_POINT('Ctrl Pts',(-4.53619280978819,4.,24.0435954575411));
#791=CARTESIAN_POINT('Ctrl Pts',(-5.85358690071634,4.,27.3902002068262));
#792=CARTESIAN_POINT('Ctrl Pts',(-7.57872431229344,4.,30.2408800635795));
#793=CARTESIAN_POINT('Ctrl Pts',(-9.67937466986512,4.,32.5085636395615));
#794=CARTESIAN_POINT('Ctrl Pts',(-12.1305761115414,4.,34.1504779997925));
#795=CARTESIAN_POINT('Ctrl Pts',(-14.8976459836015,4.,35.1520514096328));
#796=CARTESIAN_POINT('Ctrl Pts',(-17.9171269243931,4.,35.5086528669111));
#797=CARTESIAN_POINT('Ctrl Pts',(-21.0780200245089,4.,35.2082427047406));
#798=CARTESIAN_POINT('Ctrl Pts',(-24.2382553758554,4.,34.2440633469938));
#799=CARTESIAN_POINT('Ctrl Pts',(-27.2417288217472,4.,32.6282906374116));
#800=CARTESIAN_POINT('Ctrl Pts',(-29.9347031714943,4.,30.4050868832702));
#801=CARTESIAN_POINT('Ctrl Pts',(-32.1831096990002,4.,27.6653877179341));
#802=CARTESIAN_POINT('Ctrl Pts',(-33.8878352993402,4.,24.558192197742));
#803=CARTESIAN_POINT('Ctrl Pts',(-34.9786985410443,4.,21.2637164735121));
#804=CARTESIAN_POINT('Ctrl Pts',(-35.4102961251554,4.,17.9696602624073));
#805=CARTESIAN_POINT('Ctrl Pts',(-35.1575308644535,4.,14.8466352080603));
#806=CARTESIAN_POINT('Ctrl Pts',(-34.2114145862327,4.,12.0234428708087));
#807=CARTESIAN_POINT('Ctrl Pts',(-32.5754799397535,4.,9.56332948134537));
#808=CARTESIAN_POINT('Ctrl Pts',(-30.2766594314561,4.,7.48920230909669));
#809=CARTESIAN_POINT('Ctrl Pts',(-27.3769580718909,4.,5.80850425993431));
#810=CARTESIAN_POINT('Ctrl Pts',(-23.9834039071755,4.,4.53576496626449));
#811=CARTESIAN_POINT('Ctrl Pts',(-20.263444494278,4.,3.72125818083614));
#812=CARTESIAN_POINT('Ctrl Pts',(-16.4445941697883,4.,3.46009015929684));
#813=CARTESIAN_POINT('Ctrl Pts',(-12.7778746728133,4.,3.85670532781965));
#814=CARTESIAN_POINT('Ctrl Pts',(-10.1626063447773,4.,4.7700645308434));
#815=CARTESIAN_POINT('Ctrl Pts',(-8.47366567371491,4.,5.80830725757955));
#816=CARTESIAN_POINT('Ctrl Pts',(-7.48740555616545,4.,6.65256836764976));
#817=CARTESIAN_POINT('Ctrl Pts',(-7.03068470004184,4.,7.1112216003017));
#818=CARTESIAN_POINT('Origin',(47.5,0.,0.));
#819=CARTESIAN_POINT('',(45.5,4.,0.));
#820=CARTESIAN_POINT('Origin',(47.5,4.,0.));
#821=CARTESIAN_POINT('',(45.5,0.,2.44929359829471E-16));
#822=CARTESIAN_POINT('',(45.5,0.,2.44929359829471E-16));
#823=CARTESIAN_POINT('Origin',(47.5,0.,0.));
#824=CARTESIAN_POINT('Origin',(1.6,0.,-1.60000000000149));
#825=CARTESIAN_POINT('',(1.6,0.,-1.60000000000149));
#826=CARTESIAN_POINT('',(3.25000000000332,0.,-1.60000000000149));
#827=CARTESIAN_POINT('',(3.25000000000332,0.,-1.60000000000149));
#828=CARTESIAN_POINT('',(3.25000000000331,4.,-1.60000000000149));
#829=CARTESIAN_POINT('',(3.25000000000332,0.,-1.60000000000149));
#830=CARTESIAN_POINT('',(1.6,4.,-1.60000000000149));
#831=CARTESIAN_POINT('',(3.25000000000332,4.,-1.60000000000149));
#832=CARTESIAN_POINT('',(1.6,0.,-1.60000000000149));
#833=CARTESIAN_POINT('Origin',(1.6,0.,-3.25000000000001));
#834=CARTESIAN_POINT('',(1.6,0.,-3.25000000000001));
#835=CARTESIAN_POINT('',(1.6,0.,3.24999999999999));
#836=CARTESIAN_POINT('',(1.6,4.,-3.25000000000001));
#837=CARTESIAN_POINT('',(1.6,4.,3.24999999999999));
#838=CARTESIAN_POINT('',(1.6,0.,-3.25000000000001));
#839=CARTESIAN_POINT('Origin',(-1.6,0.,-3.25000000000001));
#840=CARTESIAN_POINT('',(-1.6,0.,-3.25000000000001));
#841=CARTESIAN_POINT('',(1.6,0.,-3.25000000000001));
#842=CARTESIAN_POINT('',(-1.6,4.,-3.25000000000001));
#843=CARTESIAN_POINT('',(1.6,4.,-3.25000000000001));
#844=CARTESIAN_POINT('',(-1.6,0.,-3.25000000000001));
#845=CARTESIAN_POINT('Origin',(-1.6,0.,-1.60000000000149));
#846=CARTESIAN_POINT('',(-1.6,0.,-1.60000000000149));
#847=CARTESIAN_POINT('',(-1.6,0.,-3.25000000000001));
#848=CARTESIAN_POINT('',(-1.6,4.,-1.60000000000149));
#849=CARTESIAN_POINT('',(-1.6,4.,-3.25000000000001));
#850=CARTESIAN_POINT('',(-1.6,0.,-1.60000000000149));
#851=CARTESIAN_POINT('Origin',(-3.24999999999668,0.,-1.60000000000149));
#852=CARTESIAN_POINT('',(-3.24999999999668,0.,-1.60000000000149));
#853=CARTESIAN_POINT('',(3.25000000000332,0.,-1.60000000000149));
#854=CARTESIAN_POINT('',(-3.24999999999668,4.,-1.60000000000149));
#855=CARTESIAN_POINT('',(3.25000000000332,4.,-1.60000000000149));
#856=CARTESIAN_POINT('',(-3.24999999999668,0.,-1.60000000000149));
#857=CARTESIAN_POINT('Origin',(-3.24999999999668,0.,1.59999999999851));
#858=CARTESIAN_POINT('',(-3.24999999999668,0.,1.59999999999851));
#859=CARTESIAN_POINT('',(-3.24999999999668,0.,-1.60000000000149));
#860=CARTESIAN_POINT('',(-3.24999999999668,4.,1.59999999999851));
#861=CARTESIAN_POINT('',(-3.24999999999668,4.,-1.60000000000149));
#862=CARTESIAN_POINT('',(-3.24999999999668,0.,1.59999999999851));
#863=CARTESIAN_POINT('Origin',(-1.6,0.,1.59999999999851));
#864=CARTESIAN_POINT('',(-1.6,0.,1.59999999999851));
#865=CARTESIAN_POINT('',(-3.24999999999668,0.,1.59999999999851));
#866=CARTESIAN_POINT('',(-1.6,4.,1.59999999999851));
#867=CARTESIAN_POINT('',(-3.24999999999668,4.,1.59999999999851));
#868=CARTESIAN_POINT('',(-1.6,0.,1.59999999999851));
#869=CARTESIAN_POINT('Origin',(-1.6,0.,3.24999999999999));
#870=CARTESIAN_POINT('',(-1.6,0.,3.24999999999999));
#871=CARTESIAN_POINT('',(-1.6,0.,-3.25000000000001));
#872=CARTESIAN_POINT('',(-1.6,4.,3.24999999999999));
#873=CARTESIAN_POINT('',(-1.6,4.,-3.25000000000001));
#874=CARTESIAN_POINT('',(-1.6,0.,3.24999999999999));
#875=CARTESIAN_POINT('Origin',(1.6,0.,3.24999999999999));
#876=CARTESIAN_POINT('',(1.6,0.,3.24999999999999));
#877=CARTESIAN_POINT('',(-1.6,0.,3.24999999999999));
#878=CARTESIAN_POINT('',(1.6,4.,3.24999999999999));
#879=CARTESIAN_POINT('',(-1.6,4.,3.24999999999999));
#880=CARTESIAN_POINT('',(1.6,0.,3.24999999999999));
#881=CARTESIAN_POINT('Origin',(1.6,0.,1.59999999999851));
#882=CARTESIAN_POINT('',(1.6,0.,1.59999999999851));
#883=CARTESIAN_POINT('',(1.6,0.,3.24999999999999));
#884=CARTESIAN_POINT('',(1.6,4.,1.59999999999851));
#885=CARTESIAN_POINT('',(1.6,4.,3.24999999999999));
#886=CARTESIAN_POINT('',(1.6,0.,1.59999999999851));
#887=CARTESIAN_POINT('Origin',(3.25000000000332,0.,1.59999999999851));
#888=CARTESIAN_POINT('',(3.25000000000332,0.,1.59999999999851));
#889=CARTESIAN_POINT('',(-3.24999999999668,0.,1.59999999999851));
#890=CARTESIAN_POINT('',(3.25000000000332,4.,1.59999999999851));
#891=CARTESIAN_POINT('',(-3.24999999999668,4.,1.59999999999851));
#892=CARTESIAN_POINT('',(3.25000000000332,0.,1.59999999999851));
#893=CARTESIAN_POINT('Origin',(3.25000000000332,0.,-1.60000000000149));
#894=CARTESIAN_POINT('',(3.25000000000332,0.,1.59999999999851));
#895=CARTESIAN_POINT('',(3.25000000000332,4.,1.59999999999851));
#896=CARTESIAN_POINT('Ctrl Pts',(7.03068470004184,0.,-7.1112216003017));
#897=CARTESIAN_POINT('Ctrl Pts',(7.03068470004184,4.,-7.1112216003017));
#898=CARTESIAN_POINT('Ctrl Pts',(6.57396384391824,0.,-7.56987483295364));
#899=CARTESIAN_POINT('Ctrl Pts',(6.57396384391824,4.,-7.56987483295364));
#900=CARTESIAN_POINT('Ctrl Pts',(5.73334053697327,0.,-8.56022665349117));
#901=CARTESIAN_POINT('Ctrl Pts',(5.73334053697327,4.,-8.56022665349117));
#902=CARTESIAN_POINT('Ctrl Pts',(4.69976551363072,0.,-10.2558775773299));
#903=CARTESIAN_POINT('Ctrl Pts',(4.69976551363072,4.,-10.2558775773299));
#904=CARTESIAN_POINT('Ctrl Pts',(3.79186956981406,0.,-12.8795554363852));
#905=CARTESIAN_POINT('Ctrl Pts',(3.79186956981406,4.,-12.8795554363852));
#906=CARTESIAN_POINT('Ctrl Pts',(3.40613570384019,0.,-16.5487094099051));
#907=CARTESIAN_POINT('Ctrl Pts',(3.40613570384019,4.,-16.5487094099051));
#908=CARTESIAN_POINT('Ctrl Pts',(3.68801427836614,0.,-20.3548893339122));
#909=CARTESIAN_POINT('Ctrl Pts',(3.68801427836614,4.,-20.3548893339122));
#910=CARTESIAN_POINT('Ctrl Pts',(4.53619280978819,0.,-24.0435954575411));
#911=CARTESIAN_POINT('Ctrl Pts',(4.53619280978819,4.,-24.0435954575411));
#912=CARTESIAN_POINT('Ctrl Pts',(5.85358690071634,0.,-27.3902002068262));
#913=CARTESIAN_POINT('Ctrl Pts',(5.85358690071634,4.,-27.3902002068262));
#914=CARTESIAN_POINT('Ctrl Pts',(7.57872431229344,0.,-30.2408800635795));
#915=CARTESIAN_POINT('Ctrl Pts',(7.57872431229344,4.,-30.2408800635795));
#916=CARTESIAN_POINT('Ctrl Pts',(9.67937466986512,0.,-32.5085636395615));
#917=CARTESIAN_POINT('Ctrl Pts',(9.67937466986512,4.,-32.5085636395615));
#918=CARTESIAN_POINT('Ctrl Pts',(12.1305761115414,0.,-34.1504779997925));
#919=CARTESIAN_POINT('Ctrl Pts',(12.1305761115414,4.,-34.1504779997925));
#920=CARTESIAN_POINT('Ctrl Pts',(14.8976459836015,0.,-35.1520514096328));
#921=CARTESIAN_POINT('Ctrl Pts',(14.8976459836015,4.,-35.1520514096328));
#922=CARTESIAN_POINT('Ctrl Pts',(17.9171269243931,0.,-35.5086528669111));
#923=CARTESIAN_POINT('Ctrl Pts',(17.9171269243931,4.,-35.5086528669111));
#924=CARTESIAN_POINT('Ctrl Pts',(21.0780200245089,0.,-35.2082427047406));
#925=CARTESIAN_POINT('Ctrl Pts',(21.0780200245089,4.,-35.2082427047406));
#926=CARTESIAN_POINT('Ctrl Pts',(24.2382553758554,0.,-34.2440633469938));
#927=CARTESIAN_POINT('Ctrl Pts',(24.2382553758554,4.,-34.2440633469938));
#928=CARTESIAN_POINT('Ctrl Pts',(27.2417288217472,0.,-32.6282906374116));
#929=CARTESIAN_POINT('Ctrl Pts',(27.2417288217472,4.,-32.6282906374116));
#930=CARTESIAN_POINT('Ctrl Pts',(29.9347031714943,0.,-30.4050868832702));
#931=CARTESIAN_POINT('Ctrl Pts',(29.9347031714943,4.,-30.4050868832702));
#932=CARTESIAN_POINT('Ctrl Pts',(32.1831096990002,0.,-27.6653877179341));
#933=CARTESIAN_POINT('Ctrl Pts',(32.1831096990002,4.,-27.6653877179341));
#934=CARTESIAN_POINT('Ctrl Pts',(33.8878352993402,0.,-24.558192197742));
#935=CARTESIAN_POINT('Ctrl Pts',(33.8878352993402,4.,-24.558192197742));
#936=CARTESIAN_POINT('Ctrl Pts',(34.9786985410443,0.,-21.2637164735121));
#937=CARTESIAN_POINT('Ctrl Pts',(34.9786985410443,4.,-21.2637164735121));
#938=CARTESIAN_POINT('Ctrl Pts',(35.4102961251554,0.,-17.9696602624073));
#939=CARTESIAN_POINT('Ctrl Pts',(35.4102961251554,4.,-17.9696602624073));
#940=CARTESIAN_POINT('Ctrl Pts',(35.1575308644535,0.,-14.8466352080603));
#941=CARTESIAN_POINT('Ctrl Pts',(35.1575308644535,4.,-14.8466352080603));
#942=CARTESIAN_POINT('Ctrl Pts',(34.2114145862327,0.,-12.0234428708087));
#943=CARTESIAN_POINT('Ctrl Pts',(34.2114145862327,4.,-12.0234428708087));
#944=CARTESIAN_POINT('Ctrl Pts',(32.5754799397535,0.,-9.56332948134537));
#945=CARTESIAN_POINT('Ctrl Pts',(32.5754799397535,4.,-9.56332948134537));
#946=CARTESIAN_POINT('Ctrl Pts',(30.2766594314561,0.,-7.48920230909669));
#947=CARTESIAN_POINT('Ctrl Pts',(30.2766594314561,4.,-7.48920230909669));
#948=CARTESIAN_POINT('Ctrl Pts',(27.3769580718909,0.,-5.80850425993431));
#949=CARTESIAN_POINT('Ctrl Pts',(27.3769580718909,4.,-5.80850425993431));
#950=CARTESIAN_POINT('Ctrl Pts',(23.9834039071755,0.,-4.53576496626449));
#951=CARTESIAN_POINT('Ctrl Pts',(23.9834039071755,4.,-4.53576496626449));
#952=CARTESIAN_POINT('Ctrl Pts',(20.263444494278,0.,-3.72125818083614));
#953=CARTESIAN_POINT('Ctrl Pts',(20.263444494278,4.,-3.72125818083614));
#954=CARTESIAN_POINT('Ctrl Pts',(16.4445941697883,0.,-3.46009015929684));
#955=CARTESIAN_POINT('Ctrl Pts',(16.4445941697883,4.,-3.46009015929684));
#956=CARTESIAN_POINT('Ctrl Pts',(12.7778746728133,0.,-3.85670532781965));
#957=CARTESIAN_POINT('Ctrl Pts',(12.7778746728133,4.,-3.85670532781965));
#958=CARTESIAN_POINT('Ctrl Pts',(10.1626063447773,0.,-4.7700645308434));
#959=CARTESIAN_POINT('Ctrl Pts',(10.1626063447773,4.,-4.7700645308434));
#960=CARTESIAN_POINT('Ctrl Pts',(8.47366567371491,0.,-5.80830725757955));
#961=CARTESIAN_POINT('Ctrl Pts',(8.47366567371491,4.,-5.80830725757955));
#962=CARTESIAN_POINT('Ctrl Pts',(7.48740555616545,0.,-6.65256836764976));
#963=CARTESIAN_POINT('Ctrl Pts',(7.48740555616545,4.,-6.65256836764976));
#964=CARTESIAN_POINT('Ctrl Pts',(7.03068470004184,0.,-7.1112216003017));
#965=CARTESIAN_POINT('Ctrl Pts',(7.03068470004184,4.,-7.1112216003017));
#966=CARTESIAN_POINT('',(7.03068470004184,0.,-7.1112216003017));
#967=CARTESIAN_POINT('Ctrl Pts',(7.03068470004184,0.,-7.1112216003017));
#968=CARTESIAN_POINT('Ctrl Pts',(6.57396384391824,0.,-7.56987483295364));
#969=CARTESIAN_POINT('Ctrl Pts',(5.73334053697327,0.,-8.56022665349117));
#970=CARTESIAN_POINT('Ctrl Pts',(4.69976551363072,0.,-10.2558775773299));
#971=CARTESIAN_POINT('Ctrl Pts',(3.79186956981406,0.,-12.8795554363852));
#972=CARTESIAN_POINT('Ctrl Pts',(3.40613570384019,0.,-16.5487094099051));
#973=CARTESIAN_POINT('Ctrl Pts',(3.68801427836614,0.,-20.3548893339122));
#974=CARTESIAN_POINT('Ctrl Pts',(4.53619280978819,0.,-24.0435954575411));
#975=CARTESIAN_POINT('Ctrl Pts',(5.85358690071634,0.,-27.3902002068262));
#976=CARTESIAN_POINT('Ctrl Pts',(7.57872431229344,0.,-30.2408800635795));
#977=CARTESIAN_POINT('Ctrl Pts',(9.67937466986512,0.,-32.5085636395615));
#978=CARTESIAN_POINT('Ctrl Pts',(12.1305761115414,0.,-34.1504779997925));
#979=CARTESIAN_POINT('Ctrl Pts',(14.8976459836015,0.,-35.1520514096328));
#980=CARTESIAN_POINT('Ctrl Pts',(17.9171269243931,0.,-35.5086528669111));
#981=CARTESIAN_POINT('Ctrl Pts',(21.0780200245089,0.,-35.2082427047406));
#982=CARTESIAN_POINT('Ctrl Pts',(24.2382553758554,0.,-34.2440633469938));
#983=CARTESIAN_POINT('Ctrl Pts',(27.2417288217472,0.,-32.6282906374116));
#984=CARTESIAN_POINT('Ctrl Pts',(29.9347031714943,0.,-30.4050868832702));
#985=CARTESIAN_POINT('Ctrl Pts',(32.1831096990002,0.,-27.6653877179341));
#986=CARTESIAN_POINT('Ctrl Pts',(33.8878352993402,0.,-24.558192197742));
#987=CARTESIAN_POINT('Ctrl Pts',(34.9786985410443,0.,-21.2637164735121));
#988=CARTESIAN_POINT('Ctrl Pts',(35.4102961251554,0.,-17.9696602624073));
#989=CARTESIAN_POINT('Ctrl Pts',(35.1575308644535,0.,-14.8466352080603));
#990=CARTESIAN_POINT('Ctrl Pts',(34.2114145862327,0.,-12.0234428708087));
#991=CARTESIAN_POINT('Ctrl Pts',(32.5754799397535,0.,-9.56332948134537));
#992=CARTESIAN_POINT('Ctrl Pts',(30.2766594314561,0.,-7.48920230909669));
#993=CARTESIAN_POINT('Ctrl Pts',(27.3769580718909,0.,-5.80850425993431));
#994=CARTESIAN_POINT('Ctrl Pts',(23.9834039071755,0.,-4.53576496626449));
#995=CARTESIAN_POINT('Ctrl Pts',(20.263444494278,0.,-3.72125818083614));
#996=CARTESIAN_POINT('Ctrl Pts',(16.4445941697883,0.,-3.46009015929684));
#997=CARTESIAN_POINT('Ctrl Pts',(12.7778746728133,0.,-3.85670532781965));
#998=CARTESIAN_POINT('Ctrl Pts',(10.1626063447773,0.,-4.7700645308434));
#999=CARTESIAN_POINT('Ctrl Pts',(8.47366567371491,0.,-5.80830725757955));
#1000=CARTESIAN_POINT('Ctrl Pts',(7.48740555616545,0.,-6.65256836764976));
#1001=CARTESIAN_POINT('Ctrl Pts',(7.03068470004184,0.,-7.1112216003017));
#1002=CARTESIAN_POINT('',(7.03068470004184,4.,-7.1112216003017));
#1003=CARTESIAN_POINT('',(7.03068470004184,0.,-7.1112216003017));
#1004=CARTESIAN_POINT('Ctrl Pts',(7.03068470004184,4.,-7.1112216003017));
#1005=CARTESIAN_POINT('Ctrl Pts',(6.57396384391824,4.,-7.56987483295364));
#1006=CARTESIAN_POINT('Ctrl Pts',(5.73334053697327,4.,-8.56022665349117));
#1007=CARTESIAN_POINT('Ctrl Pts',(4.69976551363072,4.,-10.2558775773299));
#1008=CARTESIAN_POINT('Ctrl Pts',(3.79186956981406,4.,-12.8795554363852));
#1009=CARTESIAN_POINT('Ctrl Pts',(3.40613570384019,4.,-16.5487094099051));
#1010=CARTESIAN_POINT('Ctrl Pts',(3.68801427836614,4.,-20.3548893339122));
#1011=CARTESIAN_POINT('Ctrl Pts',(4.53619280978819,4.,-24.0435954575411));
#1012=CARTESIAN_POINT('Ctrl Pts',(5.85358690071634,4.,-27.3902002068262));
#1013=CARTESIAN_POINT('Ctrl Pts',(7.57872431229344,4.,-30.2408800635795));
#1014=CARTESIAN_POINT('Ctrl Pts',(9.67937466986512,4.,-32.5085636395615));
#1015=CARTESIAN_POINT('Ctrl Pts',(12.1305761115414,4.,-34.1504779997925));
#1016=CARTESIAN_POINT('Ctrl Pts',(14.8976459836015,4.,-35.1520514096328));
#1017=CARTESIAN_POINT('Ctrl Pts',(17.9171269243931,4.,-35.5086528669111));
#1018=CARTESIAN_POINT('Ctrl Pts',(21.0780200245089,4.,-35.2082427047406));
#1019=CARTESIAN_POINT('Ctrl Pts',(24.2382553758554,4.,-34.2440633469938));
#1020=CARTESIAN_POINT('Ctrl Pts',(27.2417288217472,4.,-32.6282906374116));
#1021=CARTESIAN_POINT('Ctrl Pts',(29.9347031714943,4.,-30.4050868832702));
#1022=CARTESIAN_POINT('Ctrl Pts',(32.1831096990002,4.,-27.6653877179341));
#1023=CARTESIAN_POINT('Ctrl Pts',(33.8878352993402,4.,-24.558192197742));
#1024=CARTESIAN_POINT('Ctrl Pts',(34.9786985410443,4.,-21.2637164735121));
#1025=CARTESIAN_POINT('Ctrl Pts',(35.4102961251554,4.,-17.9696602624073));
#1026=CARTESIAN_POINT('Ctrl Pts',(35.1575308644535,4.,-14.8466352080603));
#1027=CARTESIAN_POINT('Ctrl Pts',(34.2114145862327,4.,-12.0234428708087));
#1028=CARTESIAN_POINT('Ctrl Pts',(32.5754799397535,4.,-9.56332948134537));
#1029=CARTESIAN_POINT('Ctrl Pts',(30.2766594314561,4.,-7.48920230909669));
#1030=CARTESIAN_POINT('Ctrl Pts',(27.3769580718909,4.,-5.80850425993431));
#1031=CARTESIAN_POINT('Ctrl Pts',(23.9834039071755,4.,-4.53576496626449));
#1032=CARTESIAN_POINT('Ctrl Pts',(20.263444494278,4.,-3.72125818083614));
#1033=CARTESIAN_POINT('Ctrl Pts',(16.4445941697883,4.,-3.46009015929684));
#1034=CARTESIAN_POINT('Ctrl Pts',(12.7778746728133,4.,-3.85670532781965));
#1035=CARTESIAN_POINT('Ctrl Pts',(10.1626063447773,4.,-4.7700645308434));
#1036=CARTESIAN_POINT('Ctrl Pts',(8.47366567371491,4.,-5.80830725757955));
#1037=CARTESIAN_POINT('Ctrl Pts',(7.48740555616545,4.,-6.65256836764976));
#1038=CARTESIAN_POINT('Ctrl Pts',(7.03068470004184,4.,-7.1112216003017));
#1039=CARTESIAN_POINT('Ctrl Pts',(-7.03068470004184,0.,-7.1112216003017));
#1040=CARTESIAN_POINT('Ctrl Pts',(-7.03068470004184,4.,-7.1112216003017));
#1041=CARTESIAN_POINT('Ctrl Pts',(-7.48740555616545,0.,-6.65256836764976));
#1042=CARTESIAN_POINT('Ctrl Pts',(-7.48740555616545,4.,-6.65256836764976));
#1043=CARTESIAN_POINT('Ctrl Pts',(-8.47366567371491,0.,-5.80830725757955));
#1044=CARTESIAN_POINT('Ctrl Pts',(-8.47366567371491,4.,-5.80830725757955));
#1045=CARTESIAN_POINT('Ctrl Pts',(-10.1626063447773,0.,-4.7700645308434));
#1046=CARTESIAN_POINT('Ctrl Pts',(-10.1626063447773,4.,-4.7700645308434));
#1047=CARTESIAN_POINT('Ctrl Pts',(-12.7778746728133,0.,-3.85670532781965));
#1048=CARTESIAN_POINT('Ctrl Pts',(-12.7778746728133,4.,-3.85670532781965));
#1049=CARTESIAN_POINT('Ctrl Pts',(-16.4445941697883,0.,-3.46009015929684));
#1050=CARTESIAN_POINT('Ctrl Pts',(-16.4445941697883,4.,-3.46009015929684));
#1051=CARTESIAN_POINT('Ctrl Pts',(-20.263444494278,0.,-3.72125818083614));
#1052=CARTESIAN_POINT('Ctrl Pts',(-20.263444494278,4.,-3.72125818083614));
#1053=CARTESIAN_POINT('Ctrl Pts',(-23.9834039071755,0.,-4.53576496626449));
#1054=CARTESIAN_POINT('Ctrl Pts',(-23.9834039071755,4.,-4.53576496626449));
#1055=CARTESIAN_POINT('Ctrl Pts',(-27.3769580718909,0.,-5.80850425993431));
#1056=CARTESIAN_POINT('Ctrl Pts',(-27.3769580718909,4.,-5.80850425993431));
#1057=CARTESIAN_POINT('Ctrl Pts',(-30.2766594314561,0.,-7.48920230909669));
#1058=CARTESIAN_POINT('Ctrl Pts',(-30.2766594314561,4.,-7.48920230909669));
#1059=CARTESIAN_POINT('Ctrl Pts',(-32.5754799397535,0.,-9.56332948134537));
#1060=CARTESIAN_POINT('Ctrl Pts',(-32.5754799397535,4.,-9.56332948134537));
#1061=CARTESIAN_POINT('Ctrl Pts',(-34.2114145862327,0.,-12.0234428708087));
#1062=CARTESIAN_POINT('Ctrl Pts',(-34.2114145862327,4.,-12.0234428708087));
#1063=CARTESIAN_POINT('Ctrl Pts',(-35.1575308644535,0.,-14.8466352080603));
#1064=CARTESIAN_POINT('Ctrl Pts',(-35.1575308644535,4.,-14.8466352080603));
#1065=CARTESIAN_POINT('Ctrl Pts',(-35.4102961251554,0.,-17.9696602624073));
#1066=CARTESIAN_POINT('Ctrl Pts',(-35.4102961251554,4.,-17.9696602624073));
#1067=CARTESIAN_POINT('Ctrl Pts',(-34.9786985410443,0.,-21.2637164735121));
#1068=CARTESIAN_POINT('Ctrl Pts',(-34.9786985410443,4.,-21.2637164735121));
#1069=CARTESIAN_POINT('Ctrl Pts',(-33.8878352993402,0.,-24.558192197742));
#1070=CARTESIAN_POINT('Ctrl Pts',(-33.8878352993402,4.,-24.558192197742));
#1071=CARTESIAN_POINT('Ctrl Pts',(-32.1831096990002,0.,-27.6653877179341));
#1072=CARTESIAN_POINT('Ctrl Pts',(-32.1831096990002,4.,-27.6653877179341));
#1073=CARTESIAN_POINT('Ctrl Pts',(-29.9347031714943,0.,-30.4050868832702));
#1074=CARTESIAN_POINT('Ctrl Pts',(-29.9347031714943,4.,-30.4050868832702));
#1075=CARTESIAN_POINT('Ctrl Pts',(-27.2417288217472,0.,-32.6282906374116));
#1076=CARTESIAN_POINT('Ctrl Pts',(-27.2417288217472,4.,-32.6282906374116));
#1077=CARTESIAN_POINT('Ctrl Pts',(-24.2382553758554,0.,-34.2440633469938));
#1078=CARTESIAN_POINT('Ctrl Pts',(-24.2382553758554,4.,-34.2440633469938));
#1079=CARTESIAN_POINT('Ctrl Pts',(-21.0780200245089,0.,-35.2082427047406));
#1080=CARTESIAN_POINT('Ctrl Pts',(-21.0780200245089,4.,-35.2082427047406));
#1081=CARTESIAN_POINT('Ctrl Pts',(-17.9171269243931,0.,-35.5086528669111));
#1082=CARTESIAN_POINT('Ctrl Pts',(-17.9171269243931,4.,-35.5086528669111));
#1083=CARTESIAN_POINT('Ctrl Pts',(-14.8976459836015,0.,-35.1520514096328));
#1084=CARTESIAN_POINT('Ctrl Pts',(-14.8976459836015,4.,-35.1520514096328));
#1085=CARTESIAN_POINT('Ctrl Pts',(-12.1305761115414,0.,-34.1504779997925));
#1086=CARTESIAN_POINT('Ctrl Pts',(-12.1305761115414,4.,-34.1504779997925));
#1087=CARTESIAN_POINT('Ctrl Pts',(-9.67937466986512,0.,-32.5085636395615));
#1088=CARTESIAN_POINT('Ctrl Pts',(-9.67937466986512,4.,-32.5085636395615));
#1089=CARTESIAN_POINT('Ctrl Pts',(-7.57872431229344,0.,-30.2408800635795));
#1090=CARTESIAN_POINT('Ctrl Pts',(-7.57872431229344,4.,-30.2408800635795));
#1091=CARTESIAN_POINT('Ctrl Pts',(-5.85358690071634,0.,-27.3902002068262));
#1092=CARTESIAN_POINT('Ctrl Pts',(-5.85358690071634,4.,-27.3902002068262));
#1093=CARTESIAN_POINT('Ctrl Pts',(-4.53619280978819,0.,-24.0435954575411));
#1094=CARTESIAN_POINT('Ctrl Pts',(-4.53619280978819,4.,-24.0435954575411));
#1095=CARTESIAN_POINT('Ctrl Pts',(-3.68801427836614,0.,-20.3548893339122));
#1096=CARTESIAN_POINT('Ctrl Pts',(-3.68801427836614,4.,-20.3548893339122));
#1097=CARTESIAN_POINT('Ctrl Pts',(-3.40613570384019,0.,-16.5487094099051));
#1098=CARTESIAN_POINT('Ctrl Pts',(-3.40613570384019,4.,-16.5487094099051));
#1099=CARTESIAN_POINT('Ctrl Pts',(-3.79186956981406,0.,-12.8795554363852));
#1100=CARTESIAN_POINT('Ctrl Pts',(-3.79186956981406,4.,-12.8795554363852));
#1101=CARTESIAN_POINT('Ctrl Pts',(-4.69976551363072,0.,-10.2558775773299));
#1102=CARTESIAN_POINT('Ctrl Pts',(-4.69976551363072,4.,-10.2558775773299));
#1103=CARTESIAN_POINT('Ctrl Pts',(-5.73334053697327,0.,-8.56022665349117));
#1104=CARTESIAN_POINT('Ctrl Pts',(-5.73334053697327,4.,-8.56022665349117));
#1105=CARTESIAN_POINT('Ctrl Pts',(-6.57396384391824,0.,-7.56987483295364));
#1106=CARTESIAN_POINT('Ctrl Pts',(-6.57396384391824,4.,-7.56987483295364));
#1107=CARTESIAN_POINT('Ctrl Pts',(-7.03068470004184,0.,-7.1112216003017));
#1108=CARTESIAN_POINT('Ctrl Pts',(-7.03068470004184,4.,-7.1112216003017));
#1109=CARTESIAN_POINT('',(-7.03068470004184,0.,-7.1112216003017));
#1110=CARTESIAN_POINT('Ctrl Pts',(-7.03068470004184,0.,-7.1112216003017));
#1111=CARTESIAN_POINT('Ctrl Pts',(-7.48740555616545,0.,-6.65256836764976));
#1112=CARTESIAN_POINT('Ctrl Pts',(-8.47366567371491,0.,-5.80830725757955));
#1113=CARTESIAN_POINT('Ctrl Pts',(-10.1626063447773,0.,-4.7700645308434));
#1114=CARTESIAN_POINT('Ctrl Pts',(-12.7778746728133,0.,-3.85670532781965));
#1115=CARTESIAN_POINT('Ctrl Pts',(-16.4445941697883,0.,-3.46009015929684));
#1116=CARTESIAN_POINT('Ctrl Pts',(-20.263444494278,0.,-3.72125818083614));
#1117=CARTESIAN_POINT('Ctrl Pts',(-23.9834039071755,0.,-4.53576496626449));
#1118=CARTESIAN_POINT('Ctrl Pts',(-27.3769580718909,0.,-5.80850425993431));
#1119=CARTESIAN_POINT('Ctrl Pts',(-30.2766594314561,0.,-7.48920230909669));
#1120=CARTESIAN_POINT('Ctrl Pts',(-32.5754799397535,0.,-9.56332948134537));
#1121=CARTESIAN_POINT('Ctrl Pts',(-34.2114145862327,0.,-12.0234428708087));
#1122=CARTESIAN_POINT('Ctrl Pts',(-35.1575308644535,0.,-14.8466352080603));
#1123=CARTESIAN_POINT('Ctrl Pts',(-35.4102961251554,0.,-17.9696602624073));
#1124=CARTESIAN_POINT('Ctrl Pts',(-34.9786985410443,0.,-21.2637164735121));
#1125=CARTESIAN_POINT('Ctrl Pts',(-33.8878352993402,0.,-24.558192197742));
#1126=CARTESIAN_POINT('Ctrl Pts',(-32.1831096990002,0.,-27.6653877179341));
#1127=CARTESIAN_POINT('Ctrl Pts',(-29.9347031714943,0.,-30.4050868832702));
#1128=CARTESIAN_POINT('Ctrl Pts',(-27.2417288217472,0.,-32.6282906374116));
#1129=CARTESIAN_POINT('Ctrl Pts',(-24.2382553758554,0.,-34.2440633469938));
#1130=CARTESIAN_POINT('Ctrl Pts',(-21.0780200245089,0.,-35.2082427047406));
#1131=CARTESIAN_POINT('Ctrl Pts',(-17.9171269243931,0.,-35.5086528669111));
#1132=CARTESIAN_POINT('Ctrl Pts',(-14.8976459836015,0.,-35.1520514096328));
#1133=CARTESIAN_POINT('Ctrl Pts',(-12.1305761115414,0.,-34.1504779997925));
#1134=CARTESIAN_POINT('Ctrl Pts',(-9.67937466986512,0.,-32.5085636395615));
#1135=CARTESIAN_POINT('Ctrl Pts',(-7.57872431229344,0.,-30.2408800635795));
#1136=CARTESIAN_POINT('Ctrl Pts',(-5.85358690071634,0.,-27.3902002068262));
#1137=CARTESIAN_POINT('Ctrl Pts',(-4.53619280978819,0.,-24.0435954575411));
#1138=CARTESIAN_POINT('Ctrl Pts',(-3.68801427836614,0.,-20.3548893339122));
#1139=CARTESIAN_POINT('Ctrl Pts',(-3.40613570384019,0.,-16.5487094099051));
#1140=CARTESIAN_POINT('Ctrl Pts',(-3.79186956981406,0.,-12.8795554363852));
#1141=CARTESIAN_POINT('Ctrl Pts',(-4.69976551363072,0.,-10.2558775773299));
#1142=CARTESIAN_POINT('Ctrl Pts',(-5.73334053697327,0.,-8.56022665349117));
#1143=CARTESIAN_POINT('Ctrl Pts',(-6.57396384391824,0.,-7.56987483295364));
#1144=CARTESIAN_POINT('Ctrl Pts',(-7.03068470004184,0.,-7.1112216003017));
#1145=CARTESIAN_POINT('',(-7.03068470004184,4.,-7.1112216003017));
#1146=CARTESIAN_POINT('',(-7.03068470004184,0.,-7.1112216003017));
#1147=CARTESIAN_POINT('Ctrl Pts',(-7.03068470004184,4.,-7.1112216003017));
#1148=CARTESIAN_POINT('Ctrl Pts',(-7.48740555616545,4.,-6.65256836764976));
#1149=CARTESIAN_POINT('Ctrl Pts',(-8.47366567371491,4.,-5.80830725757955));
#1150=CARTESIAN_POINT('Ctrl Pts',(-10.1626063447773,4.,-4.7700645308434));
#1151=CARTESIAN_POINT('Ctrl Pts',(-12.7778746728133,4.,-3.85670532781965));
#1152=CARTESIAN_POINT('Ctrl Pts',(-16.4445941697883,4.,-3.46009015929684));
#1153=CARTESIAN_POINT('Ctrl Pts',(-20.263444494278,4.,-3.72125818083614));
#1154=CARTESIAN_POINT('Ctrl Pts',(-23.9834039071755,4.,-4.53576496626449));
#1155=CARTESIAN_POINT('Ctrl Pts',(-27.3769580718909,4.,-5.80850425993431));
#1156=CARTESIAN_POINT('Ctrl Pts',(-30.2766594314561,4.,-7.48920230909669));
#1157=CARTESIAN_POINT('Ctrl Pts',(-32.5754799397535,4.,-9.56332948134537));
#1158=CARTESIAN_POINT('Ctrl Pts',(-34.2114145862327,4.,-12.0234428708087));
#1159=CARTESIAN_POINT('Ctrl Pts',(-35.1575308644535,4.,-14.8466352080603));
#1160=CARTESIAN_POINT('Ctrl Pts',(-35.4102961251554,4.,-17.9696602624073));
#1161=CARTESIAN_POINT('Ctrl Pts',(-34.9786985410443,4.,-21.2637164735121));
#1162=CARTESIAN_POINT('Ctrl Pts',(-33.8878352993402,4.,-24.558192197742));
#1163=CARTESIAN_POINT('Ctrl Pts',(-32.1831096990002,4.,-27.6653877179341));
#1164=CARTESIAN_POINT('Ctrl Pts',(-29.9347031714943,4.,-30.4050868832702));
#1165=CARTESIAN_POINT('Ctrl Pts',(-27.2417288217472,4.,-32.6282906374116));
#1166=CARTESIAN_POINT('Ctrl Pts',(-24.2382553758554,4.,-34.2440633469938));
#1167=CARTESIAN_POINT('Ctrl Pts',(-21.0780200245089,4.,-35.2082427047406));
#1168=CARTESIAN_POINT('Ctrl Pts',(-17.9171269243931,4.,-35.5086528669111));
#1169=CARTESIAN_POINT('Ctrl Pts',(-14.8976459836015,4.,-35.1520514096328));
#1170=CARTESIAN_POINT('Ctrl Pts',(-12.1305761115414,4.,-34.1504779997925));
#1171=CARTESIAN_POINT('Ctrl Pts',(-9.67937466986512,4.,-32.5085636395615));
#1172=CARTESIAN_POINT('Ctrl Pts',(-7.57872431229344,4.,-30.2408800635795));
#1173=CARTESIAN_POINT('Ctrl Pts',(-5.85358690071634,4.,-27.3902002068262));
#1174=CARTESIAN_POINT('Ctrl Pts',(-4.53619280978819,4.,-24.0435954575411));
#1175=CARTESIAN_POINT('Ctrl Pts',(-3.68801427836614,4.,-20.3548893339122));
#1176=CARTESIAN_POINT('Ctrl Pts',(-3.40613570384019,4.,-16.5487094099051));
#1177=CARTESIAN_POINT('Ctrl Pts',(-3.79186956981406,4.,-12.8795554363852));
#1178=CARTESIAN_POINT('Ctrl Pts',(-4.69976551363072,4.,-10.2558775773299));
#1179=CARTESIAN_POINT('Ctrl Pts',(-5.73334053697327,4.,-8.56022665349117));
#1180=CARTESIAN_POINT('Ctrl Pts',(-6.57396384391824,4.,-7.56987483295364));
#1181=CARTESIAN_POINT('Ctrl Pts',(-7.03068470004184,4.,-7.1112216003017));
#1182=CARTESIAN_POINT('Origin',(0.,0.,0.));
#1183=CARTESIAN_POINT('',(-52.5,4.,6.66133814775094E-15));
#1184=CARTESIAN_POINT('Origin',(0.,4.,0.));
#1185=CARTESIAN_POINT('',(-52.5,0.,6.4293956955236E-15));
#1186=CARTESIAN_POINT('',(-52.5,0.,6.4293956955236E-15));
#1187=CARTESIAN_POINT('Origin',(0.,0.,0.));
#1188=CARTESIAN_POINT('Origin',(0.,4.,0.));
#1189=CARTESIAN_POINT('Origin',(0.,0.,0.));
#1190=UNCERTAINTY_MEASURE_WITH_UNIT(LENGTH_MEASURE(0.01),#1194,
'DISTANCE_ACCURACY_VALUE',
'Maximum model space distance between geometric entities at asserted c
onnectivities');
#1191=UNCERTAINTY_MEASURE_WITH_UNIT(LENGTH_MEASURE(0.01),#1194,
'DISTANCE_ACCURACY_VALUE',
'Maximum model space distance between geometric entities at asserted c
onnectivities');
#1192=(
GEOMETRIC_REPRESENTATION_CONTEXT(3)
GLOBAL_UNCERTAINTY_ASSIGNED_CONTEXT((#1190))
GLOBAL_UNIT_ASSIGNED_CONTEXT((#1194,#1196,#1197))
REPRESENTATION_CONTEXT('','3D')
);
#1193=(
GEOMETRIC_REPRESENTATION_CONTEXT(3)
GLOBAL_UNCERTAINTY_ASSIGNED_CONTEXT((#1191))
GLOBAL_UNIT_ASSIGNED_CONTEXT((#1194,#1196,#1197))
REPRESENTATION_CONTEXT('','3D')
);
#1194=(
LENGTH_UNIT()
NAMED_UNIT(*)
SI_UNIT(.MILLI.,.METRE.)
);
#1195=(
LENGTH_UNIT()
NAMED_UNIT(*)
SI_UNIT($,.METRE.)
);
#1196=(
NAMED_UNIT(*)
PLANE_ANGLE_UNIT()
SI_UNIT($,.RADIAN.)
);
#1197=(
NAMED_UNIT(*)
SI_UNIT($,.STERADIAN.)
SOLID_ANGLE_UNIT()
);
#1198=SHAPE_DEFINITION_REPRESENTATION(#1199,#1200);
#1199=PRODUCT_DEFINITION_SHAPE('',$,#1202);
#1200=SHAPE_REPRESENTATION('',(#426),#1192);
#1201=PRODUCT_DEFINITION_CONTEXT('part definition',#1206,'design');
#1202=PRODUCT_DEFINITION('2026-05-01-10-31-09-750','Wheel_v2',#1203,#1201);
#1203=PRODUCT_DEFINITION_FORMATION('',$,#1208);
#1204=PRODUCT_RELATED_PRODUCT_CATEGORY('Wheel_v2','Wheel_v2',(#1208));
#1205=APPLICATION_PROTOCOL_DEFINITION('international standard',
'automotive_design',2009,#1206);
#1206=APPLICATION_CONTEXT(
'Core Data for Automotive Mechanical Design Process');
#1207=PRODUCT_CONTEXT('part definition',#1206,'mechanical');
#1208=PRODUCT('2026-05-01-10-31-09-750','Wheel_v2',$,(#1207));
#1209=PRESENTATION_STYLE_ASSIGNMENT((#1210));
#1210=SURFACE_STYLE_USAGE(.BOTH.,#1211);
#1211=SURFACE_SIDE_STYLE('',(#1212));
#1212=SURFACE_STYLE_FILL_AREA(#1213);
#1213=FILL_AREA_STYLE('Steel - Satin',(#1214));
#1214=FILL_AREA_STYLE_COLOUR('Steel - Satin',#1215);
#1215=COLOUR_RGB('Steel - Satin',0.627450980392157,0.627450980392157,0.627450980392157);
ENDSEC;
END-ISO-10303-21;
